G04 EAGLE Gerber RS-274X export*
G75*
%MOMM*%
%FSLAX34Y34*%
%LPD*%
%INCopper Layer 2*%
%IPPOS*%
%AMOC8*
5,1,8,0,0,1.08239X$1,22.5*%
G01*
%ADD10C,0.355600*%
%ADD11C,0.152400*%
%ADD12C,1.500000*%
%ADD13C,1.950000*%
%ADD14C,1.219200*%
%ADD15C,4.500000*%
%ADD16C,0.600000*%

G36*
X510020Y2504D02*
X510020Y2504D01*
X510039Y2502D01*
X510141Y2524D01*
X510243Y2540D01*
X510260Y2550D01*
X510280Y2554D01*
X510369Y2607D01*
X510460Y2656D01*
X510474Y2670D01*
X510491Y2680D01*
X510558Y2759D01*
X510630Y2834D01*
X510638Y2852D01*
X510651Y2867D01*
X510690Y2963D01*
X510733Y3057D01*
X510735Y3077D01*
X510743Y3095D01*
X510761Y3262D01*
X510761Y394239D01*
X516738Y394239D01*
X516758Y394242D01*
X516777Y394240D01*
X516879Y394262D01*
X516981Y394279D01*
X516998Y394288D01*
X517018Y394292D01*
X517107Y394345D01*
X517198Y394394D01*
X517212Y394408D01*
X517229Y394418D01*
X517296Y394497D01*
X517368Y394572D01*
X517376Y394590D01*
X517389Y394605D01*
X517428Y394701D01*
X517471Y394795D01*
X517473Y394815D01*
X517481Y394833D01*
X517499Y395000D01*
X517499Y1349581D01*
X517488Y1349651D01*
X517486Y1349723D01*
X517468Y1349772D01*
X517460Y1349823D01*
X517426Y1349887D01*
X517401Y1349954D01*
X517369Y1349995D01*
X517344Y1350041D01*
X517292Y1350090D01*
X517248Y1350146D01*
X517204Y1350174D01*
X517166Y1350210D01*
X517101Y1350240D01*
X517041Y1350279D01*
X516990Y1350292D01*
X516943Y1350314D01*
X516872Y1350322D01*
X516802Y1350339D01*
X516750Y1350335D01*
X516699Y1350341D01*
X516628Y1350326D01*
X516557Y1350320D01*
X516509Y1350300D01*
X516458Y1350289D01*
X516397Y1350252D01*
X516331Y1350224D01*
X516275Y1350179D01*
X516247Y1350162D01*
X516232Y1350145D01*
X516200Y1350119D01*
X515656Y1349575D01*
X515643Y1349557D01*
X515614Y1349530D01*
X514825Y1348601D01*
X514790Y1348586D01*
X514728Y1348571D01*
X514677Y1348538D01*
X514621Y1348514D01*
X514602Y1348499D01*
X513385Y1348499D01*
X513363Y1348496D01*
X513324Y1348497D01*
X512109Y1348398D01*
X512073Y1348412D01*
X512019Y1348445D01*
X511960Y1348458D01*
X511904Y1348481D01*
X511880Y1348483D01*
X511019Y1349344D01*
X511001Y1349357D01*
X510974Y1349386D01*
X506967Y1352792D01*
X506915Y1352823D01*
X506886Y1352848D01*
X506861Y1352858D01*
X506805Y1352897D01*
X506779Y1352905D01*
X506756Y1352919D01*
X506661Y1352940D01*
X506569Y1352967D01*
X506542Y1352966D01*
X506516Y1352972D01*
X506419Y1352961D01*
X506323Y1352958D01*
X506298Y1352948D01*
X506271Y1352946D01*
X506184Y1352905D01*
X506093Y1352871D01*
X506072Y1352854D01*
X506048Y1352843D01*
X505978Y1352776D01*
X505903Y1352715D01*
X505888Y1352692D01*
X505869Y1352674D01*
X505823Y1352588D01*
X505772Y1352506D01*
X505766Y1352481D01*
X505753Y1352457D01*
X505737Y1352361D01*
X505715Y1352267D01*
X505717Y1352241D01*
X505713Y1352214D01*
X505721Y1352159D01*
X505721Y1352158D01*
X505723Y1352148D01*
X505724Y1352144D01*
X504860Y1349476D01*
X502441Y1348240D01*
X501149Y1348659D01*
X499561Y1349173D01*
X497078Y1351405D01*
X495719Y1354455D01*
X495719Y1357956D01*
X497551Y1361128D01*
X500723Y1362959D01*
X504011Y1362959D01*
X506350Y1361956D01*
X506361Y1361954D01*
X506375Y1361946D01*
X506689Y1361811D01*
X507547Y1360910D01*
X507569Y1360894D01*
X507605Y1360855D01*
X508689Y1359934D01*
X508724Y1359913D01*
X508754Y1359885D01*
X508829Y1359850D01*
X508900Y1359807D01*
X508940Y1359798D01*
X508977Y1359781D01*
X509059Y1359772D01*
X509140Y1359754D01*
X509181Y1359759D01*
X509221Y1359754D01*
X509302Y1359772D01*
X509384Y1359780D01*
X509422Y1359797D01*
X509462Y1359806D01*
X509533Y1359849D01*
X509608Y1359883D01*
X509638Y1359911D01*
X509673Y1359932D01*
X509727Y1359995D01*
X509787Y1360052D01*
X509806Y1360088D01*
X509833Y1360119D01*
X509864Y1360196D01*
X509903Y1360269D01*
X509909Y1360309D01*
X509925Y1360347D01*
X509942Y1360506D01*
X509943Y1360511D01*
X509943Y1360513D01*
X509943Y1360514D01*
X509943Y1361038D01*
X511864Y1362959D01*
X514580Y1362959D01*
X516200Y1361339D01*
X516258Y1361297D01*
X516310Y1361248D01*
X516357Y1361226D01*
X516399Y1361196D01*
X516468Y1361175D01*
X516533Y1361144D01*
X516585Y1361139D01*
X516635Y1361123D01*
X516706Y1361125D01*
X516777Y1361117D01*
X516828Y1361128D01*
X516880Y1361130D01*
X516948Y1361154D01*
X517018Y1361170D01*
X517063Y1361196D01*
X517111Y1361214D01*
X517167Y1361259D01*
X517229Y1361296D01*
X517263Y1361335D01*
X517303Y1361368D01*
X517342Y1361428D01*
X517389Y1361483D01*
X517408Y1361531D01*
X517436Y1361575D01*
X517454Y1361644D01*
X517481Y1361711D01*
X517489Y1361782D01*
X517497Y1361813D01*
X517495Y1361837D01*
X517499Y1361878D01*
X517499Y1496738D01*
X517496Y1496758D01*
X517498Y1496777D01*
X517476Y1496879D01*
X517460Y1496981D01*
X517450Y1496998D01*
X517446Y1497018D01*
X517393Y1497107D01*
X517344Y1497198D01*
X517330Y1497212D01*
X517320Y1497229D01*
X517241Y1497296D01*
X517166Y1497368D01*
X517148Y1497376D01*
X517133Y1497389D01*
X517037Y1497428D01*
X516943Y1497471D01*
X516923Y1497473D01*
X516905Y1497481D01*
X516738Y1497499D01*
X3262Y1497499D01*
X3242Y1497496D01*
X3223Y1497498D01*
X3121Y1497476D01*
X3019Y1497460D01*
X3002Y1497450D01*
X2982Y1497446D01*
X2893Y1497393D01*
X2802Y1497344D01*
X2788Y1497330D01*
X2771Y1497320D01*
X2704Y1497241D01*
X2632Y1497166D01*
X2624Y1497148D01*
X2611Y1497133D01*
X2572Y1497037D01*
X2529Y1496943D01*
X2527Y1496923D01*
X2519Y1496905D01*
X2501Y1496738D01*
X2501Y3262D01*
X2504Y3242D01*
X2502Y3223D01*
X2524Y3121D01*
X2540Y3019D01*
X2550Y3002D01*
X2554Y2982D01*
X2607Y2893D01*
X2656Y2802D01*
X2670Y2788D01*
X2680Y2771D01*
X2759Y2704D01*
X2834Y2632D01*
X2852Y2624D01*
X2867Y2611D01*
X2963Y2572D01*
X3057Y2529D01*
X3077Y2527D01*
X3095Y2519D01*
X3262Y2501D01*
X510000Y2501D01*
X510020Y2504D01*
G37*
G36*
X1187629Y1294250D02*
X1187629Y1294250D01*
X1187701Y1294252D01*
X1187750Y1294270D01*
X1187801Y1294279D01*
X1187865Y1294312D01*
X1187932Y1294337D01*
X1187973Y1294369D01*
X1188019Y1294394D01*
X1188068Y1294446D01*
X1188124Y1294490D01*
X1188152Y1294534D01*
X1188188Y1294572D01*
X1188218Y1294637D01*
X1188257Y1294697D01*
X1188270Y1294748D01*
X1188292Y1294795D01*
X1188299Y1294866D01*
X1188317Y1294936D01*
X1188313Y1294988D01*
X1188319Y1295039D01*
X1188303Y1295110D01*
X1188298Y1295181D01*
X1188277Y1295229D01*
X1188266Y1295280D01*
X1188230Y1295341D01*
X1188202Y1295407D01*
X1188157Y1295463D01*
X1188140Y1295491D01*
X1188122Y1295506D01*
X1188097Y1295538D01*
X1185499Y1298136D01*
X1185499Y1301864D01*
X1188136Y1304501D01*
X1191864Y1304501D01*
X1194501Y1301864D01*
X1194501Y1298136D01*
X1191903Y1295538D01*
X1191861Y1295480D01*
X1191812Y1295428D01*
X1191790Y1295381D01*
X1191760Y1295339D01*
X1191739Y1295270D01*
X1191708Y1295205D01*
X1191703Y1295153D01*
X1191687Y1295103D01*
X1191689Y1295032D01*
X1191681Y1294961D01*
X1191692Y1294910D01*
X1191694Y1294858D01*
X1191718Y1294790D01*
X1191734Y1294720D01*
X1191760Y1294676D01*
X1191778Y1294627D01*
X1191823Y1294571D01*
X1191860Y1294509D01*
X1191899Y1294475D01*
X1191932Y1294435D01*
X1191992Y1294396D01*
X1192047Y1294349D01*
X1192095Y1294330D01*
X1192139Y1294302D01*
X1192208Y1294284D01*
X1192275Y1294257D01*
X1192346Y1294249D01*
X1192377Y1294241D01*
X1192401Y1294243D01*
X1192442Y1294239D01*
X1207558Y1294239D01*
X1207629Y1294250D01*
X1207701Y1294252D01*
X1207750Y1294270D01*
X1207801Y1294279D01*
X1207865Y1294312D01*
X1207932Y1294337D01*
X1207973Y1294369D01*
X1208019Y1294394D01*
X1208068Y1294446D01*
X1208124Y1294490D01*
X1208152Y1294534D01*
X1208188Y1294572D01*
X1208218Y1294637D01*
X1208257Y1294697D01*
X1208270Y1294748D01*
X1208292Y1294795D01*
X1208299Y1294866D01*
X1208317Y1294936D01*
X1208313Y1294988D01*
X1208319Y1295039D01*
X1208303Y1295110D01*
X1208298Y1295181D01*
X1208277Y1295229D01*
X1208266Y1295280D01*
X1208230Y1295341D01*
X1208202Y1295407D01*
X1208157Y1295463D01*
X1208140Y1295491D01*
X1208122Y1295506D01*
X1208097Y1295538D01*
X1205499Y1298136D01*
X1205499Y1301864D01*
X1208136Y1304501D01*
X1211864Y1304501D01*
X1214501Y1301864D01*
X1214501Y1298136D01*
X1211903Y1295538D01*
X1211861Y1295480D01*
X1211812Y1295428D01*
X1211790Y1295381D01*
X1211760Y1295339D01*
X1211739Y1295270D01*
X1211708Y1295205D01*
X1211703Y1295153D01*
X1211687Y1295103D01*
X1211689Y1295032D01*
X1211681Y1294961D01*
X1211692Y1294910D01*
X1211694Y1294858D01*
X1211718Y1294790D01*
X1211734Y1294720D01*
X1211760Y1294676D01*
X1211778Y1294627D01*
X1211823Y1294571D01*
X1211860Y1294509D01*
X1211899Y1294475D01*
X1211932Y1294435D01*
X1211992Y1294396D01*
X1212047Y1294349D01*
X1212095Y1294330D01*
X1212139Y1294302D01*
X1212208Y1294284D01*
X1212275Y1294257D01*
X1212346Y1294249D01*
X1212377Y1294241D01*
X1212401Y1294243D01*
X1212442Y1294239D01*
X1232558Y1294239D01*
X1232629Y1294250D01*
X1232701Y1294252D01*
X1232750Y1294270D01*
X1232801Y1294279D01*
X1232865Y1294312D01*
X1232932Y1294337D01*
X1232973Y1294369D01*
X1233019Y1294394D01*
X1233068Y1294446D01*
X1233124Y1294490D01*
X1233152Y1294534D01*
X1233188Y1294572D01*
X1233218Y1294637D01*
X1233257Y1294697D01*
X1233270Y1294748D01*
X1233292Y1294795D01*
X1233299Y1294866D01*
X1233317Y1294936D01*
X1233313Y1294988D01*
X1233319Y1295039D01*
X1233303Y1295110D01*
X1233298Y1295181D01*
X1233277Y1295229D01*
X1233266Y1295280D01*
X1233230Y1295341D01*
X1233202Y1295407D01*
X1233157Y1295463D01*
X1233140Y1295491D01*
X1233122Y1295506D01*
X1233097Y1295538D01*
X1230499Y1298136D01*
X1230499Y1301864D01*
X1233136Y1304501D01*
X1236864Y1304501D01*
X1239501Y1301864D01*
X1239501Y1298136D01*
X1236903Y1295538D01*
X1236861Y1295480D01*
X1236812Y1295428D01*
X1236790Y1295381D01*
X1236760Y1295339D01*
X1236739Y1295270D01*
X1236708Y1295205D01*
X1236703Y1295153D01*
X1236687Y1295103D01*
X1236689Y1295032D01*
X1236681Y1294961D01*
X1236692Y1294910D01*
X1236694Y1294858D01*
X1236718Y1294790D01*
X1236734Y1294720D01*
X1236760Y1294676D01*
X1236778Y1294627D01*
X1236823Y1294571D01*
X1236860Y1294509D01*
X1236899Y1294475D01*
X1236932Y1294435D01*
X1236992Y1294396D01*
X1237047Y1294349D01*
X1237095Y1294330D01*
X1237139Y1294302D01*
X1237208Y1294284D01*
X1237275Y1294257D01*
X1237346Y1294249D01*
X1237377Y1294241D01*
X1237401Y1294243D01*
X1237442Y1294239D01*
X1496738Y1294239D01*
X1496760Y1294242D01*
X1496782Y1294240D01*
X1496881Y1294262D01*
X1496981Y1294279D01*
X1497001Y1294289D01*
X1497022Y1294294D01*
X1497109Y1294346D01*
X1497198Y1294394D01*
X1497214Y1294410D01*
X1497233Y1294422D01*
X1497298Y1294499D01*
X1497367Y1294572D01*
X1497377Y1294592D01*
X1497391Y1294610D01*
X1497429Y1294704D01*
X1497471Y1294795D01*
X1497474Y1294817D01*
X1497482Y1294838D01*
X1497499Y1295005D01*
X1497491Y1296234D01*
X1497493Y1296240D01*
X1497492Y1296272D01*
X1497499Y1296338D01*
X1497499Y1496738D01*
X1497496Y1496755D01*
X1497498Y1496771D01*
X1497498Y1496773D01*
X1497498Y1496777D01*
X1497476Y1496879D01*
X1497460Y1496981D01*
X1497450Y1496998D01*
X1497446Y1497018D01*
X1497393Y1497107D01*
X1497344Y1497198D01*
X1497330Y1497212D01*
X1497320Y1497229D01*
X1497241Y1497296D01*
X1497166Y1497368D01*
X1497148Y1497376D01*
X1497133Y1497389D01*
X1497037Y1497428D01*
X1496943Y1497471D01*
X1496923Y1497473D01*
X1496905Y1497481D01*
X1496738Y1497499D01*
X963262Y1497499D01*
X963242Y1497496D01*
X963223Y1497498D01*
X963121Y1497476D01*
X963019Y1497460D01*
X963002Y1497450D01*
X962982Y1497446D01*
X962893Y1497393D01*
X962802Y1497344D01*
X962788Y1497330D01*
X962771Y1497320D01*
X962704Y1497241D01*
X962632Y1497166D01*
X962624Y1497148D01*
X962611Y1497133D01*
X962572Y1497037D01*
X962529Y1496943D01*
X962527Y1496923D01*
X962519Y1496905D01*
X962501Y1496738D01*
X962501Y1295000D01*
X962504Y1294980D01*
X962502Y1294961D01*
X962524Y1294859D01*
X962540Y1294757D01*
X962550Y1294740D01*
X962554Y1294720D01*
X962607Y1294631D01*
X962656Y1294540D01*
X962670Y1294526D01*
X962680Y1294509D01*
X962759Y1294442D01*
X962834Y1294371D01*
X962852Y1294362D01*
X962867Y1294349D01*
X962963Y1294310D01*
X963057Y1294267D01*
X963077Y1294265D01*
X963095Y1294257D01*
X963262Y1294239D01*
X1187558Y1294239D01*
X1187629Y1294250D01*
G37*
%LPC*%
G36*
X451126Y40499D02*
X451126Y40499D01*
X442305Y44153D01*
X435553Y50905D01*
X431899Y59726D01*
X431899Y69274D01*
X435553Y78095D01*
X442305Y84847D01*
X451126Y88501D01*
X460674Y88501D01*
X469495Y84847D01*
X476247Y78095D01*
X479901Y69274D01*
X479901Y59726D01*
X476247Y50905D01*
X469495Y44153D01*
X460674Y40499D01*
X451126Y40499D01*
G37*
%LPD*%
%LPC*%
G36*
X1015226Y1415999D02*
X1015226Y1415999D01*
X1006405Y1419653D01*
X999653Y1426405D01*
X995999Y1435226D01*
X995999Y1444774D01*
X999653Y1453595D01*
X1006405Y1460347D01*
X1015226Y1464001D01*
X1024774Y1464001D01*
X1033595Y1460347D01*
X1040347Y1453595D01*
X1044001Y1444774D01*
X1044001Y1435226D01*
X1040347Y1426405D01*
X1033595Y1419653D01*
X1024774Y1415999D01*
X1015226Y1415999D01*
G37*
%LPD*%
%LPC*%
G36*
X58326Y370499D02*
X58326Y370499D01*
X49505Y374153D01*
X42753Y380905D01*
X39099Y389726D01*
X39099Y399274D01*
X42753Y408095D01*
X49505Y414847D01*
X58326Y418501D01*
X67874Y418501D01*
X76695Y414847D01*
X83447Y408095D01*
X87101Y399274D01*
X87101Y389726D01*
X83447Y380905D01*
X76695Y374153D01*
X67874Y370499D01*
X58326Y370499D01*
G37*
%LPD*%
%LPC*%
G36*
X1435226Y1415999D02*
X1435226Y1415999D01*
X1426405Y1419653D01*
X1419653Y1426405D01*
X1415999Y1435226D01*
X1415999Y1444774D01*
X1419653Y1453595D01*
X1426405Y1460347D01*
X1435226Y1464001D01*
X1444774Y1464001D01*
X1453595Y1460347D01*
X1460347Y1453595D01*
X1464001Y1444774D01*
X1464001Y1435226D01*
X1460347Y1426405D01*
X1453595Y1419653D01*
X1444774Y1415999D01*
X1435226Y1415999D01*
G37*
%LPD*%
%LPC*%
G36*
X440226Y1405999D02*
X440226Y1405999D01*
X431405Y1409653D01*
X424653Y1416405D01*
X420999Y1425226D01*
X420999Y1434774D01*
X424653Y1443595D01*
X431405Y1450347D01*
X440226Y1454001D01*
X449774Y1454001D01*
X458595Y1450347D01*
X465347Y1443595D01*
X469001Y1434774D01*
X469001Y1425226D01*
X465347Y1416405D01*
X458595Y1409653D01*
X449774Y1405999D01*
X440226Y1405999D01*
G37*
%LPD*%
%LPC*%
G36*
X60226Y1210999D02*
X60226Y1210999D01*
X51405Y1214653D01*
X44653Y1221405D01*
X40999Y1230226D01*
X40999Y1239774D01*
X44653Y1248595D01*
X51405Y1255347D01*
X60226Y1259001D01*
X69774Y1259001D01*
X78595Y1255347D01*
X85347Y1248595D01*
X89001Y1239774D01*
X89001Y1230226D01*
X85347Y1221405D01*
X78595Y1214653D01*
X69774Y1210999D01*
X60226Y1210999D01*
G37*
%LPD*%
%LPC*%
G36*
X288136Y1350499D02*
X288136Y1350499D01*
X285499Y1353136D01*
X285499Y1356864D01*
X288136Y1359501D01*
X291864Y1359501D01*
X294462Y1356903D01*
X294478Y1356892D01*
X294490Y1356876D01*
X294578Y1356820D01*
X294661Y1356760D01*
X294680Y1356754D01*
X294697Y1356743D01*
X294798Y1356718D01*
X294897Y1356687D01*
X294916Y1356688D01*
X294936Y1356683D01*
X295039Y1356691D01*
X295142Y1356694D01*
X295161Y1356701D01*
X295181Y1356702D01*
X295276Y1356743D01*
X295373Y1356778D01*
X295389Y1356791D01*
X295407Y1356798D01*
X295538Y1356903D01*
X298136Y1359501D01*
X301864Y1359501D01*
X304462Y1356903D01*
X304478Y1356892D01*
X304490Y1356876D01*
X304578Y1356820D01*
X304661Y1356760D01*
X304680Y1356754D01*
X304697Y1356743D01*
X304798Y1356718D01*
X304897Y1356687D01*
X304916Y1356688D01*
X304936Y1356683D01*
X305039Y1356691D01*
X305142Y1356694D01*
X305161Y1356701D01*
X305181Y1356702D01*
X305276Y1356743D01*
X305373Y1356778D01*
X305389Y1356791D01*
X305407Y1356798D01*
X305538Y1356903D01*
X308136Y1359501D01*
X311864Y1359501D01*
X314462Y1356903D01*
X314478Y1356892D01*
X314490Y1356876D01*
X314578Y1356820D01*
X314661Y1356760D01*
X314680Y1356754D01*
X314697Y1356743D01*
X314798Y1356718D01*
X314897Y1356687D01*
X314916Y1356688D01*
X314936Y1356683D01*
X315039Y1356691D01*
X315142Y1356694D01*
X315161Y1356701D01*
X315181Y1356702D01*
X315276Y1356743D01*
X315373Y1356778D01*
X315389Y1356791D01*
X315407Y1356798D01*
X315538Y1356903D01*
X318136Y1359501D01*
X321864Y1359501D01*
X324462Y1356903D01*
X324478Y1356892D01*
X324490Y1356876D01*
X324578Y1356820D01*
X324661Y1356760D01*
X324680Y1356754D01*
X324697Y1356743D01*
X324798Y1356718D01*
X324897Y1356687D01*
X324916Y1356688D01*
X324936Y1356683D01*
X325039Y1356691D01*
X325142Y1356694D01*
X325161Y1356701D01*
X325181Y1356702D01*
X325276Y1356743D01*
X325373Y1356778D01*
X325389Y1356791D01*
X325407Y1356798D01*
X325538Y1356903D01*
X328136Y1359501D01*
X331864Y1359501D01*
X334462Y1356903D01*
X334478Y1356892D01*
X334490Y1356876D01*
X334578Y1356820D01*
X334661Y1356760D01*
X334680Y1356754D01*
X334697Y1356743D01*
X334798Y1356718D01*
X334897Y1356687D01*
X334916Y1356688D01*
X334936Y1356683D01*
X335039Y1356691D01*
X335142Y1356694D01*
X335161Y1356701D01*
X335181Y1356702D01*
X335276Y1356743D01*
X335373Y1356778D01*
X335389Y1356791D01*
X335407Y1356798D01*
X335538Y1356903D01*
X338136Y1359501D01*
X341864Y1359501D01*
X344462Y1356903D01*
X344478Y1356892D01*
X344490Y1356876D01*
X344578Y1356820D01*
X344661Y1356760D01*
X344680Y1356754D01*
X344697Y1356743D01*
X344798Y1356718D01*
X344897Y1356687D01*
X344916Y1356688D01*
X344936Y1356683D01*
X345039Y1356691D01*
X345142Y1356694D01*
X345161Y1356701D01*
X345181Y1356702D01*
X345276Y1356743D01*
X345373Y1356778D01*
X345389Y1356791D01*
X345407Y1356798D01*
X345538Y1356903D01*
X348136Y1359501D01*
X351864Y1359501D01*
X354462Y1356903D01*
X354478Y1356892D01*
X354490Y1356876D01*
X354578Y1356820D01*
X354661Y1356760D01*
X354680Y1356754D01*
X354697Y1356743D01*
X354798Y1356718D01*
X354897Y1356687D01*
X354916Y1356688D01*
X354936Y1356683D01*
X355039Y1356691D01*
X355142Y1356694D01*
X355161Y1356701D01*
X355181Y1356702D01*
X355276Y1356743D01*
X355373Y1356778D01*
X355389Y1356791D01*
X355407Y1356798D01*
X355538Y1356903D01*
X358136Y1359501D01*
X361864Y1359501D01*
X364462Y1356903D01*
X364478Y1356892D01*
X364490Y1356876D01*
X364578Y1356820D01*
X364661Y1356760D01*
X364680Y1356754D01*
X364697Y1356743D01*
X364798Y1356718D01*
X364897Y1356687D01*
X364916Y1356688D01*
X364936Y1356683D01*
X365039Y1356691D01*
X365142Y1356694D01*
X365161Y1356701D01*
X365181Y1356702D01*
X365276Y1356742D01*
X365373Y1356778D01*
X365389Y1356791D01*
X365407Y1356798D01*
X365538Y1356903D01*
X368097Y1359462D01*
X368108Y1359478D01*
X368124Y1359490D01*
X368180Y1359578D01*
X368240Y1359661D01*
X368246Y1359680D01*
X368257Y1359697D01*
X368282Y1359798D01*
X368313Y1359897D01*
X368312Y1359916D01*
X368317Y1359936D01*
X368309Y1360039D01*
X368306Y1360142D01*
X368299Y1360161D01*
X368298Y1360181D01*
X368258Y1360276D01*
X368222Y1360373D01*
X368209Y1360389D01*
X368202Y1360407D01*
X368097Y1360538D01*
X365499Y1363136D01*
X365499Y1366864D01*
X368097Y1369462D01*
X368108Y1369478D01*
X368124Y1369490D01*
X368180Y1369578D01*
X368240Y1369661D01*
X368246Y1369680D01*
X368257Y1369697D01*
X368282Y1369798D01*
X368313Y1369897D01*
X368312Y1369916D01*
X368317Y1369936D01*
X368309Y1370039D01*
X368306Y1370142D01*
X368299Y1370161D01*
X368298Y1370181D01*
X368257Y1370276D01*
X368222Y1370373D01*
X368209Y1370389D01*
X368202Y1370407D01*
X368097Y1370538D01*
X365499Y1373136D01*
X365499Y1376864D01*
X368097Y1379462D01*
X368108Y1379478D01*
X368124Y1379490D01*
X368180Y1379578D01*
X368240Y1379661D01*
X368246Y1379680D01*
X368257Y1379697D01*
X368282Y1379798D01*
X368313Y1379897D01*
X368312Y1379916D01*
X368317Y1379936D01*
X368309Y1380039D01*
X368306Y1380142D01*
X368299Y1380161D01*
X368298Y1380181D01*
X368257Y1380276D01*
X368222Y1380373D01*
X368209Y1380389D01*
X368202Y1380407D01*
X368097Y1380538D01*
X365499Y1383136D01*
X365499Y1386864D01*
X368097Y1389462D01*
X368108Y1389478D01*
X368124Y1389490D01*
X368180Y1389578D01*
X368240Y1389661D01*
X368246Y1389680D01*
X368257Y1389697D01*
X368282Y1389798D01*
X368313Y1389897D01*
X368312Y1389916D01*
X368317Y1389936D01*
X368309Y1390039D01*
X368306Y1390142D01*
X368299Y1390161D01*
X368298Y1390181D01*
X368257Y1390276D01*
X368222Y1390373D01*
X368209Y1390389D01*
X368202Y1390407D01*
X368097Y1390538D01*
X365499Y1393136D01*
X365499Y1396864D01*
X368097Y1399462D01*
X368108Y1399478D01*
X368124Y1399490D01*
X368180Y1399578D01*
X368240Y1399661D01*
X368246Y1399680D01*
X368257Y1399697D01*
X368282Y1399798D01*
X368313Y1399897D01*
X368312Y1399916D01*
X368317Y1399936D01*
X368309Y1400039D01*
X368306Y1400142D01*
X368299Y1400161D01*
X368298Y1400181D01*
X368257Y1400276D01*
X368222Y1400373D01*
X368209Y1400389D01*
X368202Y1400407D01*
X368097Y1400538D01*
X365499Y1403136D01*
X365499Y1406864D01*
X368097Y1409462D01*
X368108Y1409478D01*
X368124Y1409490D01*
X368180Y1409578D01*
X368240Y1409661D01*
X368246Y1409680D01*
X368257Y1409697D01*
X368282Y1409798D01*
X368313Y1409897D01*
X368312Y1409916D01*
X368317Y1409936D01*
X368309Y1410039D01*
X368306Y1410142D01*
X368299Y1410161D01*
X368298Y1410181D01*
X368257Y1410276D01*
X368222Y1410373D01*
X368209Y1410389D01*
X368202Y1410407D01*
X368097Y1410538D01*
X365499Y1413136D01*
X365499Y1416864D01*
X368097Y1419462D01*
X368108Y1419478D01*
X368124Y1419490D01*
X368180Y1419578D01*
X368240Y1419661D01*
X368246Y1419680D01*
X368257Y1419697D01*
X368282Y1419798D01*
X368313Y1419897D01*
X368312Y1419916D01*
X368317Y1419936D01*
X368309Y1420039D01*
X368306Y1420142D01*
X368299Y1420161D01*
X368298Y1420181D01*
X368257Y1420276D01*
X368222Y1420373D01*
X368209Y1420389D01*
X368202Y1420407D01*
X368097Y1420538D01*
X365499Y1423136D01*
X365499Y1426864D01*
X368097Y1429462D01*
X368108Y1429478D01*
X368124Y1429490D01*
X368180Y1429578D01*
X368240Y1429661D01*
X368246Y1429680D01*
X368257Y1429697D01*
X368282Y1429798D01*
X368313Y1429897D01*
X368312Y1429916D01*
X368317Y1429936D01*
X368309Y1430039D01*
X368306Y1430142D01*
X368299Y1430161D01*
X368298Y1430181D01*
X368257Y1430276D01*
X368222Y1430373D01*
X368209Y1430389D01*
X368202Y1430407D01*
X368097Y1430538D01*
X365538Y1433097D01*
X365522Y1433108D01*
X365510Y1433124D01*
X365422Y1433180D01*
X365339Y1433240D01*
X365320Y1433246D01*
X365303Y1433257D01*
X365202Y1433282D01*
X365103Y1433313D01*
X365084Y1433312D01*
X365064Y1433317D01*
X364961Y1433309D01*
X364858Y1433306D01*
X364839Y1433299D01*
X364819Y1433298D01*
X364724Y1433257D01*
X364627Y1433222D01*
X364611Y1433209D01*
X364593Y1433202D01*
X364462Y1433097D01*
X361864Y1430499D01*
X358136Y1430499D01*
X355538Y1433097D01*
X355522Y1433108D01*
X355510Y1433124D01*
X355422Y1433180D01*
X355339Y1433240D01*
X355320Y1433246D01*
X355303Y1433257D01*
X355202Y1433282D01*
X355103Y1433313D01*
X355084Y1433312D01*
X355064Y1433317D01*
X354961Y1433309D01*
X354858Y1433306D01*
X354839Y1433299D01*
X354819Y1433298D01*
X354724Y1433257D01*
X354627Y1433222D01*
X354611Y1433209D01*
X354593Y1433202D01*
X354462Y1433097D01*
X351864Y1430499D01*
X348136Y1430499D01*
X345538Y1433097D01*
X345522Y1433108D01*
X345510Y1433124D01*
X345422Y1433180D01*
X345339Y1433240D01*
X345320Y1433246D01*
X345303Y1433257D01*
X345202Y1433282D01*
X345103Y1433313D01*
X345084Y1433312D01*
X345064Y1433317D01*
X344961Y1433309D01*
X344858Y1433306D01*
X344839Y1433299D01*
X344819Y1433298D01*
X344724Y1433257D01*
X344627Y1433222D01*
X344611Y1433209D01*
X344593Y1433202D01*
X344462Y1433097D01*
X341864Y1430499D01*
X338136Y1430499D01*
X335538Y1433097D01*
X335522Y1433108D01*
X335510Y1433124D01*
X335422Y1433180D01*
X335339Y1433240D01*
X335320Y1433246D01*
X335303Y1433257D01*
X335202Y1433282D01*
X335103Y1433313D01*
X335084Y1433312D01*
X335064Y1433317D01*
X334961Y1433309D01*
X334858Y1433306D01*
X334839Y1433299D01*
X334819Y1433298D01*
X334724Y1433257D01*
X334627Y1433222D01*
X334611Y1433209D01*
X334593Y1433202D01*
X334462Y1433097D01*
X331864Y1430499D01*
X328136Y1430499D01*
X325538Y1433097D01*
X325522Y1433108D01*
X325510Y1433124D01*
X325422Y1433180D01*
X325339Y1433240D01*
X325320Y1433246D01*
X325303Y1433257D01*
X325202Y1433282D01*
X325103Y1433313D01*
X325084Y1433312D01*
X325064Y1433317D01*
X324961Y1433309D01*
X324858Y1433306D01*
X324839Y1433299D01*
X324819Y1433298D01*
X324724Y1433257D01*
X324627Y1433222D01*
X324611Y1433209D01*
X324593Y1433202D01*
X324462Y1433097D01*
X321864Y1430499D01*
X318136Y1430499D01*
X315538Y1433097D01*
X315522Y1433108D01*
X315510Y1433124D01*
X315422Y1433180D01*
X315339Y1433240D01*
X315320Y1433246D01*
X315303Y1433257D01*
X315202Y1433282D01*
X315103Y1433313D01*
X315084Y1433312D01*
X315064Y1433317D01*
X314961Y1433309D01*
X314858Y1433306D01*
X314839Y1433299D01*
X314819Y1433298D01*
X314724Y1433257D01*
X314627Y1433222D01*
X314611Y1433209D01*
X314593Y1433202D01*
X314462Y1433097D01*
X311864Y1430499D01*
X308136Y1430499D01*
X305538Y1433097D01*
X305522Y1433108D01*
X305510Y1433124D01*
X305422Y1433180D01*
X305339Y1433240D01*
X305320Y1433246D01*
X305303Y1433257D01*
X305202Y1433282D01*
X305103Y1433313D01*
X305084Y1433312D01*
X305064Y1433317D01*
X304961Y1433309D01*
X304858Y1433306D01*
X304839Y1433299D01*
X304819Y1433298D01*
X304724Y1433257D01*
X304627Y1433222D01*
X304611Y1433209D01*
X304593Y1433202D01*
X304462Y1433097D01*
X301864Y1430499D01*
X298136Y1430499D01*
X295538Y1433097D01*
X295522Y1433108D01*
X295510Y1433124D01*
X295422Y1433180D01*
X295339Y1433240D01*
X295320Y1433246D01*
X295303Y1433257D01*
X295202Y1433282D01*
X295103Y1433313D01*
X295084Y1433312D01*
X295064Y1433317D01*
X294961Y1433309D01*
X294858Y1433306D01*
X294839Y1433299D01*
X294819Y1433298D01*
X294724Y1433257D01*
X294627Y1433222D01*
X294611Y1433209D01*
X294593Y1433202D01*
X294462Y1433097D01*
X291864Y1430499D01*
X288136Y1430499D01*
X285499Y1433136D01*
X285499Y1436864D01*
X288136Y1439501D01*
X291864Y1439501D01*
X294462Y1436903D01*
X294478Y1436892D01*
X294490Y1436876D01*
X294561Y1436831D01*
X294590Y1436806D01*
X294606Y1436800D01*
X294661Y1436760D01*
X294680Y1436754D01*
X294697Y1436743D01*
X294798Y1436718D01*
X294897Y1436687D01*
X294916Y1436688D01*
X294936Y1436683D01*
X295039Y1436691D01*
X295142Y1436694D01*
X295161Y1436701D01*
X295181Y1436702D01*
X295276Y1436743D01*
X295373Y1436778D01*
X295389Y1436791D01*
X295407Y1436798D01*
X295466Y1436846D01*
X295476Y1436851D01*
X295486Y1436861D01*
X295538Y1436903D01*
X298136Y1439501D01*
X301864Y1439501D01*
X304462Y1436903D01*
X304478Y1436892D01*
X304490Y1436876D01*
X304561Y1436831D01*
X304590Y1436806D01*
X304606Y1436800D01*
X304661Y1436760D01*
X304680Y1436754D01*
X304697Y1436743D01*
X304798Y1436718D01*
X304897Y1436687D01*
X304916Y1436688D01*
X304936Y1436683D01*
X305039Y1436691D01*
X305142Y1436694D01*
X305161Y1436701D01*
X305181Y1436702D01*
X305276Y1436743D01*
X305373Y1436778D01*
X305389Y1436791D01*
X305407Y1436798D01*
X305466Y1436846D01*
X305476Y1436851D01*
X305486Y1436861D01*
X305538Y1436903D01*
X308136Y1439501D01*
X311864Y1439501D01*
X314462Y1436903D01*
X314478Y1436892D01*
X314490Y1436876D01*
X314561Y1436831D01*
X314590Y1436806D01*
X314606Y1436800D01*
X314661Y1436760D01*
X314680Y1436754D01*
X314697Y1436743D01*
X314798Y1436718D01*
X314897Y1436687D01*
X314916Y1436688D01*
X314936Y1436683D01*
X315039Y1436691D01*
X315142Y1436694D01*
X315161Y1436701D01*
X315181Y1436702D01*
X315276Y1436743D01*
X315373Y1436778D01*
X315389Y1436791D01*
X315407Y1436798D01*
X315466Y1436846D01*
X315476Y1436851D01*
X315486Y1436861D01*
X315538Y1436903D01*
X318136Y1439501D01*
X321864Y1439501D01*
X324462Y1436903D01*
X324478Y1436892D01*
X324490Y1436876D01*
X324561Y1436831D01*
X324590Y1436806D01*
X324606Y1436800D01*
X324661Y1436760D01*
X324680Y1436754D01*
X324697Y1436743D01*
X324798Y1436718D01*
X324897Y1436687D01*
X324916Y1436688D01*
X324936Y1436683D01*
X325039Y1436691D01*
X325142Y1436694D01*
X325161Y1436701D01*
X325181Y1436702D01*
X325276Y1436743D01*
X325373Y1436778D01*
X325389Y1436791D01*
X325407Y1436798D01*
X325466Y1436846D01*
X325476Y1436851D01*
X325486Y1436861D01*
X325538Y1436903D01*
X328136Y1439501D01*
X331864Y1439501D01*
X334462Y1436903D01*
X334478Y1436892D01*
X334490Y1436876D01*
X334561Y1436831D01*
X334590Y1436806D01*
X334606Y1436800D01*
X334661Y1436760D01*
X334680Y1436754D01*
X334697Y1436743D01*
X334798Y1436718D01*
X334897Y1436687D01*
X334916Y1436688D01*
X334936Y1436683D01*
X335039Y1436691D01*
X335142Y1436694D01*
X335161Y1436701D01*
X335181Y1436702D01*
X335276Y1436743D01*
X335373Y1436778D01*
X335389Y1436791D01*
X335407Y1436798D01*
X335466Y1436846D01*
X335476Y1436851D01*
X335486Y1436861D01*
X335538Y1436903D01*
X338136Y1439501D01*
X341864Y1439501D01*
X344462Y1436903D01*
X344478Y1436892D01*
X344490Y1436876D01*
X344561Y1436831D01*
X344590Y1436806D01*
X344606Y1436800D01*
X344661Y1436760D01*
X344680Y1436754D01*
X344697Y1436743D01*
X344798Y1436718D01*
X344897Y1436687D01*
X344916Y1436688D01*
X344936Y1436683D01*
X345039Y1436691D01*
X345142Y1436694D01*
X345161Y1436701D01*
X345181Y1436702D01*
X345276Y1436743D01*
X345373Y1436778D01*
X345389Y1436791D01*
X345407Y1436798D01*
X345466Y1436846D01*
X345476Y1436851D01*
X345486Y1436861D01*
X345538Y1436903D01*
X348136Y1439501D01*
X351864Y1439501D01*
X354462Y1436903D01*
X354478Y1436892D01*
X354490Y1436876D01*
X354561Y1436831D01*
X354590Y1436806D01*
X354606Y1436800D01*
X354661Y1436760D01*
X354680Y1436754D01*
X354697Y1436743D01*
X354798Y1436718D01*
X354897Y1436687D01*
X354916Y1436688D01*
X354936Y1436683D01*
X355039Y1436691D01*
X355142Y1436694D01*
X355161Y1436701D01*
X355181Y1436702D01*
X355276Y1436743D01*
X355373Y1436778D01*
X355389Y1436791D01*
X355407Y1436798D01*
X355466Y1436846D01*
X355476Y1436851D01*
X355486Y1436861D01*
X355538Y1436903D01*
X358136Y1439501D01*
X361864Y1439501D01*
X364462Y1436903D01*
X364478Y1436892D01*
X364490Y1436876D01*
X364561Y1436831D01*
X364590Y1436806D01*
X364606Y1436800D01*
X364661Y1436760D01*
X364680Y1436754D01*
X364697Y1436743D01*
X364798Y1436718D01*
X364897Y1436687D01*
X364916Y1436688D01*
X364936Y1436683D01*
X365039Y1436691D01*
X365142Y1436694D01*
X365161Y1436701D01*
X365181Y1436702D01*
X365276Y1436743D01*
X365373Y1436778D01*
X365389Y1436791D01*
X365407Y1436798D01*
X365466Y1436846D01*
X365476Y1436851D01*
X365486Y1436861D01*
X365538Y1436903D01*
X368136Y1439501D01*
X371864Y1439501D01*
X374501Y1436864D01*
X374501Y1433136D01*
X371903Y1430538D01*
X371892Y1430522D01*
X371876Y1430510D01*
X371820Y1430422D01*
X371760Y1430339D01*
X371754Y1430320D01*
X371743Y1430303D01*
X371718Y1430202D01*
X371687Y1430103D01*
X371688Y1430084D01*
X371683Y1430064D01*
X371691Y1429961D01*
X371694Y1429858D01*
X371701Y1429839D01*
X371702Y1429819D01*
X371743Y1429724D01*
X371778Y1429627D01*
X371791Y1429611D01*
X371798Y1429593D01*
X371903Y1429462D01*
X374501Y1426864D01*
X374501Y1423136D01*
X371903Y1420538D01*
X371892Y1420522D01*
X371876Y1420510D01*
X371820Y1420422D01*
X371760Y1420339D01*
X371754Y1420320D01*
X371743Y1420303D01*
X371718Y1420202D01*
X371687Y1420103D01*
X371688Y1420084D01*
X371683Y1420064D01*
X371691Y1419961D01*
X371694Y1419858D01*
X371701Y1419839D01*
X371702Y1419819D01*
X371743Y1419724D01*
X371778Y1419627D01*
X371791Y1419611D01*
X371798Y1419593D01*
X371903Y1419462D01*
X374501Y1416864D01*
X374501Y1413136D01*
X371903Y1410538D01*
X371892Y1410522D01*
X371876Y1410510D01*
X371820Y1410422D01*
X371760Y1410339D01*
X371754Y1410320D01*
X371743Y1410303D01*
X371718Y1410202D01*
X371687Y1410103D01*
X371688Y1410084D01*
X371683Y1410064D01*
X371691Y1409961D01*
X371694Y1409858D01*
X371701Y1409839D01*
X371702Y1409819D01*
X371743Y1409724D01*
X371778Y1409627D01*
X371791Y1409611D01*
X371798Y1409593D01*
X371903Y1409462D01*
X374501Y1406864D01*
X374501Y1403136D01*
X371903Y1400538D01*
X371892Y1400522D01*
X371876Y1400510D01*
X371820Y1400422D01*
X371760Y1400339D01*
X371754Y1400320D01*
X371743Y1400303D01*
X371718Y1400202D01*
X371687Y1400103D01*
X371688Y1400084D01*
X371683Y1400064D01*
X371691Y1399961D01*
X371694Y1399858D01*
X371701Y1399839D01*
X371702Y1399819D01*
X371743Y1399724D01*
X371778Y1399627D01*
X371791Y1399611D01*
X371798Y1399593D01*
X371903Y1399462D01*
X374501Y1396864D01*
X374501Y1393136D01*
X371903Y1390538D01*
X371892Y1390522D01*
X371876Y1390510D01*
X371820Y1390422D01*
X371760Y1390339D01*
X371754Y1390320D01*
X371743Y1390303D01*
X371718Y1390202D01*
X371687Y1390103D01*
X371688Y1390084D01*
X371683Y1390064D01*
X371691Y1389961D01*
X371694Y1389858D01*
X371701Y1389839D01*
X371702Y1389819D01*
X371743Y1389724D01*
X371778Y1389627D01*
X371791Y1389611D01*
X371798Y1389593D01*
X371903Y1389462D01*
X374501Y1386864D01*
X374501Y1383136D01*
X371903Y1380538D01*
X371892Y1380522D01*
X371876Y1380510D01*
X371820Y1380422D01*
X371760Y1380339D01*
X371754Y1380320D01*
X371743Y1380303D01*
X371718Y1380202D01*
X371687Y1380103D01*
X371688Y1380084D01*
X371683Y1380064D01*
X371691Y1379961D01*
X371694Y1379858D01*
X371701Y1379839D01*
X371702Y1379819D01*
X371743Y1379724D01*
X371778Y1379627D01*
X371791Y1379611D01*
X371798Y1379593D01*
X371903Y1379462D01*
X374501Y1376864D01*
X374501Y1373136D01*
X371903Y1370538D01*
X371892Y1370522D01*
X371876Y1370510D01*
X371820Y1370422D01*
X371760Y1370339D01*
X371754Y1370320D01*
X371743Y1370303D01*
X371718Y1370202D01*
X371687Y1370103D01*
X371688Y1370084D01*
X371683Y1370064D01*
X371691Y1369961D01*
X371694Y1369858D01*
X371701Y1369839D01*
X371702Y1369819D01*
X371743Y1369724D01*
X371778Y1369627D01*
X371791Y1369611D01*
X371798Y1369593D01*
X371903Y1369462D01*
X374501Y1366864D01*
X374501Y1363136D01*
X371903Y1360538D01*
X371892Y1360522D01*
X371876Y1360510D01*
X371820Y1360422D01*
X371760Y1360339D01*
X371754Y1360320D01*
X371743Y1360303D01*
X371718Y1360202D01*
X371687Y1360103D01*
X371688Y1360084D01*
X371683Y1360064D01*
X371691Y1359961D01*
X371694Y1359858D01*
X371701Y1359839D01*
X371702Y1359819D01*
X371743Y1359724D01*
X371778Y1359627D01*
X371791Y1359611D01*
X371798Y1359593D01*
X371903Y1359462D01*
X374501Y1356864D01*
X374501Y1353136D01*
X371864Y1350499D01*
X368136Y1350499D01*
X365538Y1353097D01*
X365522Y1353108D01*
X365510Y1353124D01*
X365422Y1353180D01*
X365339Y1353240D01*
X365320Y1353246D01*
X365303Y1353257D01*
X365202Y1353282D01*
X365103Y1353313D01*
X365084Y1353312D01*
X365064Y1353317D01*
X364961Y1353309D01*
X364858Y1353306D01*
X364839Y1353299D01*
X364819Y1353298D01*
X364724Y1353257D01*
X364627Y1353222D01*
X364611Y1353209D01*
X364593Y1353202D01*
X364462Y1353097D01*
X361864Y1350499D01*
X358136Y1350499D01*
X355538Y1353097D01*
X355522Y1353108D01*
X355510Y1353124D01*
X355422Y1353180D01*
X355339Y1353240D01*
X355320Y1353246D01*
X355303Y1353257D01*
X355202Y1353282D01*
X355103Y1353313D01*
X355084Y1353312D01*
X355064Y1353317D01*
X354961Y1353309D01*
X354858Y1353306D01*
X354839Y1353299D01*
X354819Y1353298D01*
X354724Y1353257D01*
X354627Y1353222D01*
X354611Y1353209D01*
X354593Y1353202D01*
X354462Y1353097D01*
X351864Y1350499D01*
X348136Y1350499D01*
X345538Y1353097D01*
X345522Y1353108D01*
X345510Y1353124D01*
X345422Y1353180D01*
X345339Y1353240D01*
X345320Y1353246D01*
X345303Y1353257D01*
X345202Y1353282D01*
X345103Y1353313D01*
X345084Y1353312D01*
X345064Y1353317D01*
X344961Y1353309D01*
X344858Y1353306D01*
X344839Y1353299D01*
X344819Y1353298D01*
X344724Y1353257D01*
X344627Y1353222D01*
X344611Y1353209D01*
X344593Y1353202D01*
X344462Y1353097D01*
X341864Y1350499D01*
X338136Y1350499D01*
X335538Y1353097D01*
X335522Y1353108D01*
X335510Y1353124D01*
X335422Y1353180D01*
X335339Y1353240D01*
X335320Y1353246D01*
X335303Y1353257D01*
X335202Y1353282D01*
X335103Y1353313D01*
X335084Y1353312D01*
X335064Y1353317D01*
X334961Y1353309D01*
X334858Y1353306D01*
X334839Y1353299D01*
X334819Y1353298D01*
X334724Y1353257D01*
X334627Y1353222D01*
X334611Y1353209D01*
X334593Y1353202D01*
X334462Y1353097D01*
X331864Y1350499D01*
X328136Y1350499D01*
X325538Y1353097D01*
X325522Y1353108D01*
X325510Y1353124D01*
X325422Y1353180D01*
X325339Y1353240D01*
X325320Y1353246D01*
X325303Y1353257D01*
X325202Y1353282D01*
X325103Y1353313D01*
X325084Y1353312D01*
X325064Y1353317D01*
X324961Y1353309D01*
X324858Y1353306D01*
X324839Y1353299D01*
X324819Y1353298D01*
X324724Y1353257D01*
X324627Y1353222D01*
X324611Y1353209D01*
X324593Y1353202D01*
X324462Y1353097D01*
X321864Y1350499D01*
X318136Y1350499D01*
X315538Y1353097D01*
X315522Y1353108D01*
X315510Y1353124D01*
X315422Y1353180D01*
X315339Y1353240D01*
X315320Y1353246D01*
X315303Y1353257D01*
X315202Y1353282D01*
X315103Y1353313D01*
X315084Y1353312D01*
X315064Y1353317D01*
X314961Y1353309D01*
X314858Y1353306D01*
X314839Y1353299D01*
X314819Y1353298D01*
X314724Y1353257D01*
X314627Y1353222D01*
X314611Y1353209D01*
X314593Y1353202D01*
X314462Y1353097D01*
X311864Y1350499D01*
X308136Y1350499D01*
X305538Y1353097D01*
X305522Y1353108D01*
X305510Y1353124D01*
X305422Y1353180D01*
X305339Y1353240D01*
X305320Y1353246D01*
X305303Y1353257D01*
X305202Y1353282D01*
X305103Y1353313D01*
X305084Y1353312D01*
X305064Y1353317D01*
X304961Y1353309D01*
X304858Y1353306D01*
X304839Y1353299D01*
X304819Y1353298D01*
X304724Y1353257D01*
X304627Y1353222D01*
X304611Y1353209D01*
X304593Y1353202D01*
X304462Y1353097D01*
X301864Y1350499D01*
X298136Y1350499D01*
X295538Y1353097D01*
X295522Y1353108D01*
X295510Y1353124D01*
X295422Y1353180D01*
X295339Y1353240D01*
X295320Y1353246D01*
X295303Y1353257D01*
X295202Y1353282D01*
X295103Y1353313D01*
X295084Y1353312D01*
X295064Y1353317D01*
X294961Y1353309D01*
X294858Y1353306D01*
X294839Y1353299D01*
X294819Y1353298D01*
X294724Y1353257D01*
X294627Y1353222D01*
X294611Y1353209D01*
X294593Y1353202D01*
X294462Y1353097D01*
X291864Y1350499D01*
X288136Y1350499D01*
G37*
%LPD*%
%LPC*%
G36*
X288136Y1365499D02*
X288136Y1365499D01*
X285499Y1368136D01*
X285499Y1371864D01*
X288097Y1374462D01*
X288108Y1374478D01*
X288124Y1374490D01*
X288180Y1374578D01*
X288240Y1374661D01*
X288246Y1374680D01*
X288257Y1374697D01*
X288282Y1374798D01*
X288313Y1374897D01*
X288312Y1374916D01*
X288317Y1374936D01*
X288309Y1375039D01*
X288306Y1375142D01*
X288299Y1375161D01*
X288298Y1375181D01*
X288257Y1375276D01*
X288222Y1375373D01*
X288209Y1375389D01*
X288202Y1375407D01*
X288097Y1375538D01*
X285499Y1378136D01*
X285499Y1381864D01*
X288097Y1384462D01*
X288108Y1384478D01*
X288124Y1384490D01*
X288180Y1384578D01*
X288240Y1384661D01*
X288246Y1384680D01*
X288257Y1384697D01*
X288282Y1384798D01*
X288313Y1384897D01*
X288312Y1384916D01*
X288317Y1384936D01*
X288309Y1385039D01*
X288306Y1385142D01*
X288299Y1385161D01*
X288298Y1385181D01*
X288257Y1385276D01*
X288222Y1385373D01*
X288209Y1385389D01*
X288202Y1385407D01*
X288097Y1385538D01*
X285499Y1388136D01*
X285499Y1391864D01*
X288097Y1394462D01*
X288108Y1394478D01*
X288124Y1394490D01*
X288180Y1394578D01*
X288240Y1394661D01*
X288246Y1394680D01*
X288257Y1394697D01*
X288282Y1394798D01*
X288313Y1394897D01*
X288312Y1394916D01*
X288317Y1394936D01*
X288309Y1395039D01*
X288306Y1395142D01*
X288299Y1395161D01*
X288298Y1395181D01*
X288257Y1395276D01*
X288222Y1395373D01*
X288209Y1395389D01*
X288202Y1395407D01*
X288097Y1395538D01*
X285499Y1398136D01*
X285499Y1401864D01*
X288097Y1404462D01*
X288108Y1404478D01*
X288124Y1404490D01*
X288180Y1404578D01*
X288240Y1404661D01*
X288246Y1404680D01*
X288257Y1404697D01*
X288282Y1404798D01*
X288313Y1404897D01*
X288312Y1404916D01*
X288317Y1404936D01*
X288309Y1405039D01*
X288306Y1405142D01*
X288299Y1405161D01*
X288298Y1405181D01*
X288257Y1405276D01*
X288222Y1405373D01*
X288209Y1405389D01*
X288202Y1405407D01*
X288097Y1405538D01*
X285499Y1408136D01*
X285499Y1411864D01*
X288097Y1414462D01*
X288108Y1414478D01*
X288124Y1414490D01*
X288180Y1414578D01*
X288240Y1414661D01*
X288246Y1414680D01*
X288257Y1414697D01*
X288282Y1414798D01*
X288313Y1414897D01*
X288312Y1414916D01*
X288317Y1414936D01*
X288309Y1415039D01*
X288306Y1415142D01*
X288299Y1415161D01*
X288298Y1415181D01*
X288257Y1415276D01*
X288222Y1415373D01*
X288209Y1415389D01*
X288202Y1415407D01*
X288097Y1415538D01*
X285499Y1418136D01*
X285499Y1421864D01*
X288136Y1424501D01*
X291864Y1424501D01*
X294501Y1421864D01*
X294501Y1418136D01*
X291903Y1415538D01*
X291892Y1415522D01*
X291876Y1415510D01*
X291820Y1415422D01*
X291760Y1415339D01*
X291754Y1415320D01*
X291743Y1415303D01*
X291718Y1415202D01*
X291687Y1415103D01*
X291688Y1415084D01*
X291683Y1415064D01*
X291691Y1414961D01*
X291694Y1414858D01*
X291701Y1414839D01*
X291702Y1414819D01*
X291743Y1414724D01*
X291778Y1414627D01*
X291791Y1414611D01*
X291798Y1414593D01*
X291903Y1414462D01*
X294501Y1411864D01*
X294501Y1408136D01*
X291903Y1405538D01*
X291892Y1405522D01*
X291876Y1405510D01*
X291820Y1405422D01*
X291760Y1405339D01*
X291754Y1405320D01*
X291743Y1405303D01*
X291718Y1405202D01*
X291687Y1405103D01*
X291688Y1405084D01*
X291683Y1405064D01*
X291691Y1404961D01*
X291694Y1404858D01*
X291701Y1404839D01*
X291702Y1404819D01*
X291743Y1404724D01*
X291778Y1404627D01*
X291791Y1404611D01*
X291798Y1404593D01*
X291903Y1404462D01*
X294501Y1401864D01*
X294501Y1398136D01*
X291903Y1395538D01*
X291892Y1395522D01*
X291876Y1395510D01*
X291820Y1395422D01*
X291760Y1395339D01*
X291754Y1395320D01*
X291743Y1395303D01*
X291718Y1395202D01*
X291687Y1395103D01*
X291688Y1395084D01*
X291683Y1395064D01*
X291691Y1394961D01*
X291694Y1394858D01*
X291701Y1394839D01*
X291702Y1394819D01*
X291743Y1394724D01*
X291778Y1394627D01*
X291791Y1394611D01*
X291798Y1394593D01*
X291903Y1394462D01*
X294501Y1391864D01*
X294501Y1388136D01*
X291903Y1385538D01*
X291892Y1385522D01*
X291876Y1385510D01*
X291820Y1385422D01*
X291760Y1385339D01*
X291754Y1385320D01*
X291743Y1385303D01*
X291718Y1385202D01*
X291687Y1385103D01*
X291688Y1385084D01*
X291683Y1385064D01*
X291691Y1384961D01*
X291694Y1384858D01*
X291701Y1384839D01*
X291702Y1384819D01*
X291743Y1384724D01*
X291778Y1384627D01*
X291791Y1384611D01*
X291798Y1384593D01*
X291903Y1384462D01*
X294501Y1381864D01*
X294501Y1378136D01*
X291903Y1375538D01*
X291892Y1375522D01*
X291876Y1375510D01*
X291820Y1375422D01*
X291760Y1375339D01*
X291754Y1375320D01*
X291743Y1375303D01*
X291718Y1375202D01*
X291687Y1375103D01*
X291688Y1375084D01*
X291683Y1375064D01*
X291691Y1374961D01*
X291694Y1374858D01*
X291701Y1374839D01*
X291702Y1374819D01*
X291743Y1374724D01*
X291778Y1374627D01*
X291791Y1374611D01*
X291798Y1374593D01*
X291903Y1374462D01*
X294501Y1371864D01*
X294501Y1368136D01*
X291864Y1365499D01*
X288136Y1365499D01*
G37*
%LPD*%
%LPC*%
G36*
X38762Y617249D02*
X38762Y617249D01*
X34627Y618962D01*
X31462Y622127D01*
X29749Y626262D01*
X29749Y630738D01*
X31462Y634873D01*
X34627Y638038D01*
X38762Y639751D01*
X43238Y639751D01*
X47373Y638038D01*
X50538Y634873D01*
X52251Y630738D01*
X52251Y626262D01*
X50538Y622127D01*
X47373Y618962D01*
X43238Y617249D01*
X38762Y617249D01*
G37*
%LPD*%
%LPC*%
G36*
X87762Y1111249D02*
X87762Y1111249D01*
X83627Y1112962D01*
X80462Y1116127D01*
X78749Y1120262D01*
X78749Y1124738D01*
X80462Y1128873D01*
X83627Y1132038D01*
X87762Y1133751D01*
X92238Y1133751D01*
X96373Y1132038D01*
X99538Y1128873D01*
X101251Y1124738D01*
X101251Y1120262D01*
X99538Y1116127D01*
X96373Y1112962D01*
X92238Y1111249D01*
X87762Y1111249D01*
G37*
%LPD*%
%LPC*%
G36*
X38762Y710249D02*
X38762Y710249D01*
X34627Y711962D01*
X31462Y715127D01*
X29749Y719262D01*
X29749Y723738D01*
X31462Y727873D01*
X34627Y731038D01*
X38762Y732751D01*
X43238Y732751D01*
X47373Y731038D01*
X50538Y727873D01*
X52251Y723738D01*
X52251Y719262D01*
X50538Y715127D01*
X47373Y711962D01*
X43238Y710249D01*
X38762Y710249D01*
G37*
%LPD*%
%LPC*%
G36*
X38762Y1117249D02*
X38762Y1117249D01*
X34627Y1118962D01*
X31462Y1122127D01*
X29749Y1126262D01*
X29749Y1130738D01*
X31462Y1134873D01*
X34627Y1138038D01*
X38762Y1139751D01*
X43238Y1139751D01*
X47373Y1138038D01*
X50538Y1134873D01*
X52251Y1130738D01*
X52251Y1126262D01*
X50538Y1122127D01*
X47373Y1118962D01*
X43238Y1117249D01*
X38762Y1117249D01*
G37*
%LPD*%
%LPC*%
G36*
X82762Y16249D02*
X82762Y16249D01*
X78627Y17962D01*
X75462Y21127D01*
X73749Y25262D01*
X73749Y29738D01*
X75462Y33873D01*
X78627Y37038D01*
X82762Y38751D01*
X87238Y38751D01*
X91373Y37038D01*
X94538Y33873D01*
X96251Y29738D01*
X96251Y25262D01*
X94538Y21127D01*
X91373Y17962D01*
X87238Y16249D01*
X82762Y16249D01*
G37*
%LPD*%
%LPC*%
G36*
X33762Y10249D02*
X33762Y10249D01*
X29627Y11962D01*
X26462Y15127D01*
X24749Y19262D01*
X24749Y23738D01*
X26462Y27873D01*
X29627Y31038D01*
X33762Y32751D01*
X38238Y32751D01*
X42373Y31038D01*
X45538Y27873D01*
X47251Y23738D01*
X47251Y19262D01*
X45538Y15127D01*
X42373Y11962D01*
X38238Y10249D01*
X33762Y10249D01*
G37*
%LPD*%
%LPC*%
G36*
X82762Y161249D02*
X82762Y161249D01*
X78627Y162962D01*
X75462Y166127D01*
X73749Y170262D01*
X73749Y174738D01*
X75462Y178873D01*
X78627Y182038D01*
X82762Y183751D01*
X87238Y183751D01*
X91373Y182038D01*
X94538Y178873D01*
X96251Y174738D01*
X96251Y170262D01*
X94538Y166127D01*
X91373Y162962D01*
X87238Y161249D01*
X82762Y161249D01*
G37*
%LPD*%
%LPC*%
G36*
X87762Y966249D02*
X87762Y966249D01*
X83627Y967962D01*
X80462Y971127D01*
X78749Y975262D01*
X78749Y979738D01*
X80462Y983873D01*
X83627Y987038D01*
X87762Y988751D01*
X92238Y988751D01*
X96373Y987038D01*
X99538Y983873D01*
X101251Y979738D01*
X101251Y975262D01*
X99538Y971127D01*
X96373Y967962D01*
X92238Y966249D01*
X87762Y966249D01*
G37*
%LPD*%
%LPC*%
G36*
X38762Y867249D02*
X38762Y867249D01*
X34627Y868962D01*
X31462Y872127D01*
X29749Y876262D01*
X29749Y880738D01*
X31462Y884873D01*
X34627Y888038D01*
X38762Y889751D01*
X43238Y889751D01*
X47373Y888038D01*
X50538Y884873D01*
X52251Y880738D01*
X52251Y876262D01*
X50538Y872127D01*
X47373Y868962D01*
X43238Y867249D01*
X38762Y867249D01*
G37*
%LPD*%
%LPC*%
G36*
X87762Y716249D02*
X87762Y716249D01*
X83627Y717962D01*
X80462Y721127D01*
X78749Y725262D01*
X78749Y729738D01*
X80462Y733873D01*
X83627Y737038D01*
X87762Y738751D01*
X92238Y738751D01*
X96373Y737038D01*
X99538Y733873D01*
X101251Y729738D01*
X101251Y725262D01*
X99538Y721127D01*
X96373Y717962D01*
X92238Y716249D01*
X87762Y716249D01*
G37*
%LPD*%
%LPC*%
G36*
X38762Y960249D02*
X38762Y960249D01*
X34627Y961962D01*
X31462Y965127D01*
X29749Y969262D01*
X29749Y973738D01*
X31462Y977873D01*
X34627Y981038D01*
X38762Y982751D01*
X43238Y982751D01*
X47373Y981038D01*
X50538Y977873D01*
X52251Y973738D01*
X52251Y969262D01*
X50538Y965127D01*
X47373Y961962D01*
X43238Y960249D01*
X38762Y960249D01*
G37*
%LPD*%
%LPC*%
G36*
X33762Y167249D02*
X33762Y167249D01*
X29627Y168962D01*
X26462Y172127D01*
X24749Y176262D01*
X24749Y180738D01*
X26462Y184873D01*
X29627Y188038D01*
X33762Y189751D01*
X38238Y189751D01*
X42373Y188038D01*
X45538Y184873D01*
X47251Y180738D01*
X47251Y176262D01*
X45538Y172127D01*
X42373Y168962D01*
X38238Y167249D01*
X33762Y167249D01*
G37*
%LPD*%
%LPC*%
G36*
X87762Y611249D02*
X87762Y611249D01*
X83627Y612962D01*
X80462Y616127D01*
X78749Y620262D01*
X78749Y624738D01*
X80462Y628873D01*
X83627Y632038D01*
X87762Y633751D01*
X92238Y633751D01*
X96373Y632038D01*
X99538Y628873D01*
X101251Y624738D01*
X101251Y620262D01*
X99538Y616127D01*
X96373Y612962D01*
X92238Y611249D01*
X87762Y611249D01*
G37*
%LPD*%
%LPC*%
G36*
X38762Y460249D02*
X38762Y460249D01*
X34627Y461962D01*
X31462Y465127D01*
X29749Y469262D01*
X29749Y473738D01*
X31462Y477873D01*
X34627Y481038D01*
X38762Y482751D01*
X43238Y482751D01*
X47373Y481038D01*
X50538Y477873D01*
X52251Y473738D01*
X52251Y469262D01*
X50538Y465127D01*
X47373Y461962D01*
X43238Y460249D01*
X38762Y460249D01*
G37*
%LPD*%
%LPC*%
G36*
X87762Y861249D02*
X87762Y861249D01*
X83627Y862962D01*
X80462Y866127D01*
X78749Y870262D01*
X78749Y874738D01*
X80462Y878873D01*
X83627Y882038D01*
X87762Y883751D01*
X92238Y883751D01*
X96373Y882038D01*
X99538Y878873D01*
X101251Y874738D01*
X101251Y870262D01*
X99538Y866127D01*
X96373Y862962D01*
X92238Y861249D01*
X87762Y861249D01*
G37*
%LPD*%
%LPC*%
G36*
X87762Y466249D02*
X87762Y466249D01*
X83627Y467962D01*
X80462Y471127D01*
X78749Y475262D01*
X78749Y479738D01*
X80462Y483873D01*
X83627Y487038D01*
X87762Y488751D01*
X92238Y488751D01*
X96373Y487038D01*
X99538Y483873D01*
X101251Y479738D01*
X101251Y475262D01*
X99538Y471127D01*
X96373Y467962D01*
X92238Y466249D01*
X87762Y466249D01*
G37*
%LPD*%
%LPC*%
G36*
X228136Y375499D02*
X228136Y375499D01*
X225499Y378136D01*
X225499Y381864D01*
X227942Y384307D01*
X228011Y384403D01*
X228082Y384500D01*
X228083Y384504D01*
X228086Y384507D01*
X228120Y384619D01*
X228157Y384734D01*
X228157Y384738D01*
X228158Y384742D01*
X228155Y384860D01*
X228153Y384980D01*
X228152Y384984D01*
X228152Y384988D01*
X228111Y385100D01*
X228071Y385212D01*
X228069Y385215D01*
X228067Y385219D01*
X227993Y385312D01*
X227920Y385405D01*
X227916Y385408D01*
X227914Y385411D01*
X227902Y385418D01*
X227785Y385505D01*
X226929Y385998D01*
X225998Y386929D01*
X225505Y387785D01*
X225429Y387877D01*
X225355Y387969D01*
X225352Y387972D01*
X225349Y387975D01*
X225248Y388038D01*
X225148Y388102D01*
X225144Y388103D01*
X225141Y388106D01*
X225025Y388134D01*
X224910Y388162D01*
X224906Y388162D01*
X224901Y388163D01*
X224782Y388153D01*
X224664Y388143D01*
X224661Y388142D01*
X224656Y388141D01*
X224546Y388093D01*
X224438Y388047D01*
X224434Y388044D01*
X224431Y388043D01*
X224421Y388033D01*
X224307Y387942D01*
X221864Y385499D01*
X218136Y385499D01*
X215499Y388136D01*
X215499Y391864D01*
X218097Y394462D01*
X218108Y394478D01*
X218124Y394490D01*
X218180Y394578D01*
X218240Y394661D01*
X218246Y394680D01*
X218257Y394697D01*
X218282Y394798D01*
X218313Y394897D01*
X218312Y394916D01*
X218317Y394936D01*
X218309Y395039D01*
X218306Y395142D01*
X218299Y395161D01*
X218298Y395181D01*
X218257Y395276D01*
X218222Y395373D01*
X218209Y395389D01*
X218202Y395407D01*
X218097Y395538D01*
X215499Y398136D01*
X215499Y401864D01*
X218136Y404501D01*
X221864Y404501D01*
X224501Y401864D01*
X224501Y398136D01*
X221903Y395538D01*
X221892Y395522D01*
X221876Y395510D01*
X221820Y395422D01*
X221760Y395339D01*
X221754Y395320D01*
X221743Y395303D01*
X221718Y395202D01*
X221687Y395103D01*
X221688Y395084D01*
X221683Y395064D01*
X221691Y394961D01*
X221694Y394858D01*
X221701Y394839D01*
X221702Y394819D01*
X221742Y394724D01*
X221778Y394627D01*
X221791Y394611D01*
X221798Y394593D01*
X221903Y394462D01*
X224307Y392058D01*
X224402Y391989D01*
X224500Y391918D01*
X224504Y391917D01*
X224507Y391914D01*
X224618Y391880D01*
X224734Y391843D01*
X224738Y391843D01*
X224742Y391842D01*
X224860Y391845D01*
X224980Y391847D01*
X224984Y391848D01*
X224988Y391848D01*
X225101Y391889D01*
X225212Y391929D01*
X225215Y391931D01*
X225219Y391933D01*
X225312Y392007D01*
X225405Y392080D01*
X225408Y392084D01*
X225411Y392086D01*
X225418Y392098D01*
X225505Y392215D01*
X225998Y393071D01*
X226929Y394002D01*
X228070Y394660D01*
X229126Y394943D01*
X229126Y390113D01*
X229129Y390094D01*
X229127Y390074D01*
X229149Y389972D01*
X229165Y389870D01*
X229175Y389853D01*
X229179Y389833D01*
X229232Y389744D01*
X229281Y389653D01*
X229295Y389639D01*
X229305Y389622D01*
X229384Y389555D01*
X229459Y389484D01*
X229477Y389475D01*
X229485Y389469D01*
X229507Y389427D01*
X229521Y389413D01*
X229531Y389396D01*
X229610Y389329D01*
X229685Y389257D01*
X229703Y389249D01*
X229718Y389236D01*
X229815Y389197D01*
X229908Y389154D01*
X229928Y389152D01*
X229946Y389144D01*
X230113Y389126D01*
X234943Y389126D01*
X234660Y388070D01*
X234002Y386929D01*
X233071Y385998D01*
X232215Y385505D01*
X232123Y385429D01*
X232031Y385355D01*
X232028Y385352D01*
X232025Y385349D01*
X231961Y385247D01*
X231898Y385148D01*
X231897Y385144D01*
X231894Y385141D01*
X231866Y385025D01*
X231838Y384910D01*
X231838Y384906D01*
X231837Y384901D01*
X231847Y384782D01*
X231857Y384664D01*
X231858Y384661D01*
X231859Y384656D01*
X231907Y384546D01*
X231953Y384438D01*
X231956Y384434D01*
X231957Y384431D01*
X231967Y384421D01*
X232058Y384307D01*
X234501Y381864D01*
X234501Y378136D01*
X231864Y375499D01*
X228136Y375499D01*
G37*
%LPD*%
%LPC*%
G36*
X139210Y1385999D02*
X139210Y1385999D01*
X135901Y1387370D01*
X133370Y1389901D01*
X131999Y1393210D01*
X131999Y1396790D01*
X133370Y1400099D01*
X135901Y1402630D01*
X139210Y1404001D01*
X142790Y1404001D01*
X146099Y1402630D01*
X148630Y1400099D01*
X150001Y1396790D01*
X150001Y1393210D01*
X148630Y1389901D01*
X146099Y1387370D01*
X142790Y1385999D01*
X139210Y1385999D01*
G37*
%LPD*%
%LPC*%
G36*
X108210Y1337999D02*
X108210Y1337999D01*
X104901Y1339370D01*
X102370Y1341901D01*
X100999Y1345210D01*
X100999Y1348790D01*
X102370Y1352099D01*
X104901Y1354630D01*
X108210Y1356001D01*
X111790Y1356001D01*
X115099Y1354630D01*
X117630Y1352099D01*
X119001Y1348790D01*
X119001Y1345210D01*
X117630Y1341901D01*
X115099Y1339370D01*
X111790Y1337999D01*
X108210Y1337999D01*
G37*
%LPD*%
%LPC*%
G36*
X1351589Y1462403D02*
X1351589Y1462403D01*
X1348797Y1463560D01*
X1346660Y1465697D01*
X1345503Y1468489D01*
X1345503Y1471511D01*
X1346660Y1474303D01*
X1348797Y1476440D01*
X1351589Y1477597D01*
X1354611Y1477597D01*
X1357403Y1476440D01*
X1359540Y1474303D01*
X1360697Y1471511D01*
X1360697Y1468489D01*
X1359540Y1465697D01*
X1357403Y1463560D01*
X1354611Y1462403D01*
X1351589Y1462403D01*
G37*
%LPD*%
%LPC*%
G36*
X1275389Y1462403D02*
X1275389Y1462403D01*
X1272597Y1463560D01*
X1270460Y1465697D01*
X1269303Y1468489D01*
X1269303Y1471511D01*
X1270460Y1474303D01*
X1272597Y1476440D01*
X1275389Y1477597D01*
X1278411Y1477597D01*
X1281203Y1476440D01*
X1283340Y1474303D01*
X1284497Y1471511D01*
X1284497Y1468489D01*
X1283340Y1465697D01*
X1281203Y1463560D01*
X1278411Y1462403D01*
X1275389Y1462403D01*
G37*
%LPD*%
%LPC*%
G36*
X293136Y435499D02*
X293136Y435499D01*
X290499Y438136D01*
X290499Y441864D01*
X293136Y444501D01*
X296864Y444501D01*
X299462Y441903D01*
X299478Y441892D01*
X299490Y441876D01*
X299578Y441820D01*
X299661Y441760D01*
X299680Y441754D01*
X299697Y441743D01*
X299798Y441718D01*
X299897Y441687D01*
X299916Y441688D01*
X299936Y441683D01*
X300039Y441691D01*
X300142Y441694D01*
X300161Y441701D01*
X300181Y441702D01*
X300276Y441743D01*
X300373Y441778D01*
X300389Y441791D01*
X300407Y441798D01*
X300538Y441903D01*
X303136Y444501D01*
X306864Y444501D01*
X309501Y441864D01*
X309501Y438136D01*
X306864Y435499D01*
X303136Y435499D01*
X300538Y438097D01*
X300522Y438108D01*
X300510Y438124D01*
X300422Y438180D01*
X300339Y438240D01*
X300320Y438246D01*
X300303Y438257D01*
X300202Y438282D01*
X300103Y438313D01*
X300084Y438312D01*
X300064Y438317D01*
X299961Y438309D01*
X299858Y438306D01*
X299839Y438299D01*
X299819Y438298D01*
X299724Y438257D01*
X299627Y438222D01*
X299611Y438209D01*
X299593Y438202D01*
X299462Y438097D01*
X296864Y435499D01*
X293136Y435499D01*
G37*
%LPD*%
%LPC*%
G36*
X283136Y245499D02*
X283136Y245499D01*
X280499Y248136D01*
X280499Y251864D01*
X283136Y254501D01*
X286864Y254501D01*
X289462Y251903D01*
X289478Y251892D01*
X289490Y251876D01*
X289578Y251820D01*
X289661Y251760D01*
X289680Y251754D01*
X289697Y251743D01*
X289798Y251718D01*
X289897Y251687D01*
X289916Y251688D01*
X289936Y251683D01*
X290039Y251691D01*
X290142Y251694D01*
X290161Y251701D01*
X290181Y251702D01*
X290276Y251743D01*
X290373Y251778D01*
X290389Y251791D01*
X290407Y251798D01*
X290538Y251903D01*
X293136Y254501D01*
X296864Y254501D01*
X299501Y251864D01*
X299501Y248136D01*
X296864Y245499D01*
X293136Y245499D01*
X290538Y248097D01*
X290522Y248108D01*
X290510Y248124D01*
X290422Y248180D01*
X290339Y248240D01*
X290320Y248246D01*
X290303Y248257D01*
X290202Y248282D01*
X290103Y248313D01*
X290084Y248312D01*
X290064Y248317D01*
X289961Y248309D01*
X289858Y248306D01*
X289839Y248299D01*
X289819Y248298D01*
X289724Y248257D01*
X289627Y248222D01*
X289611Y248209D01*
X289593Y248202D01*
X289462Y248097D01*
X286864Y245499D01*
X283136Y245499D01*
G37*
%LPD*%
%LPC*%
G36*
X118136Y565499D02*
X118136Y565499D01*
X115499Y568136D01*
X115499Y571864D01*
X118097Y574462D01*
X118108Y574478D01*
X118124Y574490D01*
X118180Y574578D01*
X118240Y574661D01*
X118246Y574680D01*
X118257Y574697D01*
X118282Y574798D01*
X118313Y574897D01*
X118312Y574916D01*
X118317Y574936D01*
X118309Y575039D01*
X118306Y575142D01*
X118299Y575161D01*
X118298Y575181D01*
X118257Y575276D01*
X118222Y575373D01*
X118209Y575389D01*
X118202Y575407D01*
X118097Y575538D01*
X115499Y578136D01*
X115499Y581864D01*
X118136Y584501D01*
X121864Y584501D01*
X124501Y581864D01*
X124501Y578136D01*
X121903Y575538D01*
X121892Y575522D01*
X121876Y575510D01*
X121820Y575422D01*
X121760Y575339D01*
X121754Y575320D01*
X121743Y575303D01*
X121718Y575202D01*
X121687Y575103D01*
X121688Y575084D01*
X121683Y575064D01*
X121691Y574961D01*
X121694Y574858D01*
X121701Y574839D01*
X121702Y574819D01*
X121743Y574724D01*
X121778Y574627D01*
X121791Y574611D01*
X121798Y574593D01*
X121903Y574462D01*
X124501Y571864D01*
X124501Y568136D01*
X121864Y565499D01*
X118136Y565499D01*
G37*
%LPD*%
%LPC*%
G36*
X283136Y395499D02*
X283136Y395499D01*
X280499Y398136D01*
X280499Y401864D01*
X283136Y404501D01*
X286864Y404501D01*
X289462Y401903D01*
X289478Y401892D01*
X289490Y401876D01*
X289578Y401820D01*
X289661Y401760D01*
X289680Y401754D01*
X289697Y401743D01*
X289798Y401718D01*
X289897Y401687D01*
X289916Y401688D01*
X289936Y401683D01*
X290039Y401691D01*
X290142Y401694D01*
X290161Y401701D01*
X290181Y401702D01*
X290276Y401743D01*
X290373Y401778D01*
X290389Y401791D01*
X290407Y401798D01*
X290538Y401903D01*
X293136Y404501D01*
X296864Y404501D01*
X299501Y401864D01*
X299501Y398136D01*
X296864Y395499D01*
X293136Y395499D01*
X290538Y398097D01*
X290522Y398108D01*
X290510Y398124D01*
X290422Y398180D01*
X290339Y398240D01*
X290320Y398246D01*
X290303Y398257D01*
X290202Y398282D01*
X290103Y398313D01*
X290084Y398312D01*
X290064Y398317D01*
X289961Y398309D01*
X289858Y398306D01*
X289839Y398299D01*
X289819Y398298D01*
X289724Y398257D01*
X289627Y398222D01*
X289611Y398209D01*
X289593Y398202D01*
X289462Y398097D01*
X286864Y395499D01*
X283136Y395499D01*
G37*
%LPD*%
%LPC*%
G36*
X113136Y110499D02*
X113136Y110499D01*
X110499Y113136D01*
X110499Y116864D01*
X113136Y119501D01*
X116864Y119501D01*
X119462Y116903D01*
X119478Y116892D01*
X119490Y116876D01*
X119556Y116834D01*
X119597Y116799D01*
X119620Y116789D01*
X119661Y116760D01*
X119680Y116754D01*
X119697Y116743D01*
X119798Y116718D01*
X119825Y116707D01*
X119839Y116705D01*
X119897Y116687D01*
X119916Y116688D01*
X119936Y116683D01*
X120002Y116688D01*
X120008Y116688D01*
X120013Y116689D01*
X120039Y116691D01*
X120142Y116694D01*
X120161Y116701D01*
X120181Y116702D01*
X120236Y116726D01*
X120251Y116728D01*
X120283Y116745D01*
X120373Y116778D01*
X120389Y116791D01*
X120407Y116798D01*
X120453Y116835D01*
X120468Y116843D01*
X120484Y116860D01*
X120538Y116903D01*
X123136Y119501D01*
X126864Y119501D01*
X129501Y116864D01*
X129501Y113136D01*
X126864Y110499D01*
X123136Y110499D01*
X120538Y113097D01*
X120522Y113108D01*
X120510Y113124D01*
X120422Y113180D01*
X120339Y113240D01*
X120320Y113246D01*
X120303Y113257D01*
X120202Y113282D01*
X120103Y113313D01*
X120084Y113312D01*
X120064Y113317D01*
X119961Y113309D01*
X119858Y113306D01*
X119839Y113299D01*
X119819Y113298D01*
X119724Y113257D01*
X119627Y113222D01*
X119611Y113209D01*
X119593Y113202D01*
X119462Y113097D01*
X116864Y110499D01*
X113136Y110499D01*
G37*
%LPD*%
%LPC*%
G36*
X248070Y395340D02*
X248070Y395340D01*
X246929Y395998D01*
X245998Y396929D01*
X245505Y397785D01*
X245429Y397877D01*
X245355Y397969D01*
X245352Y397972D01*
X245349Y397975D01*
X245248Y398038D01*
X245148Y398102D01*
X245144Y398103D01*
X245141Y398106D01*
X245025Y398134D01*
X244910Y398162D01*
X244906Y398162D01*
X244901Y398163D01*
X244782Y398153D01*
X244664Y398143D01*
X244661Y398142D01*
X244656Y398141D01*
X244546Y398093D01*
X244438Y398047D01*
X244434Y398044D01*
X244431Y398043D01*
X244421Y398033D01*
X244307Y397942D01*
X241864Y395499D01*
X238136Y395499D01*
X235499Y398136D01*
X235499Y401864D01*
X238136Y404501D01*
X241864Y404501D01*
X244307Y402058D01*
X244403Y401989D01*
X244500Y401918D01*
X244504Y401917D01*
X244507Y401914D01*
X244619Y401880D01*
X244734Y401843D01*
X244738Y401843D01*
X244742Y401842D01*
X244860Y401845D01*
X244980Y401847D01*
X244984Y401848D01*
X244988Y401848D01*
X245100Y401889D01*
X245212Y401929D01*
X245215Y401931D01*
X245219Y401933D01*
X245312Y402007D01*
X245405Y402080D01*
X245408Y402084D01*
X245411Y402086D01*
X245418Y402098D01*
X245505Y402215D01*
X245998Y403071D01*
X246929Y404002D01*
X248070Y404660D01*
X249126Y404943D01*
X249126Y400113D01*
X249129Y400094D01*
X249127Y400074D01*
X249140Y400014D01*
X249126Y399887D01*
X249126Y395057D01*
X248070Y395340D01*
G37*
%LPD*%
%LPC*%
G36*
X273070Y315340D02*
X273070Y315340D01*
X271929Y315998D01*
X270998Y316929D01*
X270505Y317785D01*
X270429Y317877D01*
X270355Y317969D01*
X270352Y317972D01*
X270349Y317975D01*
X270248Y318038D01*
X270148Y318102D01*
X270144Y318103D01*
X270141Y318106D01*
X270025Y318134D01*
X269910Y318162D01*
X269906Y318162D01*
X269901Y318163D01*
X269782Y318153D01*
X269664Y318143D01*
X269661Y318142D01*
X269656Y318141D01*
X269546Y318093D01*
X269438Y318047D01*
X269434Y318044D01*
X269431Y318043D01*
X269421Y318033D01*
X269307Y317942D01*
X266864Y315499D01*
X263136Y315499D01*
X260499Y318136D01*
X260499Y321864D01*
X263136Y324501D01*
X266864Y324501D01*
X269307Y322058D01*
X269403Y321989D01*
X269500Y321918D01*
X269504Y321917D01*
X269507Y321914D01*
X269619Y321880D01*
X269734Y321843D01*
X269738Y321843D01*
X269742Y321842D01*
X269860Y321845D01*
X269980Y321847D01*
X269984Y321848D01*
X269988Y321848D01*
X270100Y321889D01*
X270212Y321929D01*
X270215Y321931D01*
X270219Y321933D01*
X270312Y322007D01*
X270405Y322080D01*
X270408Y322084D01*
X270411Y322086D01*
X270418Y322098D01*
X270505Y322215D01*
X270998Y323071D01*
X271929Y324002D01*
X273070Y324660D01*
X274126Y324943D01*
X274126Y320113D01*
X274129Y320094D01*
X274127Y320074D01*
X274140Y320014D01*
X274126Y319887D01*
X274126Y315057D01*
X273070Y315340D01*
G37*
%LPD*%
%LPC*%
G36*
X243070Y315340D02*
X243070Y315340D01*
X241929Y315998D01*
X240998Y316929D01*
X240505Y317785D01*
X240429Y317877D01*
X240355Y317969D01*
X240352Y317972D01*
X240349Y317975D01*
X240248Y318038D01*
X240148Y318102D01*
X240144Y318103D01*
X240141Y318106D01*
X240025Y318134D01*
X239910Y318162D01*
X239906Y318162D01*
X239901Y318163D01*
X239782Y318153D01*
X239664Y318143D01*
X239661Y318142D01*
X239656Y318141D01*
X239546Y318093D01*
X239438Y318047D01*
X239434Y318044D01*
X239431Y318043D01*
X239421Y318033D01*
X239307Y317942D01*
X236864Y315499D01*
X233136Y315499D01*
X230499Y318136D01*
X230499Y321864D01*
X233136Y324501D01*
X236864Y324501D01*
X239307Y322058D01*
X239403Y321989D01*
X239500Y321918D01*
X239504Y321917D01*
X239507Y321914D01*
X239619Y321880D01*
X239734Y321843D01*
X239738Y321843D01*
X239742Y321842D01*
X239860Y321845D01*
X239980Y321847D01*
X239984Y321848D01*
X239988Y321848D01*
X240100Y321889D01*
X240212Y321929D01*
X240215Y321931D01*
X240219Y321933D01*
X240312Y322007D01*
X240405Y322080D01*
X240408Y322084D01*
X240411Y322086D01*
X240418Y322098D01*
X240505Y322215D01*
X240998Y323071D01*
X241929Y324002D01*
X243070Y324660D01*
X244126Y324943D01*
X244126Y320113D01*
X244129Y320094D01*
X244127Y320074D01*
X244140Y320014D01*
X244126Y319887D01*
X244126Y315057D01*
X243070Y315340D01*
G37*
%LPD*%
%LPC*%
G36*
X218136Y315499D02*
X218136Y315499D01*
X215499Y318136D01*
X215499Y321864D01*
X217942Y324307D01*
X218011Y324403D01*
X218082Y324500D01*
X218083Y324504D01*
X218086Y324507D01*
X218120Y324619D01*
X218157Y324734D01*
X218157Y324738D01*
X218158Y324742D01*
X218155Y324860D01*
X218153Y324980D01*
X218152Y324984D01*
X218152Y324988D01*
X218111Y325100D01*
X218071Y325212D01*
X218069Y325215D01*
X218067Y325219D01*
X217993Y325312D01*
X217920Y325405D01*
X217916Y325408D01*
X217914Y325411D01*
X217902Y325418D01*
X217785Y325505D01*
X216929Y325998D01*
X215998Y326929D01*
X215340Y328070D01*
X215057Y329126D01*
X219887Y329126D01*
X219906Y329129D01*
X219926Y329127D01*
X219986Y329140D01*
X220113Y329126D01*
X224943Y329126D01*
X224660Y328070D01*
X224002Y326929D01*
X223071Y325998D01*
X222215Y325505D01*
X222123Y325429D01*
X222031Y325355D01*
X222028Y325352D01*
X222025Y325349D01*
X221961Y325247D01*
X221898Y325148D01*
X221897Y325144D01*
X221894Y325141D01*
X221866Y325025D01*
X221838Y324910D01*
X221838Y324906D01*
X221837Y324901D01*
X221847Y324782D01*
X221857Y324664D01*
X221858Y324661D01*
X221859Y324656D01*
X221907Y324546D01*
X221953Y324438D01*
X221956Y324434D01*
X221957Y324431D01*
X221967Y324421D01*
X222058Y324307D01*
X224501Y321864D01*
X224501Y318136D01*
X221864Y315499D01*
X218136Y315499D01*
G37*
%LPD*%
%LPC*%
G36*
X283136Y320499D02*
X283136Y320499D01*
X280920Y322715D01*
X280881Y322743D01*
X280849Y322778D01*
X280782Y322814D01*
X280721Y322858D01*
X280675Y322872D01*
X280633Y322895D01*
X280558Y322908D01*
X280486Y322931D01*
X280438Y322929D01*
X280395Y322937D01*
X280417Y322993D01*
X280454Y323059D01*
X280463Y323106D01*
X280481Y323151D01*
X280495Y323279D01*
X280499Y323301D01*
X280498Y323307D01*
X280499Y323317D01*
X280499Y326864D01*
X283136Y329501D01*
X286864Y329501D01*
X289501Y326864D01*
X289501Y323136D01*
X286864Y320499D01*
X283136Y320499D01*
G37*
%LPD*%
%LPC*%
G36*
X228136Y360499D02*
X228136Y360499D01*
X225920Y362715D01*
X225881Y362743D01*
X225849Y362778D01*
X225782Y362814D01*
X225721Y362858D01*
X225675Y362872D01*
X225633Y362895D01*
X225558Y362908D01*
X225486Y362931D01*
X225438Y362929D01*
X225395Y362937D01*
X225417Y362993D01*
X225454Y363059D01*
X225463Y363106D01*
X225481Y363151D01*
X225495Y363279D01*
X225499Y363301D01*
X225498Y363307D01*
X225499Y363317D01*
X225499Y366864D01*
X228136Y369501D01*
X231864Y369501D01*
X234501Y366864D01*
X234501Y363136D01*
X231864Y360499D01*
X228136Y360499D01*
G37*
%LPD*%
%LPC*%
G36*
X73136Y555499D02*
X73136Y555499D01*
X70499Y558136D01*
X70499Y561864D01*
X73136Y564501D01*
X76864Y564501D01*
X79501Y561864D01*
X79501Y558317D01*
X79508Y558270D01*
X79507Y558222D01*
X79528Y558149D01*
X79540Y558075D01*
X79563Y558032D01*
X79577Y557986D01*
X79616Y557930D01*
X79607Y557929D01*
X79531Y557933D01*
X79485Y557919D01*
X79437Y557916D01*
X79367Y557886D01*
X79294Y557865D01*
X79255Y557838D01*
X79211Y557819D01*
X79110Y557739D01*
X79091Y557726D01*
X79087Y557721D01*
X79080Y557715D01*
X76864Y555499D01*
X73136Y555499D01*
G37*
%LPD*%
%LPC*%
G36*
X222929Y335393D02*
X222929Y335393D01*
X222933Y335469D01*
X222919Y335515D01*
X222916Y335563D01*
X222886Y335633D01*
X222865Y335706D01*
X222838Y335745D01*
X222819Y335789D01*
X222739Y335890D01*
X222726Y335909D01*
X222721Y335913D01*
X222715Y335920D01*
X220499Y338136D01*
X220499Y341864D01*
X223136Y344501D01*
X226864Y344501D01*
X229501Y341864D01*
X229501Y338136D01*
X226864Y335499D01*
X223317Y335499D01*
X223270Y335492D01*
X223222Y335493D01*
X223149Y335472D01*
X223075Y335460D01*
X223032Y335437D01*
X222986Y335423D01*
X222930Y335384D01*
X222929Y335393D01*
G37*
%LPD*%
%LPC*%
G36*
X268136Y1350499D02*
X268136Y1350499D01*
X265499Y1353136D01*
X265499Y1356864D01*
X268136Y1359501D01*
X271864Y1359501D01*
X274501Y1356864D01*
X274501Y1353136D01*
X271864Y1350499D01*
X268136Y1350499D01*
G37*
%LPD*%
%LPC*%
G36*
X253136Y1350499D02*
X253136Y1350499D01*
X250499Y1353136D01*
X250499Y1356864D01*
X253136Y1359501D01*
X256864Y1359501D01*
X259501Y1356864D01*
X259501Y1353136D01*
X256864Y1350499D01*
X253136Y1350499D01*
G37*
%LPD*%
%LPC*%
G36*
X303136Y1450499D02*
X303136Y1450499D01*
X300499Y1453136D01*
X300499Y1456864D01*
X303136Y1459501D01*
X306864Y1459501D01*
X309501Y1456864D01*
X309501Y1453136D01*
X306864Y1450499D01*
X303136Y1450499D01*
G37*
%LPD*%
%LPC*%
G36*
X1348136Y1450499D02*
X1348136Y1450499D01*
X1345499Y1453136D01*
X1345499Y1456864D01*
X1348136Y1459501D01*
X1351864Y1459501D01*
X1354501Y1456864D01*
X1354501Y1453136D01*
X1351864Y1450499D01*
X1348136Y1450499D01*
G37*
%LPD*%
%LPC*%
G36*
X1368136Y1350499D02*
X1368136Y1350499D01*
X1365499Y1353136D01*
X1365499Y1356864D01*
X1368136Y1359501D01*
X1371864Y1359501D01*
X1374501Y1356864D01*
X1374501Y1353136D01*
X1371864Y1350499D01*
X1368136Y1350499D01*
G37*
%LPD*%
%LPC*%
G36*
X1238136Y1440499D02*
X1238136Y1440499D01*
X1235499Y1443136D01*
X1235499Y1446864D01*
X1238136Y1449501D01*
X1241864Y1449501D01*
X1244501Y1446864D01*
X1244501Y1443136D01*
X1241864Y1440499D01*
X1238136Y1440499D01*
G37*
%LPD*%
%LPC*%
G36*
X1228136Y1315499D02*
X1228136Y1315499D01*
X1225499Y1318136D01*
X1225499Y1321864D01*
X1228136Y1324501D01*
X1231864Y1324501D01*
X1234501Y1321864D01*
X1234501Y1318136D01*
X1231864Y1315499D01*
X1228136Y1315499D01*
G37*
%LPD*%
%LPC*%
G36*
X1283136Y1430499D02*
X1283136Y1430499D01*
X1280499Y1433136D01*
X1280499Y1436864D01*
X1283136Y1439501D01*
X1286864Y1439501D01*
X1289501Y1436864D01*
X1289501Y1433136D01*
X1286864Y1430499D01*
X1283136Y1430499D01*
G37*
%LPD*%
%LPC*%
G36*
X1118136Y1425499D02*
X1118136Y1425499D01*
X1115499Y1428136D01*
X1115499Y1431864D01*
X1118136Y1434501D01*
X1121864Y1434501D01*
X1124501Y1431864D01*
X1124501Y1428136D01*
X1121864Y1425499D01*
X1118136Y1425499D01*
G37*
%LPD*%
%LPC*%
G36*
X1093136Y1425499D02*
X1093136Y1425499D01*
X1090499Y1428136D01*
X1090499Y1431864D01*
X1093136Y1434501D01*
X1096864Y1434501D01*
X1099501Y1431864D01*
X1099501Y1428136D01*
X1096864Y1425499D01*
X1093136Y1425499D01*
G37*
%LPD*%
%LPC*%
G36*
X1308136Y1315499D02*
X1308136Y1315499D01*
X1305499Y1318136D01*
X1305499Y1321864D01*
X1308136Y1324501D01*
X1311864Y1324501D01*
X1314501Y1321864D01*
X1314501Y1318136D01*
X1311864Y1315499D01*
X1308136Y1315499D01*
G37*
%LPD*%
%LPC*%
G36*
X1383136Y1315499D02*
X1383136Y1315499D01*
X1380499Y1318136D01*
X1380499Y1321864D01*
X1383136Y1324501D01*
X1386864Y1324501D01*
X1389501Y1321864D01*
X1389501Y1318136D01*
X1386864Y1315499D01*
X1383136Y1315499D01*
G37*
%LPD*%
%LPC*%
G36*
X153136Y1410499D02*
X153136Y1410499D01*
X150499Y1413136D01*
X150499Y1416864D01*
X153136Y1419501D01*
X156864Y1419501D01*
X159501Y1416864D01*
X159501Y1413136D01*
X156864Y1410499D01*
X153136Y1410499D01*
G37*
%LPD*%
%LPC*%
G36*
X83136Y805499D02*
X83136Y805499D01*
X80499Y808136D01*
X80499Y811864D01*
X83136Y814501D01*
X86864Y814501D01*
X89501Y811864D01*
X89501Y808136D01*
X86864Y805499D01*
X83136Y805499D01*
G37*
%LPD*%
%LPC*%
G36*
X83136Y1090499D02*
X83136Y1090499D01*
X80499Y1093136D01*
X80499Y1096864D01*
X83136Y1099501D01*
X86864Y1099501D01*
X89501Y1096864D01*
X89501Y1093136D01*
X86864Y1090499D01*
X83136Y1090499D01*
G37*
%LPD*%
%LPC*%
G36*
X78136Y815499D02*
X78136Y815499D01*
X75499Y818136D01*
X75499Y821864D01*
X78136Y824501D01*
X81864Y824501D01*
X84501Y821864D01*
X84501Y818136D01*
X81864Y815499D01*
X78136Y815499D01*
G37*
%LPD*%
%LPC*%
G36*
X73136Y1085499D02*
X73136Y1085499D01*
X70499Y1088136D01*
X70499Y1091864D01*
X73136Y1094501D01*
X76864Y1094501D01*
X79501Y1091864D01*
X79501Y1088136D01*
X76864Y1085499D01*
X73136Y1085499D01*
G37*
%LPD*%
%LPC*%
G36*
X123136Y1405499D02*
X123136Y1405499D01*
X120499Y1408136D01*
X120499Y1411864D01*
X123136Y1414501D01*
X126864Y1414501D01*
X129501Y1411864D01*
X129501Y1408136D01*
X126864Y1405499D01*
X123136Y1405499D01*
G37*
%LPD*%
%LPC*%
G36*
X68136Y825499D02*
X68136Y825499D01*
X65499Y828136D01*
X65499Y831864D01*
X68136Y834501D01*
X71864Y834501D01*
X74501Y831864D01*
X74501Y828136D01*
X71864Y825499D01*
X68136Y825499D01*
G37*
%LPD*%
%LPC*%
G36*
X158136Y1400499D02*
X158136Y1400499D01*
X155499Y1403136D01*
X155499Y1406864D01*
X158136Y1409501D01*
X161864Y1409501D01*
X164501Y1406864D01*
X164501Y1403136D01*
X161864Y1400499D01*
X158136Y1400499D01*
G37*
%LPD*%
%LPC*%
G36*
X118136Y590499D02*
X118136Y590499D01*
X115499Y593136D01*
X115499Y596864D01*
X118136Y599501D01*
X121864Y599501D01*
X124501Y596864D01*
X124501Y593136D01*
X121864Y590499D01*
X118136Y590499D01*
G37*
%LPD*%
%LPC*%
G36*
X53136Y830499D02*
X53136Y830499D01*
X50499Y833136D01*
X50499Y836864D01*
X53136Y839501D01*
X56864Y839501D01*
X59501Y836864D01*
X59501Y833136D01*
X56864Y830499D01*
X53136Y830499D01*
G37*
%LPD*%
%LPC*%
G36*
X83136Y1075499D02*
X83136Y1075499D01*
X80499Y1078136D01*
X80499Y1081864D01*
X83136Y1084501D01*
X86864Y1084501D01*
X89501Y1081864D01*
X89501Y1078136D01*
X86864Y1075499D01*
X83136Y1075499D01*
G37*
%LPD*%
%LPC*%
G36*
X123136Y1390499D02*
X123136Y1390499D01*
X120499Y1393136D01*
X120499Y1396864D01*
X123136Y1399501D01*
X126864Y1399501D01*
X129501Y1396864D01*
X129501Y1393136D01*
X126864Y1390499D01*
X123136Y1390499D01*
G37*
%LPD*%
%LPC*%
G36*
X78136Y840499D02*
X78136Y840499D01*
X75499Y843136D01*
X75499Y846864D01*
X78136Y849501D01*
X81864Y849501D01*
X84501Y846864D01*
X84501Y843136D01*
X81864Y840499D01*
X78136Y840499D01*
G37*
%LPD*%
%LPC*%
G36*
X73136Y1065499D02*
X73136Y1065499D01*
X70499Y1068136D01*
X70499Y1071864D01*
X73136Y1074501D01*
X76864Y1074501D01*
X79501Y1071864D01*
X79501Y1068136D01*
X76864Y1065499D01*
X73136Y1065499D01*
G37*
%LPD*%
%LPC*%
G36*
X1468136Y1385499D02*
X1468136Y1385499D01*
X1465499Y1388136D01*
X1465499Y1391864D01*
X1468136Y1394501D01*
X1471864Y1394501D01*
X1474501Y1391864D01*
X1474501Y1388136D01*
X1471864Y1385499D01*
X1468136Y1385499D01*
G37*
%LPD*%
%LPC*%
G36*
X158136Y1385499D02*
X158136Y1385499D01*
X155499Y1388136D01*
X155499Y1391864D01*
X158136Y1394501D01*
X161864Y1394501D01*
X164501Y1391864D01*
X164501Y1388136D01*
X161864Y1385499D01*
X158136Y1385499D01*
G37*
%LPD*%
%LPC*%
G36*
X1083136Y1385499D02*
X1083136Y1385499D01*
X1080499Y1388136D01*
X1080499Y1391864D01*
X1083136Y1394501D01*
X1086864Y1394501D01*
X1089501Y1391864D01*
X1089501Y1388136D01*
X1086864Y1385499D01*
X1083136Y1385499D01*
G37*
%LPD*%
%LPC*%
G36*
X188136Y395499D02*
X188136Y395499D01*
X185499Y398136D01*
X185499Y401864D01*
X188136Y404501D01*
X191864Y404501D01*
X194501Y401864D01*
X194501Y398136D01*
X191864Y395499D01*
X188136Y395499D01*
G37*
%LPD*%
%LPC*%
G36*
X58136Y1045499D02*
X58136Y1045499D01*
X55499Y1048136D01*
X55499Y1051864D01*
X58136Y1054501D01*
X61864Y1054501D01*
X64501Y1051864D01*
X64501Y1048136D01*
X61864Y1045499D01*
X58136Y1045499D01*
G37*
%LPD*%
%LPC*%
G36*
X268136Y1380499D02*
X268136Y1380499D01*
X265499Y1383136D01*
X265499Y1386864D01*
X268136Y1389501D01*
X271864Y1389501D01*
X274501Y1386864D01*
X274501Y1383136D01*
X271864Y1380499D01*
X268136Y1380499D01*
G37*
%LPD*%
%LPC*%
G36*
X253136Y1380499D02*
X253136Y1380499D01*
X250499Y1383136D01*
X250499Y1386864D01*
X253136Y1389501D01*
X256864Y1389501D01*
X259501Y1386864D01*
X259501Y1383136D01*
X256864Y1380499D01*
X253136Y1380499D01*
G37*
%LPD*%
%LPC*%
G36*
X198136Y1375499D02*
X198136Y1375499D01*
X195499Y1378136D01*
X195499Y1381864D01*
X198136Y1384501D01*
X201864Y1384501D01*
X204501Y1381864D01*
X204501Y1378136D01*
X201864Y1375499D01*
X198136Y1375499D01*
G37*
%LPD*%
%LPC*%
G36*
X123136Y1375499D02*
X123136Y1375499D01*
X120499Y1378136D01*
X120499Y1381864D01*
X123136Y1384501D01*
X126864Y1384501D01*
X129501Y1381864D01*
X129501Y1378136D01*
X126864Y1375499D01*
X123136Y1375499D01*
G37*
%LPD*%
%LPC*%
G36*
X1113136Y1375499D02*
X1113136Y1375499D01*
X1110499Y1378136D01*
X1110499Y1381864D01*
X1113136Y1384501D01*
X1116864Y1384501D01*
X1119501Y1381864D01*
X1119501Y1378136D01*
X1116864Y1375499D01*
X1113136Y1375499D01*
G37*
%LPD*%
%LPC*%
G36*
X158136Y1370499D02*
X158136Y1370499D01*
X155499Y1373136D01*
X155499Y1376864D01*
X158136Y1379501D01*
X161864Y1379501D01*
X164501Y1376864D01*
X164501Y1373136D01*
X161864Y1370499D01*
X158136Y1370499D01*
G37*
%LPD*%
%LPC*%
G36*
X208136Y1360499D02*
X208136Y1360499D01*
X205499Y1363136D01*
X205499Y1366864D01*
X208136Y1369501D01*
X211864Y1369501D01*
X214501Y1366864D01*
X214501Y1363136D01*
X211864Y1360499D01*
X208136Y1360499D01*
G37*
%LPD*%
%LPC*%
G36*
X138136Y1360499D02*
X138136Y1360499D01*
X135499Y1363136D01*
X135499Y1366864D01*
X138136Y1369501D01*
X141864Y1369501D01*
X144501Y1366864D01*
X144501Y1363136D01*
X141864Y1360499D01*
X138136Y1360499D01*
G37*
%LPD*%
%LPC*%
G36*
X223136Y1360499D02*
X223136Y1360499D01*
X220499Y1363136D01*
X220499Y1366864D01*
X223136Y1369501D01*
X226864Y1369501D01*
X229501Y1366864D01*
X229501Y1363136D01*
X226864Y1360499D01*
X223136Y1360499D01*
G37*
%LPD*%
%LPC*%
G36*
X1208136Y1355499D02*
X1208136Y1355499D01*
X1205499Y1358136D01*
X1205499Y1361864D01*
X1208136Y1364501D01*
X1211864Y1364501D01*
X1214501Y1361864D01*
X1214501Y1358136D01*
X1211864Y1355499D01*
X1208136Y1355499D01*
G37*
%LPD*%
%LPC*%
G36*
X73136Y585499D02*
X73136Y585499D01*
X70499Y588136D01*
X70499Y591864D01*
X73136Y594501D01*
X76864Y594501D01*
X79501Y591864D01*
X79501Y588136D01*
X76864Y585499D01*
X73136Y585499D01*
G37*
%LPD*%
%LPC*%
G36*
X308136Y415499D02*
X308136Y415499D01*
X305499Y418136D01*
X305499Y421864D01*
X308136Y424501D01*
X311864Y424501D01*
X314501Y421864D01*
X314501Y418136D01*
X311864Y415499D01*
X308136Y415499D01*
G37*
%LPD*%
%LPC*%
G36*
X338136Y382273D02*
X338136Y382273D01*
X335499Y384910D01*
X335499Y388638D01*
X338136Y391275D01*
X341864Y391275D01*
X344501Y388638D01*
X344501Y384910D01*
X341864Y382273D01*
X338136Y382273D01*
G37*
%LPD*%
%LPC*%
G36*
X263136Y355499D02*
X263136Y355499D01*
X260499Y358136D01*
X260499Y361864D01*
X263136Y364501D01*
X266864Y364501D01*
X269501Y361864D01*
X269501Y358136D01*
X266864Y355499D01*
X263136Y355499D01*
G37*
%LPD*%
%LPC*%
G36*
X333136Y353725D02*
X333136Y353725D01*
X330499Y356362D01*
X330499Y360090D01*
X333136Y362727D01*
X336864Y362727D01*
X339501Y360090D01*
X339501Y356362D01*
X336864Y353725D01*
X333136Y353725D01*
G37*
%LPD*%
%LPC*%
G36*
X298136Y340761D02*
X298136Y340761D01*
X295499Y343398D01*
X295499Y347126D01*
X298136Y349763D01*
X301864Y349763D01*
X304501Y347126D01*
X304501Y343398D01*
X301864Y340761D01*
X298136Y340761D01*
G37*
%LPD*%
%LPC*%
G36*
X288136Y330499D02*
X288136Y330499D01*
X285499Y333136D01*
X285499Y336864D01*
X288136Y339501D01*
X291864Y339501D01*
X294501Y336864D01*
X294501Y333136D01*
X291864Y330499D01*
X288136Y330499D01*
G37*
%LPD*%
%LPC*%
G36*
X298136Y325499D02*
X298136Y325499D01*
X295499Y328136D01*
X295499Y331864D01*
X298136Y334501D01*
X301864Y334501D01*
X304501Y331864D01*
X304501Y328136D01*
X301864Y325499D01*
X298136Y325499D01*
G37*
%LPD*%
%LPC*%
G36*
X261362Y275499D02*
X261362Y275499D01*
X258725Y278136D01*
X258725Y281864D01*
X261362Y284501D01*
X265090Y284501D01*
X267727Y281864D01*
X267727Y278136D01*
X265090Y275499D01*
X261362Y275499D01*
G37*
%LPD*%
%LPC*%
G36*
X473136Y265499D02*
X473136Y265499D01*
X470499Y268136D01*
X470499Y271864D01*
X473136Y274501D01*
X476864Y274501D01*
X479501Y271864D01*
X479501Y268136D01*
X476864Y265499D01*
X473136Y265499D01*
G37*
%LPD*%
%LPC*%
G36*
X274910Y260499D02*
X274910Y260499D01*
X272273Y263136D01*
X272273Y266864D01*
X274910Y269501D01*
X278638Y269501D01*
X281275Y266864D01*
X281275Y263136D01*
X278638Y260499D01*
X274910Y260499D01*
G37*
%LPD*%
%LPC*%
G36*
X473136Y245499D02*
X473136Y245499D01*
X470499Y248136D01*
X470499Y251864D01*
X473136Y254501D01*
X476864Y254501D01*
X479501Y251864D01*
X479501Y248136D01*
X476864Y245499D01*
X473136Y245499D01*
G37*
%LPD*%
%LPC*%
G36*
X473136Y220499D02*
X473136Y220499D01*
X470499Y223136D01*
X470499Y226864D01*
X473136Y229501D01*
X476864Y229501D01*
X479501Y226864D01*
X479501Y223136D01*
X476864Y220499D01*
X473136Y220499D01*
G37*
%LPD*%
%LPC*%
G36*
X108136Y140499D02*
X108136Y140499D01*
X105499Y143136D01*
X105499Y146864D01*
X108136Y149501D01*
X111864Y149501D01*
X114501Y146864D01*
X114501Y143136D01*
X111864Y140499D01*
X108136Y140499D01*
G37*
%LPD*%
%LPC*%
G36*
X78398Y135499D02*
X78398Y135499D01*
X75761Y138136D01*
X75761Y141864D01*
X78398Y144501D01*
X82126Y144501D01*
X84763Y141864D01*
X84763Y138136D01*
X82126Y135499D01*
X78398Y135499D01*
G37*
%LPD*%
%LPC*%
G36*
X163136Y115499D02*
X163136Y115499D01*
X160499Y118136D01*
X160499Y121864D01*
X163136Y124501D01*
X166864Y124501D01*
X169501Y121864D01*
X169501Y118136D01*
X166864Y115499D01*
X163136Y115499D01*
G37*
%LPD*%
%LPC*%
G36*
X1293136Y1350499D02*
X1293136Y1350499D01*
X1290499Y1353136D01*
X1290499Y1356864D01*
X1293136Y1359501D01*
X1296864Y1359501D01*
X1299501Y1356864D01*
X1299501Y1353136D01*
X1296864Y1350499D01*
X1293136Y1350499D01*
G37*
%LPD*%
%LPC*%
G36*
X293136Y1480499D02*
X293136Y1480499D01*
X290499Y1483136D01*
X290499Y1486864D01*
X293136Y1489501D01*
X296864Y1489501D01*
X299501Y1486864D01*
X299501Y1483136D01*
X296864Y1480499D01*
X293136Y1480499D01*
G37*
%LPD*%
%LPC*%
G36*
X293136Y315499D02*
X293136Y315499D01*
X290499Y318136D01*
X290499Y321864D01*
X293136Y324501D01*
X296864Y324501D01*
X299501Y321864D01*
X299501Y318136D01*
X296864Y315499D01*
X293136Y315499D01*
G37*
%LPD*%
%LPC*%
G36*
X93070Y1395340D02*
X93070Y1395340D01*
X91929Y1395998D01*
X90998Y1396929D01*
X90717Y1397416D01*
X90640Y1397510D01*
X90563Y1397605D01*
X90562Y1397606D01*
X90562Y1397607D01*
X90453Y1397675D01*
X90355Y1397737D01*
X90354Y1397737D01*
X90353Y1397737D01*
X90230Y1397767D01*
X90116Y1397795D01*
X90115Y1397795D01*
X90114Y1397795D01*
X89991Y1397784D01*
X89871Y1397774D01*
X89870Y1397773D01*
X89869Y1397773D01*
X89755Y1397723D01*
X89646Y1397675D01*
X89645Y1397675D01*
X89644Y1397674D01*
X89550Y1397589D01*
X89463Y1397510D01*
X89462Y1397509D01*
X89403Y1397403D01*
X89343Y1397296D01*
X89343Y1397295D01*
X89342Y1397294D01*
X89321Y1397179D01*
X89297Y1397054D01*
X89297Y1397053D01*
X89297Y1397052D01*
X89298Y1397048D01*
X89311Y1396887D01*
X89384Y1396523D01*
X81523Y1396523D01*
X81523Y1404384D01*
X82771Y1404136D01*
X84500Y1403419D01*
X86056Y1402380D01*
X87380Y1401056D01*
X88419Y1399500D01*
X88535Y1399222D01*
X88586Y1399139D01*
X88632Y1399053D01*
X88651Y1399035D01*
X88664Y1399013D01*
X88739Y1398951D01*
X88810Y1398884D01*
X88834Y1398873D01*
X88854Y1398856D01*
X88945Y1398821D01*
X89033Y1398780D01*
X89059Y1398777D01*
X89083Y1398768D01*
X89181Y1398764D01*
X89277Y1398753D01*
X89303Y1398759D01*
X89329Y1398757D01*
X89423Y1398785D01*
X89518Y1398805D01*
X89540Y1398819D01*
X89565Y1398826D01*
X89645Y1398882D01*
X89729Y1398931D01*
X89746Y1398951D01*
X89767Y1398966D01*
X89826Y1399044D01*
X89889Y1399118D01*
X89892Y1399126D01*
X94126Y1399126D01*
X94126Y1395057D01*
X93070Y1395340D01*
G37*
%LPD*%
%LPC*%
G36*
X81523Y1393477D02*
X81523Y1393477D01*
X89384Y1393477D01*
X89136Y1392229D01*
X88419Y1390500D01*
X87380Y1388944D01*
X86056Y1387620D01*
X84500Y1386581D01*
X82771Y1385864D01*
X81523Y1385616D01*
X81523Y1393477D01*
G37*
%LPD*%
%LPC*%
G36*
X70616Y1396523D02*
X70616Y1396523D01*
X70864Y1397771D01*
X71581Y1399500D01*
X72620Y1401056D01*
X73944Y1402380D01*
X75500Y1403419D01*
X77229Y1404136D01*
X78477Y1404384D01*
X78477Y1396523D01*
X70616Y1396523D01*
G37*
%LPD*%
%LPC*%
G36*
X77229Y1385864D02*
X77229Y1385864D01*
X75500Y1386581D01*
X73944Y1387620D01*
X72620Y1388944D01*
X71581Y1390500D01*
X70864Y1392229D01*
X70616Y1393477D01*
X78477Y1393477D01*
X78477Y1385616D01*
X77229Y1385864D01*
G37*
%LPD*%
%LPC*%
G36*
X90057Y1415874D02*
X90057Y1415874D01*
X90340Y1416930D01*
X90998Y1418071D01*
X91749Y1418821D01*
X91777Y1418860D01*
X91812Y1418892D01*
X91848Y1418959D01*
X91892Y1419021D01*
X91906Y1419066D01*
X91929Y1419109D01*
X91942Y1419183D01*
X91965Y1419256D01*
X91963Y1419304D01*
X91972Y1419351D01*
X91960Y1419426D01*
X91958Y1419501D01*
X91942Y1419546D01*
X91935Y1419594D01*
X91900Y1419661D01*
X91874Y1419733D01*
X91844Y1419770D01*
X91822Y1419813D01*
X91767Y1419865D01*
X91720Y1419925D01*
X91680Y1419950D01*
X91645Y1419984D01*
X91577Y1420016D01*
X91513Y1420058D01*
X91467Y1420069D01*
X91423Y1420090D01*
X91348Y1420099D01*
X91275Y1420118D01*
X91227Y1420114D01*
X91179Y1420120D01*
X91052Y1420100D01*
X91029Y1420099D01*
X91023Y1420096D01*
X91013Y1420094D01*
X90874Y1420057D01*
X90874Y1424126D01*
X94943Y1424126D01*
X94660Y1423070D01*
X94002Y1421929D01*
X93251Y1421179D01*
X93223Y1421140D01*
X93188Y1421108D01*
X93152Y1421041D01*
X93108Y1420979D01*
X93094Y1420934D01*
X93071Y1420891D01*
X93058Y1420817D01*
X93035Y1420744D01*
X93037Y1420696D01*
X93028Y1420649D01*
X93040Y1420574D01*
X93042Y1420499D01*
X93058Y1420454D01*
X93065Y1420406D01*
X93100Y1420339D01*
X93126Y1420267D01*
X93156Y1420230D01*
X93178Y1420187D01*
X93233Y1420135D01*
X93280Y1420075D01*
X93320Y1420050D01*
X93355Y1420016D01*
X93423Y1419984D01*
X93487Y1419942D01*
X93533Y1419931D01*
X93577Y1419910D01*
X93652Y1419901D01*
X93725Y1419882D01*
X93773Y1419886D01*
X93821Y1419880D01*
X93948Y1419900D01*
X93971Y1419901D01*
X93977Y1419904D01*
X93987Y1419906D01*
X94126Y1419943D01*
X94126Y1415874D01*
X90057Y1415874D01*
G37*
%LPD*%
%LPC*%
G36*
X70874Y1425874D02*
X70874Y1425874D01*
X70874Y1429943D01*
X71930Y1429660D01*
X73071Y1429002D01*
X74002Y1428071D01*
X74341Y1427483D01*
X74401Y1427409D01*
X74456Y1427331D01*
X74479Y1427315D01*
X74496Y1427293D01*
X74577Y1427242D01*
X74654Y1427186D01*
X74681Y1427177D01*
X74705Y1427162D01*
X74797Y1427140D01*
X74888Y1427111D01*
X74917Y1427111D01*
X74944Y1427105D01*
X75039Y1427113D01*
X75134Y1427114D01*
X75161Y1427124D01*
X75189Y1427126D01*
X75276Y1427165D01*
X75366Y1427196D01*
X75388Y1427214D01*
X75414Y1427225D01*
X75485Y1427289D01*
X75560Y1427348D01*
X75581Y1427377D01*
X75596Y1427390D01*
X75612Y1427419D01*
X75659Y1427483D01*
X75998Y1428071D01*
X76929Y1429002D01*
X78070Y1429660D01*
X79126Y1429943D01*
X79126Y1425874D01*
X70874Y1425874D01*
G37*
%LPD*%
%LPC*%
G36*
X80874Y1425874D02*
X80874Y1425874D01*
X80874Y1429943D01*
X81930Y1429660D01*
X83071Y1429002D01*
X84002Y1428071D01*
X84341Y1427483D01*
X84401Y1427409D01*
X84456Y1427331D01*
X84479Y1427315D01*
X84496Y1427293D01*
X84577Y1427242D01*
X84654Y1427186D01*
X84681Y1427177D01*
X84705Y1427162D01*
X84797Y1427140D01*
X84888Y1427111D01*
X84917Y1427111D01*
X84944Y1427105D01*
X85039Y1427113D01*
X85134Y1427114D01*
X85161Y1427124D01*
X85189Y1427126D01*
X85276Y1427165D01*
X85366Y1427196D01*
X85388Y1427214D01*
X85414Y1427225D01*
X85485Y1427289D01*
X85560Y1427348D01*
X85581Y1427377D01*
X85596Y1427390D01*
X85612Y1427419D01*
X85659Y1427483D01*
X85998Y1428071D01*
X86929Y1429002D01*
X88070Y1429660D01*
X89126Y1429943D01*
X89126Y1425874D01*
X80874Y1425874D01*
G37*
%LPD*%
%LPC*%
G36*
X80874Y1424126D02*
X80874Y1424126D01*
X89126Y1424126D01*
X89126Y1420057D01*
X88070Y1420340D01*
X86929Y1420998D01*
X85998Y1421929D01*
X85659Y1422517D01*
X85599Y1422591D01*
X85544Y1422669D01*
X85521Y1422685D01*
X85503Y1422707D01*
X85423Y1422758D01*
X85346Y1422814D01*
X85319Y1422823D01*
X85295Y1422838D01*
X85202Y1422860D01*
X85112Y1422889D01*
X85083Y1422889D01*
X85056Y1422895D01*
X84961Y1422887D01*
X84866Y1422886D01*
X84839Y1422876D01*
X84811Y1422874D01*
X84724Y1422835D01*
X84634Y1422804D01*
X84612Y1422786D01*
X84586Y1422775D01*
X84515Y1422711D01*
X84440Y1422652D01*
X84419Y1422623D01*
X84404Y1422609D01*
X84388Y1422581D01*
X84341Y1422517D01*
X84002Y1421929D01*
X83071Y1420998D01*
X81930Y1420340D01*
X80874Y1420057D01*
X80874Y1424126D01*
G37*
%LPD*%
%LPC*%
G36*
X70874Y1424126D02*
X70874Y1424126D01*
X79126Y1424126D01*
X79126Y1420057D01*
X78070Y1420340D01*
X76929Y1420998D01*
X75998Y1421929D01*
X75659Y1422517D01*
X75599Y1422591D01*
X75544Y1422669D01*
X75521Y1422685D01*
X75503Y1422707D01*
X75423Y1422758D01*
X75346Y1422814D01*
X75319Y1422823D01*
X75295Y1422838D01*
X75202Y1422860D01*
X75112Y1422889D01*
X75083Y1422889D01*
X75056Y1422895D01*
X74961Y1422887D01*
X74866Y1422886D01*
X74839Y1422876D01*
X74811Y1422874D01*
X74724Y1422835D01*
X74634Y1422804D01*
X74612Y1422786D01*
X74586Y1422775D01*
X74515Y1422711D01*
X74440Y1422652D01*
X74419Y1422623D01*
X74404Y1422609D01*
X74388Y1422581D01*
X74341Y1422517D01*
X74002Y1421929D01*
X73071Y1420998D01*
X71930Y1420340D01*
X70874Y1420057D01*
X70874Y1424126D01*
G37*
%LPD*%
%LPC*%
G36*
X275874Y320874D02*
X275874Y320874D01*
X275874Y324943D01*
X276930Y324660D01*
X278071Y324002D01*
X279002Y323071D01*
X279079Y322937D01*
X279109Y322900D01*
X279132Y322857D01*
X279186Y322805D01*
X279234Y322747D01*
X279275Y322721D01*
X279310Y322688D01*
X279379Y322656D01*
X279443Y322616D01*
X279489Y322605D01*
X279533Y322584D01*
X279608Y322576D01*
X279682Y322558D01*
X279730Y322563D01*
X279734Y322562D01*
X279725Y322543D01*
X279684Y322479D01*
X279672Y322433D01*
X279651Y322389D01*
X279642Y322314D01*
X279624Y322241D01*
X279627Y322193D01*
X279621Y322145D01*
X279641Y322017D01*
X279643Y321995D01*
X279645Y321989D01*
X279647Y321979D01*
X279943Y320874D01*
X275874Y320874D01*
G37*
%LPD*%
%LPC*%
G36*
X220874Y360874D02*
X220874Y360874D01*
X220874Y364943D01*
X221930Y364660D01*
X223071Y364002D01*
X224002Y363071D01*
X224079Y362937D01*
X224109Y362900D01*
X224132Y362857D01*
X224147Y362843D01*
X224147Y362842D01*
X224150Y362840D01*
X224186Y362805D01*
X224234Y362747D01*
X224275Y362721D01*
X224310Y362688D01*
X224379Y362656D01*
X224443Y362616D01*
X224489Y362605D01*
X224533Y362584D01*
X224608Y362576D01*
X224682Y362558D01*
X224730Y362563D01*
X224734Y362562D01*
X224725Y362543D01*
X224684Y362479D01*
X224672Y362433D01*
X224651Y362389D01*
X224642Y362314D01*
X224624Y362241D01*
X224627Y362193D01*
X224621Y362145D01*
X224641Y362017D01*
X224643Y361995D01*
X224645Y361989D01*
X224647Y361979D01*
X224943Y360874D01*
X220874Y360874D01*
G37*
%LPD*%
%LPC*%
G36*
X220874Y330874D02*
X220874Y330874D01*
X220874Y334943D01*
X221979Y334647D01*
X222027Y334642D01*
X222073Y334628D01*
X222149Y334630D01*
X222224Y334622D01*
X222271Y334633D01*
X222319Y334634D01*
X222390Y334660D01*
X222464Y334677D01*
X222505Y334702D01*
X222550Y334719D01*
X222560Y334727D01*
X222557Y334699D01*
X222567Y334652D01*
X222568Y334604D01*
X222593Y334532D01*
X222609Y334458D01*
X222634Y334417D01*
X222650Y334372D01*
X222697Y334312D01*
X222736Y334247D01*
X222772Y334216D01*
X222802Y334178D01*
X222905Y334102D01*
X222923Y334087D01*
X222929Y334085D01*
X222937Y334079D01*
X223071Y334002D01*
X224002Y333071D01*
X224660Y331930D01*
X224943Y330874D01*
X220874Y330874D01*
G37*
%LPD*%
%LPC*%
G36*
X80057Y555874D02*
X80057Y555874D01*
X80353Y556979D01*
X80358Y557027D01*
X80372Y557073D01*
X80370Y557149D01*
X80378Y557224D01*
X80367Y557271D01*
X80366Y557319D01*
X80340Y557390D01*
X80323Y557464D01*
X80298Y557505D01*
X80281Y557550D01*
X80273Y557560D01*
X80301Y557557D01*
X80348Y557567D01*
X80396Y557568D01*
X80468Y557593D01*
X80542Y557609D01*
X80583Y557634D01*
X80628Y557650D01*
X80688Y557697D01*
X80753Y557736D01*
X80784Y557772D01*
X80822Y557802D01*
X80898Y557905D01*
X80913Y557923D01*
X80915Y557929D01*
X80921Y557937D01*
X80998Y558071D01*
X81929Y559002D01*
X83070Y559660D01*
X84126Y559943D01*
X84126Y555874D01*
X80057Y555874D01*
G37*
%LPD*%
%LPC*%
G36*
X225874Y1420874D02*
X225874Y1420874D01*
X225874Y1424943D01*
X226930Y1424660D01*
X228071Y1424002D01*
X229002Y1423071D01*
X229660Y1421930D01*
X229943Y1420874D01*
X225874Y1420874D01*
G37*
%LPD*%
%LPC*%
G36*
X230874Y390874D02*
X230874Y390874D01*
X230874Y394943D01*
X231930Y394660D01*
X233071Y394002D01*
X234002Y393071D01*
X234660Y391930D01*
X234943Y390874D01*
X230874Y390874D01*
G37*
%LPD*%
%LPC*%
G36*
X75874Y1010874D02*
X75874Y1010874D01*
X75874Y1014943D01*
X76930Y1014660D01*
X78071Y1014002D01*
X79002Y1013071D01*
X79660Y1011930D01*
X79943Y1010874D01*
X75874Y1010874D01*
G37*
%LPD*%
%LPC*%
G36*
X335874Y374100D02*
X335874Y374100D01*
X335874Y378169D01*
X336930Y377886D01*
X338071Y377228D01*
X339002Y376297D01*
X339660Y375156D01*
X339943Y374100D01*
X335874Y374100D01*
G37*
%LPD*%
%LPC*%
G36*
X205874Y1420874D02*
X205874Y1420874D01*
X205874Y1424943D01*
X206930Y1424660D01*
X208071Y1424002D01*
X209002Y1423071D01*
X209660Y1421930D01*
X209943Y1420874D01*
X205874Y1420874D01*
G37*
%LPD*%
%LPC*%
G36*
X115874Y836136D02*
X115874Y836136D01*
X115874Y840205D01*
X116930Y839922D01*
X118071Y839264D01*
X119002Y838333D01*
X119660Y837192D01*
X119943Y836136D01*
X115874Y836136D01*
G37*
%LPD*%
%LPC*%
G36*
X95874Y1385874D02*
X95874Y1385874D01*
X95874Y1389943D01*
X96930Y1389660D01*
X98071Y1389002D01*
X99002Y1388071D01*
X99660Y1386930D01*
X99943Y1385874D01*
X95874Y1385874D01*
G37*
%LPD*%
%LPC*%
G36*
X90874Y1425874D02*
X90874Y1425874D01*
X90874Y1429943D01*
X91930Y1429660D01*
X93071Y1429002D01*
X94002Y1428071D01*
X94660Y1426930D01*
X94943Y1425874D01*
X90874Y1425874D01*
G37*
%LPD*%
%LPC*%
G36*
X255874Y1400874D02*
X255874Y1400874D01*
X255874Y1404943D01*
X256930Y1404660D01*
X258071Y1404002D01*
X259002Y1403071D01*
X259660Y1401930D01*
X259943Y1400874D01*
X255874Y1400874D01*
G37*
%LPD*%
%LPC*%
G36*
X330874Y410874D02*
X330874Y410874D01*
X330874Y414943D01*
X331930Y414660D01*
X333071Y414002D01*
X334002Y413071D01*
X334660Y411930D01*
X334943Y410874D01*
X330874Y410874D01*
G37*
%LPD*%
%LPC*%
G36*
X75874Y760874D02*
X75874Y760874D01*
X75874Y764943D01*
X76930Y764660D01*
X78071Y764002D01*
X79002Y763071D01*
X79660Y761930D01*
X79943Y760874D01*
X75874Y760874D01*
G37*
%LPD*%
%LPC*%
G36*
X250874Y400874D02*
X250874Y400874D01*
X250874Y404943D01*
X251930Y404660D01*
X253071Y404002D01*
X254002Y403071D01*
X254660Y401930D01*
X254943Y400874D01*
X250874Y400874D01*
G37*
%LPD*%
%LPC*%
G36*
X85874Y580874D02*
X85874Y580874D01*
X85874Y584943D01*
X86930Y584660D01*
X88071Y584002D01*
X89002Y583071D01*
X89660Y581930D01*
X89943Y580874D01*
X85874Y580874D01*
G37*
%LPD*%
%LPC*%
G36*
X245874Y320874D02*
X245874Y320874D01*
X245874Y324943D01*
X246930Y324660D01*
X248071Y324002D01*
X249002Y323071D01*
X249660Y321930D01*
X249943Y320874D01*
X245874Y320874D01*
G37*
%LPD*%
%LPC*%
G36*
X270874Y1400874D02*
X270874Y1400874D01*
X270874Y1404943D01*
X271930Y1404660D01*
X273071Y1404002D01*
X274002Y1403071D01*
X274660Y1401930D01*
X274943Y1400874D01*
X270874Y1400874D01*
G37*
%LPD*%
%LPC*%
G36*
X85874Y555874D02*
X85874Y555874D01*
X85874Y559943D01*
X86930Y559660D01*
X88071Y559002D01*
X89002Y558071D01*
X89660Y556930D01*
X89943Y555874D01*
X85874Y555874D01*
G37*
%LPD*%
%LPC*%
G36*
X255874Y1435874D02*
X255874Y1435874D01*
X255874Y1439943D01*
X256930Y1439660D01*
X258071Y1439002D01*
X259002Y1438071D01*
X259660Y1436930D01*
X259943Y1435874D01*
X255874Y1435874D01*
G37*
%LPD*%
%LPC*%
G36*
X80874Y790874D02*
X80874Y790874D01*
X80874Y794943D01*
X81930Y794660D01*
X83071Y794002D01*
X84002Y793071D01*
X84660Y791930D01*
X84943Y790874D01*
X80874Y790874D01*
G37*
%LPD*%
%LPC*%
G36*
X270874Y1435874D02*
X270874Y1435874D01*
X270874Y1439943D01*
X271930Y1439660D01*
X273071Y1439002D01*
X274002Y1438071D01*
X274660Y1436930D01*
X274943Y1435874D01*
X270874Y1435874D01*
G37*
%LPD*%
%LPC*%
G36*
X260874Y1460874D02*
X260874Y1460874D01*
X260874Y1464943D01*
X261930Y1464660D01*
X263071Y1464002D01*
X264002Y1463071D01*
X264660Y1461930D01*
X264943Y1460874D01*
X260874Y1460874D01*
G37*
%LPD*%
%LPC*%
G36*
X80874Y535874D02*
X80874Y535874D01*
X80874Y539943D01*
X81930Y539660D01*
X83071Y539002D01*
X84002Y538071D01*
X84660Y536930D01*
X84943Y535874D01*
X80874Y535874D01*
G37*
%LPD*%
%LPC*%
G36*
X75874Y510874D02*
X75874Y510874D01*
X75874Y514943D01*
X76930Y514660D01*
X78071Y514002D01*
X79002Y513071D01*
X79660Y511930D01*
X79943Y510874D01*
X75874Y510874D01*
G37*
%LPD*%
%LPC*%
G36*
X140874Y135874D02*
X140874Y135874D01*
X140874Y139943D01*
X141930Y139660D01*
X143071Y139002D01*
X144002Y138071D01*
X144660Y136930D01*
X144943Y135874D01*
X140874Y135874D01*
G37*
%LPD*%
%LPC*%
G36*
X95874Y1400874D02*
X95874Y1400874D01*
X95874Y1404943D01*
X96930Y1404660D01*
X98071Y1404002D01*
X99002Y1403071D01*
X99660Y1401930D01*
X99943Y1400874D01*
X95874Y1400874D01*
G37*
%LPD*%
%LPC*%
G36*
X260874Y1485874D02*
X260874Y1485874D01*
X260874Y1489943D01*
X261930Y1489660D01*
X263071Y1489002D01*
X264002Y1488071D01*
X264660Y1486930D01*
X264943Y1485874D01*
X260874Y1485874D01*
G37*
%LPD*%
%LPC*%
G36*
X110874Y100874D02*
X110874Y100874D01*
X110874Y104943D01*
X111930Y104660D01*
X113071Y104002D01*
X114002Y103071D01*
X114660Y101930D01*
X114943Y100874D01*
X110874Y100874D01*
G37*
%LPD*%
%LPC*%
G36*
X115874Y1086136D02*
X115874Y1086136D01*
X115874Y1090205D01*
X116930Y1089922D01*
X118071Y1089264D01*
X119002Y1088333D01*
X119660Y1087192D01*
X119943Y1086136D01*
X115874Y1086136D01*
G37*
%LPD*%
%LPC*%
G36*
X110874Y70874D02*
X110874Y70874D01*
X110874Y74943D01*
X111930Y74660D01*
X113071Y74002D01*
X114002Y73071D01*
X114660Y71930D01*
X114943Y70874D01*
X110874Y70874D01*
G37*
%LPD*%
%LPC*%
G36*
X95874Y1415874D02*
X95874Y1415874D01*
X95874Y1419943D01*
X96930Y1419660D01*
X98071Y1419002D01*
X99002Y1418071D01*
X99660Y1416930D01*
X99943Y1415874D01*
X95874Y1415874D01*
G37*
%LPD*%
%LPC*%
G36*
X75874Y1040874D02*
X75874Y1040874D01*
X75874Y1044943D01*
X76930Y1044660D01*
X78071Y1044002D01*
X79002Y1043071D01*
X79660Y1041930D01*
X79943Y1040874D01*
X75874Y1040874D01*
G37*
%LPD*%
%LPC*%
G36*
X330874Y409126D02*
X330874Y409126D01*
X334943Y409126D01*
X334660Y408070D01*
X334002Y406929D01*
X333071Y405998D01*
X331930Y405340D01*
X330874Y405057D01*
X330874Y409126D01*
G37*
%LPD*%
%LPC*%
G36*
X270874Y1399126D02*
X270874Y1399126D01*
X274943Y1399126D01*
X274660Y1398070D01*
X274002Y1396929D01*
X273071Y1395998D01*
X271930Y1395340D01*
X270874Y1395057D01*
X270874Y1399126D01*
G37*
%LPD*%
%LPC*%
G36*
X255874Y1399126D02*
X255874Y1399126D01*
X259943Y1399126D01*
X259660Y1398070D01*
X259002Y1396929D01*
X258071Y1395998D01*
X256930Y1395340D01*
X255874Y1395057D01*
X255874Y1399126D01*
G37*
%LPD*%
%LPC*%
G36*
X90057Y1385874D02*
X90057Y1385874D01*
X90340Y1386930D01*
X90998Y1388071D01*
X91929Y1389002D01*
X93070Y1389660D01*
X94126Y1389943D01*
X94126Y1385874D01*
X90057Y1385874D01*
G37*
%LPD*%
%LPC*%
G36*
X95874Y1384126D02*
X95874Y1384126D01*
X99943Y1384126D01*
X99660Y1383070D01*
X99002Y1381929D01*
X98071Y1380998D01*
X96930Y1380340D01*
X95874Y1380057D01*
X95874Y1384126D01*
G37*
%LPD*%
%LPC*%
G36*
X110057Y1086136D02*
X110057Y1086136D01*
X110340Y1087192D01*
X110998Y1088333D01*
X111929Y1089264D01*
X113070Y1089922D01*
X114126Y1090205D01*
X114126Y1086136D01*
X110057Y1086136D01*
G37*
%LPD*%
%LPC*%
G36*
X250874Y399126D02*
X250874Y399126D01*
X254943Y399126D01*
X254660Y398070D01*
X254002Y396929D01*
X253071Y395998D01*
X251930Y395340D01*
X250874Y395057D01*
X250874Y399126D01*
G37*
%LPD*%
%LPC*%
G36*
X115874Y1084388D02*
X115874Y1084388D01*
X119943Y1084388D01*
X119660Y1083332D01*
X119002Y1082191D01*
X118071Y1081260D01*
X116930Y1080602D01*
X115874Y1080319D01*
X115874Y1084388D01*
G37*
%LPD*%
%LPC*%
G36*
X70057Y1040874D02*
X70057Y1040874D01*
X70340Y1041930D01*
X70998Y1043071D01*
X71929Y1044002D01*
X73070Y1044660D01*
X74126Y1044943D01*
X74126Y1040874D01*
X70057Y1040874D01*
G37*
%LPD*%
%LPC*%
G36*
X75874Y1039126D02*
X75874Y1039126D01*
X79943Y1039126D01*
X79660Y1038070D01*
X79002Y1036929D01*
X78071Y1035998D01*
X76930Y1035340D01*
X75874Y1035057D01*
X75874Y1039126D01*
G37*
%LPD*%
%LPC*%
G36*
X330057Y374100D02*
X330057Y374100D01*
X330340Y375156D01*
X330998Y376297D01*
X331929Y377228D01*
X333070Y377886D01*
X334126Y378169D01*
X334126Y374100D01*
X330057Y374100D01*
G37*
%LPD*%
%LPC*%
G36*
X335874Y372352D02*
X335874Y372352D01*
X339943Y372352D01*
X339660Y371296D01*
X339002Y370155D01*
X338071Y369224D01*
X336930Y368566D01*
X335874Y368283D01*
X335874Y372352D01*
G37*
%LPD*%
%LPC*%
G36*
X70057Y1010874D02*
X70057Y1010874D01*
X70340Y1011930D01*
X70998Y1013071D01*
X71929Y1014002D01*
X73070Y1014660D01*
X74126Y1014943D01*
X74126Y1010874D01*
X70057Y1010874D01*
G37*
%LPD*%
%LPC*%
G36*
X75874Y1009126D02*
X75874Y1009126D01*
X79943Y1009126D01*
X79660Y1008070D01*
X79002Y1006929D01*
X78071Y1005998D01*
X76930Y1005340D01*
X75874Y1005057D01*
X75874Y1009126D01*
G37*
%LPD*%
%LPC*%
G36*
X215057Y360874D02*
X215057Y360874D01*
X215340Y361930D01*
X215998Y363071D01*
X216929Y364002D01*
X218070Y364660D01*
X219126Y364943D01*
X219126Y360874D01*
X215057Y360874D01*
G37*
%LPD*%
%LPC*%
G36*
X265057Y1400874D02*
X265057Y1400874D01*
X265340Y1401930D01*
X265998Y1403071D01*
X266929Y1404002D01*
X268070Y1404660D01*
X269126Y1404943D01*
X269126Y1400874D01*
X265057Y1400874D01*
G37*
%LPD*%
%LPC*%
G36*
X110057Y836136D02*
X110057Y836136D01*
X110340Y837192D01*
X110998Y838333D01*
X111929Y839264D01*
X113070Y839922D01*
X114126Y840205D01*
X114126Y836136D01*
X110057Y836136D01*
G37*
%LPD*%
%LPC*%
G36*
X220874Y359126D02*
X220874Y359126D01*
X224943Y359126D01*
X224660Y358070D01*
X224002Y356929D01*
X223071Y355998D01*
X221930Y355340D01*
X220874Y355057D01*
X220874Y359126D01*
G37*
%LPD*%
%LPC*%
G36*
X115874Y834388D02*
X115874Y834388D01*
X119943Y834388D01*
X119660Y833332D01*
X119002Y832191D01*
X118071Y831260D01*
X116930Y830602D01*
X115874Y830319D01*
X115874Y834388D01*
G37*
%LPD*%
%LPC*%
G36*
X75057Y790874D02*
X75057Y790874D01*
X75340Y791930D01*
X75998Y793071D01*
X76929Y794002D01*
X78070Y794660D01*
X79126Y794943D01*
X79126Y790874D01*
X75057Y790874D01*
G37*
%LPD*%
%LPC*%
G36*
X80874Y789126D02*
X80874Y789126D01*
X84943Y789126D01*
X84660Y788070D01*
X84002Y786929D01*
X83071Y785998D01*
X81930Y785340D01*
X80874Y785057D01*
X80874Y789126D01*
G37*
%LPD*%
%LPC*%
G36*
X70057Y760874D02*
X70057Y760874D01*
X70340Y761930D01*
X70998Y763071D01*
X71929Y764002D01*
X73070Y764660D01*
X74126Y764943D01*
X74126Y760874D01*
X70057Y760874D01*
G37*
%LPD*%
%LPC*%
G36*
X215057Y330874D02*
X215057Y330874D01*
X215340Y331930D01*
X215998Y333071D01*
X216929Y334002D01*
X218070Y334660D01*
X219126Y334943D01*
X219126Y330874D01*
X215057Y330874D01*
G37*
%LPD*%
%LPC*%
G36*
X75874Y759126D02*
X75874Y759126D01*
X79943Y759126D01*
X79660Y758070D01*
X79002Y756929D01*
X78071Y755998D01*
X76930Y755340D01*
X75874Y755057D01*
X75874Y759126D01*
G37*
%LPD*%
%LPC*%
G36*
X255057Y1485874D02*
X255057Y1485874D01*
X255340Y1486930D01*
X255998Y1488071D01*
X256929Y1489002D01*
X258070Y1489660D01*
X259126Y1489943D01*
X259126Y1485874D01*
X255057Y1485874D01*
G37*
%LPD*%
%LPC*%
G36*
X260874Y1484126D02*
X260874Y1484126D01*
X264943Y1484126D01*
X264660Y1483070D01*
X264002Y1481929D01*
X263071Y1480998D01*
X261930Y1480340D01*
X260874Y1480057D01*
X260874Y1484126D01*
G37*
%LPD*%
%LPC*%
G36*
X255057Y1460874D02*
X255057Y1460874D01*
X255340Y1461930D01*
X255998Y1463071D01*
X256929Y1464002D01*
X258070Y1464660D01*
X259126Y1464943D01*
X259126Y1460874D01*
X255057Y1460874D01*
G37*
%LPD*%
%LPC*%
G36*
X260874Y1459126D02*
X260874Y1459126D01*
X264943Y1459126D01*
X264660Y1458070D01*
X264002Y1456929D01*
X263071Y1455998D01*
X261930Y1455340D01*
X260874Y1455057D01*
X260874Y1459126D01*
G37*
%LPD*%
%LPC*%
G36*
X250057Y1435874D02*
X250057Y1435874D01*
X250340Y1436930D01*
X250998Y1438071D01*
X251929Y1439002D01*
X253070Y1439660D01*
X254126Y1439943D01*
X254126Y1435874D01*
X250057Y1435874D01*
G37*
%LPD*%
%LPC*%
G36*
X265057Y1435874D02*
X265057Y1435874D01*
X265340Y1436930D01*
X265998Y1438071D01*
X266929Y1439002D01*
X268070Y1439660D01*
X269126Y1439943D01*
X269126Y1435874D01*
X265057Y1435874D01*
G37*
%LPD*%
%LPC*%
G36*
X80057Y580874D02*
X80057Y580874D01*
X80340Y581930D01*
X80998Y583071D01*
X81929Y584002D01*
X83070Y584660D01*
X84126Y584943D01*
X84126Y580874D01*
X80057Y580874D01*
G37*
%LPD*%
%LPC*%
G36*
X245874Y319126D02*
X245874Y319126D01*
X249943Y319126D01*
X249660Y318070D01*
X249002Y316929D01*
X248071Y315998D01*
X246930Y315340D01*
X245874Y315057D01*
X245874Y319126D01*
G37*
%LPD*%
%LPC*%
G36*
X275874Y319126D02*
X275874Y319126D01*
X279943Y319126D01*
X279660Y318070D01*
X279002Y316929D01*
X278071Y315998D01*
X276930Y315340D01*
X275874Y315057D01*
X275874Y319126D01*
G37*
%LPD*%
%LPC*%
G36*
X85874Y579126D02*
X85874Y579126D01*
X89943Y579126D01*
X89660Y578070D01*
X89002Y576929D01*
X88071Y575998D01*
X86930Y575340D01*
X85874Y575057D01*
X85874Y579126D01*
G37*
%LPD*%
%LPC*%
G36*
X270874Y1434126D02*
X270874Y1434126D01*
X274943Y1434126D01*
X274660Y1433070D01*
X274002Y1431929D01*
X273071Y1430998D01*
X271930Y1430340D01*
X270874Y1430057D01*
X270874Y1434126D01*
G37*
%LPD*%
%LPC*%
G36*
X255874Y1434126D02*
X255874Y1434126D01*
X259943Y1434126D01*
X259660Y1433070D01*
X259002Y1431929D01*
X258071Y1430998D01*
X256930Y1430340D01*
X255874Y1430057D01*
X255874Y1434126D01*
G37*
%LPD*%
%LPC*%
G36*
X65057Y1425874D02*
X65057Y1425874D01*
X65340Y1426930D01*
X65998Y1428071D01*
X66929Y1429002D01*
X68070Y1429660D01*
X69126Y1429943D01*
X69126Y1425874D01*
X65057Y1425874D01*
G37*
%LPD*%
%LPC*%
G36*
X85874Y554126D02*
X85874Y554126D01*
X89943Y554126D01*
X89660Y553070D01*
X89002Y551929D01*
X88071Y550998D01*
X86930Y550340D01*
X85874Y550057D01*
X85874Y554126D01*
G37*
%LPD*%
%LPC*%
G36*
X220057Y1420874D02*
X220057Y1420874D01*
X220340Y1421930D01*
X220998Y1423071D01*
X221929Y1424002D01*
X223070Y1424660D01*
X224126Y1424943D01*
X224126Y1420874D01*
X220057Y1420874D01*
G37*
%LPD*%
%LPC*%
G36*
X75057Y535874D02*
X75057Y535874D01*
X75340Y536930D01*
X75998Y538071D01*
X76929Y539002D01*
X78070Y539660D01*
X79126Y539943D01*
X79126Y535874D01*
X75057Y535874D01*
G37*
%LPD*%
%LPC*%
G36*
X80874Y534126D02*
X80874Y534126D01*
X84943Y534126D01*
X84660Y533070D01*
X84002Y531929D01*
X83071Y530998D01*
X81930Y530340D01*
X80874Y530057D01*
X80874Y534126D01*
G37*
%LPD*%
%LPC*%
G36*
X200057Y1420874D02*
X200057Y1420874D01*
X200340Y1421930D01*
X200998Y1423071D01*
X201929Y1424002D01*
X203070Y1424660D01*
X204126Y1424943D01*
X204126Y1420874D01*
X200057Y1420874D01*
G37*
%LPD*%
%LPC*%
G36*
X70057Y510874D02*
X70057Y510874D01*
X70340Y511930D01*
X70998Y513071D01*
X71929Y514002D01*
X73070Y514660D01*
X74126Y514943D01*
X74126Y510874D01*
X70057Y510874D01*
G37*
%LPD*%
%LPC*%
G36*
X75874Y509126D02*
X75874Y509126D01*
X79943Y509126D01*
X79660Y508070D01*
X79002Y506929D01*
X78071Y505998D01*
X76930Y505340D01*
X75874Y505057D01*
X75874Y509126D01*
G37*
%LPD*%
%LPC*%
G36*
X135057Y135874D02*
X135057Y135874D01*
X135340Y136930D01*
X135998Y138071D01*
X136929Y139002D01*
X138070Y139660D01*
X139126Y139943D01*
X139126Y135874D01*
X135057Y135874D01*
G37*
%LPD*%
%LPC*%
G36*
X140874Y134126D02*
X140874Y134126D01*
X144943Y134126D01*
X144660Y133070D01*
X144002Y131929D01*
X143071Y130998D01*
X141930Y130340D01*
X140874Y130057D01*
X140874Y134126D01*
G37*
%LPD*%
%LPC*%
G36*
X205874Y1419126D02*
X205874Y1419126D01*
X209943Y1419126D01*
X209660Y1418070D01*
X209002Y1416929D01*
X208071Y1415998D01*
X206930Y1415340D01*
X205874Y1415057D01*
X205874Y1419126D01*
G37*
%LPD*%
%LPC*%
G36*
X225874Y1419126D02*
X225874Y1419126D01*
X229943Y1419126D01*
X229660Y1418070D01*
X229002Y1416929D01*
X228071Y1415998D01*
X226930Y1415340D01*
X225874Y1415057D01*
X225874Y1419126D01*
G37*
%LPD*%
%LPC*%
G36*
X95874Y1414126D02*
X95874Y1414126D01*
X99943Y1414126D01*
X99660Y1413070D01*
X99002Y1411929D01*
X98071Y1410998D01*
X96930Y1410340D01*
X95874Y1410057D01*
X95874Y1414126D01*
G37*
%LPD*%
%LPC*%
G36*
X105057Y100874D02*
X105057Y100874D01*
X105340Y101930D01*
X105998Y103071D01*
X106929Y104002D01*
X108070Y104660D01*
X109126Y104943D01*
X109126Y100874D01*
X105057Y100874D01*
G37*
%LPD*%
%LPC*%
G36*
X110874Y99126D02*
X110874Y99126D01*
X114943Y99126D01*
X114660Y98070D01*
X114002Y96929D01*
X113071Y95998D01*
X111930Y95340D01*
X110874Y95057D01*
X110874Y99126D01*
G37*
%LPD*%
%LPC*%
G36*
X250057Y1400874D02*
X250057Y1400874D01*
X250340Y1401930D01*
X250998Y1403071D01*
X251929Y1404002D01*
X253070Y1404660D01*
X254126Y1404943D01*
X254126Y1400874D01*
X250057Y1400874D01*
G37*
%LPD*%
%LPC*%
G36*
X90057Y1400874D02*
X90057Y1400874D01*
X90340Y1401930D01*
X90998Y1403071D01*
X91929Y1404002D01*
X93070Y1404660D01*
X94126Y1404943D01*
X94126Y1400874D01*
X90057Y1400874D01*
G37*
%LPD*%
%LPC*%
G36*
X105057Y70874D02*
X105057Y70874D01*
X105340Y71930D01*
X105998Y73071D01*
X106929Y74002D01*
X108070Y74660D01*
X109126Y74943D01*
X109126Y70874D01*
X105057Y70874D01*
G37*
%LPD*%
%LPC*%
G36*
X110874Y69126D02*
X110874Y69126D01*
X114943Y69126D01*
X114660Y68070D01*
X114002Y66929D01*
X113071Y65998D01*
X111930Y65340D01*
X110874Y65057D01*
X110874Y69126D01*
G37*
%LPD*%
%LPC*%
G36*
X95874Y1399126D02*
X95874Y1399126D01*
X99943Y1399126D01*
X99660Y1398070D01*
X99002Y1396929D01*
X98071Y1395998D01*
X96930Y1395340D01*
X95874Y1395057D01*
X95874Y1399126D01*
G37*
%LPD*%
%LPC*%
G36*
X325057Y410874D02*
X325057Y410874D01*
X325340Y411930D01*
X325998Y413071D01*
X326929Y414002D01*
X328070Y414660D01*
X329126Y414943D01*
X329126Y410874D01*
X325057Y410874D01*
G37*
%LPD*%
%LPC*%
G36*
X73070Y755340D02*
X73070Y755340D01*
X71929Y755998D01*
X70998Y756929D01*
X70340Y758070D01*
X70057Y759126D01*
X74126Y759126D01*
X74126Y755057D01*
X73070Y755340D01*
G37*
%LPD*%
%LPC*%
G36*
X78070Y530340D02*
X78070Y530340D01*
X76929Y530998D01*
X75998Y531929D01*
X75340Y533070D01*
X75057Y534126D01*
X79126Y534126D01*
X79126Y530057D01*
X78070Y530340D01*
G37*
%LPD*%
%LPC*%
G36*
X268070Y1395340D02*
X268070Y1395340D01*
X266929Y1395998D01*
X265998Y1396929D01*
X265340Y1398070D01*
X265057Y1399126D01*
X269126Y1399126D01*
X269126Y1395057D01*
X268070Y1395340D01*
G37*
%LPD*%
%LPC*%
G36*
X333070Y368566D02*
X333070Y368566D01*
X331929Y369224D01*
X330998Y370155D01*
X330340Y371296D01*
X330057Y372352D01*
X334126Y372352D01*
X334126Y368283D01*
X333070Y368566D01*
G37*
%LPD*%
%LPC*%
G36*
X258070Y1455340D02*
X258070Y1455340D01*
X256929Y1455998D01*
X255998Y1456929D01*
X255340Y1458070D01*
X255057Y1459126D01*
X259126Y1459126D01*
X259126Y1455057D01*
X258070Y1455340D01*
G37*
%LPD*%
%LPC*%
G36*
X258070Y1480340D02*
X258070Y1480340D01*
X256929Y1480998D01*
X255998Y1481929D01*
X255340Y1483070D01*
X255057Y1484126D01*
X259126Y1484126D01*
X259126Y1480057D01*
X258070Y1480340D01*
G37*
%LPD*%
%LPC*%
G36*
X73070Y505340D02*
X73070Y505340D01*
X71929Y505998D01*
X70998Y506929D01*
X70340Y508070D01*
X70057Y509126D01*
X74126Y509126D01*
X74126Y505057D01*
X73070Y505340D01*
G37*
%LPD*%
%LPC*%
G36*
X73070Y1035340D02*
X73070Y1035340D01*
X71929Y1035998D01*
X70998Y1036929D01*
X70340Y1038070D01*
X70057Y1039126D01*
X74126Y1039126D01*
X74126Y1035057D01*
X73070Y1035340D01*
G37*
%LPD*%
%LPC*%
G36*
X268070Y1430340D02*
X268070Y1430340D01*
X266929Y1430998D01*
X265998Y1431929D01*
X265340Y1433070D01*
X265057Y1434126D01*
X269126Y1434126D01*
X269126Y1430057D01*
X268070Y1430340D01*
G37*
%LPD*%
%LPC*%
G36*
X218070Y355340D02*
X218070Y355340D01*
X216929Y355998D01*
X215998Y356929D01*
X215340Y358070D01*
X215057Y359126D01*
X219126Y359126D01*
X219126Y355057D01*
X218070Y355340D01*
G37*
%LPD*%
%LPC*%
G36*
X93070Y1410340D02*
X93070Y1410340D01*
X91929Y1410998D01*
X90998Y1411929D01*
X90340Y1413070D01*
X90057Y1414126D01*
X94126Y1414126D01*
X94126Y1410057D01*
X93070Y1410340D01*
G37*
%LPD*%
%LPC*%
G36*
X113070Y1080602D02*
X113070Y1080602D01*
X111929Y1081260D01*
X110998Y1082191D01*
X110340Y1083332D01*
X110057Y1084388D01*
X114126Y1084388D01*
X114126Y1080319D01*
X113070Y1080602D01*
G37*
%LPD*%
%LPC*%
G36*
X113070Y830602D02*
X113070Y830602D01*
X111929Y831260D01*
X110998Y832191D01*
X110340Y833332D01*
X110057Y834388D01*
X114126Y834388D01*
X114126Y830319D01*
X113070Y830602D01*
G37*
%LPD*%
%LPC*%
G36*
X138070Y130340D02*
X138070Y130340D01*
X136929Y130998D01*
X135998Y131929D01*
X135340Y133070D01*
X135057Y134126D01*
X139126Y134126D01*
X139126Y130057D01*
X138070Y130340D01*
G37*
%LPD*%
%LPC*%
G36*
X73070Y1005340D02*
X73070Y1005340D01*
X71929Y1005998D01*
X70998Y1006929D01*
X70340Y1008070D01*
X70057Y1009126D01*
X74126Y1009126D01*
X74126Y1005057D01*
X73070Y1005340D01*
G37*
%LPD*%
%LPC*%
G36*
X203070Y1415340D02*
X203070Y1415340D01*
X201929Y1415998D01*
X200998Y1416929D01*
X200340Y1418070D01*
X200057Y1419126D01*
X204126Y1419126D01*
X204126Y1415057D01*
X203070Y1415340D01*
G37*
%LPD*%
%LPC*%
G36*
X328070Y405340D02*
X328070Y405340D01*
X326929Y405998D01*
X325998Y406929D01*
X325340Y408070D01*
X325057Y409126D01*
X329126Y409126D01*
X329126Y405057D01*
X328070Y405340D01*
G37*
%LPD*%
%LPC*%
G36*
X83070Y575340D02*
X83070Y575340D01*
X81929Y575998D01*
X80998Y576929D01*
X80340Y578070D01*
X80057Y579126D01*
X84126Y579126D01*
X84126Y575057D01*
X83070Y575340D01*
G37*
%LPD*%
%LPC*%
G36*
X223070Y1415340D02*
X223070Y1415340D01*
X221929Y1415998D01*
X220998Y1416929D01*
X220340Y1418070D01*
X220057Y1419126D01*
X224126Y1419126D01*
X224126Y1415057D01*
X223070Y1415340D01*
G37*
%LPD*%
%LPC*%
G36*
X108070Y95340D02*
X108070Y95340D01*
X106929Y95998D01*
X105998Y96929D01*
X105340Y98070D01*
X105057Y99126D01*
X109126Y99126D01*
X109126Y95057D01*
X108070Y95340D01*
G37*
%LPD*%
%LPC*%
G36*
X68070Y1420340D02*
X68070Y1420340D01*
X66929Y1420998D01*
X65998Y1421929D01*
X65340Y1423070D01*
X65057Y1424126D01*
X69126Y1424126D01*
X69126Y1420057D01*
X68070Y1420340D01*
G37*
%LPD*%
%LPC*%
G36*
X93070Y1380340D02*
X93070Y1380340D01*
X91929Y1380998D01*
X90998Y1381929D01*
X90340Y1383070D01*
X90057Y1384126D01*
X94126Y1384126D01*
X94126Y1380057D01*
X93070Y1380340D01*
G37*
%LPD*%
%LPC*%
G36*
X78070Y785340D02*
X78070Y785340D01*
X76929Y785998D01*
X75998Y786929D01*
X75340Y788070D01*
X75057Y789126D01*
X79126Y789126D01*
X79126Y785057D01*
X78070Y785340D01*
G37*
%LPD*%
%LPC*%
G36*
X108070Y65340D02*
X108070Y65340D01*
X106929Y65998D01*
X105998Y66929D01*
X105340Y68070D01*
X105057Y69126D01*
X109126Y69126D01*
X109126Y65057D01*
X108070Y65340D01*
G37*
%LPD*%
%LPC*%
G36*
X83070Y550340D02*
X83070Y550340D01*
X81929Y550998D01*
X80998Y551929D01*
X80340Y553070D01*
X80057Y554126D01*
X84126Y554126D01*
X84126Y550057D01*
X83070Y550340D01*
G37*
%LPD*%
%LPC*%
G36*
X253070Y1430340D02*
X253070Y1430340D01*
X251929Y1430998D01*
X250998Y1431929D01*
X250340Y1433070D01*
X250057Y1434126D01*
X254126Y1434126D01*
X254126Y1430057D01*
X253070Y1430340D01*
G37*
%LPD*%
%LPC*%
G36*
X253070Y1395340D02*
X253070Y1395340D01*
X251929Y1395998D01*
X250998Y1396929D01*
X250340Y1398070D01*
X250057Y1399126D01*
X254126Y1399126D01*
X254126Y1395057D01*
X253070Y1395340D01*
G37*
%LPD*%
%LPC*%
G36*
X79999Y1394999D02*
X79999Y1394999D01*
X79999Y1395001D01*
X80001Y1395001D01*
X80001Y1394999D01*
X79999Y1394999D01*
G37*
%LPD*%
D10*
X502554Y1359680D02*
X502438Y1359678D01*
X502321Y1359672D01*
X502205Y1359663D01*
X502090Y1359650D01*
X501975Y1359633D01*
X501860Y1359612D01*
X501747Y1359587D01*
X501634Y1359559D01*
X501522Y1359527D01*
X501411Y1359491D01*
X501301Y1359452D01*
X501193Y1359409D01*
X501086Y1359363D01*
X500981Y1359313D01*
X500878Y1359260D01*
X500776Y1359204D01*
X500676Y1359144D01*
X500578Y1359081D01*
X500483Y1359014D01*
X500389Y1358945D01*
X500298Y1358873D01*
X500209Y1358798D01*
X500123Y1358719D01*
X500040Y1358638D01*
X499959Y1358555D01*
X499880Y1358469D01*
X499805Y1358380D01*
X499733Y1358289D01*
X499664Y1358195D01*
X499597Y1358100D01*
X499534Y1358002D01*
X499474Y1357902D01*
X499418Y1357800D01*
X499365Y1357697D01*
X499315Y1357592D01*
X499269Y1357485D01*
X499226Y1357377D01*
X499187Y1357267D01*
X499151Y1357156D01*
X499119Y1357044D01*
X499091Y1356931D01*
X499066Y1356818D01*
X499045Y1356703D01*
X499028Y1356588D01*
X499015Y1356473D01*
X499006Y1356357D01*
X499000Y1356240D01*
X498998Y1356124D01*
X499000Y1355990D01*
X499006Y1355857D01*
X499016Y1355724D01*
X499029Y1355591D01*
X499047Y1355458D01*
X499068Y1355327D01*
X499093Y1355195D01*
X499122Y1355065D01*
X499155Y1354935D01*
X499192Y1354807D01*
X499232Y1354680D01*
X499276Y1354554D01*
X499324Y1354429D01*
X499376Y1354305D01*
X499431Y1354184D01*
X499489Y1354064D01*
X499551Y1353945D01*
X499616Y1353829D01*
X499685Y1353714D01*
X499757Y1353602D01*
X499833Y1353492D01*
X499911Y1353383D01*
X499993Y1353278D01*
X500078Y1353175D01*
X500166Y1353074D01*
X500256Y1352976D01*
X500350Y1352880D01*
X500446Y1352788D01*
X500545Y1352698D01*
X500646Y1352611D01*
X500750Y1352527D01*
X500857Y1352446D01*
X500965Y1352369D01*
X501076Y1352294D01*
X501189Y1352223D01*
X501304Y1352155D01*
X501422Y1352091D01*
X501540Y1352030D01*
X501661Y1351972D01*
X501783Y1351918D01*
X501907Y1351868D01*
X502032Y1351821D01*
X502159Y1351778D01*
X505320Y1358495D02*
X505236Y1358580D01*
X505150Y1358662D01*
X505062Y1358741D01*
X504971Y1358818D01*
X504878Y1358892D01*
X504782Y1358963D01*
X504684Y1359031D01*
X504585Y1359095D01*
X504483Y1359157D01*
X504379Y1359216D01*
X504274Y1359271D01*
X504167Y1359323D01*
X504058Y1359371D01*
X503948Y1359416D01*
X503837Y1359458D01*
X503724Y1359496D01*
X503611Y1359531D01*
X503496Y1359562D01*
X503380Y1359590D01*
X503264Y1359614D01*
X503146Y1359634D01*
X503029Y1359650D01*
X502910Y1359663D01*
X502792Y1359673D01*
X502673Y1359678D01*
X502554Y1359680D01*
X505320Y1358495D02*
X513222Y1351778D01*
X513222Y1359680D01*
D11*
X-1214238Y553542D02*
X-1214238Y535762D01*
X-1214238Y553542D02*
X-1206336Y553542D01*
X-1206336Y545640D02*
X-1214238Y545640D01*
X-1200142Y538725D02*
X-1200142Y553542D01*
X-1200141Y538725D02*
X-1200139Y538619D01*
X-1200133Y538514D01*
X-1200124Y538408D01*
X-1200111Y538303D01*
X-1200094Y538199D01*
X-1200073Y538095D01*
X-1200049Y537992D01*
X-1200021Y537890D01*
X-1199989Y537789D01*
X-1199954Y537690D01*
X-1199915Y537591D01*
X-1199873Y537494D01*
X-1199828Y537399D01*
X-1199779Y537305D01*
X-1199726Y537213D01*
X-1199671Y537123D01*
X-1199612Y537035D01*
X-1199550Y536949D01*
X-1199485Y536866D01*
X-1199417Y536785D01*
X-1199347Y536706D01*
X-1199273Y536630D01*
X-1199197Y536556D01*
X-1199118Y536486D01*
X-1199037Y536418D01*
X-1198954Y536353D01*
X-1198868Y536291D01*
X-1198780Y536232D01*
X-1198690Y536177D01*
X-1198598Y536124D01*
X-1198504Y536075D01*
X-1198409Y536030D01*
X-1198312Y535988D01*
X-1198213Y535949D01*
X-1198114Y535914D01*
X-1198013Y535882D01*
X-1197911Y535854D01*
X-1197808Y535830D01*
X-1197704Y535809D01*
X-1197600Y535792D01*
X-1197495Y535779D01*
X-1197389Y535770D01*
X-1197284Y535764D01*
X-1197178Y535762D01*
X-1188540Y535762D02*
X-1183601Y535762D01*
X-1188540Y535762D02*
X-1188646Y535764D01*
X-1188751Y535770D01*
X-1188857Y535779D01*
X-1188962Y535792D01*
X-1189066Y535809D01*
X-1189170Y535830D01*
X-1189273Y535854D01*
X-1189375Y535882D01*
X-1189476Y535914D01*
X-1189575Y535949D01*
X-1189674Y535988D01*
X-1189771Y536030D01*
X-1189866Y536075D01*
X-1189960Y536124D01*
X-1190052Y536177D01*
X-1190142Y536232D01*
X-1190230Y536291D01*
X-1190316Y536353D01*
X-1190399Y536418D01*
X-1190480Y536486D01*
X-1190559Y536556D01*
X-1190635Y536630D01*
X-1190709Y536706D01*
X-1190779Y536785D01*
X-1190847Y536866D01*
X-1190912Y536949D01*
X-1190974Y537035D01*
X-1191033Y537123D01*
X-1191088Y537213D01*
X-1191141Y537305D01*
X-1191190Y537399D01*
X-1191235Y537494D01*
X-1191277Y537591D01*
X-1191316Y537690D01*
X-1191351Y537789D01*
X-1191383Y537890D01*
X-1191411Y537992D01*
X-1191435Y538095D01*
X-1191456Y538199D01*
X-1191473Y538303D01*
X-1191486Y538408D01*
X-1191495Y538514D01*
X-1191501Y538619D01*
X-1191503Y538725D01*
X-1191503Y543664D01*
X-1191501Y543788D01*
X-1191495Y543912D01*
X-1191485Y544036D01*
X-1191472Y544159D01*
X-1191454Y544282D01*
X-1191433Y544404D01*
X-1191408Y544526D01*
X-1191379Y544647D01*
X-1191346Y544766D01*
X-1191310Y544885D01*
X-1191269Y545002D01*
X-1191226Y545118D01*
X-1191178Y545233D01*
X-1191127Y545346D01*
X-1191072Y545458D01*
X-1191014Y545567D01*
X-1190953Y545675D01*
X-1190888Y545781D01*
X-1190820Y545885D01*
X-1190748Y545986D01*
X-1190674Y546086D01*
X-1190596Y546182D01*
X-1190516Y546277D01*
X-1190432Y546369D01*
X-1190346Y546458D01*
X-1190257Y546544D01*
X-1190165Y546628D01*
X-1190070Y546708D01*
X-1189974Y546786D01*
X-1189874Y546860D01*
X-1189773Y546932D01*
X-1189669Y547000D01*
X-1189563Y547065D01*
X-1189455Y547126D01*
X-1189346Y547184D01*
X-1189234Y547239D01*
X-1189121Y547290D01*
X-1189006Y547338D01*
X-1188890Y547381D01*
X-1188773Y547422D01*
X-1188654Y547458D01*
X-1188535Y547491D01*
X-1188414Y547520D01*
X-1188292Y547545D01*
X-1188170Y547566D01*
X-1188047Y547584D01*
X-1187924Y547597D01*
X-1187800Y547607D01*
X-1187676Y547613D01*
X-1187552Y547615D01*
X-1187428Y547613D01*
X-1187304Y547607D01*
X-1187180Y547597D01*
X-1187057Y547584D01*
X-1186934Y547566D01*
X-1186812Y547545D01*
X-1186690Y547520D01*
X-1186569Y547491D01*
X-1186450Y547458D01*
X-1186331Y547422D01*
X-1186214Y547381D01*
X-1186098Y547338D01*
X-1185983Y547290D01*
X-1185870Y547239D01*
X-1185758Y547184D01*
X-1185649Y547126D01*
X-1185541Y547065D01*
X-1185435Y547000D01*
X-1185331Y546932D01*
X-1185230Y546860D01*
X-1185130Y546786D01*
X-1185034Y546708D01*
X-1184939Y546628D01*
X-1184847Y546544D01*
X-1184758Y546458D01*
X-1184672Y546369D01*
X-1184588Y546277D01*
X-1184508Y546182D01*
X-1184430Y546086D01*
X-1184356Y545986D01*
X-1184284Y545885D01*
X-1184216Y545781D01*
X-1184151Y545675D01*
X-1184090Y545567D01*
X-1184032Y545458D01*
X-1183977Y545346D01*
X-1183926Y545233D01*
X-1183878Y545118D01*
X-1183835Y545002D01*
X-1183794Y544885D01*
X-1183758Y544766D01*
X-1183725Y544647D01*
X-1183696Y544526D01*
X-1183671Y544404D01*
X-1183650Y544282D01*
X-1183632Y544159D01*
X-1183619Y544036D01*
X-1183609Y543912D01*
X-1183603Y543788D01*
X-1183601Y543664D01*
X-1183601Y541689D01*
X-1191503Y541689D01*
X-1177545Y535762D02*
X-1169642Y547615D01*
X-1177545Y547615D02*
X-1169642Y535762D01*
X-1163457Y549591D02*
X-1158518Y553542D01*
X-1158518Y535762D01*
X-1163457Y535762D02*
X-1153579Y535762D01*
D12*
X141000Y1395000D03*
X80000Y1395000D03*
X110000Y1347000D03*
D13*
X90000Y1122500D03*
X90000Y977500D03*
X41000Y971500D03*
X41000Y1128500D03*
X90000Y872500D03*
X90000Y727500D03*
X41000Y721500D03*
X41000Y878500D03*
X90000Y622500D03*
X90000Y477500D03*
X41000Y471500D03*
X41000Y628500D03*
X85000Y172500D03*
X85000Y27500D03*
X36000Y21500D03*
X36000Y178500D03*
D14*
X1353100Y1470000D03*
X1276900Y1470000D03*
D15*
X1440000Y1440000D03*
X455900Y64500D03*
X1020000Y1440000D03*
X63100Y394500D03*
X65000Y1235000D03*
X445000Y1430000D03*
D16*
X120000Y595000D03*
X220000Y400000D03*
X80000Y845000D03*
X305000Y440000D03*
X300000Y330000D03*
X85000Y1095000D03*
X110000Y145000D03*
X295000Y320000D03*
X120000Y580000D03*
X190000Y400000D03*
X120000Y570000D03*
X220000Y390000D03*
X70000Y830000D03*
X295000Y440000D03*
X80000Y820000D03*
X285000Y400000D03*
X300000Y345262D03*
X75000Y1070000D03*
X290000Y335000D03*
X85000Y1080000D03*
X165000Y120000D03*
X295000Y250000D03*
X276774Y265000D03*
X125000Y115000D03*
X285000Y250000D03*
X285000Y325000D03*
X70000Y1425000D03*
X80000Y1425000D03*
X90000Y1425000D03*
X95000Y1415000D03*
X95000Y1400000D03*
X95000Y1385000D03*
X205000Y1420000D03*
X225000Y1420000D03*
X270000Y1435000D03*
X260000Y1460000D03*
X260000Y1485000D03*
X255000Y1400000D03*
X270000Y1400000D03*
X255000Y1435000D03*
X140000Y135000D03*
X85000Y580000D03*
X115000Y835262D03*
X115000Y1085262D03*
X220000Y330000D03*
X245000Y320000D03*
X275000Y320000D03*
X220000Y360000D03*
X250000Y400000D03*
D11*
X485000Y395000D02*
X516738Y395000D01*
X516738Y376252D01*
X516672Y376178D01*
X516738Y374914D01*
X516738Y373649D01*
X516808Y373579D01*
X517094Y368146D01*
X517094Y368146D01*
X521233Y355419D01*
X521233Y355419D01*
X528524Y344197D01*
X528524Y344196D01*
X538472Y335244D01*
X538472Y335244D01*
X550398Y329170D01*
X550398Y329170D01*
X563489Y326391D01*
X563489Y326391D01*
X570086Y326738D01*
X1048706Y326738D01*
X1048748Y326699D01*
X1050049Y326738D01*
X1051351Y326738D01*
X1051392Y326779D01*
X1058545Y326995D01*
X1058545Y326995D01*
X1075014Y330793D01*
X1075014Y330793D01*
X1090426Y337731D01*
X1090426Y337731D01*
X1104188Y347542D01*
X1104188Y347542D01*
X1115771Y359849D01*
X1115771Y359850D01*
X1124731Y374180D01*
X1124731Y374180D01*
X1130723Y389984D01*
X1130723Y389984D01*
X1133516Y406652D01*
X1133516Y406652D01*
X1133262Y415049D01*
X1133262Y1153734D01*
X1133319Y1153797D01*
X1133262Y1155073D01*
X1133262Y1156351D01*
X1133202Y1156411D01*
X1133004Y1160795D01*
X1133004Y1160795D01*
X1128860Y1171316D01*
X1128860Y1171316D01*
X1121527Y1179924D01*
X1121527Y1179924D01*
X1121527Y1179924D01*
X1117825Y1182117D01*
X1117825Y1182117D01*
X982821Y1262120D01*
X982820Y1262124D01*
X981662Y1262807D01*
X981656Y1262810D01*
X977650Y1265536D01*
X977650Y1265536D01*
X970857Y1272420D01*
X966059Y1280817D01*
X963576Y1290164D01*
X963262Y1295000D01*
X963262Y1330000D01*
X1496738Y1330000D01*
X1496738Y1296338D01*
X1496729Y1296329D01*
X1496738Y1294988D01*
X1496738Y1294977D01*
X1496452Y1290140D01*
X1494001Y1280784D01*
X1489202Y1272386D01*
X1482386Y1265524D01*
X1478365Y1262823D01*
X1478351Y1262815D01*
X1477194Y1262143D01*
X1477190Y1262126D01*
X1342175Y1182117D01*
X1342175Y1182117D01*
X1338473Y1179924D01*
X1338473Y1179924D01*
X1331140Y1171316D01*
X1331140Y1171316D01*
X1326996Y1160795D01*
X1326996Y1160795D01*
X1326798Y1156411D01*
X1326738Y1156351D01*
X1326738Y1155073D01*
X1326681Y1153797D01*
X1326738Y1153734D01*
X1326738Y400048D01*
X1326046Y385008D01*
X1322166Y355136D01*
X1315004Y325877D01*
X1304647Y297590D01*
X1291223Y270623D01*
X1274898Y245307D01*
X1255871Y221954D01*
X1234376Y200850D01*
X1210678Y182255D01*
X1185067Y166396D01*
X1157858Y153470D01*
X1129386Y143634D01*
X1100000Y137010D01*
X1070062Y133678D01*
X1055000Y133262D01*
X1054940Y133262D01*
X1053649Y133262D01*
X1053649Y133262D01*
X563999Y133262D01*
X552297Y130591D01*
X552297Y130591D01*
X541484Y125384D01*
X541484Y125384D01*
X532100Y117900D01*
X532100Y117900D01*
X532100Y117900D01*
X524616Y108516D01*
X524616Y108516D01*
X519409Y97703D01*
X519409Y97703D01*
X516738Y86001D01*
X516738Y3262D01*
X485000Y3262D01*
X485000Y395000D01*
X1215262Y1297820D02*
X1215262Y1302180D01*
X1212180Y1305262D01*
X1207820Y1305262D01*
X1204738Y1302180D01*
X1204738Y1297820D01*
X1207820Y1294738D01*
X1212180Y1294738D01*
X1215262Y1297820D01*
X1240262Y1297820D02*
X1240262Y1302180D01*
X1237180Y1305262D01*
X1232820Y1305262D01*
X1229738Y1302180D01*
X1229738Y1297820D01*
X1232820Y1294738D01*
X1237180Y1294738D01*
X1240262Y1297820D01*
X1195262Y1297820D02*
X1195262Y1302180D01*
X1192180Y1305262D01*
X1187820Y1305262D01*
X1184738Y1302180D01*
X1184738Y1297820D01*
X1187820Y1294738D01*
X1192180Y1294738D01*
X1195262Y1297820D01*
X1235262Y1317820D02*
X1235262Y1322180D01*
X1232180Y1325262D01*
X1227820Y1325262D01*
X1224738Y1322180D01*
X1224738Y1317820D01*
X1227820Y1314738D01*
X1232180Y1314738D01*
X1235262Y1317820D01*
X1315262Y1317820D02*
X1315262Y1322180D01*
X1312180Y1325262D01*
X1307820Y1325262D01*
X1304738Y1322180D01*
X1304738Y1317820D01*
X1307820Y1314738D01*
X1312180Y1314738D01*
X1315262Y1317820D01*
X1390262Y1317820D02*
X1390262Y1322180D01*
X1387180Y1325262D01*
X1382820Y1325262D01*
X1379738Y1322180D01*
X1379738Y1317820D01*
X1382820Y1314738D01*
X1387180Y1314738D01*
X1390262Y1317820D01*
X516738Y12700D02*
X485000Y12700D01*
X485000Y25400D02*
X516738Y25400D01*
X516738Y38100D02*
X485000Y38100D01*
X485000Y50800D02*
X516738Y50800D01*
X516738Y63500D02*
X485000Y63500D01*
X485000Y76200D02*
X516738Y76200D01*
X517400Y88900D02*
X485000Y88900D01*
X485000Y101600D02*
X521286Y101600D01*
X529229Y114300D02*
X485000Y114300D01*
X485000Y127000D02*
X544840Y127000D01*
X485000Y139700D02*
X1111935Y139700D01*
X1154761Y152400D02*
X485000Y152400D01*
X485000Y165100D02*
X1182338Y165100D01*
X1203483Y177800D02*
X485000Y177800D01*
X485000Y190500D02*
X1221186Y190500D01*
X1236769Y203200D02*
X485000Y203200D01*
X485000Y215900D02*
X1249705Y215900D01*
X1261286Y228600D02*
X485000Y228600D01*
X485000Y241300D02*
X1271633Y241300D01*
X1280504Y254000D02*
X485000Y254000D01*
X485000Y266700D02*
X1288694Y266700D01*
X1295593Y279400D02*
X485000Y279400D01*
X485000Y292100D02*
X1301914Y292100D01*
X1307287Y304800D02*
X485000Y304800D01*
X485000Y317500D02*
X1311937Y317500D01*
X548376Y330200D02*
X485000Y330200D01*
X1072442Y330200D02*
X1316062Y330200D01*
X529965Y342900D02*
X485000Y342900D01*
X1097676Y342900D02*
X1319171Y342900D01*
X521174Y355600D02*
X485000Y355600D01*
X1111772Y355600D02*
X1322226Y355600D01*
X517086Y368300D02*
X485000Y368300D01*
X1121055Y368300D02*
X1323876Y368300D01*
X516738Y381000D02*
X485000Y381000D01*
X1127317Y381000D02*
X1325525Y381000D01*
X516738Y393700D02*
X485000Y393700D01*
X1131346Y393700D02*
X1326446Y393700D01*
X1326738Y406400D02*
X1133474Y406400D01*
X1133262Y419100D02*
X1326738Y419100D01*
X1326738Y431800D02*
X1133262Y431800D01*
X1133262Y444500D02*
X1326738Y444500D01*
X1326738Y457200D02*
X1133262Y457200D01*
X1133262Y469900D02*
X1326738Y469900D01*
X1326738Y482600D02*
X1133262Y482600D01*
X1133262Y495300D02*
X1326738Y495300D01*
X1326738Y508000D02*
X1133262Y508000D01*
X1133262Y520700D02*
X1326738Y520700D01*
X1326738Y533400D02*
X1133262Y533400D01*
X1133262Y546100D02*
X1326738Y546100D01*
X1326738Y558800D02*
X1133262Y558800D01*
X1133262Y571500D02*
X1326738Y571500D01*
X1326738Y584200D02*
X1133262Y584200D01*
X1133262Y596900D02*
X1326738Y596900D01*
X1326738Y609600D02*
X1133262Y609600D01*
X1133262Y622300D02*
X1326738Y622300D01*
X1326738Y635000D02*
X1133262Y635000D01*
X1133262Y647700D02*
X1326738Y647700D01*
X1326738Y660400D02*
X1133262Y660400D01*
X1133262Y673100D02*
X1326738Y673100D01*
X1326738Y685800D02*
X1133262Y685800D01*
X1133262Y698500D02*
X1326738Y698500D01*
X1326738Y711200D02*
X1133262Y711200D01*
X1133262Y723900D02*
X1326738Y723900D01*
X1326738Y736600D02*
X1133262Y736600D01*
X1133262Y749300D02*
X1326738Y749300D01*
X1326738Y762000D02*
X1133262Y762000D01*
X1133262Y774700D02*
X1326738Y774700D01*
X1326738Y787400D02*
X1133262Y787400D01*
X1133262Y800100D02*
X1326738Y800100D01*
X1326738Y812800D02*
X1133262Y812800D01*
X1133262Y825500D02*
X1326738Y825500D01*
X1326738Y838200D02*
X1133262Y838200D01*
X1133262Y850900D02*
X1326738Y850900D01*
X1326738Y863600D02*
X1133262Y863600D01*
X1133262Y876300D02*
X1326738Y876300D01*
X1326738Y889000D02*
X1133262Y889000D01*
X1133262Y901700D02*
X1326738Y901700D01*
X1326738Y914400D02*
X1133262Y914400D01*
X1133262Y927100D02*
X1326738Y927100D01*
X1326738Y939800D02*
X1133262Y939800D01*
X1133262Y952500D02*
X1326738Y952500D01*
X1326738Y965200D02*
X1133262Y965200D01*
X1133262Y977900D02*
X1326738Y977900D01*
X1326738Y990600D02*
X1133262Y990600D01*
X1133262Y1003300D02*
X1326738Y1003300D01*
X1326738Y1016000D02*
X1133262Y1016000D01*
X1133262Y1028700D02*
X1326738Y1028700D01*
X1326738Y1041400D02*
X1133262Y1041400D01*
X1133262Y1054100D02*
X1326738Y1054100D01*
X1326738Y1066800D02*
X1133262Y1066800D01*
X1133262Y1079500D02*
X1326738Y1079500D01*
X1326738Y1092200D02*
X1133262Y1092200D01*
X1133262Y1104900D02*
X1326738Y1104900D01*
X1326738Y1117600D02*
X1133262Y1117600D01*
X1133262Y1130300D02*
X1326738Y1130300D01*
X1326738Y1143000D02*
X1133262Y1143000D01*
X1133262Y1155700D02*
X1326738Y1155700D01*
X1329992Y1168400D02*
X1130008Y1168400D01*
X1119542Y1181100D02*
X1340458Y1181100D01*
X1361889Y1193800D02*
X1098111Y1193800D01*
X1076680Y1206500D02*
X1383320Y1206500D01*
X1404752Y1219200D02*
X1055249Y1219200D01*
X1033817Y1231900D02*
X1426183Y1231900D01*
X1447614Y1244600D02*
X1012386Y1244600D01*
X990955Y1257300D02*
X1469045Y1257300D01*
X1486832Y1270000D02*
X973245Y1270000D01*
X965559Y1282700D02*
X1494503Y1282700D01*
X1187158Y1295400D02*
X963262Y1295400D01*
X1192842Y1295400D02*
X1207158Y1295400D01*
X1212842Y1295400D02*
X1232158Y1295400D01*
X1237842Y1295400D02*
X1496735Y1295400D01*
X1496738Y1308100D02*
X963262Y1308100D01*
X963262Y1320800D02*
X1224738Y1320800D01*
X1235262Y1320800D02*
X1304738Y1320800D01*
X1315262Y1320800D02*
X1379738Y1320800D01*
X1390262Y1320800D02*
X1496738Y1320800D01*
X495300Y395000D02*
X495300Y3262D01*
X508000Y3262D02*
X508000Y395000D01*
X520700Y357057D02*
X520700Y100384D01*
X533400Y118937D02*
X533400Y339808D01*
X546100Y331359D02*
X546100Y127607D01*
X558800Y132075D02*
X558800Y327386D01*
X571500Y326738D02*
X571500Y133262D01*
X584200Y133262D02*
X584200Y326738D01*
X596900Y326738D02*
X596900Y133262D01*
X609600Y133262D02*
X609600Y326738D01*
X622300Y326738D02*
X622300Y133262D01*
X635000Y133262D02*
X635000Y326738D01*
X647700Y326738D02*
X647700Y133262D01*
X660400Y133262D02*
X660400Y326738D01*
X673100Y326738D02*
X673100Y133262D01*
X685800Y133262D02*
X685800Y326738D01*
X698500Y326738D02*
X698500Y133262D01*
X711200Y133262D02*
X711200Y326738D01*
X723900Y326738D02*
X723900Y133262D01*
X736600Y133262D02*
X736600Y326738D01*
X749300Y326738D02*
X749300Y133262D01*
X762000Y133262D02*
X762000Y326738D01*
X774700Y326738D02*
X774700Y133262D01*
X787400Y133262D02*
X787400Y326738D01*
X800100Y326738D02*
X800100Y133262D01*
X812800Y133262D02*
X812800Y326738D01*
X825500Y326738D02*
X825500Y133262D01*
X838200Y133262D02*
X838200Y326738D01*
X850900Y326738D02*
X850900Y133262D01*
X863600Y133262D02*
X863600Y326738D01*
X876300Y326738D02*
X876300Y133262D01*
X889000Y133262D02*
X889000Y326738D01*
X901700Y326738D02*
X901700Y133262D01*
X914400Y133262D02*
X914400Y326738D01*
X927100Y326738D02*
X927100Y133262D01*
X939800Y133262D02*
X939800Y326738D01*
X952500Y326738D02*
X952500Y133262D01*
X965200Y133262D02*
X965200Y326738D01*
X965200Y1284050D02*
X965200Y1330000D01*
X977900Y326738D02*
X977900Y133262D01*
X977900Y1265366D02*
X977900Y1330000D01*
X990600Y326738D02*
X990600Y133262D01*
X990600Y1257510D02*
X990600Y1330000D01*
X1003300Y326738D02*
X1003300Y133262D01*
X1003300Y1249984D02*
X1003300Y1330000D01*
X1016000Y326738D02*
X1016000Y133262D01*
X1016000Y1242458D02*
X1016000Y1330000D01*
X1028700Y326738D02*
X1028700Y133262D01*
X1028700Y1234932D02*
X1028700Y1330000D01*
X1041400Y326738D02*
X1041400Y133262D01*
X1041400Y1227407D02*
X1041400Y1330000D01*
X1054100Y326861D02*
X1054100Y133262D01*
X1054100Y1219881D02*
X1054100Y1330000D01*
X1066800Y328899D02*
X1066800Y133588D01*
X1066800Y1212355D02*
X1066800Y1330000D01*
X1079500Y332813D02*
X1079500Y134729D01*
X1079500Y1204829D02*
X1079500Y1330000D01*
X1092200Y338996D02*
X1092200Y136142D01*
X1092200Y1197303D02*
X1092200Y1330000D01*
X1104900Y348299D02*
X1104900Y138114D01*
X1104900Y1189777D02*
X1104900Y1330000D01*
X1117600Y362775D02*
X1117600Y140977D01*
X1117600Y1182251D02*
X1117600Y1330000D01*
X1130300Y388868D02*
X1130300Y143950D01*
X1130300Y1167660D02*
X1130300Y1330000D01*
X1143000Y1330000D02*
X1143000Y148337D01*
X1155700Y152724D02*
X1155700Y1330000D01*
X1168400Y1330000D02*
X1168400Y158478D01*
X1181100Y164512D02*
X1181100Y1330000D01*
X1193800Y1296358D02*
X1193800Y171804D01*
X1193800Y1303642D02*
X1193800Y1330000D01*
X1206500Y1296058D02*
X1206500Y179668D01*
X1206500Y1303942D02*
X1206500Y1330000D01*
X1219200Y1330000D02*
X1219200Y188942D01*
X1231900Y198907D02*
X1231900Y1295658D01*
X1231900Y1304342D02*
X1231900Y1314738D01*
X1231900Y1325262D02*
X1231900Y1330000D01*
X1244600Y1330000D02*
X1244600Y210888D01*
X1257300Y223708D02*
X1257300Y1330000D01*
X1270000Y1330000D02*
X1270000Y239296D01*
X1282700Y257406D02*
X1282700Y1330000D01*
X1295400Y1330000D02*
X1295400Y279013D01*
X1308100Y307021D02*
X1308100Y1314738D01*
X1308100Y1325262D02*
X1308100Y1330000D01*
X1320800Y1330000D02*
X1320800Y349556D01*
X1333500Y1174086D02*
X1333500Y1330000D01*
X1346200Y1330000D02*
X1346200Y1184503D01*
X1358900Y1192029D02*
X1358900Y1330000D01*
X1371600Y1330000D02*
X1371600Y1199555D01*
X1384300Y1207081D02*
X1384300Y1314738D01*
X1384300Y1325262D02*
X1384300Y1330000D01*
X1397000Y1330000D02*
X1397000Y1214607D01*
X1409700Y1222132D02*
X1409700Y1330000D01*
X1422400Y1330000D02*
X1422400Y1229658D01*
X1435100Y1237184D02*
X1435100Y1330000D01*
X1447800Y1330000D02*
X1447800Y1244710D01*
X1460500Y1252236D02*
X1460500Y1330000D01*
X1473200Y1330000D02*
X1473200Y1259762D01*
X1485900Y1269062D02*
X1485900Y1330000D01*
D16*
X230000Y390000D03*
X335000Y373226D03*
X330000Y410000D03*
X1190000Y1400000D03*
X1395000Y1450000D03*
X1265000Y1315000D03*
X85000Y555000D03*
X110000Y100000D03*
X80000Y790000D03*
X75000Y1040000D03*
X110000Y70000D03*
X80000Y535000D03*
X75000Y510000D03*
X75000Y760000D03*
X75000Y1010000D03*
X290000Y1355000D03*
X290000Y1435000D03*
X300000Y1435000D03*
X310000Y1435000D03*
X320000Y1435000D03*
X330000Y1435000D03*
X340000Y1435000D03*
X290000Y1390000D03*
X290000Y1400000D03*
X290000Y1410000D03*
X290000Y1420000D03*
X290000Y1380000D03*
X290000Y1370000D03*
X300000Y1355000D03*
X310000Y1355000D03*
X320000Y1355000D03*
X330000Y1355000D03*
X340000Y1355000D03*
X350000Y1355000D03*
X370000Y1355000D03*
X360000Y1355000D03*
X370000Y1365000D03*
X370000Y1375000D03*
X370000Y1385000D03*
X370000Y1395000D03*
X370000Y1405000D03*
X370000Y1415000D03*
X370000Y1425000D03*
X370000Y1435000D03*
X360000Y1435000D03*
X350000Y1435000D03*
X305000Y1455000D03*
X295000Y1485000D03*
X235000Y320000D03*
X265000Y320000D03*
X230000Y365000D03*
X240000Y400000D03*
X340000Y386774D03*
X335000Y358226D03*
X265000Y360000D03*
X1210000Y1360000D03*
X1295000Y1355000D03*
X1370000Y1355000D03*
X1120000Y1430000D03*
X1470000Y1390000D03*
X225000Y340000D03*
X263226Y280000D03*
X220000Y320000D03*
X475000Y250000D03*
X1210000Y1300000D03*
X1115000Y1380000D03*
X475000Y225000D03*
X1235000Y1300000D03*
X1085000Y1390000D03*
X475000Y270000D03*
X1190000Y1300000D03*
X115000Y115000D03*
X75000Y560000D03*
X85000Y810000D03*
X60000Y1050000D03*
X1230000Y1320000D03*
X1310000Y1320000D03*
X1240000Y1445000D03*
X1285000Y1435000D03*
X1385000Y1320000D03*
X1095000Y1430000D03*
X1350000Y1455000D03*
X255000Y1355000D03*
X270000Y1355000D03*
X270000Y1385000D03*
X200000Y1380000D03*
X160000Y1375000D03*
X255000Y1385000D03*
X210000Y1365000D03*
X225000Y1365000D03*
X160000Y1390000D03*
X160000Y1405000D03*
X125000Y1380000D03*
X125000Y1395000D03*
X125000Y1410000D03*
X140000Y1365000D03*
X155000Y1415000D03*
X295000Y400000D03*
X310000Y420000D03*
X75000Y1090000D03*
X55000Y835000D03*
X75000Y590000D03*
X80262Y140000D03*
X230000Y380000D03*
M02*
