G04 EAGLE Gerber RS-274X export*
G75*
%MOMM*%
%FSLAX34Y34*%
%LPD*%
%INTop Copper*%
%IPPOS*%
%AMOC8*
5,1,8,0,0,1.08239X$1,22.5*%
G01*
%ADD10C,0.355600*%
%ADD11C,0.152400*%
%ADD12R,0.700000X0.900000*%
%ADD13R,0.900000X0.700000*%
%ADD14R,1.400000X1.600000*%
%ADD15R,1.600000X1.400000*%
%ADD16C,2.000000*%
%ADD17C,1.000000*%
%ADD18R,1.900000X0.300000*%
%ADD19C,1.950000*%
%ADD20R,0.600000X2.200000*%
%ADD21R,6.200000X5.800000*%
%ADD22R,3.000000X1.600000*%
%ADD23R,1.500000X1.300000*%
%ADD24C,1.219200*%
%ADD25C,6.451600*%
%ADD26R,1.651900X0.280000*%
%ADD27R,0.280000X1.651900*%
%ADD28C,0.257000*%
%ADD29C,0.600000*%
%ADD30C,0.150000*%

G36*
X105090Y1364254D02*
X105090Y1364254D01*
X105181Y1364261D01*
X105211Y1364273D01*
X105243Y1364279D01*
X105323Y1364321D01*
X105407Y1364357D01*
X105439Y1364383D01*
X105460Y1364394D01*
X105482Y1364417D01*
X105538Y1364462D01*
X115538Y1374462D01*
X115591Y1374536D01*
X115651Y1374605D01*
X115663Y1374635D01*
X115682Y1374661D01*
X115709Y1374748D01*
X115743Y1374833D01*
X115747Y1374874D01*
X115754Y1374897D01*
X115753Y1374929D01*
X115761Y1375000D01*
X115761Y1414685D01*
X125315Y1424239D01*
X179685Y1424239D01*
X189239Y1414685D01*
X189239Y1400000D01*
X189241Y1399987D01*
X189240Y1399978D01*
X189250Y1399930D01*
X189254Y1399910D01*
X189261Y1399819D01*
X189273Y1399789D01*
X189279Y1399757D01*
X189321Y1399677D01*
X189357Y1399593D01*
X189383Y1399561D01*
X189394Y1399540D01*
X189417Y1399518D01*
X189462Y1399462D01*
X194462Y1394462D01*
X194536Y1394409D01*
X194605Y1394349D01*
X194635Y1394337D01*
X194661Y1394318D01*
X194748Y1394291D01*
X194833Y1394257D01*
X194874Y1394253D01*
X194897Y1394246D01*
X194929Y1394247D01*
X195000Y1394239D01*
X280000Y1394239D01*
X280020Y1394242D01*
X280039Y1394240D01*
X280141Y1394262D01*
X280243Y1394279D01*
X280260Y1394288D01*
X280280Y1394292D01*
X280369Y1394345D01*
X280460Y1394394D01*
X280474Y1394408D01*
X280491Y1394418D01*
X280558Y1394497D01*
X280630Y1394572D01*
X280638Y1394590D01*
X280651Y1394605D01*
X280690Y1394701D01*
X280733Y1394795D01*
X280735Y1394815D01*
X280743Y1394833D01*
X280761Y1395000D01*
X280761Y1496738D01*
X280758Y1496758D01*
X280760Y1496777D01*
X280738Y1496879D01*
X280722Y1496981D01*
X280712Y1496998D01*
X280708Y1497018D01*
X280655Y1497107D01*
X280606Y1497198D01*
X280592Y1497212D01*
X280582Y1497229D01*
X280503Y1497296D01*
X280428Y1497368D01*
X280410Y1497376D01*
X280395Y1497389D01*
X280299Y1497428D01*
X280205Y1497471D01*
X280185Y1497473D01*
X280167Y1497481D01*
X280000Y1497499D01*
X65000Y1497499D01*
X64980Y1497496D01*
X64961Y1497498D01*
X64859Y1497476D01*
X64757Y1497460D01*
X64740Y1497450D01*
X64720Y1497446D01*
X64631Y1497393D01*
X64540Y1497344D01*
X64526Y1497330D01*
X64509Y1497320D01*
X64442Y1497241D01*
X64370Y1497166D01*
X64362Y1497148D01*
X64349Y1497133D01*
X64310Y1497037D01*
X64267Y1496943D01*
X64265Y1496923D01*
X64257Y1496905D01*
X64239Y1496738D01*
X64239Y1365000D01*
X64242Y1364980D01*
X64240Y1364961D01*
X64262Y1364859D01*
X64279Y1364757D01*
X64288Y1364740D01*
X64292Y1364720D01*
X64345Y1364631D01*
X64394Y1364540D01*
X64408Y1364526D01*
X64418Y1364509D01*
X64497Y1364442D01*
X64572Y1364371D01*
X64590Y1364362D01*
X64605Y1364349D01*
X64701Y1364310D01*
X64795Y1364267D01*
X64815Y1364265D01*
X64833Y1364257D01*
X65000Y1364239D01*
X105000Y1364239D01*
X105090Y1364254D01*
G37*
G36*
X375020Y1349242D02*
X375020Y1349242D01*
X375039Y1349240D01*
X375141Y1349262D01*
X375243Y1349279D01*
X375260Y1349288D01*
X375280Y1349292D01*
X375369Y1349345D01*
X375460Y1349394D01*
X375474Y1349408D01*
X375491Y1349418D01*
X375558Y1349497D01*
X375630Y1349572D01*
X375638Y1349590D01*
X375651Y1349605D01*
X375690Y1349701D01*
X375733Y1349795D01*
X375735Y1349815D01*
X375743Y1349833D01*
X375761Y1350000D01*
X375761Y1496738D01*
X375758Y1496758D01*
X375760Y1496777D01*
X375738Y1496879D01*
X375722Y1496981D01*
X375712Y1496998D01*
X375708Y1497018D01*
X375655Y1497107D01*
X375606Y1497198D01*
X375592Y1497212D01*
X375582Y1497229D01*
X375503Y1497296D01*
X375428Y1497368D01*
X375410Y1497376D01*
X375395Y1497389D01*
X375299Y1497428D01*
X375205Y1497471D01*
X375185Y1497473D01*
X375167Y1497481D01*
X375000Y1497499D01*
X285000Y1497499D01*
X284980Y1497496D01*
X284961Y1497498D01*
X284859Y1497476D01*
X284757Y1497460D01*
X284740Y1497450D01*
X284720Y1497446D01*
X284631Y1497393D01*
X284540Y1497344D01*
X284526Y1497330D01*
X284509Y1497320D01*
X284442Y1497241D01*
X284371Y1497166D01*
X284362Y1497148D01*
X284349Y1497133D01*
X284310Y1497037D01*
X284267Y1496943D01*
X284265Y1496923D01*
X284257Y1496905D01*
X284239Y1496738D01*
X284239Y1350000D01*
X284242Y1349980D01*
X284240Y1349961D01*
X284262Y1349859D01*
X284279Y1349757D01*
X284288Y1349740D01*
X284292Y1349720D01*
X284345Y1349631D01*
X284394Y1349540D01*
X284408Y1349526D01*
X284418Y1349509D01*
X284497Y1349442D01*
X284572Y1349371D01*
X284590Y1349362D01*
X284605Y1349349D01*
X284701Y1349310D01*
X284795Y1349267D01*
X284815Y1349265D01*
X284833Y1349257D01*
X285000Y1349239D01*
X375000Y1349239D01*
X375020Y1349242D01*
G37*
G36*
X1496760Y1294242D02*
X1496760Y1294242D01*
X1496782Y1294240D01*
X1496881Y1294262D01*
X1496981Y1294279D01*
X1497001Y1294289D01*
X1497022Y1294294D01*
X1497109Y1294346D01*
X1497198Y1294394D01*
X1497214Y1294410D01*
X1497233Y1294422D01*
X1497298Y1294499D01*
X1497367Y1294572D01*
X1497377Y1294592D01*
X1497391Y1294610D01*
X1497429Y1294704D01*
X1497471Y1294795D01*
X1497474Y1294817D01*
X1497482Y1294838D01*
X1497499Y1295005D01*
X1497491Y1296234D01*
X1497493Y1296240D01*
X1497492Y1296272D01*
X1497499Y1296338D01*
X1497499Y1348262D01*
X1497485Y1348352D01*
X1497477Y1348443D01*
X1497465Y1348473D01*
X1497460Y1348505D01*
X1497417Y1348585D01*
X1497381Y1348669D01*
X1497355Y1348701D01*
X1497344Y1348722D01*
X1497321Y1348744D01*
X1497296Y1348776D01*
X1497294Y1348778D01*
X1497293Y1348780D01*
X1497276Y1348800D01*
X1482663Y1363413D01*
X1482624Y1363441D01*
X1482592Y1363477D01*
X1482525Y1363513D01*
X1482463Y1363557D01*
X1482418Y1363571D01*
X1482375Y1363594D01*
X1482301Y1363607D01*
X1482228Y1363629D01*
X1482180Y1363628D01*
X1482133Y1363636D01*
X1482058Y1363625D01*
X1481982Y1363623D01*
X1481937Y1363606D01*
X1481890Y1363599D01*
X1481823Y1363565D01*
X1481751Y1363538D01*
X1481714Y1363508D01*
X1481671Y1363486D01*
X1481619Y1363432D01*
X1481559Y1363385D01*
X1481534Y1363344D01*
X1481500Y1363310D01*
X1481467Y1363242D01*
X1481426Y1363178D01*
X1481415Y1363131D01*
X1481394Y1363088D01*
X1481385Y1363013D01*
X1481366Y1362939D01*
X1481370Y1362891D01*
X1481364Y1362844D01*
X1481384Y1362716D01*
X1481386Y1362694D01*
X1481388Y1362688D01*
X1481390Y1362678D01*
X1481501Y1362263D01*
X1481501Y1360023D01*
X1476523Y1360023D01*
X1476523Y1364001D01*
X1479763Y1364001D01*
X1480178Y1363890D01*
X1480226Y1363885D01*
X1480272Y1363871D01*
X1480347Y1363873D01*
X1480423Y1363865D01*
X1480469Y1363876D01*
X1480517Y1363877D01*
X1480589Y1363903D01*
X1480663Y1363920D01*
X1480703Y1363945D01*
X1480748Y1363962D01*
X1480808Y1364009D01*
X1480872Y1364048D01*
X1480903Y1364085D01*
X1480941Y1364115D01*
X1480982Y1364179D01*
X1481030Y1364237D01*
X1481048Y1364282D01*
X1481074Y1364322D01*
X1481092Y1364396D01*
X1481120Y1364466D01*
X1481122Y1364514D01*
X1481134Y1364561D01*
X1481128Y1364636D01*
X1481131Y1364712D01*
X1481118Y1364758D01*
X1481115Y1364806D01*
X1481085Y1364876D01*
X1481064Y1364949D01*
X1481037Y1364988D01*
X1481018Y1365032D01*
X1480938Y1365133D01*
X1480925Y1365151D01*
X1480920Y1365155D01*
X1480913Y1365163D01*
X1480538Y1365538D01*
X1480464Y1365591D01*
X1480395Y1365651D01*
X1480365Y1365663D01*
X1480339Y1365682D01*
X1480252Y1365709D01*
X1480167Y1365743D01*
X1480126Y1365747D01*
X1480104Y1365754D01*
X1480071Y1365753D01*
X1480000Y1365761D01*
X1450000Y1365761D01*
X1449910Y1365747D01*
X1449819Y1365739D01*
X1449789Y1365727D01*
X1449757Y1365722D01*
X1449677Y1365679D01*
X1449593Y1365643D01*
X1449561Y1365617D01*
X1449540Y1365606D01*
X1449518Y1365583D01*
X1449462Y1365538D01*
X1434462Y1350538D01*
X1434409Y1350464D01*
X1434349Y1350395D01*
X1434337Y1350365D01*
X1434318Y1350339D01*
X1434291Y1350252D01*
X1434257Y1350167D01*
X1434253Y1350126D01*
X1434246Y1350103D01*
X1434247Y1350071D01*
X1434239Y1350000D01*
X1434239Y1335315D01*
X1409685Y1310761D01*
X1360315Y1310761D01*
X1355761Y1315315D01*
X1355761Y1425000D01*
X1355747Y1425090D01*
X1355739Y1425181D01*
X1355727Y1425211D01*
X1355722Y1425243D01*
X1355679Y1425323D01*
X1355643Y1425407D01*
X1355617Y1425439D01*
X1355606Y1425460D01*
X1355583Y1425482D01*
X1355538Y1425538D01*
X1350538Y1430538D01*
X1350464Y1430591D01*
X1350395Y1430651D01*
X1350365Y1430663D01*
X1350339Y1430682D01*
X1350252Y1430709D01*
X1350167Y1430743D01*
X1350126Y1430747D01*
X1350103Y1430754D01*
X1350071Y1430753D01*
X1350000Y1430761D01*
X1335000Y1430761D01*
X1334910Y1430747D01*
X1334819Y1430739D01*
X1334789Y1430727D01*
X1334757Y1430722D01*
X1334677Y1430679D01*
X1334593Y1430643D01*
X1334561Y1430617D01*
X1334540Y1430606D01*
X1334518Y1430583D01*
X1334462Y1430538D01*
X1329462Y1425538D01*
X1329409Y1425464D01*
X1329349Y1425395D01*
X1329337Y1425365D01*
X1329318Y1425339D01*
X1329291Y1425252D01*
X1329257Y1425167D01*
X1329253Y1425126D01*
X1329246Y1425103D01*
X1329247Y1425071D01*
X1329239Y1425000D01*
X1329239Y1320315D01*
X1319685Y1310761D01*
X1285315Y1310761D01*
X1275761Y1320315D01*
X1275761Y1425000D01*
X1275747Y1425090D01*
X1275739Y1425181D01*
X1275727Y1425211D01*
X1275722Y1425243D01*
X1275679Y1425323D01*
X1275643Y1425407D01*
X1275617Y1425440D01*
X1275606Y1425460D01*
X1275583Y1425482D01*
X1275538Y1425538D01*
X1275300Y1425776D01*
X1275242Y1425818D01*
X1275190Y1425868D01*
X1275143Y1425889D01*
X1275100Y1425920D01*
X1275032Y1425941D01*
X1274967Y1425971D01*
X1274915Y1425977D01*
X1274865Y1425992D01*
X1274794Y1425990D01*
X1274723Y1425998D01*
X1274672Y1425987D01*
X1274620Y1425986D01*
X1274552Y1425961D01*
X1274482Y1425946D01*
X1274437Y1425919D01*
X1274389Y1425901D01*
X1274333Y1425857D01*
X1274271Y1425820D01*
X1274237Y1425780D01*
X1274196Y1425748D01*
X1274158Y1425687D01*
X1274111Y1425633D01*
X1274092Y1425584D01*
X1274064Y1425541D01*
X1274046Y1425471D01*
X1274019Y1425405D01*
X1274011Y1425333D01*
X1274003Y1425302D01*
X1274005Y1425279D01*
X1274001Y1425238D01*
X1274001Y1418523D01*
X1266523Y1418523D01*
X1266523Y1427001D01*
X1272238Y1427001D01*
X1272309Y1427012D01*
X1272380Y1427014D01*
X1272429Y1427032D01*
X1272481Y1427040D01*
X1272544Y1427074D01*
X1272611Y1427099D01*
X1272652Y1427131D01*
X1272698Y1427156D01*
X1272747Y1427207D01*
X1272803Y1427252D01*
X1272832Y1427296D01*
X1272868Y1427334D01*
X1272898Y1427399D01*
X1272936Y1427459D01*
X1272949Y1427510D01*
X1272971Y1427557D01*
X1272979Y1427628D01*
X1272997Y1427698D01*
X1272992Y1427750D01*
X1272998Y1427801D01*
X1272983Y1427872D01*
X1272977Y1427943D01*
X1272957Y1427991D01*
X1272946Y1428042D01*
X1272909Y1428103D01*
X1272881Y1428169D01*
X1272836Y1428225D01*
X1272820Y1428253D01*
X1272802Y1428268D01*
X1272776Y1428300D01*
X1270538Y1430538D01*
X1270464Y1430591D01*
X1270395Y1430651D01*
X1270365Y1430663D01*
X1270339Y1430682D01*
X1270252Y1430709D01*
X1270167Y1430743D01*
X1270126Y1430747D01*
X1270103Y1430754D01*
X1270071Y1430753D01*
X1270000Y1430761D01*
X1260000Y1430761D01*
X1259910Y1430747D01*
X1259819Y1430739D01*
X1259789Y1430727D01*
X1259757Y1430722D01*
X1259677Y1430679D01*
X1259593Y1430643D01*
X1259561Y1430617D01*
X1259540Y1430606D01*
X1259518Y1430583D01*
X1259462Y1430538D01*
X1257224Y1428300D01*
X1257182Y1428242D01*
X1257132Y1428190D01*
X1257110Y1428143D01*
X1257080Y1428101D01*
X1257059Y1428032D01*
X1257029Y1427967D01*
X1257023Y1427915D01*
X1257008Y1427865D01*
X1257010Y1427794D01*
X1257002Y1427723D01*
X1257013Y1427672D01*
X1257014Y1427620D01*
X1257039Y1427552D01*
X1257054Y1427482D01*
X1257081Y1427438D01*
X1257099Y1427389D01*
X1257143Y1427333D01*
X1257180Y1427271D01*
X1257220Y1427237D01*
X1257252Y1427197D01*
X1257313Y1427158D01*
X1257367Y1427111D01*
X1257415Y1427092D01*
X1257459Y1427064D01*
X1257529Y1427046D01*
X1257595Y1427019D01*
X1257667Y1427011D01*
X1257698Y1427003D01*
X1257721Y1427005D01*
X1257762Y1427001D01*
X1263477Y1427001D01*
X1263477Y1418523D01*
X1255999Y1418523D01*
X1255999Y1425238D01*
X1255988Y1425309D01*
X1255986Y1425380D01*
X1255968Y1425429D01*
X1255960Y1425481D01*
X1255926Y1425544D01*
X1255901Y1425611D01*
X1255869Y1425652D01*
X1255844Y1425698D01*
X1255793Y1425747D01*
X1255748Y1425803D01*
X1255704Y1425832D01*
X1255666Y1425868D01*
X1255601Y1425898D01*
X1255541Y1425936D01*
X1255490Y1425949D01*
X1255443Y1425971D01*
X1255372Y1425979D01*
X1255302Y1425997D01*
X1255250Y1425992D01*
X1255199Y1425998D01*
X1255128Y1425983D01*
X1255057Y1425977D01*
X1255009Y1425957D01*
X1254958Y1425946D01*
X1254897Y1425909D01*
X1254831Y1425881D01*
X1254775Y1425836D01*
X1254747Y1425820D01*
X1254732Y1425802D01*
X1254700Y1425776D01*
X1254462Y1425538D01*
X1254409Y1425464D01*
X1254349Y1425395D01*
X1254337Y1425365D01*
X1254318Y1425339D01*
X1254291Y1425252D01*
X1254257Y1425167D01*
X1254253Y1425126D01*
X1254246Y1425103D01*
X1254247Y1425071D01*
X1254239Y1425000D01*
X1254239Y1295000D01*
X1254242Y1294980D01*
X1254240Y1294961D01*
X1254262Y1294859D01*
X1254279Y1294757D01*
X1254288Y1294740D01*
X1254292Y1294720D01*
X1254345Y1294631D01*
X1254394Y1294540D01*
X1254408Y1294526D01*
X1254418Y1294509D01*
X1254497Y1294442D01*
X1254572Y1294371D01*
X1254590Y1294362D01*
X1254605Y1294349D01*
X1254701Y1294310D01*
X1254795Y1294267D01*
X1254815Y1294265D01*
X1254833Y1294257D01*
X1255000Y1294239D01*
X1496738Y1294239D01*
X1496760Y1294242D01*
G37*
G36*
X280020Y1349242D02*
X280020Y1349242D01*
X280039Y1349240D01*
X280141Y1349262D01*
X280243Y1349279D01*
X280260Y1349288D01*
X280280Y1349292D01*
X280369Y1349345D01*
X280460Y1349394D01*
X280474Y1349408D01*
X280491Y1349418D01*
X280558Y1349497D01*
X280630Y1349572D01*
X280638Y1349590D01*
X280651Y1349605D01*
X280690Y1349701D01*
X280733Y1349795D01*
X280735Y1349815D01*
X280743Y1349833D01*
X280761Y1350000D01*
X280761Y1390000D01*
X280758Y1390020D01*
X280760Y1390039D01*
X280738Y1390141D01*
X280722Y1390243D01*
X280712Y1390260D01*
X280708Y1390280D01*
X280655Y1390369D01*
X280606Y1390460D01*
X280592Y1390474D01*
X280582Y1390491D01*
X280503Y1390558D01*
X280428Y1390630D01*
X280410Y1390638D01*
X280395Y1390651D01*
X280299Y1390690D01*
X280205Y1390733D01*
X280185Y1390735D01*
X280167Y1390743D01*
X280000Y1390761D01*
X190315Y1390761D01*
X185761Y1395315D01*
X185761Y1410000D01*
X185747Y1410090D01*
X185739Y1410181D01*
X185727Y1410211D01*
X185722Y1410243D01*
X185679Y1410323D01*
X185643Y1410407D01*
X185617Y1410439D01*
X185606Y1410460D01*
X185583Y1410482D01*
X185538Y1410538D01*
X175538Y1420538D01*
X175464Y1420591D01*
X175395Y1420651D01*
X175365Y1420663D01*
X175339Y1420682D01*
X175252Y1420709D01*
X175167Y1420743D01*
X175126Y1420747D01*
X175103Y1420754D01*
X175071Y1420753D01*
X175000Y1420761D01*
X130000Y1420761D01*
X129910Y1420747D01*
X129819Y1420739D01*
X129789Y1420727D01*
X129757Y1420722D01*
X129677Y1420679D01*
X129593Y1420643D01*
X129561Y1420617D01*
X129540Y1420606D01*
X129518Y1420583D01*
X129462Y1420538D01*
X119462Y1410538D01*
X119409Y1410464D01*
X119349Y1410395D01*
X119337Y1410365D01*
X119318Y1410339D01*
X119291Y1410252D01*
X119257Y1410167D01*
X119253Y1410126D01*
X119246Y1410103D01*
X119247Y1410071D01*
X119239Y1410000D01*
X119239Y1375000D01*
X119254Y1374910D01*
X119261Y1374819D01*
X119273Y1374789D01*
X119279Y1374757D01*
X119321Y1374677D01*
X119357Y1374593D01*
X119383Y1374561D01*
X119394Y1374540D01*
X119417Y1374518D01*
X119462Y1374462D01*
X144462Y1349462D01*
X144536Y1349409D01*
X144605Y1349349D01*
X144635Y1349337D01*
X144661Y1349318D01*
X144748Y1349291D01*
X144833Y1349257D01*
X144874Y1349253D01*
X144897Y1349246D01*
X144929Y1349247D01*
X145000Y1349239D01*
X280000Y1349239D01*
X280020Y1349242D01*
G37*
G36*
X1195090Y1319254D02*
X1195090Y1319254D01*
X1195181Y1319261D01*
X1195211Y1319273D01*
X1195243Y1319279D01*
X1195323Y1319321D01*
X1195407Y1319357D01*
X1195439Y1319383D01*
X1195460Y1319394D01*
X1195482Y1319417D01*
X1195538Y1319462D01*
X1200538Y1324462D01*
X1200591Y1324536D01*
X1200651Y1324605D01*
X1200663Y1324635D01*
X1200682Y1324661D01*
X1200709Y1324748D01*
X1200743Y1324833D01*
X1200747Y1324874D01*
X1200754Y1324897D01*
X1200753Y1324929D01*
X1200761Y1325000D01*
X1200761Y1425000D01*
X1200747Y1425090D01*
X1200739Y1425181D01*
X1200727Y1425211D01*
X1200722Y1425243D01*
X1200679Y1425323D01*
X1200643Y1425407D01*
X1200617Y1425439D01*
X1200606Y1425460D01*
X1200583Y1425482D01*
X1200538Y1425538D01*
X1195538Y1430538D01*
X1195464Y1430591D01*
X1195395Y1430651D01*
X1195365Y1430663D01*
X1195339Y1430682D01*
X1195252Y1430709D01*
X1195167Y1430743D01*
X1195126Y1430747D01*
X1195103Y1430754D01*
X1195071Y1430753D01*
X1195000Y1430761D01*
X1180000Y1430761D01*
X1179910Y1430747D01*
X1179819Y1430739D01*
X1179789Y1430727D01*
X1179757Y1430722D01*
X1179677Y1430679D01*
X1179593Y1430643D01*
X1179561Y1430617D01*
X1179540Y1430606D01*
X1179518Y1430583D01*
X1179462Y1430538D01*
X1124685Y1375761D01*
X1120000Y1375761D01*
X1119910Y1375747D01*
X1119819Y1375739D01*
X1119789Y1375727D01*
X1119757Y1375722D01*
X1119677Y1375679D01*
X1119593Y1375643D01*
X1119561Y1375617D01*
X1119540Y1375606D01*
X1119518Y1375583D01*
X1119462Y1375538D01*
X1117224Y1373300D01*
X1117182Y1373242D01*
X1117132Y1373190D01*
X1117110Y1373143D01*
X1117080Y1373101D01*
X1117059Y1373032D01*
X1117029Y1372967D01*
X1117023Y1372915D01*
X1117008Y1372865D01*
X1117010Y1372794D01*
X1117002Y1372723D01*
X1117013Y1372672D01*
X1117014Y1372620D01*
X1117039Y1372552D01*
X1117054Y1372482D01*
X1117081Y1372438D01*
X1117099Y1372389D01*
X1117143Y1372333D01*
X1117180Y1372271D01*
X1117220Y1372237D01*
X1117252Y1372197D01*
X1117313Y1372158D01*
X1117367Y1372111D01*
X1117415Y1372092D01*
X1117459Y1372064D01*
X1117529Y1372046D01*
X1117551Y1372037D01*
X1117551Y1359738D01*
X1117554Y1359719D01*
X1117552Y1359699D01*
X1117574Y1359597D01*
X1117590Y1359495D01*
X1117600Y1359478D01*
X1117604Y1359458D01*
X1117657Y1359369D01*
X1117706Y1359278D01*
X1117720Y1359264D01*
X1117730Y1359247D01*
X1117809Y1359180D01*
X1117884Y1359109D01*
X1117902Y1359100D01*
X1117917Y1359087D01*
X1118013Y1359049D01*
X1118107Y1359005D01*
X1118127Y1359003D01*
X1118145Y1358996D01*
X1118069Y1358983D01*
X1118052Y1358974D01*
X1118032Y1358970D01*
X1117943Y1358917D01*
X1117852Y1358868D01*
X1117838Y1358854D01*
X1117821Y1358844D01*
X1117754Y1358765D01*
X1117682Y1358690D01*
X1117674Y1358672D01*
X1117661Y1358657D01*
X1117622Y1358560D01*
X1117579Y1358467D01*
X1117577Y1358447D01*
X1117569Y1358429D01*
X1117551Y1358262D01*
X1117551Y1345999D01*
X1115787Y1345999D01*
X1115197Y1346157D01*
X1115078Y1346169D01*
X1114961Y1346182D01*
X1114956Y1346181D01*
X1114952Y1346182D01*
X1114837Y1346155D01*
X1114720Y1346130D01*
X1114717Y1346128D01*
X1114713Y1346127D01*
X1114611Y1346065D01*
X1114509Y1346004D01*
X1114506Y1346001D01*
X1114503Y1345998D01*
X1114426Y1345907D01*
X1114349Y1345817D01*
X1114348Y1345813D01*
X1114345Y1345810D01*
X1114302Y1345699D01*
X1114257Y1345589D01*
X1114257Y1345584D01*
X1114255Y1345581D01*
X1114255Y1345567D01*
X1114239Y1345422D01*
X1114239Y1340000D01*
X1114254Y1339910D01*
X1114261Y1339819D01*
X1114273Y1339789D01*
X1114279Y1339757D01*
X1114321Y1339677D01*
X1114357Y1339593D01*
X1114383Y1339561D01*
X1114394Y1339540D01*
X1114417Y1339518D01*
X1114462Y1339462D01*
X1119462Y1334462D01*
X1119536Y1334409D01*
X1119605Y1334349D01*
X1119635Y1334337D01*
X1119661Y1334318D01*
X1119748Y1334291D01*
X1119833Y1334257D01*
X1119874Y1334253D01*
X1119897Y1334246D01*
X1119929Y1334247D01*
X1120000Y1334239D01*
X1164685Y1334239D01*
X1179462Y1319462D01*
X1179536Y1319409D01*
X1179605Y1319349D01*
X1179635Y1319337D01*
X1179661Y1319318D01*
X1179748Y1319291D01*
X1179833Y1319257D01*
X1179874Y1319253D01*
X1179897Y1319246D01*
X1179929Y1319247D01*
X1180000Y1319239D01*
X1195000Y1319239D01*
X1195090Y1319254D01*
G37*
G36*
X1410090Y1319254D02*
X1410090Y1319254D01*
X1410181Y1319261D01*
X1410211Y1319273D01*
X1410243Y1319279D01*
X1410323Y1319321D01*
X1410407Y1319357D01*
X1410439Y1319383D01*
X1410460Y1319394D01*
X1410482Y1319417D01*
X1410538Y1319462D01*
X1430538Y1339462D01*
X1430591Y1339536D01*
X1430651Y1339605D01*
X1430663Y1339635D01*
X1430682Y1339661D01*
X1430709Y1339748D01*
X1430743Y1339833D01*
X1430747Y1339874D01*
X1430754Y1339897D01*
X1430753Y1339929D01*
X1430761Y1340000D01*
X1430761Y1354685D01*
X1445315Y1369239D01*
X1446094Y1369239D01*
X1446165Y1369250D01*
X1446236Y1369252D01*
X1446285Y1369270D01*
X1446337Y1369279D01*
X1446400Y1369312D01*
X1446467Y1369337D01*
X1446508Y1369369D01*
X1446554Y1369394D01*
X1446603Y1369446D01*
X1446659Y1369490D01*
X1446688Y1369534D01*
X1446723Y1369572D01*
X1446754Y1369637D01*
X1446792Y1369697D01*
X1446805Y1369748D01*
X1446827Y1369795D01*
X1446835Y1369866D01*
X1446853Y1369936D01*
X1446848Y1369988D01*
X1446854Y1370039D01*
X1446839Y1370110D01*
X1446833Y1370181D01*
X1446813Y1370229D01*
X1446802Y1370280D01*
X1446765Y1370341D01*
X1446737Y1370407D01*
X1446692Y1370463D01*
X1446676Y1370491D01*
X1446658Y1370506D01*
X1446632Y1370538D01*
X1446399Y1370772D01*
X1446136Y1371228D01*
X1445999Y1371737D01*
X1445999Y1378477D01*
X1454238Y1378477D01*
X1454258Y1378480D01*
X1454277Y1378478D01*
X1454379Y1378500D01*
X1454481Y1378517D01*
X1454498Y1378526D01*
X1454518Y1378530D01*
X1454607Y1378583D01*
X1454698Y1378632D01*
X1454712Y1378646D01*
X1454729Y1378656D01*
X1454796Y1378735D01*
X1454867Y1378810D01*
X1454876Y1378828D01*
X1454889Y1378843D01*
X1454928Y1378939D01*
X1454971Y1379033D01*
X1454973Y1379053D01*
X1454981Y1379071D01*
X1454999Y1379238D01*
X1454999Y1380001D01*
X1455001Y1380001D01*
X1455001Y1379238D01*
X1455004Y1379218D01*
X1455002Y1379199D01*
X1455024Y1379097D01*
X1455041Y1378995D01*
X1455050Y1378978D01*
X1455054Y1378958D01*
X1455107Y1378869D01*
X1455156Y1378778D01*
X1455170Y1378764D01*
X1455180Y1378747D01*
X1455259Y1378680D01*
X1455334Y1378609D01*
X1455352Y1378600D01*
X1455367Y1378587D01*
X1455463Y1378548D01*
X1455557Y1378505D01*
X1455577Y1378503D01*
X1455595Y1378495D01*
X1455762Y1378477D01*
X1464001Y1378477D01*
X1464001Y1371737D01*
X1463864Y1371228D01*
X1463601Y1370772D01*
X1463368Y1370538D01*
X1463326Y1370480D01*
X1463277Y1370428D01*
X1463255Y1370381D01*
X1463224Y1370339D01*
X1463203Y1370270D01*
X1463173Y1370205D01*
X1463167Y1370153D01*
X1463152Y1370104D01*
X1463154Y1370032D01*
X1463146Y1369961D01*
X1463157Y1369910D01*
X1463158Y1369858D01*
X1463183Y1369790D01*
X1463198Y1369720D01*
X1463225Y1369675D01*
X1463243Y1369627D01*
X1463287Y1369571D01*
X1463324Y1369509D01*
X1463364Y1369475D01*
X1463396Y1369435D01*
X1463457Y1369396D01*
X1463511Y1369349D01*
X1463560Y1369330D01*
X1463603Y1369302D01*
X1463673Y1369284D01*
X1463739Y1369257D01*
X1463811Y1369249D01*
X1463842Y1369241D01*
X1463865Y1369243D01*
X1463906Y1369239D01*
X1467738Y1369239D01*
X1467758Y1369242D01*
X1467777Y1369240D01*
X1467879Y1369262D01*
X1467981Y1369279D01*
X1467998Y1369288D01*
X1468018Y1369292D01*
X1468107Y1369345D01*
X1468198Y1369394D01*
X1468212Y1369408D01*
X1468229Y1369418D01*
X1468296Y1369497D01*
X1468368Y1369572D01*
X1468376Y1369590D01*
X1468389Y1369605D01*
X1468428Y1369701D01*
X1468471Y1369795D01*
X1468473Y1369815D01*
X1468481Y1369833D01*
X1468497Y1369977D01*
X1474238Y1369977D01*
X1474258Y1369980D01*
X1474277Y1369978D01*
X1474379Y1370000D01*
X1474481Y1370017D01*
X1474498Y1370026D01*
X1474518Y1370030D01*
X1474607Y1370083D01*
X1474698Y1370132D01*
X1474712Y1370146D01*
X1474729Y1370156D01*
X1474796Y1370235D01*
X1474867Y1370310D01*
X1474876Y1370328D01*
X1474889Y1370343D01*
X1474928Y1370439D01*
X1474971Y1370533D01*
X1474973Y1370553D01*
X1474981Y1370571D01*
X1474999Y1370738D01*
X1474999Y1371501D01*
X1475001Y1371501D01*
X1475001Y1370738D01*
X1475004Y1370718D01*
X1475002Y1370699D01*
X1475024Y1370597D01*
X1475041Y1370495D01*
X1475050Y1370478D01*
X1475054Y1370458D01*
X1475107Y1370369D01*
X1475156Y1370278D01*
X1475170Y1370264D01*
X1475180Y1370247D01*
X1475259Y1370180D01*
X1475334Y1370109D01*
X1475352Y1370100D01*
X1475367Y1370087D01*
X1475463Y1370048D01*
X1475557Y1370005D01*
X1475577Y1370003D01*
X1475595Y1369995D01*
X1475762Y1369977D01*
X1481504Y1369977D01*
X1481502Y1369961D01*
X1481524Y1369859D01*
X1481540Y1369757D01*
X1481550Y1369740D01*
X1481554Y1369720D01*
X1481607Y1369631D01*
X1481656Y1369540D01*
X1481670Y1369526D01*
X1481680Y1369509D01*
X1481759Y1369442D01*
X1481834Y1369371D01*
X1481852Y1369362D01*
X1481867Y1369349D01*
X1481963Y1369310D01*
X1482057Y1369267D01*
X1482077Y1369265D01*
X1482095Y1369257D01*
X1482262Y1369239D01*
X1496738Y1369239D01*
X1496758Y1369242D01*
X1496777Y1369240D01*
X1496879Y1369262D01*
X1496981Y1369279D01*
X1496998Y1369288D01*
X1497018Y1369292D01*
X1497107Y1369345D01*
X1497198Y1369394D01*
X1497212Y1369408D01*
X1497229Y1369418D01*
X1497296Y1369497D01*
X1497368Y1369572D01*
X1497376Y1369590D01*
X1497389Y1369605D01*
X1497428Y1369701D01*
X1497471Y1369795D01*
X1497473Y1369815D01*
X1497481Y1369833D01*
X1497499Y1370000D01*
X1497499Y1395000D01*
X1497496Y1395020D01*
X1497498Y1395039D01*
X1497476Y1395141D01*
X1497460Y1395243D01*
X1497450Y1395260D01*
X1497446Y1395280D01*
X1497393Y1395369D01*
X1497344Y1395460D01*
X1497330Y1395474D01*
X1497320Y1395491D01*
X1497241Y1395558D01*
X1497166Y1395630D01*
X1497148Y1395638D01*
X1497133Y1395651D01*
X1497037Y1395690D01*
X1496943Y1395733D01*
X1496923Y1395735D01*
X1496905Y1395743D01*
X1496738Y1395761D01*
X1472864Y1395761D01*
X1472816Y1395754D01*
X1472768Y1395755D01*
X1472696Y1395734D01*
X1472621Y1395722D01*
X1472579Y1395699D01*
X1472533Y1395685D01*
X1472470Y1395642D01*
X1472404Y1395606D01*
X1472371Y1395572D01*
X1472331Y1395544D01*
X1472286Y1395483D01*
X1472234Y1395428D01*
X1472214Y1395385D01*
X1472186Y1395346D01*
X1472163Y1395274D01*
X1472131Y1395205D01*
X1472125Y1395157D01*
X1472111Y1395112D01*
X1472112Y1395036D01*
X1472103Y1394961D01*
X1472114Y1394914D01*
X1472114Y1394866D01*
X1472140Y1394794D01*
X1472156Y1394720D01*
X1472180Y1394679D01*
X1472196Y1394634D01*
X1472243Y1394574D01*
X1472282Y1394509D01*
X1472318Y1394478D01*
X1472348Y1394440D01*
X1472452Y1394364D01*
X1472469Y1394349D01*
X1472475Y1394347D01*
X1472483Y1394341D01*
X1473071Y1394002D01*
X1474002Y1393071D01*
X1474660Y1391930D01*
X1474943Y1390874D01*
X1470113Y1390874D01*
X1470094Y1390871D01*
X1470074Y1390873D01*
X1470014Y1390860D01*
X1469887Y1390874D01*
X1465057Y1390874D01*
X1465340Y1391930D01*
X1465998Y1393071D01*
X1466929Y1394002D01*
X1467517Y1394341D01*
X1467554Y1394371D01*
X1467596Y1394394D01*
X1467649Y1394449D01*
X1467707Y1394497D01*
X1467733Y1394537D01*
X1467766Y1394572D01*
X1467798Y1394641D01*
X1467838Y1394705D01*
X1467849Y1394752D01*
X1467869Y1394795D01*
X1467878Y1394870D01*
X1467895Y1394944D01*
X1467891Y1394992D01*
X1467897Y1395039D01*
X1467880Y1395114D01*
X1467874Y1395189D01*
X1467854Y1395233D01*
X1467844Y1395280D01*
X1467805Y1395345D01*
X1467775Y1395414D01*
X1467743Y1395450D01*
X1467718Y1395491D01*
X1467660Y1395540D01*
X1467609Y1395596D01*
X1467568Y1395620D01*
X1467531Y1395651D01*
X1467461Y1395679D01*
X1467395Y1395716D01*
X1467348Y1395725D01*
X1467303Y1395743D01*
X1467175Y1395757D01*
X1467153Y1395761D01*
X1467146Y1395760D01*
X1467136Y1395761D01*
X1410315Y1395761D01*
X1400538Y1405538D01*
X1400480Y1405580D01*
X1400428Y1405630D01*
X1400381Y1405652D01*
X1400339Y1405682D01*
X1400270Y1405703D01*
X1400205Y1405733D01*
X1400153Y1405739D01*
X1400103Y1405754D01*
X1400032Y1405752D01*
X1399961Y1405760D01*
X1399910Y1405749D01*
X1399858Y1405748D01*
X1399790Y1405723D01*
X1399720Y1405708D01*
X1399676Y1405681D01*
X1399627Y1405663D01*
X1399571Y1405619D01*
X1399509Y1405582D01*
X1399475Y1405542D01*
X1399435Y1405510D01*
X1399396Y1405449D01*
X1399349Y1405395D01*
X1399330Y1405347D01*
X1399302Y1405303D01*
X1399284Y1405233D01*
X1399257Y1405167D01*
X1399249Y1405095D01*
X1399241Y1405064D01*
X1399243Y1405041D01*
X1399239Y1405000D01*
X1399239Y1320000D01*
X1399242Y1319980D01*
X1399240Y1319961D01*
X1399262Y1319859D01*
X1399279Y1319757D01*
X1399288Y1319740D01*
X1399292Y1319720D01*
X1399345Y1319631D01*
X1399394Y1319540D01*
X1399408Y1319526D01*
X1399418Y1319509D01*
X1399497Y1319442D01*
X1399572Y1319371D01*
X1399590Y1319362D01*
X1399605Y1319349D01*
X1399701Y1319310D01*
X1399795Y1319267D01*
X1399815Y1319265D01*
X1399833Y1319257D01*
X1400000Y1319239D01*
X1410000Y1319239D01*
X1410090Y1319254D01*
G37*
G36*
X1309906Y1319242D02*
X1309906Y1319242D01*
X1309926Y1319240D01*
X1309986Y1319253D01*
X1310113Y1319239D01*
X1320000Y1319239D01*
X1320020Y1319242D01*
X1320039Y1319240D01*
X1320141Y1319262D01*
X1320243Y1319279D01*
X1320260Y1319288D01*
X1320280Y1319292D01*
X1320369Y1319345D01*
X1320460Y1319394D01*
X1320474Y1319408D01*
X1320491Y1319418D01*
X1320558Y1319497D01*
X1320630Y1319572D01*
X1320638Y1319590D01*
X1320651Y1319605D01*
X1320690Y1319701D01*
X1320733Y1319795D01*
X1320735Y1319815D01*
X1320743Y1319833D01*
X1320761Y1320000D01*
X1320761Y1430000D01*
X1320758Y1430020D01*
X1320760Y1430039D01*
X1320738Y1430141D01*
X1320722Y1430243D01*
X1320712Y1430260D01*
X1320708Y1430280D01*
X1320655Y1430369D01*
X1320606Y1430460D01*
X1320592Y1430474D01*
X1320582Y1430491D01*
X1320503Y1430558D01*
X1320428Y1430630D01*
X1320410Y1430638D01*
X1320395Y1430651D01*
X1320299Y1430690D01*
X1320205Y1430733D01*
X1320185Y1430735D01*
X1320167Y1430743D01*
X1320000Y1430761D01*
X1300000Y1430761D01*
X1299980Y1430758D01*
X1299961Y1430760D01*
X1299859Y1430738D01*
X1299757Y1430722D01*
X1299740Y1430712D01*
X1299720Y1430708D01*
X1299631Y1430655D01*
X1299540Y1430606D01*
X1299526Y1430592D01*
X1299509Y1430582D01*
X1299442Y1430503D01*
X1299371Y1430428D01*
X1299362Y1430410D01*
X1299349Y1430395D01*
X1299310Y1430299D01*
X1299267Y1430205D01*
X1299265Y1430185D01*
X1299257Y1430167D01*
X1299239Y1430000D01*
X1299239Y1357442D01*
X1299254Y1357351D01*
X1299261Y1357261D01*
X1299273Y1357231D01*
X1299279Y1357199D01*
X1299321Y1357118D01*
X1299357Y1357034D01*
X1299383Y1357002D01*
X1299394Y1356981D01*
X1299417Y1356959D01*
X1299462Y1356903D01*
X1299501Y1356864D01*
X1299501Y1353136D01*
X1299462Y1353097D01*
X1299409Y1353023D01*
X1299349Y1352953D01*
X1299337Y1352923D01*
X1299318Y1352897D01*
X1299291Y1352810D01*
X1299257Y1352725D01*
X1299253Y1352684D01*
X1299246Y1352662D01*
X1299247Y1352630D01*
X1299239Y1352558D01*
X1299239Y1320000D01*
X1299242Y1319980D01*
X1299240Y1319961D01*
X1299262Y1319859D01*
X1299279Y1319757D01*
X1299288Y1319740D01*
X1299292Y1319720D01*
X1299345Y1319631D01*
X1299394Y1319540D01*
X1299408Y1319526D01*
X1299418Y1319509D01*
X1299497Y1319442D01*
X1299572Y1319371D01*
X1299590Y1319362D01*
X1299605Y1319349D01*
X1299701Y1319310D01*
X1299795Y1319267D01*
X1299815Y1319265D01*
X1299833Y1319257D01*
X1300000Y1319239D01*
X1309887Y1319239D01*
X1309906Y1319242D01*
G37*
G36*
X1229906Y1319242D02*
X1229906Y1319242D01*
X1229926Y1319240D01*
X1229986Y1319253D01*
X1230113Y1319239D01*
X1240000Y1319239D01*
X1240020Y1319242D01*
X1240039Y1319240D01*
X1240141Y1319262D01*
X1240243Y1319279D01*
X1240260Y1319288D01*
X1240280Y1319292D01*
X1240369Y1319345D01*
X1240460Y1319394D01*
X1240474Y1319408D01*
X1240491Y1319418D01*
X1240558Y1319497D01*
X1240630Y1319572D01*
X1240638Y1319590D01*
X1240651Y1319605D01*
X1240690Y1319701D01*
X1240733Y1319795D01*
X1240735Y1319815D01*
X1240743Y1319833D01*
X1240761Y1320000D01*
X1240761Y1322275D01*
X1240742Y1322391D01*
X1240724Y1322510D01*
X1240722Y1322513D01*
X1240722Y1322517D01*
X1240666Y1322622D01*
X1240611Y1322728D01*
X1240608Y1322731D01*
X1240606Y1322735D01*
X1240521Y1322816D01*
X1240435Y1322899D01*
X1240431Y1322901D01*
X1240428Y1322904D01*
X1240320Y1322954D01*
X1240213Y1323005D01*
X1240209Y1323006D01*
X1240205Y1323008D01*
X1240086Y1323021D01*
X1239969Y1323035D01*
X1239964Y1323034D01*
X1239961Y1323035D01*
X1239947Y1323032D01*
X1239803Y1323010D01*
X1239763Y1322999D01*
X1235361Y1322999D01*
X1235267Y1322984D01*
X1235171Y1322975D01*
X1235146Y1322964D01*
X1235118Y1322960D01*
X1235034Y1322915D01*
X1234946Y1322876D01*
X1234925Y1322857D01*
X1234901Y1322844D01*
X1234835Y1322775D01*
X1234764Y1322710D01*
X1234751Y1322686D01*
X1234732Y1322666D01*
X1234691Y1322579D01*
X1234645Y1322495D01*
X1234640Y1322468D01*
X1234628Y1322443D01*
X1234618Y1322348D01*
X1234600Y1322253D01*
X1234604Y1322226D01*
X1234601Y1322199D01*
X1234621Y1322105D01*
X1234635Y1322010D01*
X1234644Y1321989D01*
X1234943Y1320874D01*
X1230113Y1320874D01*
X1230094Y1320871D01*
X1230074Y1320873D01*
X1230014Y1320860D01*
X1229887Y1320874D01*
X1225057Y1320874D01*
X1225340Y1321930D01*
X1225365Y1321973D01*
X1225407Y1322084D01*
X1225450Y1322195D01*
X1225450Y1322199D01*
X1225452Y1322203D01*
X1225456Y1322322D01*
X1225462Y1322441D01*
X1225461Y1322444D01*
X1225461Y1322449D01*
X1225427Y1322563D01*
X1225394Y1322677D01*
X1225392Y1322681D01*
X1225391Y1322685D01*
X1225323Y1322781D01*
X1225255Y1322880D01*
X1225252Y1322882D01*
X1225250Y1322886D01*
X1225154Y1322956D01*
X1225059Y1323028D01*
X1225054Y1323030D01*
X1225051Y1323032D01*
X1225039Y1323036D01*
X1224902Y1323089D01*
X1224728Y1323136D01*
X1224272Y1323399D01*
X1223899Y1323772D01*
X1223636Y1324228D01*
X1223499Y1324737D01*
X1223499Y1331477D01*
X1231738Y1331477D01*
X1231758Y1331480D01*
X1231777Y1331478D01*
X1231879Y1331500D01*
X1231981Y1331517D01*
X1231998Y1331526D01*
X1232018Y1331530D01*
X1232107Y1331583D01*
X1232198Y1331632D01*
X1232212Y1331646D01*
X1232229Y1331656D01*
X1232296Y1331735D01*
X1232367Y1331810D01*
X1232376Y1331828D01*
X1232389Y1331843D01*
X1232428Y1331939D01*
X1232471Y1332033D01*
X1232473Y1332053D01*
X1232481Y1332071D01*
X1232499Y1332238D01*
X1232499Y1333001D01*
X1233262Y1333001D01*
X1233282Y1333004D01*
X1233301Y1333002D01*
X1233403Y1333024D01*
X1233505Y1333041D01*
X1233522Y1333050D01*
X1233542Y1333054D01*
X1233631Y1333107D01*
X1233722Y1333156D01*
X1233736Y1333170D01*
X1233753Y1333180D01*
X1233820Y1333259D01*
X1233891Y1333334D01*
X1233900Y1333352D01*
X1233913Y1333367D01*
X1233952Y1333463D01*
X1233995Y1333557D01*
X1233997Y1333577D01*
X1234005Y1333595D01*
X1234023Y1333762D01*
X1234023Y1343001D01*
X1239763Y1343001D01*
X1239803Y1342990D01*
X1239921Y1342978D01*
X1240039Y1342965D01*
X1240044Y1342966D01*
X1240048Y1342966D01*
X1240163Y1342992D01*
X1240280Y1343017D01*
X1240283Y1343020D01*
X1240287Y1343021D01*
X1240388Y1343082D01*
X1240491Y1343144D01*
X1240494Y1343147D01*
X1240497Y1343149D01*
X1240573Y1343240D01*
X1240651Y1343331D01*
X1240652Y1343334D01*
X1240655Y1343338D01*
X1240698Y1343447D01*
X1240743Y1343559D01*
X1240743Y1343564D01*
X1240745Y1343567D01*
X1240745Y1343580D01*
X1240761Y1343725D01*
X1240761Y1406275D01*
X1240742Y1406391D01*
X1240724Y1406509D01*
X1240722Y1406513D01*
X1240722Y1406517D01*
X1240666Y1406622D01*
X1240611Y1406728D01*
X1240608Y1406731D01*
X1240606Y1406735D01*
X1240521Y1406816D01*
X1240435Y1406899D01*
X1240431Y1406901D01*
X1240428Y1406904D01*
X1240321Y1406954D01*
X1240213Y1407005D01*
X1240209Y1407006D01*
X1240205Y1407008D01*
X1240088Y1407021D01*
X1239969Y1407035D01*
X1239964Y1407034D01*
X1239961Y1407035D01*
X1239947Y1407032D01*
X1239803Y1407010D01*
X1239763Y1406999D01*
X1234023Y1406999D01*
X1234023Y1416238D01*
X1234020Y1416258D01*
X1234022Y1416277D01*
X1234000Y1416379D01*
X1233983Y1416481D01*
X1233974Y1416498D01*
X1233970Y1416518D01*
X1233917Y1416607D01*
X1233868Y1416698D01*
X1233854Y1416712D01*
X1233844Y1416729D01*
X1233765Y1416796D01*
X1233690Y1416867D01*
X1233672Y1416876D01*
X1233657Y1416889D01*
X1233561Y1416928D01*
X1233467Y1416971D01*
X1233447Y1416973D01*
X1233429Y1416981D01*
X1233262Y1416999D01*
X1232499Y1416999D01*
X1232499Y1417001D01*
X1233262Y1417001D01*
X1233282Y1417004D01*
X1233301Y1417002D01*
X1233403Y1417024D01*
X1233505Y1417041D01*
X1233522Y1417050D01*
X1233542Y1417054D01*
X1233631Y1417107D01*
X1233722Y1417156D01*
X1233736Y1417170D01*
X1233753Y1417180D01*
X1233820Y1417259D01*
X1233891Y1417334D01*
X1233900Y1417352D01*
X1233913Y1417367D01*
X1233952Y1417463D01*
X1233995Y1417557D01*
X1233997Y1417577D01*
X1234005Y1417595D01*
X1234023Y1417762D01*
X1234023Y1427001D01*
X1239763Y1427001D01*
X1239803Y1426990D01*
X1239921Y1426978D01*
X1240039Y1426965D01*
X1240044Y1426966D01*
X1240048Y1426966D01*
X1240163Y1426992D01*
X1240280Y1427017D01*
X1240283Y1427020D01*
X1240287Y1427021D01*
X1240388Y1427082D01*
X1240491Y1427144D01*
X1240494Y1427147D01*
X1240497Y1427149D01*
X1240573Y1427240D01*
X1240651Y1427331D01*
X1240652Y1427334D01*
X1240655Y1427338D01*
X1240698Y1427447D01*
X1240743Y1427559D01*
X1240743Y1427564D01*
X1240745Y1427567D01*
X1240745Y1427580D01*
X1240761Y1427725D01*
X1240761Y1430000D01*
X1240758Y1430020D01*
X1240760Y1430039D01*
X1240738Y1430141D01*
X1240722Y1430243D01*
X1240712Y1430260D01*
X1240708Y1430280D01*
X1240655Y1430369D01*
X1240606Y1430460D01*
X1240592Y1430474D01*
X1240582Y1430491D01*
X1240503Y1430558D01*
X1240428Y1430630D01*
X1240410Y1430638D01*
X1240395Y1430651D01*
X1240299Y1430690D01*
X1240205Y1430733D01*
X1240185Y1430735D01*
X1240167Y1430743D01*
X1240000Y1430761D01*
X1220000Y1430761D01*
X1219980Y1430758D01*
X1219961Y1430760D01*
X1219859Y1430738D01*
X1219757Y1430722D01*
X1219740Y1430712D01*
X1219720Y1430708D01*
X1219631Y1430655D01*
X1219540Y1430606D01*
X1219526Y1430592D01*
X1219509Y1430582D01*
X1219442Y1430503D01*
X1219371Y1430428D01*
X1219362Y1430410D01*
X1219349Y1430395D01*
X1219310Y1430299D01*
X1219267Y1430205D01*
X1219265Y1430185D01*
X1219257Y1430167D01*
X1219239Y1430000D01*
X1219239Y1320000D01*
X1219242Y1319980D01*
X1219240Y1319961D01*
X1219262Y1319859D01*
X1219279Y1319757D01*
X1219288Y1319740D01*
X1219292Y1319720D01*
X1219345Y1319631D01*
X1219394Y1319540D01*
X1219408Y1319526D01*
X1219418Y1319509D01*
X1219497Y1319442D01*
X1219572Y1319371D01*
X1219590Y1319362D01*
X1219605Y1319349D01*
X1219701Y1319310D01*
X1219795Y1319267D01*
X1219815Y1319265D01*
X1219833Y1319257D01*
X1220000Y1319239D01*
X1229887Y1319239D01*
X1229906Y1319242D01*
G37*
G36*
X1384906Y1319242D02*
X1384906Y1319242D01*
X1384926Y1319240D01*
X1384986Y1319253D01*
X1385113Y1319239D01*
X1395000Y1319239D01*
X1395020Y1319242D01*
X1395039Y1319240D01*
X1395141Y1319262D01*
X1395243Y1319279D01*
X1395260Y1319288D01*
X1395280Y1319292D01*
X1395369Y1319345D01*
X1395460Y1319394D01*
X1395474Y1319408D01*
X1395491Y1319418D01*
X1395558Y1319497D01*
X1395630Y1319572D01*
X1395638Y1319590D01*
X1395651Y1319605D01*
X1395690Y1319701D01*
X1395733Y1319795D01*
X1395735Y1319815D01*
X1395743Y1319833D01*
X1395761Y1320000D01*
X1395761Y1322275D01*
X1395742Y1322391D01*
X1395724Y1322510D01*
X1395722Y1322513D01*
X1395722Y1322517D01*
X1395666Y1322622D01*
X1395611Y1322728D01*
X1395608Y1322731D01*
X1395606Y1322735D01*
X1395521Y1322816D01*
X1395435Y1322899D01*
X1395431Y1322901D01*
X1395428Y1322904D01*
X1395320Y1322954D01*
X1395213Y1323005D01*
X1395209Y1323006D01*
X1395205Y1323008D01*
X1395086Y1323021D01*
X1394969Y1323035D01*
X1394964Y1323034D01*
X1394961Y1323035D01*
X1394947Y1323032D01*
X1394803Y1323010D01*
X1394763Y1322999D01*
X1390361Y1322999D01*
X1390267Y1322984D01*
X1390171Y1322975D01*
X1390146Y1322964D01*
X1390118Y1322960D01*
X1390034Y1322915D01*
X1389946Y1322876D01*
X1389925Y1322857D01*
X1389901Y1322844D01*
X1389835Y1322775D01*
X1389764Y1322710D01*
X1389751Y1322686D01*
X1389732Y1322666D01*
X1389691Y1322579D01*
X1389645Y1322495D01*
X1389640Y1322468D01*
X1389628Y1322443D01*
X1389618Y1322348D01*
X1389600Y1322253D01*
X1389604Y1322226D01*
X1389601Y1322199D01*
X1389621Y1322105D01*
X1389635Y1322010D01*
X1389644Y1321989D01*
X1389943Y1320874D01*
X1385113Y1320874D01*
X1385094Y1320871D01*
X1385074Y1320873D01*
X1385014Y1320860D01*
X1384887Y1320874D01*
X1380057Y1320874D01*
X1380340Y1321930D01*
X1380365Y1321973D01*
X1380407Y1322084D01*
X1380450Y1322195D01*
X1380450Y1322199D01*
X1380452Y1322203D01*
X1380456Y1322322D01*
X1380462Y1322441D01*
X1380461Y1322444D01*
X1380461Y1322449D01*
X1380427Y1322563D01*
X1380394Y1322677D01*
X1380392Y1322681D01*
X1380391Y1322685D01*
X1380323Y1322781D01*
X1380255Y1322880D01*
X1380252Y1322882D01*
X1380250Y1322886D01*
X1380154Y1322956D01*
X1380059Y1323028D01*
X1380054Y1323030D01*
X1380051Y1323032D01*
X1380039Y1323036D01*
X1379902Y1323089D01*
X1379728Y1323136D01*
X1379272Y1323399D01*
X1378899Y1323772D01*
X1378636Y1324228D01*
X1378499Y1324737D01*
X1378499Y1331477D01*
X1386738Y1331477D01*
X1386758Y1331480D01*
X1386777Y1331478D01*
X1386879Y1331500D01*
X1386981Y1331517D01*
X1386998Y1331526D01*
X1387018Y1331530D01*
X1387107Y1331583D01*
X1387198Y1331632D01*
X1387212Y1331646D01*
X1387229Y1331656D01*
X1387296Y1331735D01*
X1387367Y1331810D01*
X1387376Y1331828D01*
X1387389Y1331843D01*
X1387428Y1331939D01*
X1387471Y1332033D01*
X1387473Y1332053D01*
X1387481Y1332071D01*
X1387499Y1332238D01*
X1387499Y1333001D01*
X1388262Y1333001D01*
X1388282Y1333004D01*
X1388301Y1333002D01*
X1388403Y1333024D01*
X1388505Y1333041D01*
X1388522Y1333050D01*
X1388542Y1333054D01*
X1388631Y1333107D01*
X1388722Y1333156D01*
X1388736Y1333170D01*
X1388753Y1333180D01*
X1388820Y1333259D01*
X1388891Y1333334D01*
X1388900Y1333352D01*
X1388913Y1333367D01*
X1388952Y1333463D01*
X1388995Y1333557D01*
X1388997Y1333577D01*
X1389005Y1333595D01*
X1389023Y1333762D01*
X1389023Y1343001D01*
X1394763Y1343001D01*
X1394803Y1342990D01*
X1394921Y1342978D01*
X1395039Y1342965D01*
X1395044Y1342966D01*
X1395048Y1342966D01*
X1395163Y1342992D01*
X1395280Y1343017D01*
X1395283Y1343020D01*
X1395287Y1343021D01*
X1395388Y1343082D01*
X1395491Y1343144D01*
X1395494Y1343147D01*
X1395497Y1343149D01*
X1395573Y1343240D01*
X1395651Y1343331D01*
X1395652Y1343334D01*
X1395655Y1343338D01*
X1395698Y1343447D01*
X1395743Y1343559D01*
X1395743Y1343564D01*
X1395745Y1343567D01*
X1395745Y1343580D01*
X1395761Y1343725D01*
X1395761Y1406275D01*
X1395742Y1406391D01*
X1395724Y1406510D01*
X1395722Y1406513D01*
X1395722Y1406517D01*
X1395666Y1406622D01*
X1395611Y1406728D01*
X1395608Y1406731D01*
X1395606Y1406735D01*
X1395521Y1406816D01*
X1395435Y1406899D01*
X1395431Y1406901D01*
X1395428Y1406904D01*
X1395320Y1406954D01*
X1395213Y1407005D01*
X1395209Y1407006D01*
X1395205Y1407008D01*
X1395086Y1407021D01*
X1394969Y1407035D01*
X1394964Y1407034D01*
X1394961Y1407035D01*
X1394947Y1407032D01*
X1394803Y1407010D01*
X1394763Y1406999D01*
X1389023Y1406999D01*
X1389023Y1416238D01*
X1389020Y1416258D01*
X1389022Y1416277D01*
X1389000Y1416379D01*
X1388983Y1416481D01*
X1388974Y1416498D01*
X1388970Y1416518D01*
X1388917Y1416607D01*
X1388868Y1416698D01*
X1388854Y1416712D01*
X1388844Y1416729D01*
X1388765Y1416796D01*
X1388690Y1416867D01*
X1388672Y1416876D01*
X1388657Y1416889D01*
X1388561Y1416928D01*
X1388467Y1416971D01*
X1388447Y1416973D01*
X1388429Y1416981D01*
X1388262Y1416999D01*
X1387499Y1416999D01*
X1387499Y1417001D01*
X1388262Y1417001D01*
X1388282Y1417004D01*
X1388301Y1417002D01*
X1388403Y1417024D01*
X1388505Y1417041D01*
X1388522Y1417050D01*
X1388542Y1417054D01*
X1388631Y1417107D01*
X1388722Y1417156D01*
X1388736Y1417170D01*
X1388753Y1417180D01*
X1388820Y1417259D01*
X1388891Y1417334D01*
X1388900Y1417352D01*
X1388913Y1417367D01*
X1388952Y1417463D01*
X1388995Y1417557D01*
X1388997Y1417577D01*
X1389005Y1417595D01*
X1389023Y1417762D01*
X1389023Y1427001D01*
X1394763Y1427001D01*
X1394803Y1426990D01*
X1394921Y1426978D01*
X1395039Y1426965D01*
X1395044Y1426966D01*
X1395048Y1426966D01*
X1395163Y1426992D01*
X1395280Y1427017D01*
X1395283Y1427020D01*
X1395287Y1427021D01*
X1395388Y1427082D01*
X1395491Y1427144D01*
X1395494Y1427147D01*
X1395497Y1427149D01*
X1395573Y1427240D01*
X1395651Y1427331D01*
X1395652Y1427334D01*
X1395655Y1427338D01*
X1395698Y1427447D01*
X1395743Y1427559D01*
X1395743Y1427564D01*
X1395745Y1427567D01*
X1395745Y1427580D01*
X1395761Y1427725D01*
X1395761Y1430000D01*
X1395758Y1430020D01*
X1395760Y1430039D01*
X1395738Y1430141D01*
X1395722Y1430243D01*
X1395712Y1430260D01*
X1395708Y1430280D01*
X1395655Y1430369D01*
X1395606Y1430460D01*
X1395592Y1430474D01*
X1395582Y1430491D01*
X1395503Y1430558D01*
X1395428Y1430630D01*
X1395410Y1430638D01*
X1395395Y1430651D01*
X1395299Y1430690D01*
X1395205Y1430733D01*
X1395185Y1430735D01*
X1395167Y1430743D01*
X1395000Y1430761D01*
X1375000Y1430761D01*
X1374980Y1430758D01*
X1374961Y1430760D01*
X1374859Y1430738D01*
X1374757Y1430722D01*
X1374740Y1430712D01*
X1374720Y1430708D01*
X1374631Y1430655D01*
X1374540Y1430606D01*
X1374526Y1430592D01*
X1374509Y1430582D01*
X1374442Y1430503D01*
X1374371Y1430428D01*
X1374362Y1430410D01*
X1374349Y1430395D01*
X1374310Y1430299D01*
X1374267Y1430205D01*
X1374265Y1430185D01*
X1374257Y1430167D01*
X1374239Y1430000D01*
X1374239Y1357442D01*
X1374254Y1357351D01*
X1374261Y1357261D01*
X1374273Y1357231D01*
X1374279Y1357199D01*
X1374321Y1357118D01*
X1374357Y1357034D01*
X1374383Y1357002D01*
X1374394Y1356981D01*
X1374417Y1356959D01*
X1374462Y1356903D01*
X1374501Y1356864D01*
X1374501Y1353136D01*
X1374462Y1353097D01*
X1374409Y1353023D01*
X1374349Y1352953D01*
X1374337Y1352923D01*
X1374318Y1352897D01*
X1374291Y1352810D01*
X1374257Y1352725D01*
X1374253Y1352684D01*
X1374246Y1352662D01*
X1374247Y1352630D01*
X1374239Y1352558D01*
X1374239Y1320000D01*
X1374242Y1319980D01*
X1374240Y1319961D01*
X1374262Y1319859D01*
X1374279Y1319757D01*
X1374288Y1319740D01*
X1374292Y1319720D01*
X1374345Y1319631D01*
X1374394Y1319540D01*
X1374408Y1319526D01*
X1374418Y1319509D01*
X1374497Y1319442D01*
X1374572Y1319371D01*
X1374590Y1319362D01*
X1374605Y1319349D01*
X1374701Y1319310D01*
X1374795Y1319267D01*
X1374815Y1319265D01*
X1374833Y1319257D01*
X1375000Y1319239D01*
X1384887Y1319239D01*
X1384906Y1319242D01*
G37*
%LPC*%
G36*
X1477320Y1304999D02*
X1477320Y1304999D01*
X1472679Y1307679D01*
X1469999Y1312320D01*
X1469999Y1317680D01*
X1472679Y1322321D01*
X1477320Y1325001D01*
X1482680Y1325001D01*
X1487321Y1322321D01*
X1490001Y1317680D01*
X1490001Y1312320D01*
X1487321Y1307679D01*
X1482680Y1304999D01*
X1477320Y1304999D01*
G37*
%LPD*%
%LPC*%
G36*
X1456523Y1381523D02*
X1456523Y1381523D01*
X1456523Y1390001D01*
X1462263Y1390001D01*
X1462772Y1389864D01*
X1463228Y1389601D01*
X1463620Y1389210D01*
X1463632Y1389187D01*
X1463686Y1389135D01*
X1463734Y1389077D01*
X1463775Y1389051D01*
X1463810Y1389018D01*
X1463879Y1388986D01*
X1463943Y1388946D01*
X1463989Y1388935D01*
X1464033Y1388914D01*
X1464108Y1388906D01*
X1464182Y1388888D01*
X1464230Y1388893D01*
X1464277Y1388887D01*
X1464351Y1388903D01*
X1464427Y1388910D01*
X1464471Y1388929D01*
X1464518Y1388940D01*
X1464583Y1388978D01*
X1464652Y1389009D01*
X1464688Y1389041D01*
X1464729Y1389066D01*
X1464778Y1389123D01*
X1464781Y1389126D01*
X1469126Y1389126D01*
X1469126Y1385057D01*
X1468070Y1385340D01*
X1466929Y1385998D01*
X1465998Y1386929D01*
X1465421Y1387929D01*
X1465391Y1387966D01*
X1465368Y1388009D01*
X1465314Y1388061D01*
X1465265Y1388120D01*
X1465225Y1388145D01*
X1465190Y1388178D01*
X1465121Y1388210D01*
X1465057Y1388250D01*
X1465010Y1388262D01*
X1464967Y1388282D01*
X1464892Y1388290D01*
X1464818Y1388308D01*
X1464770Y1388304D01*
X1464723Y1388309D01*
X1464648Y1388293D01*
X1464573Y1388286D01*
X1464529Y1388267D01*
X1464482Y1388257D01*
X1464417Y1388218D01*
X1464348Y1388187D01*
X1464312Y1388155D01*
X1464271Y1388130D01*
X1464222Y1388073D01*
X1464166Y1388022D01*
X1464142Y1387980D01*
X1464111Y1387943D01*
X1464083Y1387873D01*
X1464046Y1387807D01*
X1464037Y1387760D01*
X1464019Y1387715D01*
X1464005Y1387587D01*
X1464001Y1387565D01*
X1464002Y1387559D01*
X1464001Y1387549D01*
X1464001Y1381523D01*
X1456523Y1381523D01*
G37*
%LPD*%
%LPC*%
G36*
X1310874Y1320874D02*
X1310874Y1320874D01*
X1310874Y1325016D01*
X1310923Y1325027D01*
X1310930Y1325029D01*
X1311001Y1325040D01*
X1311014Y1325047D01*
X1311042Y1325053D01*
X1311044Y1325055D01*
X1311047Y1325055D01*
X1311150Y1325118D01*
X1311170Y1325130D01*
X1311219Y1325156D01*
X1311226Y1325163D01*
X1311253Y1325179D01*
X1311255Y1325182D01*
X1311258Y1325183D01*
X1311335Y1325275D01*
X1311358Y1325303D01*
X1311388Y1325334D01*
X1311392Y1325341D01*
X1311413Y1325366D01*
X1311414Y1325369D01*
X1311416Y1325371D01*
X1311459Y1325481D01*
X1311476Y1325524D01*
X1311492Y1325557D01*
X1311492Y1325564D01*
X1311505Y1325594D01*
X1311505Y1325598D01*
X1311506Y1325600D01*
X1311507Y1325611D01*
X1311523Y1325761D01*
X1311523Y1331477D01*
X1319001Y1331477D01*
X1319001Y1324737D01*
X1318864Y1324228D01*
X1318601Y1323772D01*
X1318228Y1323399D01*
X1317772Y1323136D01*
X1317263Y1322999D01*
X1315361Y1322999D01*
X1315267Y1322984D01*
X1315171Y1322975D01*
X1315146Y1322964D01*
X1315118Y1322960D01*
X1315034Y1322915D01*
X1314946Y1322876D01*
X1314925Y1322857D01*
X1314901Y1322844D01*
X1314835Y1322775D01*
X1314764Y1322710D01*
X1314751Y1322686D01*
X1314732Y1322666D01*
X1314691Y1322579D01*
X1314645Y1322495D01*
X1314640Y1322468D01*
X1314628Y1322443D01*
X1314618Y1322348D01*
X1314600Y1322253D01*
X1314604Y1322226D01*
X1314601Y1322199D01*
X1314621Y1322105D01*
X1314635Y1322010D01*
X1314644Y1321989D01*
X1314943Y1320874D01*
X1310874Y1320874D01*
G37*
%LPD*%
%LPC*%
G36*
X1305057Y1320874D02*
X1305057Y1320874D01*
X1305362Y1322011D01*
X1305372Y1322033D01*
X1305375Y1322061D01*
X1305385Y1322086D01*
X1305388Y1322182D01*
X1305399Y1322277D01*
X1305393Y1322304D01*
X1305394Y1322332D01*
X1305367Y1322424D01*
X1305347Y1322518D01*
X1305333Y1322542D01*
X1305325Y1322568D01*
X1305270Y1322647D01*
X1305221Y1322729D01*
X1305200Y1322747D01*
X1305184Y1322770D01*
X1305107Y1322827D01*
X1305034Y1322889D01*
X1305008Y1322899D01*
X1304986Y1322916D01*
X1304895Y1322945D01*
X1304805Y1322981D01*
X1304771Y1322985D01*
X1304752Y1322991D01*
X1304719Y1322990D01*
X1304639Y1322999D01*
X1302737Y1322999D01*
X1302228Y1323136D01*
X1301772Y1323399D01*
X1301399Y1323772D01*
X1301136Y1324228D01*
X1300999Y1324737D01*
X1300999Y1331477D01*
X1308477Y1331477D01*
X1308477Y1325761D01*
X1308482Y1325729D01*
X1308481Y1325723D01*
X1308489Y1325687D01*
X1308496Y1325646D01*
X1308516Y1325520D01*
X1308516Y1325519D01*
X1308517Y1325518D01*
X1308532Y1325489D01*
X1308533Y1325482D01*
X1308553Y1325450D01*
X1308568Y1325420D01*
X1308631Y1325302D01*
X1308631Y1325301D01*
X1308632Y1325301D01*
X1308655Y1325279D01*
X1308660Y1325271D01*
X1308694Y1325241D01*
X1308719Y1325218D01*
X1308809Y1325132D01*
X1308810Y1325132D01*
X1308838Y1325119D01*
X1308847Y1325111D01*
X1308902Y1325089D01*
X1308918Y1325081D01*
X1309032Y1325028D01*
X1309033Y1325028D01*
X1309061Y1325025D01*
X1309075Y1325019D01*
X1309126Y1325014D01*
X1309126Y1320874D01*
X1305057Y1320874D01*
G37*
%LPD*%
%LPC*%
G36*
X1344023Y1418523D02*
X1344023Y1418523D01*
X1344023Y1427001D01*
X1349763Y1427001D01*
X1350272Y1426864D01*
X1350728Y1426601D01*
X1351101Y1426228D01*
X1351364Y1425772D01*
X1351501Y1425263D01*
X1351501Y1418523D01*
X1344023Y1418523D01*
G37*
%LPD*%
%LPC*%
G36*
X1311523Y1418523D02*
X1311523Y1418523D01*
X1311523Y1427001D01*
X1317263Y1427001D01*
X1317772Y1426864D01*
X1318228Y1426601D01*
X1318601Y1426228D01*
X1318864Y1425772D01*
X1319001Y1425263D01*
X1319001Y1418523D01*
X1311523Y1418523D01*
G37*
%LPD*%
%LPC*%
G36*
X1344023Y1334523D02*
X1344023Y1334523D01*
X1344023Y1343001D01*
X1349763Y1343001D01*
X1350272Y1342864D01*
X1350728Y1342601D01*
X1351101Y1342228D01*
X1351364Y1341772D01*
X1351501Y1341263D01*
X1351501Y1334523D01*
X1344023Y1334523D01*
G37*
%LPD*%
%LPC*%
G36*
X1311523Y1334523D02*
X1311523Y1334523D01*
X1311523Y1343001D01*
X1317263Y1343001D01*
X1317772Y1342864D01*
X1318228Y1342601D01*
X1318601Y1342228D01*
X1318864Y1341772D01*
X1319001Y1341263D01*
X1319001Y1334523D01*
X1311523Y1334523D01*
G37*
%LPD*%
%LPC*%
G36*
X1189023Y1418523D02*
X1189023Y1418523D01*
X1189023Y1427001D01*
X1194763Y1427001D01*
X1195272Y1426864D01*
X1195728Y1426601D01*
X1196101Y1426228D01*
X1196364Y1425772D01*
X1196501Y1425263D01*
X1196501Y1418523D01*
X1189023Y1418523D01*
G37*
%LPD*%
%LPC*%
G36*
X1266523Y1334523D02*
X1266523Y1334523D01*
X1266523Y1343001D01*
X1272263Y1343001D01*
X1272772Y1342864D01*
X1273228Y1342601D01*
X1273601Y1342228D01*
X1273864Y1341772D01*
X1274001Y1341263D01*
X1274001Y1334523D01*
X1266523Y1334523D01*
G37*
%LPD*%
%LPC*%
G36*
X1189023Y1334523D02*
X1189023Y1334523D01*
X1189023Y1343001D01*
X1194763Y1343001D01*
X1195272Y1342864D01*
X1195728Y1342601D01*
X1196101Y1342228D01*
X1196364Y1341772D01*
X1196501Y1341263D01*
X1196501Y1334523D01*
X1189023Y1334523D01*
G37*
%LPD*%
%LPC*%
G36*
X1456523Y1351523D02*
X1456523Y1351523D01*
X1456523Y1360001D01*
X1462263Y1360001D01*
X1462772Y1359864D01*
X1463228Y1359601D01*
X1463601Y1359228D01*
X1463864Y1358772D01*
X1464001Y1358263D01*
X1464001Y1351523D01*
X1456523Y1351523D01*
G37*
%LPD*%
%LPC*%
G36*
X1344023Y1322999D02*
X1344023Y1322999D01*
X1344023Y1331477D01*
X1351501Y1331477D01*
X1351501Y1324737D01*
X1351364Y1324228D01*
X1351101Y1323772D01*
X1350728Y1323399D01*
X1350272Y1323136D01*
X1349763Y1322999D01*
X1344023Y1322999D01*
G37*
%LPD*%
%LPC*%
G36*
X1189023Y1322999D02*
X1189023Y1322999D01*
X1189023Y1331477D01*
X1196501Y1331477D01*
X1196501Y1324737D01*
X1196364Y1324228D01*
X1196101Y1323772D01*
X1195728Y1323399D01*
X1195272Y1323136D01*
X1194763Y1322999D01*
X1189023Y1322999D01*
G37*
%LPD*%
%LPC*%
G36*
X1456523Y1339999D02*
X1456523Y1339999D01*
X1456523Y1348477D01*
X1464001Y1348477D01*
X1464001Y1341737D01*
X1463864Y1341228D01*
X1463601Y1340772D01*
X1463228Y1340399D01*
X1462772Y1340136D01*
X1462263Y1339999D01*
X1456523Y1339999D01*
G37*
%LPD*%
%LPC*%
G36*
X1311523Y1406999D02*
X1311523Y1406999D01*
X1311523Y1415477D01*
X1319001Y1415477D01*
X1319001Y1408737D01*
X1318864Y1408228D01*
X1318601Y1407772D01*
X1318228Y1407399D01*
X1317772Y1407136D01*
X1317263Y1406999D01*
X1311523Y1406999D01*
G37*
%LPD*%
%LPC*%
G36*
X1344023Y1406999D02*
X1344023Y1406999D01*
X1344023Y1415477D01*
X1351501Y1415477D01*
X1351501Y1408737D01*
X1351364Y1408228D01*
X1351101Y1407772D01*
X1350728Y1407399D01*
X1350272Y1407136D01*
X1349763Y1406999D01*
X1344023Y1406999D01*
G37*
%LPD*%
%LPC*%
G36*
X1189023Y1406999D02*
X1189023Y1406999D01*
X1189023Y1415477D01*
X1196501Y1415477D01*
X1196501Y1408737D01*
X1196364Y1408228D01*
X1196101Y1407772D01*
X1195728Y1407399D01*
X1195272Y1407136D01*
X1194763Y1406999D01*
X1189023Y1406999D01*
G37*
%LPD*%
%LPC*%
G36*
X1266523Y1406999D02*
X1266523Y1406999D01*
X1266523Y1415477D01*
X1274001Y1415477D01*
X1274001Y1408737D01*
X1273864Y1408228D01*
X1273601Y1407772D01*
X1273228Y1407399D01*
X1272772Y1407136D01*
X1272263Y1406999D01*
X1266523Y1406999D01*
G37*
%LPD*%
%LPC*%
G36*
X1266523Y1322999D02*
X1266523Y1322999D01*
X1266523Y1331477D01*
X1274001Y1331477D01*
X1274001Y1324737D01*
X1273864Y1324228D01*
X1273601Y1323772D01*
X1273228Y1323399D01*
X1272772Y1323136D01*
X1272263Y1322999D01*
X1266523Y1322999D01*
G37*
%LPD*%
%LPC*%
G36*
X1378499Y1418523D02*
X1378499Y1418523D01*
X1378499Y1425263D01*
X1378636Y1425772D01*
X1378899Y1426228D01*
X1379272Y1426601D01*
X1379728Y1426864D01*
X1380237Y1427001D01*
X1385977Y1427001D01*
X1385977Y1418523D01*
X1378499Y1418523D01*
G37*
%LPD*%
%LPC*%
G36*
X1333499Y1418523D02*
X1333499Y1418523D01*
X1333499Y1425263D01*
X1333636Y1425772D01*
X1333899Y1426228D01*
X1334272Y1426601D01*
X1334728Y1426864D01*
X1335237Y1427001D01*
X1340977Y1427001D01*
X1340977Y1418523D01*
X1333499Y1418523D01*
G37*
%LPD*%
%LPC*%
G36*
X1223499Y1418523D02*
X1223499Y1418523D01*
X1223499Y1425263D01*
X1223636Y1425772D01*
X1223899Y1426228D01*
X1224272Y1426601D01*
X1224728Y1426864D01*
X1225237Y1427001D01*
X1230977Y1427001D01*
X1230977Y1418523D01*
X1223499Y1418523D01*
G37*
%LPD*%
%LPC*%
G36*
X1178499Y1418523D02*
X1178499Y1418523D01*
X1178499Y1425263D01*
X1178636Y1425772D01*
X1178899Y1426228D01*
X1179272Y1426601D01*
X1179728Y1426864D01*
X1180237Y1427001D01*
X1185977Y1427001D01*
X1185977Y1418523D01*
X1178499Y1418523D01*
G37*
%LPD*%
%LPC*%
G36*
X1178499Y1334523D02*
X1178499Y1334523D01*
X1178499Y1341263D01*
X1178636Y1341772D01*
X1178899Y1342228D01*
X1179272Y1342601D01*
X1179728Y1342864D01*
X1180237Y1343001D01*
X1185977Y1343001D01*
X1185977Y1334523D01*
X1178499Y1334523D01*
G37*
%LPD*%
%LPC*%
G36*
X1378499Y1334523D02*
X1378499Y1334523D01*
X1378499Y1341263D01*
X1378636Y1341772D01*
X1378899Y1342228D01*
X1379272Y1342601D01*
X1379728Y1342864D01*
X1380237Y1343001D01*
X1385977Y1343001D01*
X1385977Y1334523D01*
X1378499Y1334523D01*
G37*
%LPD*%
%LPC*%
G36*
X1333499Y1334523D02*
X1333499Y1334523D01*
X1333499Y1341263D01*
X1333636Y1341772D01*
X1333899Y1342228D01*
X1334272Y1342601D01*
X1334728Y1342864D01*
X1335237Y1343001D01*
X1340977Y1343001D01*
X1340977Y1334523D01*
X1333499Y1334523D01*
G37*
%LPD*%
%LPC*%
G36*
X1255999Y1334523D02*
X1255999Y1334523D01*
X1255999Y1341263D01*
X1256136Y1341772D01*
X1256399Y1342228D01*
X1256772Y1342601D01*
X1257228Y1342864D01*
X1257737Y1343001D01*
X1263477Y1343001D01*
X1263477Y1334523D01*
X1255999Y1334523D01*
G37*
%LPD*%
%LPC*%
G36*
X1223499Y1334523D02*
X1223499Y1334523D01*
X1223499Y1341263D01*
X1223636Y1341772D01*
X1223899Y1342228D01*
X1224272Y1342601D01*
X1224728Y1342864D01*
X1225237Y1343001D01*
X1230977Y1343001D01*
X1230977Y1334523D01*
X1223499Y1334523D01*
G37*
%LPD*%
%LPC*%
G36*
X1445999Y1381523D02*
X1445999Y1381523D01*
X1445999Y1388263D01*
X1446136Y1388772D01*
X1446399Y1389228D01*
X1446772Y1389601D01*
X1447228Y1389864D01*
X1447737Y1390001D01*
X1453477Y1390001D01*
X1453477Y1381523D01*
X1445999Y1381523D01*
G37*
%LPD*%
%LPC*%
G36*
X1300999Y1418523D02*
X1300999Y1418523D01*
X1300999Y1425263D01*
X1301136Y1425772D01*
X1301399Y1426228D01*
X1301772Y1426601D01*
X1302228Y1426864D01*
X1302737Y1427001D01*
X1308477Y1427001D01*
X1308477Y1418523D01*
X1300999Y1418523D01*
G37*
%LPD*%
%LPC*%
G36*
X1445999Y1351523D02*
X1445999Y1351523D01*
X1445999Y1358263D01*
X1446136Y1358772D01*
X1446399Y1359228D01*
X1446772Y1359601D01*
X1447228Y1359864D01*
X1447737Y1360001D01*
X1453477Y1360001D01*
X1453477Y1351523D01*
X1445999Y1351523D01*
G37*
%LPD*%
%LPC*%
G36*
X1300999Y1334523D02*
X1300999Y1334523D01*
X1300999Y1341263D01*
X1301136Y1341772D01*
X1301399Y1342228D01*
X1301772Y1342601D01*
X1302228Y1342864D01*
X1302737Y1343001D01*
X1308477Y1343001D01*
X1308477Y1334523D01*
X1300999Y1334523D01*
G37*
%LPD*%
%LPC*%
G36*
X1335237Y1322999D02*
X1335237Y1322999D01*
X1334728Y1323136D01*
X1334272Y1323399D01*
X1333899Y1323772D01*
X1333636Y1324228D01*
X1333499Y1324737D01*
X1333499Y1331477D01*
X1340977Y1331477D01*
X1340977Y1322999D01*
X1335237Y1322999D01*
G37*
%LPD*%
%LPC*%
G36*
X1180237Y1406999D02*
X1180237Y1406999D01*
X1179728Y1407136D01*
X1179272Y1407399D01*
X1178899Y1407772D01*
X1178636Y1408228D01*
X1178499Y1408737D01*
X1178499Y1415477D01*
X1185977Y1415477D01*
X1185977Y1406999D01*
X1180237Y1406999D01*
G37*
%LPD*%
%LPC*%
G36*
X1380237Y1406999D02*
X1380237Y1406999D01*
X1379728Y1407136D01*
X1379272Y1407399D01*
X1378899Y1407772D01*
X1378636Y1408228D01*
X1378499Y1408737D01*
X1378499Y1415477D01*
X1385977Y1415477D01*
X1385977Y1406999D01*
X1380237Y1406999D01*
G37*
%LPD*%
%LPC*%
G36*
X1257737Y1406999D02*
X1257737Y1406999D01*
X1257228Y1407136D01*
X1256772Y1407399D01*
X1256399Y1407772D01*
X1256136Y1408228D01*
X1255999Y1408737D01*
X1255999Y1415477D01*
X1263477Y1415477D01*
X1263477Y1406999D01*
X1257737Y1406999D01*
G37*
%LPD*%
%LPC*%
G36*
X1447737Y1339999D02*
X1447737Y1339999D01*
X1447228Y1340136D01*
X1446772Y1340399D01*
X1446399Y1340772D01*
X1446136Y1341228D01*
X1445999Y1341737D01*
X1445999Y1348477D01*
X1453477Y1348477D01*
X1453477Y1339999D01*
X1447737Y1339999D01*
G37*
%LPD*%
%LPC*%
G36*
X1302737Y1406999D02*
X1302737Y1406999D01*
X1302228Y1407136D01*
X1301772Y1407399D01*
X1301399Y1407772D01*
X1301136Y1408228D01*
X1300999Y1408737D01*
X1300999Y1415477D01*
X1308477Y1415477D01*
X1308477Y1406999D01*
X1302737Y1406999D01*
G37*
%LPD*%
%LPC*%
G36*
X1257737Y1322999D02*
X1257737Y1322999D01*
X1257228Y1323136D01*
X1256772Y1323399D01*
X1256399Y1323772D01*
X1256136Y1324228D01*
X1255999Y1324737D01*
X1255999Y1331477D01*
X1263477Y1331477D01*
X1263477Y1322999D01*
X1257737Y1322999D01*
G37*
%LPD*%
%LPC*%
G36*
X1335237Y1406999D02*
X1335237Y1406999D01*
X1334728Y1407136D01*
X1334272Y1407399D01*
X1333899Y1407772D01*
X1333636Y1408228D01*
X1333499Y1408737D01*
X1333499Y1415477D01*
X1340977Y1415477D01*
X1340977Y1406999D01*
X1335237Y1406999D01*
G37*
%LPD*%
%LPC*%
G36*
X1180237Y1322999D02*
X1180237Y1322999D01*
X1179728Y1323136D01*
X1179272Y1323399D01*
X1178899Y1323772D01*
X1178636Y1324228D01*
X1178499Y1324737D01*
X1178499Y1331477D01*
X1185977Y1331477D01*
X1185977Y1322999D01*
X1180237Y1322999D01*
G37*
%LPD*%
%LPC*%
G36*
X1225237Y1406999D02*
X1225237Y1406999D01*
X1224728Y1407136D01*
X1224272Y1407399D01*
X1223899Y1407772D01*
X1223636Y1408228D01*
X1223499Y1408737D01*
X1223499Y1415477D01*
X1230977Y1415477D01*
X1230977Y1406999D01*
X1225237Y1406999D01*
G37*
%LPD*%
%LPC*%
G36*
X1120549Y1360499D02*
X1120549Y1360499D01*
X1120549Y1372001D01*
X1122313Y1372001D01*
X1122822Y1371864D01*
X1123278Y1371601D01*
X1123651Y1371228D01*
X1123914Y1370772D01*
X1124051Y1370263D01*
X1124051Y1360499D01*
X1120549Y1360499D01*
G37*
%LPD*%
%LPC*%
G36*
X1120549Y1345999D02*
X1120549Y1345999D01*
X1120549Y1357501D01*
X1124051Y1357501D01*
X1124051Y1347737D01*
X1123914Y1347228D01*
X1123651Y1346772D01*
X1123278Y1346399D01*
X1122822Y1346136D01*
X1122313Y1345999D01*
X1120549Y1345999D01*
G37*
%LPD*%
%LPC*%
G36*
X1476523Y1373023D02*
X1476523Y1373023D01*
X1476523Y1377001D01*
X1479763Y1377001D01*
X1480272Y1376864D01*
X1480728Y1376601D01*
X1481101Y1376228D01*
X1481364Y1375772D01*
X1481501Y1375263D01*
X1481501Y1373023D01*
X1476523Y1373023D01*
G37*
%LPD*%
%LPC*%
G36*
X1468499Y1360023D02*
X1468499Y1360023D01*
X1468499Y1362263D01*
X1468636Y1362772D01*
X1468899Y1363228D01*
X1469272Y1363601D01*
X1469728Y1363864D01*
X1470237Y1364001D01*
X1473477Y1364001D01*
X1473477Y1360023D01*
X1468499Y1360023D01*
G37*
%LPD*%
%LPC*%
G36*
X1468499Y1373023D02*
X1468499Y1373023D01*
X1468499Y1375263D01*
X1468636Y1375772D01*
X1468899Y1376228D01*
X1469272Y1376601D01*
X1469728Y1376864D01*
X1470237Y1377001D01*
X1473477Y1377001D01*
X1473477Y1373023D01*
X1468499Y1373023D01*
G37*
%LPD*%
%LPC*%
G36*
X1476523Y1352999D02*
X1476523Y1352999D01*
X1476523Y1356977D01*
X1481501Y1356977D01*
X1481501Y1354737D01*
X1481364Y1354228D01*
X1481101Y1353772D01*
X1480728Y1353399D01*
X1480272Y1353136D01*
X1479763Y1352999D01*
X1476523Y1352999D01*
G37*
%LPD*%
%LPC*%
G36*
X1470237Y1352999D02*
X1470237Y1352999D01*
X1469728Y1353136D01*
X1469272Y1353399D01*
X1468899Y1353772D01*
X1468636Y1354228D01*
X1468499Y1354737D01*
X1468499Y1356977D01*
X1473477Y1356977D01*
X1473477Y1352999D01*
X1470237Y1352999D01*
G37*
%LPD*%
%LPC*%
G36*
X1190874Y1400874D02*
X1190874Y1400874D01*
X1190874Y1404943D01*
X1191930Y1404660D01*
X1193071Y1404002D01*
X1194002Y1403071D01*
X1194660Y1401930D01*
X1194943Y1400874D01*
X1190874Y1400874D01*
G37*
%LPD*%
%LPC*%
G36*
X1265874Y1315874D02*
X1265874Y1315874D01*
X1265874Y1319943D01*
X1266930Y1319660D01*
X1268071Y1319002D01*
X1269002Y1318071D01*
X1269660Y1316930D01*
X1269943Y1315874D01*
X1265874Y1315874D01*
G37*
%LPD*%
%LPC*%
G36*
X1470874Y1389126D02*
X1470874Y1389126D01*
X1474943Y1389126D01*
X1474660Y1388070D01*
X1474002Y1386929D01*
X1473071Y1385998D01*
X1471930Y1385340D01*
X1470874Y1385057D01*
X1470874Y1389126D01*
G37*
%LPD*%
%LPC*%
G36*
X1190874Y1399126D02*
X1190874Y1399126D01*
X1194943Y1399126D01*
X1194660Y1398070D01*
X1194002Y1396929D01*
X1193071Y1395998D01*
X1191930Y1395340D01*
X1190874Y1395057D01*
X1190874Y1399126D01*
G37*
%LPD*%
%LPC*%
G36*
X1185057Y1400874D02*
X1185057Y1400874D01*
X1185340Y1401930D01*
X1185998Y1403071D01*
X1186929Y1404002D01*
X1188070Y1404660D01*
X1189126Y1404943D01*
X1189126Y1400874D01*
X1185057Y1400874D01*
G37*
%LPD*%
%LPC*%
G36*
X1260057Y1315874D02*
X1260057Y1315874D01*
X1260340Y1316930D01*
X1260998Y1318071D01*
X1261929Y1319002D01*
X1263070Y1319660D01*
X1264126Y1319943D01*
X1264126Y1315874D01*
X1260057Y1315874D01*
G37*
%LPD*%
%LPC*%
G36*
X1265874Y1314126D02*
X1265874Y1314126D01*
X1269943Y1314126D01*
X1269660Y1313070D01*
X1269002Y1311929D01*
X1268071Y1310998D01*
X1266930Y1310340D01*
X1265874Y1310057D01*
X1265874Y1314126D01*
G37*
%LPD*%
%LPC*%
G36*
X1263070Y1310340D02*
X1263070Y1310340D01*
X1261929Y1310998D01*
X1260998Y1311929D01*
X1260340Y1313070D01*
X1260057Y1314126D01*
X1264126Y1314126D01*
X1264126Y1310057D01*
X1263070Y1310340D01*
G37*
%LPD*%
%LPC*%
G36*
X1188070Y1395340D02*
X1188070Y1395340D01*
X1186929Y1395998D01*
X1185998Y1396929D01*
X1185340Y1398070D01*
X1185057Y1399126D01*
X1189126Y1399126D01*
X1189126Y1395057D01*
X1188070Y1395340D01*
G37*
%LPD*%
%LPC*%
G36*
X1264999Y1416999D02*
X1264999Y1416999D01*
X1264999Y1417001D01*
X1265001Y1417001D01*
X1265001Y1416999D01*
X1264999Y1416999D01*
G37*
%LPD*%
%LPC*%
G36*
X1187499Y1416999D02*
X1187499Y1416999D01*
X1187499Y1417001D01*
X1187501Y1417001D01*
X1187501Y1416999D01*
X1187499Y1416999D01*
G37*
%LPD*%
%LPC*%
G36*
X1342499Y1332999D02*
X1342499Y1332999D01*
X1342499Y1333001D01*
X1342501Y1333001D01*
X1342501Y1332999D01*
X1342499Y1332999D01*
G37*
%LPD*%
%LPC*%
G36*
X1309999Y1332999D02*
X1309999Y1332999D01*
X1309999Y1333001D01*
X1310001Y1333001D01*
X1310001Y1332999D01*
X1309999Y1332999D01*
G37*
%LPD*%
%LPC*%
G36*
X1264999Y1332999D02*
X1264999Y1332999D01*
X1264999Y1333001D01*
X1265001Y1333001D01*
X1265001Y1332999D01*
X1264999Y1332999D01*
G37*
%LPD*%
%LPC*%
G36*
X1187499Y1332999D02*
X1187499Y1332999D01*
X1187499Y1333001D01*
X1187501Y1333001D01*
X1187501Y1332999D01*
X1187499Y1332999D01*
G37*
%LPD*%
%LPC*%
G36*
X1474999Y1358499D02*
X1474999Y1358499D01*
X1474999Y1358501D01*
X1475001Y1358501D01*
X1475001Y1358499D01*
X1474999Y1358499D01*
G37*
%LPD*%
%LPC*%
G36*
X1454999Y1349999D02*
X1454999Y1349999D01*
X1454999Y1350001D01*
X1455001Y1350001D01*
X1455001Y1349999D01*
X1454999Y1349999D01*
G37*
%LPD*%
%LPC*%
G36*
X1342499Y1416999D02*
X1342499Y1416999D01*
X1342499Y1417001D01*
X1342501Y1417001D01*
X1342501Y1416999D01*
X1342499Y1416999D01*
G37*
%LPD*%
%LPC*%
G36*
X1309999Y1416999D02*
X1309999Y1416999D01*
X1309999Y1417001D01*
X1310001Y1417001D01*
X1310001Y1416999D01*
X1309999Y1416999D01*
G37*
%LPD*%
D10*
X502159Y1366778D02*
X498998Y1370729D01*
X513222Y1370729D01*
X513222Y1366778D02*
X513222Y1374680D01*
D11*
X-1209299Y588542D02*
X-1209299Y570762D01*
X-1214238Y588542D02*
X-1204360Y588542D01*
X-1198733Y578664D02*
X-1198733Y574713D01*
X-1198733Y578664D02*
X-1198731Y578788D01*
X-1198725Y578912D01*
X-1198715Y579036D01*
X-1198702Y579159D01*
X-1198684Y579282D01*
X-1198663Y579404D01*
X-1198638Y579526D01*
X-1198609Y579647D01*
X-1198576Y579766D01*
X-1198540Y579885D01*
X-1198499Y580002D01*
X-1198456Y580118D01*
X-1198408Y580233D01*
X-1198357Y580346D01*
X-1198302Y580458D01*
X-1198244Y580567D01*
X-1198183Y580675D01*
X-1198118Y580781D01*
X-1198050Y580885D01*
X-1197978Y580986D01*
X-1197904Y581086D01*
X-1197826Y581182D01*
X-1197746Y581277D01*
X-1197662Y581369D01*
X-1197576Y581458D01*
X-1197487Y581544D01*
X-1197395Y581628D01*
X-1197300Y581708D01*
X-1197204Y581786D01*
X-1197104Y581860D01*
X-1197003Y581932D01*
X-1196899Y582000D01*
X-1196793Y582065D01*
X-1196685Y582126D01*
X-1196576Y582184D01*
X-1196464Y582239D01*
X-1196351Y582290D01*
X-1196236Y582338D01*
X-1196120Y582381D01*
X-1196003Y582422D01*
X-1195884Y582458D01*
X-1195765Y582491D01*
X-1195644Y582520D01*
X-1195522Y582545D01*
X-1195400Y582566D01*
X-1195277Y582584D01*
X-1195154Y582597D01*
X-1195030Y582607D01*
X-1194906Y582613D01*
X-1194782Y582615D01*
X-1194658Y582613D01*
X-1194534Y582607D01*
X-1194410Y582597D01*
X-1194287Y582584D01*
X-1194164Y582566D01*
X-1194042Y582545D01*
X-1193920Y582520D01*
X-1193799Y582491D01*
X-1193680Y582458D01*
X-1193561Y582422D01*
X-1193444Y582381D01*
X-1193328Y582338D01*
X-1193213Y582290D01*
X-1193100Y582239D01*
X-1192988Y582184D01*
X-1192879Y582126D01*
X-1192771Y582065D01*
X-1192665Y582000D01*
X-1192561Y581932D01*
X-1192460Y581860D01*
X-1192360Y581786D01*
X-1192264Y581708D01*
X-1192169Y581628D01*
X-1192077Y581544D01*
X-1191988Y581458D01*
X-1191902Y581369D01*
X-1191818Y581277D01*
X-1191738Y581182D01*
X-1191660Y581086D01*
X-1191586Y580986D01*
X-1191514Y580885D01*
X-1191446Y580781D01*
X-1191381Y580675D01*
X-1191320Y580567D01*
X-1191262Y580458D01*
X-1191207Y580346D01*
X-1191156Y580233D01*
X-1191108Y580118D01*
X-1191065Y580002D01*
X-1191024Y579885D01*
X-1190988Y579766D01*
X-1190955Y579647D01*
X-1190926Y579526D01*
X-1190901Y579404D01*
X-1190880Y579282D01*
X-1190862Y579159D01*
X-1190849Y579036D01*
X-1190839Y578912D01*
X-1190833Y578788D01*
X-1190831Y578664D01*
X-1190831Y574713D01*
X-1190833Y574589D01*
X-1190839Y574465D01*
X-1190849Y574341D01*
X-1190862Y574218D01*
X-1190880Y574095D01*
X-1190901Y573973D01*
X-1190926Y573851D01*
X-1190955Y573730D01*
X-1190988Y573611D01*
X-1191024Y573492D01*
X-1191065Y573375D01*
X-1191108Y573259D01*
X-1191156Y573144D01*
X-1191207Y573031D01*
X-1191262Y572919D01*
X-1191320Y572810D01*
X-1191381Y572702D01*
X-1191446Y572596D01*
X-1191514Y572492D01*
X-1191586Y572391D01*
X-1191660Y572291D01*
X-1191738Y572195D01*
X-1191818Y572100D01*
X-1191902Y572008D01*
X-1191988Y571919D01*
X-1192077Y571833D01*
X-1192169Y571749D01*
X-1192264Y571669D01*
X-1192360Y571591D01*
X-1192460Y571517D01*
X-1192561Y571445D01*
X-1192665Y571377D01*
X-1192771Y571312D01*
X-1192879Y571251D01*
X-1192988Y571193D01*
X-1193100Y571138D01*
X-1193213Y571087D01*
X-1193328Y571039D01*
X-1193444Y570996D01*
X-1193561Y570955D01*
X-1193680Y570919D01*
X-1193799Y570886D01*
X-1193920Y570857D01*
X-1194042Y570832D01*
X-1194164Y570811D01*
X-1194287Y570793D01*
X-1194410Y570780D01*
X-1194534Y570770D01*
X-1194658Y570764D01*
X-1194782Y570762D01*
X-1194906Y570764D01*
X-1195030Y570770D01*
X-1195154Y570780D01*
X-1195277Y570793D01*
X-1195400Y570811D01*
X-1195522Y570832D01*
X-1195644Y570857D01*
X-1195765Y570886D01*
X-1195884Y570919D01*
X-1196003Y570955D01*
X-1196120Y570996D01*
X-1196236Y571039D01*
X-1196351Y571087D01*
X-1196464Y571138D01*
X-1196576Y571193D01*
X-1196685Y571251D01*
X-1196793Y571312D01*
X-1196899Y571377D01*
X-1197003Y571445D01*
X-1197104Y571517D01*
X-1197204Y571591D01*
X-1197300Y571669D01*
X-1197395Y571749D01*
X-1197487Y571833D01*
X-1197576Y571919D01*
X-1197662Y572008D01*
X-1197746Y572100D01*
X-1197826Y572195D01*
X-1197904Y572291D01*
X-1197978Y572391D01*
X-1198050Y572492D01*
X-1198118Y572596D01*
X-1198183Y572702D01*
X-1198244Y572810D01*
X-1198302Y572919D01*
X-1198357Y573031D01*
X-1198408Y573144D01*
X-1198456Y573259D01*
X-1198499Y573375D01*
X-1198540Y573492D01*
X-1198576Y573611D01*
X-1198609Y573730D01*
X-1198638Y573851D01*
X-1198663Y573973D01*
X-1198684Y574095D01*
X-1198702Y574218D01*
X-1198715Y574341D01*
X-1198725Y574465D01*
X-1198731Y574589D01*
X-1198733Y574713D01*
X-1183589Y582615D02*
X-1183589Y564835D01*
X-1183589Y582615D02*
X-1178651Y582615D01*
X-1178543Y582613D01*
X-1178435Y582607D01*
X-1178327Y582597D01*
X-1178220Y582583D01*
X-1178113Y582566D01*
X-1178007Y582544D01*
X-1177902Y582519D01*
X-1177797Y582489D01*
X-1177694Y582456D01*
X-1177593Y582419D01*
X-1177492Y582379D01*
X-1177393Y582335D01*
X-1177296Y582287D01*
X-1177201Y582236D01*
X-1177107Y582181D01*
X-1177016Y582123D01*
X-1176927Y582062D01*
X-1176840Y581997D01*
X-1176756Y581930D01*
X-1176674Y581859D01*
X-1176594Y581785D01*
X-1176518Y581709D01*
X-1176444Y581629D01*
X-1176374Y581547D01*
X-1176306Y581463D01*
X-1176241Y581376D01*
X-1176180Y581287D01*
X-1176122Y581196D01*
X-1176067Y581102D01*
X-1176016Y581007D01*
X-1175968Y580910D01*
X-1175924Y580811D01*
X-1175884Y580711D01*
X-1175847Y580609D01*
X-1175814Y580506D01*
X-1175784Y580401D01*
X-1175759Y580296D01*
X-1175737Y580190D01*
X-1175720Y580083D01*
X-1175706Y579976D01*
X-1175696Y579868D01*
X-1175690Y579760D01*
X-1175688Y579652D01*
X-1175687Y579652D02*
X-1175687Y573725D01*
X-1175688Y573725D02*
X-1175690Y573619D01*
X-1175696Y573514D01*
X-1175705Y573408D01*
X-1175718Y573303D01*
X-1175735Y573199D01*
X-1175756Y573095D01*
X-1175780Y572992D01*
X-1175808Y572890D01*
X-1175840Y572789D01*
X-1175875Y572690D01*
X-1175914Y572591D01*
X-1175956Y572494D01*
X-1176001Y572399D01*
X-1176050Y572305D01*
X-1176103Y572213D01*
X-1176158Y572123D01*
X-1176217Y572035D01*
X-1176279Y571949D01*
X-1176344Y571866D01*
X-1176412Y571785D01*
X-1176482Y571706D01*
X-1176556Y571630D01*
X-1176632Y571556D01*
X-1176711Y571486D01*
X-1176792Y571418D01*
X-1176875Y571353D01*
X-1176961Y571291D01*
X-1177049Y571232D01*
X-1177139Y571177D01*
X-1177231Y571124D01*
X-1177325Y571075D01*
X-1177420Y571030D01*
X-1177517Y570988D01*
X-1177616Y570949D01*
X-1177715Y570914D01*
X-1177816Y570882D01*
X-1177918Y570854D01*
X-1178021Y570830D01*
X-1178125Y570809D01*
X-1178229Y570792D01*
X-1178334Y570779D01*
X-1178440Y570770D01*
X-1178545Y570764D01*
X-1178651Y570762D01*
X-1183589Y570762D01*
D12*
X291500Y1450000D03*
X278500Y1450000D03*
D13*
X230000Y1388500D03*
X230000Y1401500D03*
D14*
X1455000Y1380000D03*
X1455000Y1350000D03*
D13*
X1475000Y1371500D03*
X1475000Y1358500D03*
D15*
X300000Y1470000D03*
X270000Y1470000D03*
D14*
X215000Y1380000D03*
X215000Y1410000D03*
D16*
X141000Y1405000D02*
X141000Y1385000D01*
X80000Y1385000D02*
X80000Y1405000D01*
X100000Y1347000D02*
X120000Y1347000D01*
D17*
X19400Y1480400D03*
X500000Y20000D03*
X500000Y1480000D03*
X980000Y1480000D03*
X1480000Y1480000D03*
X1480000Y1315000D03*
D18*
X99500Y1047500D03*
X99500Y1042500D03*
X99500Y1037500D03*
X99500Y1032500D03*
X99500Y1027500D03*
X99500Y1022500D03*
X99500Y1017500D03*
X99500Y1012500D03*
X99500Y1007500D03*
X99500Y1002500D03*
X99500Y1052500D03*
X99500Y1057500D03*
X99500Y1062500D03*
X99500Y1067500D03*
X99500Y1072500D03*
X99500Y1077500D03*
X99500Y1082500D03*
X99500Y1087500D03*
X99500Y1092500D03*
D19*
X90000Y1122500D03*
X90000Y977500D03*
X41000Y971500D03*
X41000Y1128500D03*
D18*
X99500Y797500D03*
X99500Y792500D03*
X99500Y787500D03*
X99500Y782500D03*
X99500Y777500D03*
X99500Y772500D03*
X99500Y767500D03*
X99500Y762500D03*
X99500Y757500D03*
X99500Y752500D03*
X99500Y802500D03*
X99500Y807500D03*
X99500Y812500D03*
X99500Y817500D03*
X99500Y822500D03*
X99500Y827500D03*
X99500Y832500D03*
X99500Y837500D03*
X99500Y842500D03*
D19*
X90000Y872500D03*
X90000Y727500D03*
X41000Y721500D03*
X41000Y878500D03*
D18*
X99500Y547500D03*
X99500Y542500D03*
X99500Y537500D03*
X99500Y532500D03*
X99500Y527500D03*
X99500Y522500D03*
X99500Y517500D03*
X99500Y512500D03*
X99500Y507500D03*
X99500Y502500D03*
X99500Y552500D03*
X99500Y557500D03*
X99500Y562500D03*
X99500Y567500D03*
X99500Y572500D03*
X99500Y577500D03*
X99500Y582500D03*
X99500Y587500D03*
X99500Y592500D03*
D19*
X90000Y622500D03*
X90000Y477500D03*
X41000Y471500D03*
X41000Y628500D03*
D18*
X94500Y97500D03*
X94500Y92500D03*
X94500Y87500D03*
X94500Y82500D03*
X94500Y77500D03*
X94500Y72500D03*
X94500Y67500D03*
X94500Y62500D03*
X94500Y57500D03*
X94500Y52500D03*
X94500Y102500D03*
X94500Y107500D03*
X94500Y112500D03*
X94500Y117500D03*
X94500Y122500D03*
X94500Y127500D03*
X94500Y132500D03*
X94500Y137500D03*
X94500Y142500D03*
D19*
X85000Y172500D03*
X85000Y27500D03*
X36000Y21500D03*
X36000Y178500D03*
D20*
X1106350Y1411000D03*
X1106350Y1359000D03*
X1119050Y1411000D03*
X1093650Y1411000D03*
X1080950Y1411000D03*
X1119050Y1359000D03*
X1093650Y1359000D03*
X1080950Y1359000D03*
D21*
X328800Y1395000D03*
D22*
X257000Y1417800D03*
X257000Y1372200D03*
D23*
X1380000Y1450500D03*
X1380000Y1469500D03*
D24*
X1359196Y1470000D02*
X1347004Y1470000D01*
X1282996Y1470000D02*
X1270804Y1470000D01*
D14*
X1342500Y1417000D03*
X1342500Y1333000D03*
X1365000Y1333000D03*
X1387500Y1333000D03*
X1387500Y1417000D03*
X1265000Y1417000D03*
X1265000Y1333000D03*
X1287500Y1333000D03*
X1310000Y1333000D03*
X1310000Y1417000D03*
X1187500Y1417000D03*
X1187500Y1333000D03*
X1210000Y1333000D03*
X1232500Y1333000D03*
X1232500Y1417000D03*
D25*
X1440000Y1440000D03*
X455900Y64500D03*
X1020000Y1440000D03*
X63100Y394500D03*
X65000Y1235000D03*
X445000Y1430000D03*
D26*
X203683Y397500D03*
X203683Y392500D03*
X203683Y387500D03*
X203683Y382500D03*
X203683Y377500D03*
X203683Y372500D03*
X203683Y367500D03*
X203683Y362500D03*
X203683Y357500D03*
X203683Y352500D03*
X203683Y347500D03*
X203683Y342500D03*
X203683Y337500D03*
X203683Y332500D03*
X203683Y327500D03*
X203683Y322500D03*
D27*
X222500Y303683D03*
X227500Y303683D03*
X232500Y303683D03*
X237500Y303683D03*
X242500Y303683D03*
X247500Y303683D03*
X252500Y303683D03*
X257500Y303683D03*
X262500Y303683D03*
X267500Y303683D03*
X272500Y303683D03*
X277500Y303683D03*
X282500Y303683D03*
X287500Y303683D03*
X292500Y303683D03*
X297500Y303683D03*
D26*
X316317Y322500D03*
X316317Y327500D03*
X316317Y332500D03*
X316317Y337500D03*
X316317Y342500D03*
X316317Y347500D03*
X316317Y352500D03*
X316317Y357500D03*
X316317Y362500D03*
X316317Y367500D03*
X316317Y372500D03*
X316317Y377500D03*
X316317Y382500D03*
X316317Y387500D03*
X316317Y392500D03*
X316317Y397500D03*
D27*
X297500Y416317D03*
X292500Y416317D03*
X287500Y416317D03*
X282500Y416317D03*
X277500Y416317D03*
X272500Y416317D03*
X267500Y416317D03*
X262500Y416317D03*
X257500Y416317D03*
X252500Y416317D03*
X247500Y416317D03*
X242500Y416317D03*
X237500Y416317D03*
X232500Y416317D03*
X227500Y416317D03*
X222500Y416317D03*
D11*
X203683Y377500D02*
X192376Y377500D01*
X191388Y378488D01*
X183747Y378488D02*
X171976Y390259D01*
X183747Y378488D02*
X191388Y378488D01*
X112048Y547500D02*
X99500Y547500D01*
X112048Y547500D02*
X115536Y550988D01*
X159012Y550988D01*
X171976Y538024D01*
X171976Y390259D01*
X192376Y382500D02*
X203683Y382500D01*
X192376Y382500D02*
X191388Y381512D01*
X185000Y381512D01*
X175000Y391512D01*
X112048Y557500D02*
X99500Y557500D01*
X112048Y557500D02*
X115536Y554012D01*
X160265Y554012D01*
X175000Y539277D01*
X175000Y391512D01*
X112048Y542500D02*
X99500Y542500D01*
X112048Y542500D02*
X115536Y539012D01*
X190307Y367500D02*
X203683Y367500D01*
X190307Y367500D02*
X189319Y366512D01*
X188086Y366512D01*
X163698Y390900D01*
X163698Y525578D01*
X150265Y539012D02*
X115536Y539012D01*
X150265Y539012D02*
X163698Y525578D01*
X112048Y532500D02*
X99500Y532500D01*
X112048Y532500D02*
X115536Y535988D01*
X149012Y535988D02*
X160674Y524326D01*
X190411Y362500D02*
X203683Y362500D01*
X190411Y362500D02*
X189423Y363488D01*
X186833Y363488D01*
X160674Y389647D01*
X160674Y524326D01*
X149012Y535988D02*
X115536Y535988D01*
X112048Y527500D02*
X99500Y527500D01*
X112048Y527500D02*
X115536Y524012D01*
X190307Y352500D02*
X203683Y352500D01*
X190307Y352500D02*
X189319Y351512D01*
X169735Y351512D01*
X148024Y373223D01*
X140265Y524012D02*
X115536Y524012D01*
X140265Y524012D02*
X148024Y516253D01*
X148024Y373223D01*
X112048Y517500D02*
X99500Y517500D01*
X112048Y517500D02*
X115536Y520988D01*
X139012Y520988D02*
X145000Y515000D01*
X190411Y347500D02*
X203683Y347500D01*
X190411Y347500D02*
X189423Y348488D01*
X168482Y348488D01*
X145000Y371970D01*
X139012Y520988D02*
X115536Y520988D01*
X145000Y515000D02*
X145000Y371970D01*
X112048Y512500D02*
X99500Y512500D01*
X112048Y512500D02*
X115536Y509012D01*
X126253Y509012D02*
X133024Y502241D01*
X126253Y509012D02*
X115536Y509012D01*
X133024Y502241D02*
X133024Y356976D01*
X192376Y337500D02*
X203683Y337500D01*
X192376Y337500D02*
X191388Y336512D01*
X153488Y336512D02*
X133024Y356976D01*
X153488Y336512D02*
X191388Y336512D01*
X112048Y502500D02*
X99500Y502500D01*
X112048Y502500D02*
X115536Y505988D01*
X125000Y505988D01*
X130000Y500988D01*
X130000Y355723D01*
X192376Y332500D02*
X203683Y332500D01*
X192376Y332500D02*
X191388Y333488D01*
X152235Y333488D02*
X130000Y355723D01*
X152235Y333488D02*
X191388Y333488D01*
D28*
X114140Y752500D02*
X99500Y752500D01*
X114140Y752500D02*
X117105Y755465D01*
X227500Y429717D02*
X227500Y416317D01*
X227500Y429717D02*
X227965Y430182D01*
X227965Y667035D01*
X139535Y755465D01*
X117105Y755465D01*
X114140Y762500D02*
X99500Y762500D01*
X114140Y762500D02*
X117105Y759535D01*
X232500Y429717D02*
X232500Y416317D01*
X232500Y429717D02*
X232035Y430182D01*
X232035Y668721D01*
X141221Y759535D01*
X117105Y759535D01*
X242500Y429717D02*
X242500Y416317D01*
X242500Y429717D02*
X242965Y430182D01*
X242965Y697035D01*
X114140Y767500D02*
X99500Y767500D01*
X114140Y767500D02*
X117105Y770465D01*
X169535Y770465D02*
X242965Y697035D01*
X169535Y770465D02*
X117105Y770465D01*
X247500Y429717D02*
X247500Y416317D01*
X247500Y429717D02*
X247035Y430182D01*
X247035Y698721D01*
X114140Y777500D02*
X99500Y777500D01*
X114140Y777500D02*
X117105Y774535D01*
X171221Y774535D02*
X247035Y698721D01*
X171221Y774535D02*
X117105Y774535D01*
X257500Y429717D02*
X257500Y416317D01*
X257500Y429717D02*
X257965Y430182D01*
X257965Y727035D02*
X205000Y780000D01*
X112862Y782500D02*
X99500Y782500D01*
X112862Y782500D02*
X115827Y785465D01*
X198971Y785465D01*
X204436Y780000D01*
X205000Y780000D01*
X257965Y727035D02*
X257965Y430182D01*
X262500Y429717D02*
X262500Y416317D01*
X262500Y429717D02*
X262035Y430182D01*
X114358Y792500D02*
X99500Y792500D01*
X114358Y792500D02*
X117323Y789535D01*
X202555Y789535D01*
X205401Y786689D01*
X205401Y785355D01*
X262035Y728721D02*
X262035Y430182D01*
X262035Y728721D02*
X205401Y785355D01*
X114140Y797500D02*
X99500Y797500D01*
X114140Y797500D02*
X117105Y800465D01*
X224535Y800465D01*
X272500Y429717D02*
X272500Y416317D01*
X272500Y429717D02*
X272965Y430182D01*
X272965Y752035D02*
X224535Y800465D01*
X272965Y752035D02*
X272965Y430182D01*
X114140Y807500D02*
X99500Y807500D01*
X114140Y807500D02*
X117105Y804535D01*
X226221Y804535D01*
X277500Y429717D02*
X277500Y416317D01*
X277500Y429717D02*
X277035Y430182D01*
X277035Y753721D02*
X226221Y804535D01*
X277035Y753721D02*
X277035Y430182D01*
D11*
X112048Y1002500D02*
X99500Y1002500D01*
X112048Y1002500D02*
X115536Y1005988D01*
X316317Y397500D02*
X327625Y397500D01*
X328613Y396512D01*
X340000Y396512D01*
X390000Y446512D01*
X279012Y1005988D02*
X115536Y1005988D01*
X279012Y1005988D02*
X390000Y895000D01*
X390000Y446512D01*
X112048Y1012500D02*
X99500Y1012500D01*
X112048Y1012500D02*
X115536Y1009012D01*
X316317Y392500D02*
X327625Y392500D01*
X328613Y393488D01*
X341253Y393488D02*
X393024Y445259D01*
X341253Y393488D02*
X328613Y393488D01*
X393024Y445259D02*
X393024Y890000D01*
X393024Y891253D01*
X280265Y1009012D02*
X115536Y1009012D01*
X393024Y896253D02*
X393024Y891253D01*
X393024Y896253D02*
X280265Y1009012D01*
X316317Y382500D02*
X327625Y382500D01*
X328613Y381512D01*
X355000Y381512D01*
X425000Y451512D01*
X112048Y1017500D02*
X99500Y1017500D01*
X112048Y1017500D02*
X115536Y1020988D01*
X425000Y905000D02*
X425000Y451512D01*
X309012Y1020988D02*
X115536Y1020988D01*
X309012Y1020988D02*
X425000Y905000D01*
X327625Y377500D02*
X316317Y377500D01*
X327625Y377500D02*
X328613Y378488D01*
X356253Y378488D01*
X428024Y450259D01*
X112048Y1027500D02*
X99500Y1027500D01*
X112048Y1027500D02*
X115536Y1024012D01*
X428024Y906253D02*
X428024Y450259D01*
X310265Y1024012D02*
X115536Y1024012D01*
X310265Y1024012D02*
X428024Y906253D01*
X112048Y1032500D02*
X99500Y1032500D01*
X112048Y1032500D02*
X115536Y1035988D01*
X334012Y1035988D01*
X460000Y910000D01*
X327625Y367500D02*
X316317Y367500D01*
X327625Y367500D02*
X328613Y366512D01*
X371512Y366512D01*
X460000Y455000D02*
X460000Y910000D01*
X460000Y455000D02*
X371512Y366512D01*
X112048Y1042500D02*
X99500Y1042500D01*
X112048Y1042500D02*
X115536Y1039012D01*
X335265Y1039012D01*
X463024Y911253D01*
X327625Y362500D02*
X316317Y362500D01*
X327625Y362500D02*
X328613Y363488D01*
X372765Y363488D01*
X463024Y453747D02*
X463024Y911253D01*
X463024Y453747D02*
X372765Y363488D01*
X327625Y352500D02*
X316317Y352500D01*
X327625Y352500D02*
X328613Y351512D01*
X401512Y351512D02*
X495000Y445000D01*
X401512Y351512D02*
X328613Y351512D01*
X112048Y1047500D02*
X99500Y1047500D01*
X112048Y1047500D02*
X115536Y1050988D01*
X495000Y915000D02*
X495000Y445000D01*
X359012Y1050988D02*
X115536Y1050988D01*
X359012Y1050988D02*
X495000Y915000D01*
X120000Y595000D02*
X117500Y592500D01*
X99500Y592500D01*
D29*
X120000Y595000D03*
X220000Y400000D03*
D11*
X220000Y413817D01*
X222500Y416317D01*
X99500Y842500D02*
X82500Y842500D01*
X80000Y845000D01*
D29*
X80000Y845000D03*
X305000Y440000D03*
D11*
X293838Y428838D01*
X293838Y417655D01*
X292500Y416317D01*
D29*
X300000Y330000D03*
D11*
X303838Y333838D01*
D29*
X85000Y1095000D03*
D11*
X88738Y1091262D01*
X98262Y1091262D02*
X99500Y1092500D01*
X98262Y1091262D02*
X88738Y1091262D01*
X303838Y333838D02*
X314979Y333838D01*
X316317Y332500D01*
X222500Y303683D02*
X222500Y292376D01*
X223488Y291388D01*
X223488Y290000D01*
X94500Y52500D02*
X81952Y52500D01*
X78464Y55988D01*
X44735Y55988D01*
X203488Y270000D02*
X223488Y290000D01*
X68747Y270000D02*
X11976Y213229D01*
X68747Y270000D02*
X203488Y270000D01*
X11976Y213229D02*
X11976Y88747D01*
X44735Y55988D01*
X227500Y292376D02*
X227500Y303683D01*
X227500Y292376D02*
X226512Y291388D01*
X94500Y62500D02*
X81952Y62500D01*
X78464Y59012D01*
X45988Y59012D02*
X15000Y90000D01*
X45988Y59012D02*
X78464Y59012D01*
X204741Y266976D02*
X226512Y288747D01*
X204741Y266976D02*
X70000Y266976D01*
X15000Y211976D01*
X15000Y90000D01*
X226512Y288747D02*
X226512Y291388D01*
X237500Y292376D02*
X237500Y303683D01*
X237500Y292376D02*
X238488Y291388D01*
X238488Y280000D01*
X208488Y250000D01*
X94500Y67500D02*
X81952Y67500D01*
X78464Y70988D01*
X64735Y70988D01*
X51976Y83747D01*
X51976Y216253D01*
X85723Y250000D01*
X208488Y250000D01*
X242500Y292376D02*
X242500Y303683D01*
X242500Y292376D02*
X241512Y291388D01*
X241512Y278747D01*
X209741Y246976D01*
X94500Y77500D02*
X81952Y77500D01*
X78464Y74012D01*
X65988Y74012D02*
X55000Y85000D01*
X65988Y74012D02*
X78464Y74012D01*
X55000Y85000D02*
X55000Y215000D01*
X86976Y246976D01*
X209741Y246976D01*
X252500Y292376D02*
X252500Y303683D01*
X252500Y292376D02*
X253488Y291388D01*
X98747Y230000D02*
X61976Y193229D01*
X253488Y273488D02*
X253488Y291388D01*
X253488Y273488D02*
X210000Y230000D01*
X98747Y230000D01*
X94500Y82500D02*
X81952Y82500D01*
X78464Y85988D01*
X73747Y85988D02*
X61976Y97759D01*
X61976Y193229D01*
X73747Y85988D02*
X78464Y85988D01*
X257500Y292376D02*
X257500Y303683D01*
X257500Y292376D02*
X256512Y291388D01*
X211253Y226976D02*
X100000Y226976D01*
X65000Y191976D01*
X256512Y272235D02*
X256512Y291388D01*
X256512Y272235D02*
X211253Y226976D01*
X94500Y92500D02*
X81952Y92500D01*
X78464Y89012D01*
X75000Y89012D01*
X65000Y99012D01*
X65000Y191976D01*
X267500Y292376D02*
X267500Y303683D01*
X267500Y292376D02*
X268488Y291388D01*
X268488Y263488D01*
X94500Y97500D02*
X81952Y97500D01*
X78464Y100988D01*
X73747Y100988D02*
X71976Y102759D01*
X163024Y158024D02*
X268488Y263488D01*
X78464Y100988D02*
X73747Y100988D01*
X71976Y102759D02*
X71976Y151253D01*
X78747Y158024D01*
X163024Y158024D01*
X272500Y292376D02*
X272500Y303683D01*
X272500Y292376D02*
X271512Y291388D01*
X271512Y262235D01*
X94500Y107500D02*
X81952Y107500D01*
X78464Y104012D01*
X75000Y104012D01*
X75000Y150000D01*
X80000Y155000D01*
X164277Y155000D02*
X271512Y262235D01*
X164277Y155000D02*
X80000Y155000D01*
X94500Y142500D02*
X107500Y142500D01*
X110000Y145000D01*
D29*
X110000Y145000D03*
X295000Y320000D03*
D11*
X292500Y317500D01*
X292500Y303683D01*
X117500Y577500D02*
X99500Y577500D01*
X117500Y577500D02*
X120000Y580000D01*
D29*
X120000Y580000D03*
X190000Y400000D03*
D11*
X192500Y397500D01*
X203683Y397500D01*
X117500Y572500D02*
X99500Y572500D01*
X117500Y572500D02*
X120000Y570000D01*
D29*
X120000Y570000D03*
X220000Y390000D03*
D11*
X217500Y392500D01*
X203683Y392500D01*
X99500Y827500D02*
X72500Y827500D01*
X70000Y830000D01*
D29*
X70000Y830000D03*
X295000Y440000D03*
D11*
X287500Y432500D01*
X287500Y416317D01*
X99500Y822500D02*
X82500Y822500D01*
X80000Y820000D01*
D29*
X80000Y820000D03*
X285000Y400000D03*
D11*
X282500Y402500D01*
X282500Y416317D01*
X302500Y342500D02*
X316317Y342500D01*
X302500Y342500D02*
X300000Y345000D01*
X300000Y345262D01*
D29*
X300000Y345262D03*
X75000Y1070000D03*
D11*
X77500Y1072500D01*
X99500Y1072500D01*
X292500Y337500D02*
X316317Y337500D01*
X292500Y337500D02*
X290000Y335000D01*
D29*
X290000Y335000D03*
X85000Y1080000D03*
D11*
X87500Y1077500D01*
X99500Y1077500D01*
X94500Y127500D02*
X157500Y127500D01*
X165000Y120000D01*
D29*
X165000Y120000D03*
X295000Y250000D03*
D11*
X287500Y257500D01*
X287500Y303683D01*
D29*
X276774Y265000D03*
D11*
X276774Y243226D01*
X280000Y240000D01*
X290000Y240000D01*
X295000Y245000D01*
X295000Y250000D01*
X117500Y122500D02*
X94500Y122500D01*
X117500Y122500D02*
X125000Y115000D01*
D29*
X125000Y115000D03*
X285000Y250000D03*
D11*
X282500Y252500D01*
X282500Y303683D01*
D29*
X285000Y325000D03*
D11*
X285000Y324041D01*
X283838Y322879D01*
X283838Y305021D01*
X282500Y303683D01*
X316317Y347500D02*
X327625Y347500D01*
X328613Y348488D01*
X402765Y348488D01*
X498024Y443747D01*
X112048Y1057500D02*
X99500Y1057500D01*
X112048Y1057500D02*
X115536Y1054012D01*
X498024Y916253D02*
X498024Y443747D01*
X360265Y1054012D02*
X115536Y1054012D01*
X360265Y1054012D02*
X498024Y916253D01*
D29*
X70000Y1425000D03*
X80000Y1425000D03*
X90000Y1425000D03*
X95000Y1415000D03*
X95000Y1400000D03*
X95000Y1385000D03*
X205000Y1420000D03*
X225000Y1420000D03*
X270000Y1435000D03*
X260000Y1460000D03*
X260000Y1485000D03*
X255000Y1400000D03*
X270000Y1400000D03*
X255000Y1435000D03*
D11*
X137500Y132500D02*
X94500Y132500D01*
X137500Y132500D02*
X140000Y135000D01*
D29*
X140000Y135000D03*
D11*
X99500Y582500D02*
X87500Y582500D01*
X85000Y580000D01*
D29*
X85000Y580000D03*
D11*
X99500Y832500D02*
X112500Y832500D01*
X115000Y835000D01*
X115000Y835262D01*
D29*
X115000Y835262D03*
D11*
X112500Y1082500D02*
X99500Y1082500D01*
X112500Y1082500D02*
X115000Y1085000D01*
X115000Y1085262D01*
D29*
X115000Y1085262D03*
X220000Y330000D03*
D11*
X217500Y327500D01*
X203683Y327500D01*
D29*
X245000Y320000D03*
D11*
X247500Y317500D01*
X247500Y303683D01*
D29*
X275000Y320000D03*
D11*
X277500Y317500D01*
X277500Y303683D01*
D29*
X220000Y360000D03*
D11*
X217500Y357500D01*
X203683Y357500D01*
X252500Y402500D02*
X252500Y416317D01*
X252500Y402500D02*
X250000Y400000D01*
D29*
X250000Y400000D03*
D11*
X212500Y387500D02*
X203683Y387500D01*
X215262Y384738D02*
X224738Y384738D01*
X230000Y390000D01*
D29*
X230000Y390000D03*
D11*
X215262Y384738D02*
X212500Y387500D01*
D29*
X335000Y373226D03*
D11*
X317043Y373226D01*
X316317Y372500D01*
D29*
X330000Y410000D03*
D11*
X1190000Y1414500D02*
X1187500Y1417000D01*
X1190000Y1414500D02*
X1190000Y1400000D01*
D29*
X1190000Y1400000D03*
D11*
X1380000Y1450500D02*
X1380500Y1450000D01*
X1380000Y1450500D02*
X1394500Y1450500D01*
X1395000Y1450000D01*
D29*
X1395000Y1450000D03*
D11*
X1265000Y1333000D02*
X1265000Y1315000D01*
D29*
X1265000Y1315000D03*
D11*
X99500Y552500D02*
X87500Y552500D01*
X85000Y555000D01*
D29*
X85000Y555000D03*
D11*
X94500Y102500D02*
X107500Y102500D01*
X110000Y100000D01*
D29*
X110000Y100000D03*
D11*
X99500Y787500D02*
X82500Y787500D01*
X80000Y790000D01*
D29*
X80000Y790000D03*
D11*
X77500Y1037500D02*
X99500Y1037500D01*
X77500Y1037500D02*
X75000Y1040000D01*
D29*
X75000Y1040000D03*
D11*
X94500Y87500D02*
X107500Y87500D01*
X110000Y90000D01*
X110000Y100000D01*
X107500Y72500D02*
X94500Y72500D01*
X107500Y72500D02*
X110000Y70000D01*
D29*
X110000Y70000D03*
D11*
X107500Y57500D02*
X94500Y57500D01*
X107500Y57500D02*
X110000Y60000D01*
X110000Y70000D01*
X99500Y537500D02*
X82500Y537500D01*
X80000Y535000D01*
D29*
X80000Y535000D03*
D11*
X82500Y522500D02*
X99500Y522500D01*
X82500Y522500D02*
X80000Y525000D01*
X80000Y535000D01*
X77500Y507500D02*
X99500Y507500D01*
X77500Y507500D02*
X75000Y510000D01*
D29*
X75000Y510000D03*
D11*
X82500Y772500D02*
X99500Y772500D01*
X82500Y772500D02*
X80000Y775000D01*
X80000Y790000D01*
X77500Y757500D02*
X99500Y757500D01*
X77500Y757500D02*
X75000Y760000D01*
D29*
X75000Y760000D03*
D11*
X77500Y1022500D02*
X99500Y1022500D01*
X77500Y1022500D02*
X75000Y1025000D01*
X75000Y1040000D01*
X77500Y1007500D02*
X99500Y1007500D01*
X77500Y1007500D02*
X75000Y1010000D01*
D29*
X75000Y1010000D03*
D11*
X87500Y1052500D02*
X99500Y1052500D01*
X87500Y1052500D02*
X75000Y1040000D01*
X82500Y802500D02*
X99500Y802500D01*
X82500Y802500D02*
X80000Y800000D01*
X80000Y790000D01*
D29*
X290000Y1355000D03*
X290000Y1435000D03*
X300000Y1435000D03*
X310000Y1435000D03*
X320000Y1435000D03*
X330000Y1435000D03*
X340000Y1435000D03*
X290000Y1390000D03*
X290000Y1400000D03*
X290000Y1410000D03*
X290000Y1420000D03*
X290000Y1380000D03*
X290000Y1370000D03*
X300000Y1355000D03*
X310000Y1355000D03*
X320000Y1355000D03*
X330000Y1355000D03*
X340000Y1355000D03*
X350000Y1355000D03*
X370000Y1355000D03*
X360000Y1355000D03*
X370000Y1365000D03*
X370000Y1375000D03*
X370000Y1385000D03*
X370000Y1395000D03*
X370000Y1405000D03*
X370000Y1415000D03*
X370000Y1425000D03*
X370000Y1435000D03*
X360000Y1435000D03*
X350000Y1435000D03*
X305000Y1455000D03*
X295000Y1485000D03*
D11*
X232500Y317500D02*
X232500Y303683D01*
X232500Y317500D02*
X235000Y320000D01*
D29*
X235000Y320000D03*
D11*
X262500Y317500D02*
X262500Y303683D01*
X262500Y317500D02*
X265000Y320000D01*
D29*
X265000Y320000D03*
D11*
X222500Y372500D02*
X203683Y372500D01*
X222500Y372500D02*
X230000Y365000D01*
D29*
X230000Y365000D03*
X240000Y400000D03*
D11*
X237500Y402500D01*
X237500Y416317D01*
X235000Y365000D02*
X230000Y365000D01*
X235000Y365000D02*
X240000Y370000D01*
X240000Y400000D01*
X316317Y387500D02*
X339274Y387500D01*
X340000Y386774D01*
D29*
X340000Y386774D03*
D11*
X334274Y357500D02*
X316317Y357500D01*
X334274Y357500D02*
X335000Y358226D01*
D29*
X335000Y358226D03*
D11*
X267500Y362500D02*
X267500Y416317D01*
X267500Y362500D02*
X265000Y360000D01*
D29*
X265000Y360000D03*
X1210000Y1360000D03*
X1295000Y1355000D03*
X1370000Y1355000D03*
D11*
X1120000Y1411950D02*
X1119050Y1411000D01*
X1120000Y1411950D02*
X1120000Y1430000D01*
D29*
X1120000Y1430000D03*
D11*
X1455000Y1380000D02*
X1465000Y1390000D01*
X1470000Y1390000D01*
D29*
X1470000Y1390000D03*
D11*
X222500Y342500D02*
X203683Y342500D01*
X222500Y342500D02*
X225000Y340000D01*
D29*
X225000Y340000D03*
D11*
X262500Y303683D02*
X262500Y280726D01*
X263226Y280000D01*
D29*
X263226Y280000D03*
X220000Y320000D03*
D11*
X220000Y321183D02*
X218683Y322500D01*
X203683Y322500D01*
X220000Y321183D02*
X220000Y320000D01*
X316317Y322500D02*
X332500Y322500D01*
X405000Y250000D02*
X475000Y250000D01*
D29*
X475000Y250000D03*
X1210000Y1300000D03*
X1115000Y1380000D03*
D11*
X1106350Y1388650D01*
X1106350Y1411000D01*
X332500Y322500D02*
X405000Y250000D01*
X297500Y292500D02*
X297500Y303683D01*
X365000Y225000D02*
X475000Y225000D01*
D29*
X475000Y225000D03*
X1235000Y1300000D03*
D11*
X297500Y292500D02*
X365000Y225000D01*
X1080950Y1394050D02*
X1080950Y1411000D01*
X1080950Y1394050D02*
X1085000Y1390000D01*
D29*
X1085000Y1390000D03*
D11*
X342500Y327500D02*
X316317Y327500D01*
X400000Y270000D02*
X475000Y270000D01*
D29*
X475000Y270000D03*
X1190000Y1300000D03*
D11*
X342500Y327500D02*
X400000Y270000D01*
X1245000Y1310000D02*
X1250000Y1315000D01*
X1245000Y1310000D02*
X1200000Y1310000D01*
X1190000Y1300000D01*
X1250000Y1315000D02*
X1250000Y1435000D01*
X1260000Y1445000D01*
X1328100Y1445000D02*
X1353100Y1470000D01*
X1328100Y1445000D02*
X1260000Y1445000D01*
X1353100Y1470000D02*
X1379500Y1470000D01*
X1380000Y1469500D01*
D30*
X112500Y112500D02*
X94500Y112500D01*
X112500Y112500D02*
X115000Y115000D01*
D29*
X115000Y115000D03*
X75000Y560000D03*
D30*
X77500Y562500D01*
X99500Y562500D01*
D29*
X85000Y810000D03*
D30*
X87500Y812500D01*
X99500Y812500D01*
D29*
X60000Y1050000D03*
D11*
X72500Y1062500D01*
X99500Y1062500D01*
D29*
X1230000Y1320000D03*
D11*
X1232500Y1322500D01*
X1232500Y1333000D01*
X1123151Y1315000D02*
X1093650Y1344501D01*
X1093650Y1359000D01*
X1123151Y1315000D02*
X1225000Y1315000D01*
X1230000Y1320000D01*
D29*
X1310000Y1320000D03*
D11*
X1310000Y1333000D01*
X1080950Y1359000D02*
X1080000Y1359950D01*
X1080000Y1380000D01*
X1065000Y1395000D01*
X1065000Y1425000D01*
X1085000Y1445000D01*
X1240000Y1445000D01*
D29*
X1240000Y1445000D03*
X1285000Y1435000D03*
D11*
X1303000Y1417000D01*
X1310000Y1417000D01*
X1387500Y1333000D02*
X1387500Y1322500D01*
X1385000Y1320000D01*
D29*
X1385000Y1320000D03*
D11*
X1095000Y1412350D02*
X1093650Y1411000D01*
X1095000Y1412350D02*
X1095000Y1430000D01*
D29*
X1095000Y1430000D03*
X1350000Y1455000D03*
D11*
X1365000Y1440000D01*
X1365000Y1425000D01*
X1373000Y1417000D01*
X1387500Y1417000D01*
D29*
X255000Y1355000D03*
X270000Y1355000D03*
X270000Y1385000D03*
X200000Y1380000D03*
X160000Y1375000D03*
X255000Y1385000D03*
X210000Y1365000D03*
X225000Y1365000D03*
X160000Y1390000D03*
X160000Y1405000D03*
X125000Y1380000D03*
X125000Y1395000D03*
X125000Y1410000D03*
X140000Y1365000D03*
X155000Y1415000D03*
X295000Y400000D03*
D11*
X296162Y401162D02*
X296162Y414979D01*
X296162Y401162D02*
X295000Y400000D01*
X296162Y414979D02*
X297500Y416317D01*
D29*
X310000Y420000D03*
D30*
X296162Y415719D02*
X296162Y414979D01*
D11*
X99500Y1087500D02*
X77500Y1087500D01*
X75000Y1090000D01*
D29*
X75000Y1090000D03*
D11*
X57500Y837500D02*
X99500Y837500D01*
X57500Y837500D02*
X55000Y835000D01*
D29*
X55000Y835000D03*
D11*
X77500Y587500D02*
X99500Y587500D01*
X77500Y587500D02*
X75000Y590000D01*
D29*
X75000Y590000D03*
D11*
X80524Y137500D02*
X94500Y137500D01*
X80524Y137500D02*
X79143Y138881D01*
X80262Y140000D01*
D29*
X80262Y140000D03*
D11*
X310000Y420000D02*
X310000Y425000D01*
X305000Y430000D01*
X300000Y430000D01*
X297500Y427500D01*
X297500Y416317D01*
D29*
X230000Y380000D03*
M02*
