G04 EAGLE Gerber RS-274X export*
G75*
%MOMM*%
%FSLAX34Y34*%
%LPD*%
%INBottom Copper*%
%IPPOS*%
%AMOC8*
5,1,8,0,0,1.08239X$1,22.5*%
G01*
%ADD10C,0.355600*%
%ADD11C,0.152400*%
%ADD12R,0.600000X0.700000*%
%ADD13R,0.700000X0.600000*%
%ADD14C,2.000000*%
%ADD15C,1.950000*%
%ADD16R,1.500000X1.300000*%
%ADD17C,1.219200*%
%ADD18C,6.451600*%
%ADD19C,0.600000*%
%ADD20C,0.150000*%


D10*
X498998Y1324939D02*
X510061Y1321778D01*
X510061Y1329680D01*
X506900Y1327310D02*
X513222Y1327310D01*
D11*
X-1209299Y475640D02*
X-1214238Y475640D01*
X-1209299Y475640D02*
X-1209159Y475638D01*
X-1209020Y475632D01*
X-1208880Y475622D01*
X-1208741Y475608D01*
X-1208602Y475591D01*
X-1208464Y475569D01*
X-1208327Y475543D01*
X-1208190Y475514D01*
X-1208054Y475481D01*
X-1207920Y475444D01*
X-1207786Y475403D01*
X-1207654Y475358D01*
X-1207522Y475309D01*
X-1207393Y475257D01*
X-1207265Y475202D01*
X-1207138Y475142D01*
X-1207013Y475079D01*
X-1206890Y475013D01*
X-1206769Y474943D01*
X-1206650Y474870D01*
X-1206533Y474793D01*
X-1206419Y474713D01*
X-1206306Y474630D01*
X-1206196Y474544D01*
X-1206089Y474454D01*
X-1205984Y474362D01*
X-1205882Y474267D01*
X-1205782Y474169D01*
X-1205685Y474068D01*
X-1205591Y473964D01*
X-1205501Y473858D01*
X-1205413Y473749D01*
X-1205328Y473638D01*
X-1205247Y473524D01*
X-1205168Y473409D01*
X-1205093Y473291D01*
X-1205022Y473171D01*
X-1204954Y473048D01*
X-1204889Y472925D01*
X-1204828Y472799D01*
X-1204770Y472671D01*
X-1204716Y472543D01*
X-1204666Y472412D01*
X-1204619Y472280D01*
X-1204576Y472147D01*
X-1204537Y472013D01*
X-1204502Y471878D01*
X-1204471Y471742D01*
X-1204443Y471604D01*
X-1204420Y471467D01*
X-1204400Y471328D01*
X-1204384Y471189D01*
X-1204372Y471050D01*
X-1204364Y470911D01*
X-1204360Y470771D01*
X-1204360Y470631D01*
X-1204364Y470491D01*
X-1204372Y470352D01*
X-1204384Y470213D01*
X-1204400Y470074D01*
X-1204420Y469935D01*
X-1204443Y469798D01*
X-1204471Y469660D01*
X-1204502Y469524D01*
X-1204537Y469389D01*
X-1204576Y469255D01*
X-1204619Y469122D01*
X-1204666Y468990D01*
X-1204716Y468859D01*
X-1204770Y468731D01*
X-1204828Y468603D01*
X-1204889Y468477D01*
X-1204954Y468354D01*
X-1205022Y468232D01*
X-1205093Y468111D01*
X-1205168Y467993D01*
X-1205247Y467878D01*
X-1205328Y467764D01*
X-1205413Y467653D01*
X-1205501Y467544D01*
X-1205591Y467438D01*
X-1205685Y467334D01*
X-1205782Y467233D01*
X-1205882Y467135D01*
X-1205984Y467040D01*
X-1206089Y466948D01*
X-1206196Y466858D01*
X-1206306Y466772D01*
X-1206419Y466689D01*
X-1206533Y466609D01*
X-1206650Y466532D01*
X-1206769Y466459D01*
X-1206890Y466389D01*
X-1207013Y466323D01*
X-1207138Y466260D01*
X-1207265Y466200D01*
X-1207393Y466145D01*
X-1207522Y466093D01*
X-1207654Y466044D01*
X-1207786Y465999D01*
X-1207920Y465958D01*
X-1208054Y465921D01*
X-1208190Y465888D01*
X-1208327Y465859D01*
X-1208464Y465833D01*
X-1208602Y465811D01*
X-1208741Y465794D01*
X-1208880Y465780D01*
X-1209020Y465770D01*
X-1209159Y465764D01*
X-1209299Y465762D01*
X-1214238Y465762D01*
X-1214238Y483542D01*
X-1209299Y483542D01*
X-1209175Y483540D01*
X-1209051Y483534D01*
X-1208927Y483524D01*
X-1208804Y483511D01*
X-1208681Y483493D01*
X-1208559Y483472D01*
X-1208437Y483447D01*
X-1208316Y483418D01*
X-1208197Y483385D01*
X-1208078Y483349D01*
X-1207961Y483308D01*
X-1207845Y483265D01*
X-1207730Y483217D01*
X-1207617Y483166D01*
X-1207505Y483111D01*
X-1207396Y483053D01*
X-1207288Y482992D01*
X-1207182Y482927D01*
X-1207078Y482859D01*
X-1206977Y482787D01*
X-1206877Y482713D01*
X-1206781Y482635D01*
X-1206686Y482555D01*
X-1206594Y482471D01*
X-1206505Y482385D01*
X-1206419Y482296D01*
X-1206335Y482204D01*
X-1206255Y482109D01*
X-1206177Y482013D01*
X-1206103Y481913D01*
X-1206031Y481812D01*
X-1205963Y481708D01*
X-1205898Y481602D01*
X-1205837Y481494D01*
X-1205779Y481385D01*
X-1205724Y481273D01*
X-1205673Y481160D01*
X-1205625Y481045D01*
X-1205582Y480929D01*
X-1205541Y480812D01*
X-1205505Y480693D01*
X-1205472Y480574D01*
X-1205443Y480453D01*
X-1205418Y480331D01*
X-1205397Y480209D01*
X-1205379Y480086D01*
X-1205366Y479963D01*
X-1205356Y479839D01*
X-1205350Y479715D01*
X-1205348Y479591D01*
X-1205350Y479467D01*
X-1205356Y479343D01*
X-1205366Y479219D01*
X-1205379Y479096D01*
X-1205397Y478973D01*
X-1205418Y478851D01*
X-1205443Y478729D01*
X-1205472Y478608D01*
X-1205505Y478489D01*
X-1205541Y478370D01*
X-1205582Y478253D01*
X-1205625Y478137D01*
X-1205673Y478022D01*
X-1205724Y477909D01*
X-1205779Y477797D01*
X-1205837Y477688D01*
X-1205898Y477580D01*
X-1205963Y477474D01*
X-1206031Y477370D01*
X-1206103Y477269D01*
X-1206177Y477169D01*
X-1206255Y477073D01*
X-1206335Y476978D01*
X-1206419Y476886D01*
X-1206505Y476797D01*
X-1206594Y476711D01*
X-1206686Y476627D01*
X-1206781Y476547D01*
X-1206877Y476469D01*
X-1206977Y476395D01*
X-1207078Y476323D01*
X-1207182Y476255D01*
X-1207288Y476190D01*
X-1207396Y476129D01*
X-1207505Y476071D01*
X-1207617Y476016D01*
X-1207730Y475965D01*
X-1207845Y475917D01*
X-1207961Y475874D01*
X-1208078Y475833D01*
X-1208197Y475797D01*
X-1208316Y475764D01*
X-1208437Y475735D01*
X-1208559Y475710D01*
X-1208681Y475689D01*
X-1208804Y475671D01*
X-1208927Y475658D01*
X-1209051Y475648D01*
X-1209175Y475642D01*
X-1209299Y475640D01*
X-1198372Y473664D02*
X-1198372Y469713D01*
X-1198372Y473664D02*
X-1198370Y473788D01*
X-1198364Y473912D01*
X-1198354Y474036D01*
X-1198341Y474159D01*
X-1198323Y474282D01*
X-1198302Y474404D01*
X-1198277Y474526D01*
X-1198248Y474647D01*
X-1198215Y474766D01*
X-1198179Y474885D01*
X-1198138Y475002D01*
X-1198095Y475118D01*
X-1198047Y475233D01*
X-1197996Y475346D01*
X-1197941Y475458D01*
X-1197883Y475567D01*
X-1197822Y475675D01*
X-1197757Y475781D01*
X-1197689Y475885D01*
X-1197617Y475986D01*
X-1197543Y476086D01*
X-1197465Y476182D01*
X-1197385Y476277D01*
X-1197301Y476369D01*
X-1197215Y476458D01*
X-1197126Y476544D01*
X-1197034Y476628D01*
X-1196939Y476708D01*
X-1196843Y476786D01*
X-1196743Y476860D01*
X-1196642Y476932D01*
X-1196538Y477000D01*
X-1196432Y477065D01*
X-1196324Y477126D01*
X-1196215Y477184D01*
X-1196103Y477239D01*
X-1195990Y477290D01*
X-1195875Y477338D01*
X-1195759Y477381D01*
X-1195642Y477422D01*
X-1195523Y477458D01*
X-1195404Y477491D01*
X-1195283Y477520D01*
X-1195161Y477545D01*
X-1195039Y477566D01*
X-1194916Y477584D01*
X-1194793Y477597D01*
X-1194669Y477607D01*
X-1194545Y477613D01*
X-1194421Y477615D01*
X-1194297Y477613D01*
X-1194173Y477607D01*
X-1194049Y477597D01*
X-1193926Y477584D01*
X-1193803Y477566D01*
X-1193681Y477545D01*
X-1193559Y477520D01*
X-1193438Y477491D01*
X-1193319Y477458D01*
X-1193200Y477422D01*
X-1193083Y477381D01*
X-1192967Y477338D01*
X-1192852Y477290D01*
X-1192739Y477239D01*
X-1192627Y477184D01*
X-1192518Y477126D01*
X-1192410Y477065D01*
X-1192304Y477000D01*
X-1192200Y476932D01*
X-1192099Y476860D01*
X-1191999Y476786D01*
X-1191903Y476708D01*
X-1191808Y476628D01*
X-1191716Y476544D01*
X-1191627Y476458D01*
X-1191541Y476369D01*
X-1191457Y476277D01*
X-1191377Y476182D01*
X-1191299Y476086D01*
X-1191225Y475986D01*
X-1191153Y475885D01*
X-1191085Y475781D01*
X-1191020Y475675D01*
X-1190959Y475567D01*
X-1190901Y475458D01*
X-1190846Y475346D01*
X-1190795Y475233D01*
X-1190747Y475118D01*
X-1190704Y475002D01*
X-1190663Y474885D01*
X-1190627Y474766D01*
X-1190594Y474647D01*
X-1190565Y474526D01*
X-1190540Y474404D01*
X-1190519Y474282D01*
X-1190501Y474159D01*
X-1190488Y474036D01*
X-1190478Y473912D01*
X-1190472Y473788D01*
X-1190470Y473664D01*
X-1190470Y469713D01*
X-1190472Y469589D01*
X-1190478Y469465D01*
X-1190488Y469341D01*
X-1190501Y469218D01*
X-1190519Y469095D01*
X-1190540Y468973D01*
X-1190565Y468851D01*
X-1190594Y468730D01*
X-1190627Y468611D01*
X-1190663Y468492D01*
X-1190704Y468375D01*
X-1190747Y468259D01*
X-1190795Y468144D01*
X-1190846Y468031D01*
X-1190901Y467919D01*
X-1190959Y467810D01*
X-1191020Y467702D01*
X-1191085Y467596D01*
X-1191153Y467492D01*
X-1191225Y467391D01*
X-1191299Y467291D01*
X-1191377Y467195D01*
X-1191457Y467100D01*
X-1191541Y467008D01*
X-1191627Y466919D01*
X-1191716Y466833D01*
X-1191808Y466749D01*
X-1191903Y466669D01*
X-1191999Y466591D01*
X-1192099Y466517D01*
X-1192200Y466445D01*
X-1192304Y466377D01*
X-1192410Y466312D01*
X-1192518Y466251D01*
X-1192627Y466193D01*
X-1192739Y466138D01*
X-1192852Y466087D01*
X-1192967Y466039D01*
X-1193083Y465996D01*
X-1193200Y465955D01*
X-1193319Y465919D01*
X-1193438Y465886D01*
X-1193559Y465857D01*
X-1193681Y465832D01*
X-1193803Y465811D01*
X-1193926Y465793D01*
X-1194049Y465780D01*
X-1194173Y465770D01*
X-1194297Y465764D01*
X-1194421Y465762D01*
X-1194545Y465764D01*
X-1194669Y465770D01*
X-1194793Y465780D01*
X-1194916Y465793D01*
X-1195039Y465811D01*
X-1195161Y465832D01*
X-1195283Y465857D01*
X-1195404Y465886D01*
X-1195523Y465919D01*
X-1195642Y465955D01*
X-1195759Y465996D01*
X-1195875Y466039D01*
X-1195990Y466087D01*
X-1196103Y466138D01*
X-1196215Y466193D01*
X-1196324Y466251D01*
X-1196432Y466312D01*
X-1196538Y466377D01*
X-1196642Y466445D01*
X-1196743Y466517D01*
X-1196843Y466591D01*
X-1196939Y466669D01*
X-1197034Y466749D01*
X-1197126Y466833D01*
X-1197215Y466919D01*
X-1197301Y467008D01*
X-1197385Y467100D01*
X-1197465Y467195D01*
X-1197543Y467291D01*
X-1197617Y467391D01*
X-1197689Y467492D01*
X-1197757Y467596D01*
X-1197822Y467702D01*
X-1197883Y467810D01*
X-1197941Y467919D01*
X-1197996Y468031D01*
X-1198047Y468144D01*
X-1198095Y468259D01*
X-1198138Y468375D01*
X-1198179Y468492D01*
X-1198215Y468611D01*
X-1198248Y468730D01*
X-1198277Y468851D01*
X-1198302Y468973D01*
X-1198323Y469095D01*
X-1198341Y469218D01*
X-1198354Y469341D01*
X-1198364Y469465D01*
X-1198370Y469589D01*
X-1198372Y469713D01*
X-1185210Y477615D02*
X-1179283Y477615D01*
X-1183234Y483542D02*
X-1183234Y468725D01*
X-1183232Y468619D01*
X-1183226Y468514D01*
X-1183217Y468408D01*
X-1183204Y468303D01*
X-1183187Y468199D01*
X-1183166Y468095D01*
X-1183142Y467992D01*
X-1183114Y467890D01*
X-1183082Y467789D01*
X-1183047Y467690D01*
X-1183008Y467591D01*
X-1182966Y467494D01*
X-1182921Y467399D01*
X-1182872Y467305D01*
X-1182819Y467213D01*
X-1182764Y467123D01*
X-1182705Y467035D01*
X-1182643Y466949D01*
X-1182578Y466866D01*
X-1182510Y466785D01*
X-1182440Y466706D01*
X-1182366Y466630D01*
X-1182290Y466556D01*
X-1182211Y466486D01*
X-1182130Y466418D01*
X-1182047Y466353D01*
X-1181961Y466291D01*
X-1181873Y466232D01*
X-1181783Y466177D01*
X-1181691Y466124D01*
X-1181597Y466075D01*
X-1181502Y466030D01*
X-1181405Y465988D01*
X-1181306Y465949D01*
X-1181207Y465914D01*
X-1181106Y465882D01*
X-1181004Y465854D01*
X-1180901Y465830D01*
X-1180797Y465809D01*
X-1180693Y465792D01*
X-1180588Y465779D01*
X-1180482Y465770D01*
X-1180377Y465764D01*
X-1180271Y465762D01*
X-1179283Y465762D01*
X-1174601Y477615D02*
X-1168674Y477615D01*
X-1172626Y483542D02*
X-1172626Y468725D01*
X-1172625Y468725D02*
X-1172623Y468619D01*
X-1172617Y468514D01*
X-1172608Y468408D01*
X-1172595Y468303D01*
X-1172578Y468199D01*
X-1172557Y468095D01*
X-1172533Y467992D01*
X-1172505Y467890D01*
X-1172473Y467789D01*
X-1172438Y467690D01*
X-1172399Y467591D01*
X-1172357Y467494D01*
X-1172312Y467399D01*
X-1172263Y467305D01*
X-1172210Y467213D01*
X-1172155Y467123D01*
X-1172096Y467035D01*
X-1172034Y466949D01*
X-1171969Y466866D01*
X-1171901Y466785D01*
X-1171831Y466706D01*
X-1171757Y466630D01*
X-1171681Y466556D01*
X-1171602Y466486D01*
X-1171521Y466418D01*
X-1171438Y466353D01*
X-1171352Y466291D01*
X-1171264Y466232D01*
X-1171174Y466177D01*
X-1171082Y466124D01*
X-1170988Y466075D01*
X-1170893Y466030D01*
X-1170796Y465988D01*
X-1170697Y465949D01*
X-1170598Y465914D01*
X-1170497Y465882D01*
X-1170395Y465854D01*
X-1170292Y465830D01*
X-1170188Y465809D01*
X-1170084Y465792D01*
X-1169979Y465779D01*
X-1169873Y465770D01*
X-1169768Y465764D01*
X-1169662Y465762D01*
X-1168674Y465762D01*
X-1162638Y469713D02*
X-1162638Y473664D01*
X-1162636Y473788D01*
X-1162630Y473912D01*
X-1162620Y474036D01*
X-1162607Y474159D01*
X-1162589Y474282D01*
X-1162568Y474404D01*
X-1162543Y474526D01*
X-1162514Y474647D01*
X-1162481Y474766D01*
X-1162445Y474885D01*
X-1162404Y475002D01*
X-1162361Y475118D01*
X-1162313Y475233D01*
X-1162262Y475346D01*
X-1162207Y475458D01*
X-1162149Y475567D01*
X-1162088Y475675D01*
X-1162023Y475781D01*
X-1161955Y475885D01*
X-1161883Y475986D01*
X-1161809Y476086D01*
X-1161731Y476182D01*
X-1161651Y476277D01*
X-1161567Y476369D01*
X-1161481Y476458D01*
X-1161392Y476544D01*
X-1161300Y476628D01*
X-1161205Y476708D01*
X-1161109Y476786D01*
X-1161009Y476860D01*
X-1160908Y476932D01*
X-1160804Y477000D01*
X-1160698Y477065D01*
X-1160590Y477126D01*
X-1160481Y477184D01*
X-1160369Y477239D01*
X-1160256Y477290D01*
X-1160141Y477338D01*
X-1160025Y477381D01*
X-1159908Y477422D01*
X-1159789Y477458D01*
X-1159670Y477491D01*
X-1159549Y477520D01*
X-1159427Y477545D01*
X-1159305Y477566D01*
X-1159182Y477584D01*
X-1159059Y477597D01*
X-1158935Y477607D01*
X-1158811Y477613D01*
X-1158687Y477615D01*
X-1158563Y477613D01*
X-1158439Y477607D01*
X-1158315Y477597D01*
X-1158192Y477584D01*
X-1158069Y477566D01*
X-1157947Y477545D01*
X-1157825Y477520D01*
X-1157704Y477491D01*
X-1157585Y477458D01*
X-1157466Y477422D01*
X-1157349Y477381D01*
X-1157233Y477338D01*
X-1157118Y477290D01*
X-1157005Y477239D01*
X-1156893Y477184D01*
X-1156784Y477126D01*
X-1156676Y477065D01*
X-1156570Y477000D01*
X-1156466Y476932D01*
X-1156365Y476860D01*
X-1156265Y476786D01*
X-1156169Y476708D01*
X-1156074Y476628D01*
X-1155982Y476544D01*
X-1155893Y476458D01*
X-1155807Y476369D01*
X-1155723Y476277D01*
X-1155643Y476182D01*
X-1155565Y476086D01*
X-1155491Y475986D01*
X-1155419Y475885D01*
X-1155351Y475781D01*
X-1155286Y475675D01*
X-1155225Y475567D01*
X-1155167Y475458D01*
X-1155112Y475346D01*
X-1155061Y475233D01*
X-1155013Y475118D01*
X-1154970Y475002D01*
X-1154929Y474885D01*
X-1154893Y474766D01*
X-1154860Y474647D01*
X-1154831Y474526D01*
X-1154806Y474404D01*
X-1154785Y474282D01*
X-1154767Y474159D01*
X-1154754Y474036D01*
X-1154744Y473912D01*
X-1154738Y473788D01*
X-1154736Y473664D01*
X-1154735Y473664D02*
X-1154735Y469713D01*
X-1154736Y469713D02*
X-1154738Y469589D01*
X-1154744Y469465D01*
X-1154754Y469341D01*
X-1154767Y469218D01*
X-1154785Y469095D01*
X-1154806Y468973D01*
X-1154831Y468851D01*
X-1154860Y468730D01*
X-1154893Y468611D01*
X-1154929Y468492D01*
X-1154970Y468375D01*
X-1155013Y468259D01*
X-1155061Y468144D01*
X-1155112Y468031D01*
X-1155167Y467919D01*
X-1155225Y467810D01*
X-1155286Y467702D01*
X-1155351Y467596D01*
X-1155419Y467492D01*
X-1155491Y467391D01*
X-1155565Y467291D01*
X-1155643Y467195D01*
X-1155723Y467100D01*
X-1155807Y467008D01*
X-1155893Y466919D01*
X-1155982Y466833D01*
X-1156074Y466749D01*
X-1156169Y466669D01*
X-1156265Y466591D01*
X-1156365Y466517D01*
X-1156466Y466445D01*
X-1156570Y466377D01*
X-1156676Y466312D01*
X-1156784Y466251D01*
X-1156893Y466193D01*
X-1157005Y466138D01*
X-1157118Y466087D01*
X-1157233Y466039D01*
X-1157349Y465996D01*
X-1157466Y465955D01*
X-1157585Y465919D01*
X-1157704Y465886D01*
X-1157825Y465857D01*
X-1157947Y465832D01*
X-1158069Y465811D01*
X-1158192Y465793D01*
X-1158315Y465780D01*
X-1158439Y465770D01*
X-1158563Y465764D01*
X-1158687Y465762D01*
X-1158811Y465764D01*
X-1158935Y465770D01*
X-1159059Y465780D01*
X-1159182Y465793D01*
X-1159305Y465811D01*
X-1159427Y465832D01*
X-1159549Y465857D01*
X-1159670Y465886D01*
X-1159789Y465919D01*
X-1159908Y465955D01*
X-1160025Y465996D01*
X-1160141Y466039D01*
X-1160256Y466087D01*
X-1160369Y466138D01*
X-1160481Y466193D01*
X-1160590Y466251D01*
X-1160698Y466312D01*
X-1160804Y466377D01*
X-1160908Y466445D01*
X-1161009Y466517D01*
X-1161109Y466591D01*
X-1161205Y466669D01*
X-1161300Y466749D01*
X-1161392Y466833D01*
X-1161481Y466919D01*
X-1161567Y467008D01*
X-1161651Y467100D01*
X-1161731Y467195D01*
X-1161809Y467291D01*
X-1161883Y467391D01*
X-1161955Y467492D01*
X-1162023Y467596D01*
X-1162088Y467702D01*
X-1162149Y467810D01*
X-1162207Y467919D01*
X-1162262Y468031D01*
X-1162313Y468144D01*
X-1162361Y468259D01*
X-1162404Y468375D01*
X-1162445Y468492D01*
X-1162481Y468611D01*
X-1162514Y468730D01*
X-1162543Y468851D01*
X-1162568Y468973D01*
X-1162589Y469095D01*
X-1162607Y469218D01*
X-1162620Y469341D01*
X-1162630Y469465D01*
X-1162636Y469589D01*
X-1162638Y469713D01*
X-1147304Y465762D02*
X-1147304Y477615D01*
X-1138414Y477615D01*
X-1138308Y477613D01*
X-1138203Y477607D01*
X-1138097Y477598D01*
X-1137992Y477585D01*
X-1137888Y477568D01*
X-1137784Y477547D01*
X-1137681Y477523D01*
X-1137579Y477495D01*
X-1137478Y477463D01*
X-1137379Y477428D01*
X-1137280Y477389D01*
X-1137183Y477347D01*
X-1137088Y477302D01*
X-1136994Y477253D01*
X-1136902Y477200D01*
X-1136812Y477145D01*
X-1136724Y477086D01*
X-1136638Y477024D01*
X-1136555Y476959D01*
X-1136474Y476891D01*
X-1136395Y476821D01*
X-1136319Y476747D01*
X-1136245Y476671D01*
X-1136175Y476592D01*
X-1136107Y476511D01*
X-1136042Y476428D01*
X-1135980Y476342D01*
X-1135921Y476254D01*
X-1135866Y476164D01*
X-1135813Y476072D01*
X-1135764Y475978D01*
X-1135719Y475883D01*
X-1135677Y475786D01*
X-1135638Y475687D01*
X-1135603Y475588D01*
X-1135571Y475487D01*
X-1135543Y475385D01*
X-1135519Y475282D01*
X-1135498Y475178D01*
X-1135481Y475074D01*
X-1135468Y474969D01*
X-1135459Y474863D01*
X-1135453Y474758D01*
X-1135451Y474652D01*
X-1135451Y465762D01*
X-1141378Y465762D02*
X-1141378Y477615D01*
D12*
X235000Y305000D03*
X245000Y305000D03*
D13*
X205000Y370000D03*
X205000Y360000D03*
D12*
X265000Y305000D03*
X275000Y305000D03*
D13*
X320000Y360000D03*
X320000Y370000D03*
D12*
X240000Y415000D03*
X250000Y415000D03*
X310000Y410000D03*
X320000Y410000D03*
D14*
X141000Y1385000D02*
X141000Y1405000D01*
X80000Y1405000D02*
X80000Y1385000D01*
X100000Y1347000D02*
X120000Y1347000D01*
D15*
X90000Y1122500D03*
X90000Y977500D03*
X41000Y971500D03*
X41000Y1128500D03*
X90000Y872500D03*
X90000Y727500D03*
X41000Y721500D03*
X41000Y878500D03*
X90000Y622500D03*
X90000Y477500D03*
X41000Y471500D03*
X41000Y628500D03*
X85000Y172500D03*
X85000Y27500D03*
X36000Y21500D03*
X36000Y178500D03*
D13*
X205000Y330000D03*
X205000Y320000D03*
D16*
X1385000Y1335500D03*
X1385000Y1354500D03*
D13*
X190000Y390000D03*
X190000Y380000D03*
X300000Y355000D03*
X300000Y365000D03*
D12*
X285000Y415000D03*
X295000Y415000D03*
X275000Y330000D03*
X265000Y330000D03*
X275000Y290000D03*
X265000Y290000D03*
D16*
X1230000Y1340500D03*
X1230000Y1359500D03*
X1310000Y1335500D03*
X1310000Y1354500D03*
D17*
X1347004Y1470000D02*
X1359196Y1470000D01*
X1282996Y1470000D02*
X1270804Y1470000D01*
D18*
X1440000Y1440000D03*
X455900Y64500D03*
X1020000Y1440000D03*
X63100Y394500D03*
X65000Y1235000D03*
X445000Y1430000D03*
D19*
X120000Y595000D03*
D11*
X180000Y595000D01*
X220000Y555000D01*
X220000Y400000D01*
D19*
X220000Y400000D03*
X80000Y845000D03*
D11*
X125000Y845000D01*
X305000Y665000D01*
X305000Y440000D01*
D19*
X305000Y440000D03*
D11*
X385000Y355000D02*
X360000Y330000D01*
X300000Y330000D01*
D19*
X300000Y330000D03*
D11*
X385000Y355000D02*
X385000Y825000D01*
X115000Y1095000D02*
X85000Y1095000D01*
D19*
X85000Y1095000D03*
D11*
X115000Y1095000D02*
X385000Y825000D01*
D19*
X110000Y145000D03*
D11*
X170000Y145000D01*
X295000Y270000D02*
X295000Y320000D01*
X295000Y270000D02*
X170000Y145000D01*
D19*
X295000Y320000D03*
X120000Y580000D03*
D11*
X180000Y580000D01*
X190000Y570000D01*
X190000Y400000D01*
D19*
X190000Y400000D03*
X120000Y570000D03*
D11*
X170000Y570000D01*
X180000Y560000D01*
X180000Y400000D02*
X190000Y390000D01*
X180000Y400000D02*
X180000Y560000D01*
X190000Y390000D02*
X220000Y390000D01*
D19*
X220000Y390000D03*
X70000Y830000D03*
D11*
X120000Y830000D01*
X295000Y655000D01*
X295000Y440000D01*
D19*
X295000Y440000D03*
X80000Y820000D03*
D11*
X115000Y820000D01*
X285000Y650000D02*
X285000Y415000D01*
X285000Y650000D02*
X115000Y820000D01*
X285000Y415000D02*
X285000Y400000D01*
D19*
X285000Y400000D03*
X300000Y345262D03*
D11*
X349738Y345262D01*
X365000Y360524D01*
X105000Y1070000D02*
X75000Y1070000D01*
D19*
X75000Y1070000D03*
D11*
X365000Y810000D02*
X365000Y360524D01*
X365000Y810000D02*
X105000Y1070000D01*
X300000Y355000D02*
X300000Y345262D01*
D19*
X290000Y335000D03*
D11*
X355000Y340000D02*
X375000Y360000D01*
X375000Y820000D01*
X115000Y1080000D02*
X85000Y1080000D01*
D19*
X85000Y1080000D03*
D11*
X295000Y340000D02*
X355000Y340000D01*
X295000Y340000D02*
X290000Y335000D01*
X375000Y820000D02*
X115000Y1080000D01*
D19*
X165000Y120000D03*
X295000Y250000D03*
D11*
X275000Y266774D02*
X275000Y290000D01*
X275000Y266774D02*
X276774Y265000D01*
D19*
X276774Y265000D03*
D11*
X295000Y250000D02*
X165000Y120000D01*
D19*
X125000Y115000D03*
D11*
X150000Y115000D02*
X285000Y250000D01*
D19*
X285000Y250000D03*
D11*
X150000Y115000D02*
X125000Y115000D01*
X280000Y325000D02*
X275000Y330000D01*
X280000Y325000D02*
X285000Y325000D01*
D19*
X285000Y325000D03*
X70000Y1425000D03*
X80000Y1425000D03*
X90000Y1425000D03*
X95000Y1415000D03*
X95000Y1400000D03*
X95000Y1385000D03*
X205000Y1420000D03*
X225000Y1420000D03*
X270000Y1435000D03*
X260000Y1460000D03*
X260000Y1485000D03*
X255000Y1400000D03*
X270000Y1400000D03*
X255000Y1435000D03*
X140000Y135000D03*
X85000Y580000D03*
X115000Y835262D03*
X115000Y1085262D03*
D11*
X205000Y330000D02*
X220000Y330000D01*
D19*
X220000Y330000D03*
D11*
X245000Y320000D02*
X245000Y305000D01*
D19*
X245000Y320000D03*
D11*
X275000Y320000D02*
X275000Y305000D01*
D19*
X275000Y320000D03*
D11*
X220000Y360000D02*
X205000Y360000D01*
D19*
X220000Y360000D03*
X250000Y400000D03*
D11*
X250000Y415000D01*
D19*
X230000Y390000D03*
D11*
X320000Y370000D02*
X331774Y370000D01*
X335000Y373226D01*
D19*
X335000Y373226D03*
D11*
X330000Y410000D02*
X320000Y410000D01*
D19*
X330000Y410000D03*
X1190000Y1400000D03*
X1395000Y1450000D03*
X1265000Y1315000D03*
X85000Y555000D03*
X110000Y100000D03*
X80000Y790000D03*
X75000Y1040000D03*
X110000Y70000D03*
X80000Y535000D03*
X75000Y510000D03*
X75000Y760000D03*
X75000Y1010000D03*
X290000Y1355000D03*
X290000Y1435000D03*
X300000Y1435000D03*
X310000Y1435000D03*
X320000Y1435000D03*
X330000Y1435000D03*
X340000Y1435000D03*
X290000Y1390000D03*
X290000Y1400000D03*
X290000Y1410000D03*
X290000Y1420000D03*
X290000Y1380000D03*
X290000Y1370000D03*
X300000Y1355000D03*
X310000Y1355000D03*
X320000Y1355000D03*
X330000Y1355000D03*
X340000Y1355000D03*
X350000Y1355000D03*
X370000Y1355000D03*
X360000Y1355000D03*
X370000Y1365000D03*
X370000Y1375000D03*
X370000Y1385000D03*
X370000Y1395000D03*
X370000Y1405000D03*
X370000Y1415000D03*
X370000Y1425000D03*
X370000Y1435000D03*
X360000Y1435000D03*
X350000Y1435000D03*
X305000Y1455000D03*
X295000Y1485000D03*
X235000Y320000D03*
D11*
X235000Y305000D01*
D19*
X265000Y320000D03*
D11*
X265000Y305000D01*
X265000Y320000D02*
X265000Y330000D01*
D19*
X230000Y365000D03*
D11*
X225000Y370000D01*
X205000Y370000D01*
X240000Y400000D02*
X240000Y415000D01*
D19*
X240000Y400000D03*
X340000Y386774D03*
X335000Y358226D03*
D11*
X333226Y360000D01*
X320000Y360000D01*
D19*
X265000Y360000D03*
D11*
X1210500Y1359500D02*
X1230000Y1359500D01*
X1210500Y1359500D02*
X1210000Y1360000D01*
D19*
X1210000Y1360000D03*
D11*
X1295500Y1354500D02*
X1310000Y1354500D01*
X1295500Y1354500D02*
X1295000Y1355000D01*
D19*
X1295000Y1355000D03*
D11*
X1370500Y1354500D02*
X1385000Y1354500D01*
X1370500Y1354500D02*
X1370000Y1355000D01*
D19*
X1370000Y1355000D03*
X1120000Y1430000D03*
X1470000Y1390000D03*
X225000Y340000D03*
X263226Y280000D03*
D11*
X265000Y281774D01*
X265000Y290000D01*
X220000Y320000D02*
X205000Y320000D01*
D19*
X220000Y320000D03*
X475000Y250000D03*
X1210000Y1300000D03*
D11*
X1130000Y1380000D01*
X1115000Y1380000D01*
D19*
X1115000Y1380000D03*
X475000Y225000D03*
X1235000Y1300000D03*
X1085000Y1390000D03*
D11*
X1130000Y1390000D01*
X1220000Y1300000D02*
X1235000Y1300000D01*
X1220000Y1300000D02*
X1130000Y1390000D01*
D19*
X475000Y270000D03*
X1190000Y1300000D03*
X115000Y115000D03*
D20*
X65000Y115000D01*
X60000Y120000D01*
X60000Y325000D01*
X10000Y375000D01*
X10000Y420000D01*
X40000Y450000D01*
X55000Y450000D02*
X60000Y455000D01*
X60000Y545000D01*
X75000Y560000D01*
D19*
X75000Y560000D03*
D20*
X55000Y450000D02*
X40000Y450000D01*
X75000Y560000D02*
X60000Y575000D01*
X60000Y785000D01*
X85000Y810000D01*
D19*
X85000Y810000D03*
D11*
X55000Y810000D01*
X40000Y825000D01*
X40000Y855000D02*
X60000Y875000D01*
X60000Y1050000D01*
D19*
X60000Y1050000D03*
D11*
X40000Y855000D02*
X40000Y825000D01*
X1230000Y1320000D02*
X1230000Y1340500D01*
D19*
X1230000Y1320000D03*
D11*
X1310000Y1320000D02*
X1310000Y1335500D01*
D19*
X1310000Y1320000D03*
X1240000Y1445000D03*
D11*
X1250000Y1435000D02*
X1285000Y1435000D01*
D19*
X1285000Y1435000D03*
D11*
X1250000Y1435000D02*
X1240000Y1445000D01*
D19*
X1385000Y1320000D03*
D11*
X1385000Y1335500D01*
D19*
X1095000Y1430000D03*
D11*
X1120000Y1455000D02*
X1350000Y1455000D01*
D19*
X1350000Y1455000D03*
D11*
X1120000Y1455000D02*
X1095000Y1430000D01*
D19*
X255000Y1355000D03*
X270000Y1355000D03*
X270000Y1385000D03*
X200000Y1380000D03*
X160000Y1375000D03*
X255000Y1385000D03*
X210000Y1365000D03*
X225000Y1365000D03*
X160000Y1390000D03*
X160000Y1405000D03*
X125000Y1380000D03*
X125000Y1395000D03*
X125000Y1410000D03*
X140000Y1365000D03*
X155000Y1415000D03*
D11*
X295000Y415000D02*
X295000Y400000D01*
D19*
X295000Y400000D03*
D20*
X310000Y410000D02*
X310000Y420000D01*
D19*
X310000Y420000D03*
X75000Y1090000D03*
X55000Y835000D03*
X75000Y590000D03*
X80262Y140000D03*
D11*
X300000Y365000D02*
X295000Y370000D01*
X295000Y400000D01*
X230000Y380000D02*
X190000Y380000D01*
D19*
X230000Y380000D03*
M02*
