G04 EAGLE Gerber RS-274X export*
G75*
%MOMM*%
%FSLAX34Y34*%
%LPD*%
%IN*%
%IPPOS*%
%AMOC8*
5,1,8,0,0,1.08239X$1,22.5*%
G01*
%ADD10C,0.254000*%


D10*
X0Y0D02*
X520000Y0D01*
X520000Y80000D01*
X520190Y84358D01*
X520760Y88682D01*
X521704Y92941D01*
X523015Y97101D01*
X524685Y101131D01*
X526699Y105000D01*
X529042Y108679D01*
X531698Y112139D01*
X534645Y115355D01*
X537861Y118302D01*
X541321Y120958D01*
X545000Y123301D01*
X548869Y125315D01*
X552899Y126985D01*
X557059Y128296D01*
X561318Y129240D01*
X565642Y129810D01*
X570000Y130000D01*
X1055000Y130000D01*
X1078970Y131045D01*
X1102758Y134174D01*
X1126182Y139365D01*
X1149065Y146578D01*
X1171232Y155758D01*
X1192514Y166835D01*
X1212751Y179724D01*
X1231787Y194328D01*
X1249477Y210536D01*
X1265688Y228224D01*
X1280295Y247257D01*
X1293188Y267491D01*
X1304269Y288772D01*
X1313452Y310938D01*
X1320669Y333819D01*
X1325864Y357243D01*
X1328997Y381030D01*
X1330000Y400000D01*
X1330000Y1155000D01*
X1330237Y1157665D01*
X1330705Y1160298D01*
X1331401Y1162881D01*
X1332319Y1165394D01*
X1333453Y1167816D01*
X1334794Y1170131D01*
X1336331Y1172320D01*
X1338053Y1174367D01*
X1339947Y1176256D01*
X1341999Y1177973D01*
X1344192Y1179504D01*
X1345000Y1180000D01*
X1480000Y1260000D01*
X1482950Y1261889D01*
X1485725Y1264028D01*
X1488302Y1266400D01*
X1490663Y1268988D01*
X1492790Y1271772D01*
X1494666Y1274731D01*
X1496276Y1277842D01*
X1497610Y1281082D01*
X1498656Y1284425D01*
X1499406Y1287847D01*
X1499856Y1291321D01*
X1500001Y1294821D01*
X1500000Y1295000D01*
X1500000Y1500000D01*
X960000Y1500000D01*
X960000Y1295000D01*
X960155Y1291459D01*
X960617Y1287946D01*
X961384Y1284485D01*
X962450Y1281105D01*
X963806Y1277831D01*
X965443Y1274688D01*
X967347Y1271698D01*
X969504Y1268887D01*
X971899Y1266274D01*
X974512Y1263879D01*
X977323Y1261722D01*
X980000Y1260000D01*
X1115000Y1180000D01*
X1117240Y1178537D01*
X1119343Y1176885D01*
X1121295Y1175055D01*
X1123080Y1173063D01*
X1124684Y1170922D01*
X1126095Y1168650D01*
X1127304Y1166263D01*
X1128299Y1163780D01*
X1129074Y1161220D01*
X1129624Y1158602D01*
X1129943Y1155946D01*
X1130000Y1155000D01*
X1130000Y415000D01*
X1129904Y407800D01*
X1129181Y400636D01*
X1127836Y393562D01*
X1125880Y386633D01*
X1123327Y379900D01*
X1120197Y373415D01*
X1116514Y367228D01*
X1112306Y361385D01*
X1107604Y355931D01*
X1102445Y350908D01*
X1096868Y346354D01*
X1090915Y342303D01*
X1084632Y338786D01*
X1078066Y335830D01*
X1071267Y333458D01*
X1064288Y331687D01*
X1057181Y330532D01*
X1050000Y330000D01*
X570000Y330000D01*
X565851Y329963D01*
X561714Y330288D01*
X557621Y330971D01*
X553603Y332010D01*
X549691Y333394D01*
X545915Y335114D01*
X542303Y337156D01*
X538883Y339506D01*
X535680Y342145D01*
X532720Y345052D01*
X530024Y348207D01*
X527614Y351585D01*
X525507Y355160D01*
X523720Y358905D01*
X522266Y362791D01*
X521156Y366790D01*
X520399Y370870D01*
X520000Y375000D01*
X520000Y1500000D01*
X0Y1500000D01*
X0Y0D01*
X75000Y1381000D02*
X85000Y1381000D01*
X85000Y1409000D01*
X75000Y1409000D01*
X75000Y1381000D01*
X136000Y1378500D02*
X146000Y1378500D01*
X146000Y1411500D01*
X136000Y1411500D01*
X136000Y1378500D01*
X96000Y1342000D02*
X124000Y1342000D01*
X124000Y1352000D01*
X96000Y1352000D01*
X96000Y1342000D01*
M02*
