G04 EAGLE Gerber RS-274X export*
G75*
%MOMM*%
%FSLAX34Y34*%
%LPD*%
%INSoldermask Top*%
%IPPOS*%
%AMOC8*
5,1,8,0,0,1.08239X$1,22.5*%
G01*
%ADD10R,0.700000X0.900000*%
%ADD11R,0.900000X0.700000*%
%ADD12R,1.400000X1.600000*%
%ADD13R,1.600000X1.400000*%
%ADD14C,2.000000*%
%ADD15C,1.000000*%
%ADD16C,0.500000*%
%ADD17R,1.900000X0.300000*%
%ADD18C,1.950000*%
%ADD19R,0.600000X2.200000*%
%ADD20R,6.200000X5.800000*%
%ADD21R,3.000000X1.600000*%
%ADD22R,1.500000X1.300000*%
%ADD23C,1.219200*%
%ADD24C,6.451600*%
%ADD25R,1.651900X0.280000*%
%ADD26R,0.280000X1.651900*%


D10*
X291500Y1450000D03*
X278500Y1450000D03*
D11*
X230000Y1388500D03*
X230000Y1401500D03*
D12*
X1455000Y1380000D03*
X1455000Y1350000D03*
D11*
X1475000Y1371500D03*
X1475000Y1358500D03*
D13*
X300000Y1470000D03*
X270000Y1470000D03*
D12*
X215000Y1380000D03*
X215000Y1410000D03*
D14*
X141000Y1405000D02*
X141000Y1385000D01*
X80000Y1385000D02*
X80000Y1405000D01*
X100000Y1347000D02*
X120000Y1347000D01*
D15*
X19400Y1480400D03*
D16*
X19400Y1487900D02*
X19219Y1487898D01*
X19038Y1487891D01*
X18857Y1487880D01*
X18676Y1487865D01*
X18496Y1487845D01*
X18316Y1487821D01*
X18137Y1487793D01*
X17959Y1487760D01*
X17782Y1487723D01*
X17605Y1487682D01*
X17430Y1487637D01*
X17255Y1487587D01*
X17082Y1487533D01*
X16911Y1487475D01*
X16740Y1487413D01*
X16572Y1487346D01*
X16405Y1487276D01*
X16239Y1487202D01*
X16076Y1487123D01*
X15915Y1487041D01*
X15755Y1486955D01*
X15598Y1486865D01*
X15443Y1486771D01*
X15290Y1486674D01*
X15140Y1486572D01*
X14992Y1486468D01*
X14846Y1486359D01*
X14704Y1486248D01*
X14564Y1486132D01*
X14427Y1486014D01*
X14292Y1485892D01*
X14161Y1485767D01*
X14033Y1485639D01*
X13908Y1485508D01*
X13786Y1485373D01*
X13668Y1485236D01*
X13552Y1485096D01*
X13441Y1484954D01*
X13332Y1484808D01*
X13228Y1484660D01*
X13126Y1484510D01*
X13029Y1484357D01*
X12935Y1484202D01*
X12845Y1484045D01*
X12759Y1483885D01*
X12677Y1483724D01*
X12598Y1483561D01*
X12524Y1483395D01*
X12454Y1483228D01*
X12387Y1483060D01*
X12325Y1482889D01*
X12267Y1482718D01*
X12213Y1482545D01*
X12163Y1482370D01*
X12118Y1482195D01*
X12077Y1482018D01*
X12040Y1481841D01*
X12007Y1481663D01*
X11979Y1481484D01*
X11955Y1481304D01*
X11935Y1481124D01*
X11920Y1480943D01*
X11909Y1480762D01*
X11902Y1480581D01*
X11900Y1480400D01*
X19400Y1487900D02*
X19581Y1487898D01*
X19762Y1487891D01*
X19943Y1487880D01*
X20124Y1487865D01*
X20304Y1487845D01*
X20484Y1487821D01*
X20663Y1487793D01*
X20841Y1487760D01*
X21018Y1487723D01*
X21195Y1487682D01*
X21370Y1487637D01*
X21545Y1487587D01*
X21718Y1487533D01*
X21889Y1487475D01*
X22060Y1487413D01*
X22228Y1487346D01*
X22395Y1487276D01*
X22561Y1487202D01*
X22724Y1487123D01*
X22885Y1487041D01*
X23045Y1486955D01*
X23202Y1486865D01*
X23357Y1486771D01*
X23510Y1486674D01*
X23660Y1486572D01*
X23808Y1486468D01*
X23954Y1486359D01*
X24096Y1486248D01*
X24236Y1486132D01*
X24373Y1486014D01*
X24508Y1485892D01*
X24639Y1485767D01*
X24767Y1485639D01*
X24892Y1485508D01*
X25014Y1485373D01*
X25132Y1485236D01*
X25248Y1485096D01*
X25359Y1484954D01*
X25468Y1484808D01*
X25572Y1484660D01*
X25674Y1484510D01*
X25771Y1484357D01*
X25865Y1484202D01*
X25955Y1484045D01*
X26041Y1483885D01*
X26123Y1483724D01*
X26202Y1483561D01*
X26276Y1483395D01*
X26346Y1483228D01*
X26413Y1483060D01*
X26475Y1482889D01*
X26533Y1482718D01*
X26587Y1482545D01*
X26637Y1482370D01*
X26682Y1482195D01*
X26723Y1482018D01*
X26760Y1481841D01*
X26793Y1481663D01*
X26821Y1481484D01*
X26845Y1481304D01*
X26865Y1481124D01*
X26880Y1480943D01*
X26891Y1480762D01*
X26898Y1480581D01*
X26900Y1480400D01*
X26898Y1480219D01*
X26891Y1480038D01*
X26880Y1479857D01*
X26865Y1479676D01*
X26845Y1479496D01*
X26821Y1479316D01*
X26793Y1479137D01*
X26760Y1478959D01*
X26723Y1478782D01*
X26682Y1478605D01*
X26637Y1478430D01*
X26587Y1478255D01*
X26533Y1478082D01*
X26475Y1477911D01*
X26413Y1477740D01*
X26346Y1477572D01*
X26276Y1477405D01*
X26202Y1477239D01*
X26123Y1477076D01*
X26041Y1476915D01*
X25955Y1476755D01*
X25865Y1476598D01*
X25771Y1476443D01*
X25674Y1476290D01*
X25572Y1476140D01*
X25468Y1475992D01*
X25359Y1475846D01*
X25248Y1475704D01*
X25132Y1475564D01*
X25014Y1475427D01*
X24892Y1475292D01*
X24767Y1475161D01*
X24639Y1475033D01*
X24508Y1474908D01*
X24373Y1474786D01*
X24236Y1474668D01*
X24096Y1474552D01*
X23954Y1474441D01*
X23808Y1474332D01*
X23660Y1474228D01*
X23510Y1474126D01*
X23357Y1474029D01*
X23202Y1473935D01*
X23045Y1473845D01*
X22885Y1473759D01*
X22724Y1473677D01*
X22561Y1473598D01*
X22395Y1473524D01*
X22228Y1473454D01*
X22060Y1473387D01*
X21889Y1473325D01*
X21718Y1473267D01*
X21545Y1473213D01*
X21370Y1473163D01*
X21195Y1473118D01*
X21018Y1473077D01*
X20841Y1473040D01*
X20663Y1473007D01*
X20484Y1472979D01*
X20304Y1472955D01*
X20124Y1472935D01*
X19943Y1472920D01*
X19762Y1472909D01*
X19581Y1472902D01*
X19400Y1472900D01*
X19219Y1472902D01*
X19038Y1472909D01*
X18857Y1472920D01*
X18676Y1472935D01*
X18496Y1472955D01*
X18316Y1472979D01*
X18137Y1473007D01*
X17959Y1473040D01*
X17782Y1473077D01*
X17605Y1473118D01*
X17430Y1473163D01*
X17255Y1473213D01*
X17082Y1473267D01*
X16911Y1473325D01*
X16740Y1473387D01*
X16572Y1473454D01*
X16405Y1473524D01*
X16239Y1473598D01*
X16076Y1473677D01*
X15915Y1473759D01*
X15755Y1473845D01*
X15598Y1473935D01*
X15443Y1474029D01*
X15290Y1474126D01*
X15140Y1474228D01*
X14992Y1474332D01*
X14846Y1474441D01*
X14704Y1474552D01*
X14564Y1474668D01*
X14427Y1474786D01*
X14292Y1474908D01*
X14161Y1475033D01*
X14033Y1475161D01*
X13908Y1475292D01*
X13786Y1475427D01*
X13668Y1475564D01*
X13552Y1475704D01*
X13441Y1475846D01*
X13332Y1475992D01*
X13228Y1476140D01*
X13126Y1476290D01*
X13029Y1476443D01*
X12935Y1476598D01*
X12845Y1476755D01*
X12759Y1476915D01*
X12677Y1477076D01*
X12598Y1477239D01*
X12524Y1477405D01*
X12454Y1477572D01*
X12387Y1477740D01*
X12325Y1477911D01*
X12267Y1478082D01*
X12213Y1478255D01*
X12163Y1478430D01*
X12118Y1478605D01*
X12077Y1478782D01*
X12040Y1478959D01*
X12007Y1479137D01*
X11979Y1479316D01*
X11955Y1479496D01*
X11935Y1479676D01*
X11920Y1479857D01*
X11909Y1480038D01*
X11902Y1480219D01*
X11900Y1480400D01*
D15*
X500000Y20000D03*
D16*
X500000Y27500D02*
X499819Y27498D01*
X499638Y27491D01*
X499457Y27480D01*
X499276Y27465D01*
X499096Y27445D01*
X498916Y27421D01*
X498737Y27393D01*
X498559Y27360D01*
X498382Y27323D01*
X498205Y27282D01*
X498030Y27237D01*
X497855Y27187D01*
X497682Y27133D01*
X497511Y27075D01*
X497340Y27013D01*
X497172Y26946D01*
X497005Y26876D01*
X496839Y26802D01*
X496676Y26723D01*
X496515Y26641D01*
X496355Y26555D01*
X496198Y26465D01*
X496043Y26371D01*
X495890Y26274D01*
X495740Y26172D01*
X495592Y26068D01*
X495446Y25959D01*
X495304Y25848D01*
X495164Y25732D01*
X495027Y25614D01*
X494892Y25492D01*
X494761Y25367D01*
X494633Y25239D01*
X494508Y25108D01*
X494386Y24973D01*
X494268Y24836D01*
X494152Y24696D01*
X494041Y24554D01*
X493932Y24408D01*
X493828Y24260D01*
X493726Y24110D01*
X493629Y23957D01*
X493535Y23802D01*
X493445Y23645D01*
X493359Y23485D01*
X493277Y23324D01*
X493198Y23161D01*
X493124Y22995D01*
X493054Y22828D01*
X492987Y22660D01*
X492925Y22489D01*
X492867Y22318D01*
X492813Y22145D01*
X492763Y21970D01*
X492718Y21795D01*
X492677Y21618D01*
X492640Y21441D01*
X492607Y21263D01*
X492579Y21084D01*
X492555Y20904D01*
X492535Y20724D01*
X492520Y20543D01*
X492509Y20362D01*
X492502Y20181D01*
X492500Y20000D01*
X500000Y27500D02*
X500181Y27498D01*
X500362Y27491D01*
X500543Y27480D01*
X500724Y27465D01*
X500904Y27445D01*
X501084Y27421D01*
X501263Y27393D01*
X501441Y27360D01*
X501618Y27323D01*
X501795Y27282D01*
X501970Y27237D01*
X502145Y27187D01*
X502318Y27133D01*
X502489Y27075D01*
X502660Y27013D01*
X502828Y26946D01*
X502995Y26876D01*
X503161Y26802D01*
X503324Y26723D01*
X503485Y26641D01*
X503645Y26555D01*
X503802Y26465D01*
X503957Y26371D01*
X504110Y26274D01*
X504260Y26172D01*
X504408Y26068D01*
X504554Y25959D01*
X504696Y25848D01*
X504836Y25732D01*
X504973Y25614D01*
X505108Y25492D01*
X505239Y25367D01*
X505367Y25239D01*
X505492Y25108D01*
X505614Y24973D01*
X505732Y24836D01*
X505848Y24696D01*
X505959Y24554D01*
X506068Y24408D01*
X506172Y24260D01*
X506274Y24110D01*
X506371Y23957D01*
X506465Y23802D01*
X506555Y23645D01*
X506641Y23485D01*
X506723Y23324D01*
X506802Y23161D01*
X506876Y22995D01*
X506946Y22828D01*
X507013Y22660D01*
X507075Y22489D01*
X507133Y22318D01*
X507187Y22145D01*
X507237Y21970D01*
X507282Y21795D01*
X507323Y21618D01*
X507360Y21441D01*
X507393Y21263D01*
X507421Y21084D01*
X507445Y20904D01*
X507465Y20724D01*
X507480Y20543D01*
X507491Y20362D01*
X507498Y20181D01*
X507500Y20000D01*
X507498Y19819D01*
X507491Y19638D01*
X507480Y19457D01*
X507465Y19276D01*
X507445Y19096D01*
X507421Y18916D01*
X507393Y18737D01*
X507360Y18559D01*
X507323Y18382D01*
X507282Y18205D01*
X507237Y18030D01*
X507187Y17855D01*
X507133Y17682D01*
X507075Y17511D01*
X507013Y17340D01*
X506946Y17172D01*
X506876Y17005D01*
X506802Y16839D01*
X506723Y16676D01*
X506641Y16515D01*
X506555Y16355D01*
X506465Y16198D01*
X506371Y16043D01*
X506274Y15890D01*
X506172Y15740D01*
X506068Y15592D01*
X505959Y15446D01*
X505848Y15304D01*
X505732Y15164D01*
X505614Y15027D01*
X505492Y14892D01*
X505367Y14761D01*
X505239Y14633D01*
X505108Y14508D01*
X504973Y14386D01*
X504836Y14268D01*
X504696Y14152D01*
X504554Y14041D01*
X504408Y13932D01*
X504260Y13828D01*
X504110Y13726D01*
X503957Y13629D01*
X503802Y13535D01*
X503645Y13445D01*
X503485Y13359D01*
X503324Y13277D01*
X503161Y13198D01*
X502995Y13124D01*
X502828Y13054D01*
X502660Y12987D01*
X502489Y12925D01*
X502318Y12867D01*
X502145Y12813D01*
X501970Y12763D01*
X501795Y12718D01*
X501618Y12677D01*
X501441Y12640D01*
X501263Y12607D01*
X501084Y12579D01*
X500904Y12555D01*
X500724Y12535D01*
X500543Y12520D01*
X500362Y12509D01*
X500181Y12502D01*
X500000Y12500D01*
X499819Y12502D01*
X499638Y12509D01*
X499457Y12520D01*
X499276Y12535D01*
X499096Y12555D01*
X498916Y12579D01*
X498737Y12607D01*
X498559Y12640D01*
X498382Y12677D01*
X498205Y12718D01*
X498030Y12763D01*
X497855Y12813D01*
X497682Y12867D01*
X497511Y12925D01*
X497340Y12987D01*
X497172Y13054D01*
X497005Y13124D01*
X496839Y13198D01*
X496676Y13277D01*
X496515Y13359D01*
X496355Y13445D01*
X496198Y13535D01*
X496043Y13629D01*
X495890Y13726D01*
X495740Y13828D01*
X495592Y13932D01*
X495446Y14041D01*
X495304Y14152D01*
X495164Y14268D01*
X495027Y14386D01*
X494892Y14508D01*
X494761Y14633D01*
X494633Y14761D01*
X494508Y14892D01*
X494386Y15027D01*
X494268Y15164D01*
X494152Y15304D01*
X494041Y15446D01*
X493932Y15592D01*
X493828Y15740D01*
X493726Y15890D01*
X493629Y16043D01*
X493535Y16198D01*
X493445Y16355D01*
X493359Y16515D01*
X493277Y16676D01*
X493198Y16839D01*
X493124Y17005D01*
X493054Y17172D01*
X492987Y17340D01*
X492925Y17511D01*
X492867Y17682D01*
X492813Y17855D01*
X492763Y18030D01*
X492718Y18205D01*
X492677Y18382D01*
X492640Y18559D01*
X492607Y18737D01*
X492579Y18916D01*
X492555Y19096D01*
X492535Y19276D01*
X492520Y19457D01*
X492509Y19638D01*
X492502Y19819D01*
X492500Y20000D01*
D15*
X500000Y1480000D03*
D16*
X500000Y1487500D02*
X499819Y1487498D01*
X499638Y1487491D01*
X499457Y1487480D01*
X499276Y1487465D01*
X499096Y1487445D01*
X498916Y1487421D01*
X498737Y1487393D01*
X498559Y1487360D01*
X498382Y1487323D01*
X498205Y1487282D01*
X498030Y1487237D01*
X497855Y1487187D01*
X497682Y1487133D01*
X497511Y1487075D01*
X497340Y1487013D01*
X497172Y1486946D01*
X497005Y1486876D01*
X496839Y1486802D01*
X496676Y1486723D01*
X496515Y1486641D01*
X496355Y1486555D01*
X496198Y1486465D01*
X496043Y1486371D01*
X495890Y1486274D01*
X495740Y1486172D01*
X495592Y1486068D01*
X495446Y1485959D01*
X495304Y1485848D01*
X495164Y1485732D01*
X495027Y1485614D01*
X494892Y1485492D01*
X494761Y1485367D01*
X494633Y1485239D01*
X494508Y1485108D01*
X494386Y1484973D01*
X494268Y1484836D01*
X494152Y1484696D01*
X494041Y1484554D01*
X493932Y1484408D01*
X493828Y1484260D01*
X493726Y1484110D01*
X493629Y1483957D01*
X493535Y1483802D01*
X493445Y1483645D01*
X493359Y1483485D01*
X493277Y1483324D01*
X493198Y1483161D01*
X493124Y1482995D01*
X493054Y1482828D01*
X492987Y1482660D01*
X492925Y1482489D01*
X492867Y1482318D01*
X492813Y1482145D01*
X492763Y1481970D01*
X492718Y1481795D01*
X492677Y1481618D01*
X492640Y1481441D01*
X492607Y1481263D01*
X492579Y1481084D01*
X492555Y1480904D01*
X492535Y1480724D01*
X492520Y1480543D01*
X492509Y1480362D01*
X492502Y1480181D01*
X492500Y1480000D01*
X500000Y1487500D02*
X500181Y1487498D01*
X500362Y1487491D01*
X500543Y1487480D01*
X500724Y1487465D01*
X500904Y1487445D01*
X501084Y1487421D01*
X501263Y1487393D01*
X501441Y1487360D01*
X501618Y1487323D01*
X501795Y1487282D01*
X501970Y1487237D01*
X502145Y1487187D01*
X502318Y1487133D01*
X502489Y1487075D01*
X502660Y1487013D01*
X502828Y1486946D01*
X502995Y1486876D01*
X503161Y1486802D01*
X503324Y1486723D01*
X503485Y1486641D01*
X503645Y1486555D01*
X503802Y1486465D01*
X503957Y1486371D01*
X504110Y1486274D01*
X504260Y1486172D01*
X504408Y1486068D01*
X504554Y1485959D01*
X504696Y1485848D01*
X504836Y1485732D01*
X504973Y1485614D01*
X505108Y1485492D01*
X505239Y1485367D01*
X505367Y1485239D01*
X505492Y1485108D01*
X505614Y1484973D01*
X505732Y1484836D01*
X505848Y1484696D01*
X505959Y1484554D01*
X506068Y1484408D01*
X506172Y1484260D01*
X506274Y1484110D01*
X506371Y1483957D01*
X506465Y1483802D01*
X506555Y1483645D01*
X506641Y1483485D01*
X506723Y1483324D01*
X506802Y1483161D01*
X506876Y1482995D01*
X506946Y1482828D01*
X507013Y1482660D01*
X507075Y1482489D01*
X507133Y1482318D01*
X507187Y1482145D01*
X507237Y1481970D01*
X507282Y1481795D01*
X507323Y1481618D01*
X507360Y1481441D01*
X507393Y1481263D01*
X507421Y1481084D01*
X507445Y1480904D01*
X507465Y1480724D01*
X507480Y1480543D01*
X507491Y1480362D01*
X507498Y1480181D01*
X507500Y1480000D01*
X507498Y1479819D01*
X507491Y1479638D01*
X507480Y1479457D01*
X507465Y1479276D01*
X507445Y1479096D01*
X507421Y1478916D01*
X507393Y1478737D01*
X507360Y1478559D01*
X507323Y1478382D01*
X507282Y1478205D01*
X507237Y1478030D01*
X507187Y1477855D01*
X507133Y1477682D01*
X507075Y1477511D01*
X507013Y1477340D01*
X506946Y1477172D01*
X506876Y1477005D01*
X506802Y1476839D01*
X506723Y1476676D01*
X506641Y1476515D01*
X506555Y1476355D01*
X506465Y1476198D01*
X506371Y1476043D01*
X506274Y1475890D01*
X506172Y1475740D01*
X506068Y1475592D01*
X505959Y1475446D01*
X505848Y1475304D01*
X505732Y1475164D01*
X505614Y1475027D01*
X505492Y1474892D01*
X505367Y1474761D01*
X505239Y1474633D01*
X505108Y1474508D01*
X504973Y1474386D01*
X504836Y1474268D01*
X504696Y1474152D01*
X504554Y1474041D01*
X504408Y1473932D01*
X504260Y1473828D01*
X504110Y1473726D01*
X503957Y1473629D01*
X503802Y1473535D01*
X503645Y1473445D01*
X503485Y1473359D01*
X503324Y1473277D01*
X503161Y1473198D01*
X502995Y1473124D01*
X502828Y1473054D01*
X502660Y1472987D01*
X502489Y1472925D01*
X502318Y1472867D01*
X502145Y1472813D01*
X501970Y1472763D01*
X501795Y1472718D01*
X501618Y1472677D01*
X501441Y1472640D01*
X501263Y1472607D01*
X501084Y1472579D01*
X500904Y1472555D01*
X500724Y1472535D01*
X500543Y1472520D01*
X500362Y1472509D01*
X500181Y1472502D01*
X500000Y1472500D01*
X499819Y1472502D01*
X499638Y1472509D01*
X499457Y1472520D01*
X499276Y1472535D01*
X499096Y1472555D01*
X498916Y1472579D01*
X498737Y1472607D01*
X498559Y1472640D01*
X498382Y1472677D01*
X498205Y1472718D01*
X498030Y1472763D01*
X497855Y1472813D01*
X497682Y1472867D01*
X497511Y1472925D01*
X497340Y1472987D01*
X497172Y1473054D01*
X497005Y1473124D01*
X496839Y1473198D01*
X496676Y1473277D01*
X496515Y1473359D01*
X496355Y1473445D01*
X496198Y1473535D01*
X496043Y1473629D01*
X495890Y1473726D01*
X495740Y1473828D01*
X495592Y1473932D01*
X495446Y1474041D01*
X495304Y1474152D01*
X495164Y1474268D01*
X495027Y1474386D01*
X494892Y1474508D01*
X494761Y1474633D01*
X494633Y1474761D01*
X494508Y1474892D01*
X494386Y1475027D01*
X494268Y1475164D01*
X494152Y1475304D01*
X494041Y1475446D01*
X493932Y1475592D01*
X493828Y1475740D01*
X493726Y1475890D01*
X493629Y1476043D01*
X493535Y1476198D01*
X493445Y1476355D01*
X493359Y1476515D01*
X493277Y1476676D01*
X493198Y1476839D01*
X493124Y1477005D01*
X493054Y1477172D01*
X492987Y1477340D01*
X492925Y1477511D01*
X492867Y1477682D01*
X492813Y1477855D01*
X492763Y1478030D01*
X492718Y1478205D01*
X492677Y1478382D01*
X492640Y1478559D01*
X492607Y1478737D01*
X492579Y1478916D01*
X492555Y1479096D01*
X492535Y1479276D01*
X492520Y1479457D01*
X492509Y1479638D01*
X492502Y1479819D01*
X492500Y1480000D01*
D15*
X980000Y1480000D03*
D16*
X980000Y1487500D02*
X979819Y1487498D01*
X979638Y1487491D01*
X979457Y1487480D01*
X979276Y1487465D01*
X979096Y1487445D01*
X978916Y1487421D01*
X978737Y1487393D01*
X978559Y1487360D01*
X978382Y1487323D01*
X978205Y1487282D01*
X978030Y1487237D01*
X977855Y1487187D01*
X977682Y1487133D01*
X977511Y1487075D01*
X977340Y1487013D01*
X977172Y1486946D01*
X977005Y1486876D01*
X976839Y1486802D01*
X976676Y1486723D01*
X976515Y1486641D01*
X976355Y1486555D01*
X976198Y1486465D01*
X976043Y1486371D01*
X975890Y1486274D01*
X975740Y1486172D01*
X975592Y1486068D01*
X975446Y1485959D01*
X975304Y1485848D01*
X975164Y1485732D01*
X975027Y1485614D01*
X974892Y1485492D01*
X974761Y1485367D01*
X974633Y1485239D01*
X974508Y1485108D01*
X974386Y1484973D01*
X974268Y1484836D01*
X974152Y1484696D01*
X974041Y1484554D01*
X973932Y1484408D01*
X973828Y1484260D01*
X973726Y1484110D01*
X973629Y1483957D01*
X973535Y1483802D01*
X973445Y1483645D01*
X973359Y1483485D01*
X973277Y1483324D01*
X973198Y1483161D01*
X973124Y1482995D01*
X973054Y1482828D01*
X972987Y1482660D01*
X972925Y1482489D01*
X972867Y1482318D01*
X972813Y1482145D01*
X972763Y1481970D01*
X972718Y1481795D01*
X972677Y1481618D01*
X972640Y1481441D01*
X972607Y1481263D01*
X972579Y1481084D01*
X972555Y1480904D01*
X972535Y1480724D01*
X972520Y1480543D01*
X972509Y1480362D01*
X972502Y1480181D01*
X972500Y1480000D01*
X980000Y1487500D02*
X980181Y1487498D01*
X980362Y1487491D01*
X980543Y1487480D01*
X980724Y1487465D01*
X980904Y1487445D01*
X981084Y1487421D01*
X981263Y1487393D01*
X981441Y1487360D01*
X981618Y1487323D01*
X981795Y1487282D01*
X981970Y1487237D01*
X982145Y1487187D01*
X982318Y1487133D01*
X982489Y1487075D01*
X982660Y1487013D01*
X982828Y1486946D01*
X982995Y1486876D01*
X983161Y1486802D01*
X983324Y1486723D01*
X983485Y1486641D01*
X983645Y1486555D01*
X983802Y1486465D01*
X983957Y1486371D01*
X984110Y1486274D01*
X984260Y1486172D01*
X984408Y1486068D01*
X984554Y1485959D01*
X984696Y1485848D01*
X984836Y1485732D01*
X984973Y1485614D01*
X985108Y1485492D01*
X985239Y1485367D01*
X985367Y1485239D01*
X985492Y1485108D01*
X985614Y1484973D01*
X985732Y1484836D01*
X985848Y1484696D01*
X985959Y1484554D01*
X986068Y1484408D01*
X986172Y1484260D01*
X986274Y1484110D01*
X986371Y1483957D01*
X986465Y1483802D01*
X986555Y1483645D01*
X986641Y1483485D01*
X986723Y1483324D01*
X986802Y1483161D01*
X986876Y1482995D01*
X986946Y1482828D01*
X987013Y1482660D01*
X987075Y1482489D01*
X987133Y1482318D01*
X987187Y1482145D01*
X987237Y1481970D01*
X987282Y1481795D01*
X987323Y1481618D01*
X987360Y1481441D01*
X987393Y1481263D01*
X987421Y1481084D01*
X987445Y1480904D01*
X987465Y1480724D01*
X987480Y1480543D01*
X987491Y1480362D01*
X987498Y1480181D01*
X987500Y1480000D01*
X987498Y1479819D01*
X987491Y1479638D01*
X987480Y1479457D01*
X987465Y1479276D01*
X987445Y1479096D01*
X987421Y1478916D01*
X987393Y1478737D01*
X987360Y1478559D01*
X987323Y1478382D01*
X987282Y1478205D01*
X987237Y1478030D01*
X987187Y1477855D01*
X987133Y1477682D01*
X987075Y1477511D01*
X987013Y1477340D01*
X986946Y1477172D01*
X986876Y1477005D01*
X986802Y1476839D01*
X986723Y1476676D01*
X986641Y1476515D01*
X986555Y1476355D01*
X986465Y1476198D01*
X986371Y1476043D01*
X986274Y1475890D01*
X986172Y1475740D01*
X986068Y1475592D01*
X985959Y1475446D01*
X985848Y1475304D01*
X985732Y1475164D01*
X985614Y1475027D01*
X985492Y1474892D01*
X985367Y1474761D01*
X985239Y1474633D01*
X985108Y1474508D01*
X984973Y1474386D01*
X984836Y1474268D01*
X984696Y1474152D01*
X984554Y1474041D01*
X984408Y1473932D01*
X984260Y1473828D01*
X984110Y1473726D01*
X983957Y1473629D01*
X983802Y1473535D01*
X983645Y1473445D01*
X983485Y1473359D01*
X983324Y1473277D01*
X983161Y1473198D01*
X982995Y1473124D01*
X982828Y1473054D01*
X982660Y1472987D01*
X982489Y1472925D01*
X982318Y1472867D01*
X982145Y1472813D01*
X981970Y1472763D01*
X981795Y1472718D01*
X981618Y1472677D01*
X981441Y1472640D01*
X981263Y1472607D01*
X981084Y1472579D01*
X980904Y1472555D01*
X980724Y1472535D01*
X980543Y1472520D01*
X980362Y1472509D01*
X980181Y1472502D01*
X980000Y1472500D01*
X979819Y1472502D01*
X979638Y1472509D01*
X979457Y1472520D01*
X979276Y1472535D01*
X979096Y1472555D01*
X978916Y1472579D01*
X978737Y1472607D01*
X978559Y1472640D01*
X978382Y1472677D01*
X978205Y1472718D01*
X978030Y1472763D01*
X977855Y1472813D01*
X977682Y1472867D01*
X977511Y1472925D01*
X977340Y1472987D01*
X977172Y1473054D01*
X977005Y1473124D01*
X976839Y1473198D01*
X976676Y1473277D01*
X976515Y1473359D01*
X976355Y1473445D01*
X976198Y1473535D01*
X976043Y1473629D01*
X975890Y1473726D01*
X975740Y1473828D01*
X975592Y1473932D01*
X975446Y1474041D01*
X975304Y1474152D01*
X975164Y1474268D01*
X975027Y1474386D01*
X974892Y1474508D01*
X974761Y1474633D01*
X974633Y1474761D01*
X974508Y1474892D01*
X974386Y1475027D01*
X974268Y1475164D01*
X974152Y1475304D01*
X974041Y1475446D01*
X973932Y1475592D01*
X973828Y1475740D01*
X973726Y1475890D01*
X973629Y1476043D01*
X973535Y1476198D01*
X973445Y1476355D01*
X973359Y1476515D01*
X973277Y1476676D01*
X973198Y1476839D01*
X973124Y1477005D01*
X973054Y1477172D01*
X972987Y1477340D01*
X972925Y1477511D01*
X972867Y1477682D01*
X972813Y1477855D01*
X972763Y1478030D01*
X972718Y1478205D01*
X972677Y1478382D01*
X972640Y1478559D01*
X972607Y1478737D01*
X972579Y1478916D01*
X972555Y1479096D01*
X972535Y1479276D01*
X972520Y1479457D01*
X972509Y1479638D01*
X972502Y1479819D01*
X972500Y1480000D01*
D15*
X1480000Y1480000D03*
D16*
X1480000Y1487500D02*
X1479819Y1487498D01*
X1479638Y1487491D01*
X1479457Y1487480D01*
X1479276Y1487465D01*
X1479096Y1487445D01*
X1478916Y1487421D01*
X1478737Y1487393D01*
X1478559Y1487360D01*
X1478382Y1487323D01*
X1478205Y1487282D01*
X1478030Y1487237D01*
X1477855Y1487187D01*
X1477682Y1487133D01*
X1477511Y1487075D01*
X1477340Y1487013D01*
X1477172Y1486946D01*
X1477005Y1486876D01*
X1476839Y1486802D01*
X1476676Y1486723D01*
X1476515Y1486641D01*
X1476355Y1486555D01*
X1476198Y1486465D01*
X1476043Y1486371D01*
X1475890Y1486274D01*
X1475740Y1486172D01*
X1475592Y1486068D01*
X1475446Y1485959D01*
X1475304Y1485848D01*
X1475164Y1485732D01*
X1475027Y1485614D01*
X1474892Y1485492D01*
X1474761Y1485367D01*
X1474633Y1485239D01*
X1474508Y1485108D01*
X1474386Y1484973D01*
X1474268Y1484836D01*
X1474152Y1484696D01*
X1474041Y1484554D01*
X1473932Y1484408D01*
X1473828Y1484260D01*
X1473726Y1484110D01*
X1473629Y1483957D01*
X1473535Y1483802D01*
X1473445Y1483645D01*
X1473359Y1483485D01*
X1473277Y1483324D01*
X1473198Y1483161D01*
X1473124Y1482995D01*
X1473054Y1482828D01*
X1472987Y1482660D01*
X1472925Y1482489D01*
X1472867Y1482318D01*
X1472813Y1482145D01*
X1472763Y1481970D01*
X1472718Y1481795D01*
X1472677Y1481618D01*
X1472640Y1481441D01*
X1472607Y1481263D01*
X1472579Y1481084D01*
X1472555Y1480904D01*
X1472535Y1480724D01*
X1472520Y1480543D01*
X1472509Y1480362D01*
X1472502Y1480181D01*
X1472500Y1480000D01*
X1480000Y1487500D02*
X1480181Y1487498D01*
X1480362Y1487491D01*
X1480543Y1487480D01*
X1480724Y1487465D01*
X1480904Y1487445D01*
X1481084Y1487421D01*
X1481263Y1487393D01*
X1481441Y1487360D01*
X1481618Y1487323D01*
X1481795Y1487282D01*
X1481970Y1487237D01*
X1482145Y1487187D01*
X1482318Y1487133D01*
X1482489Y1487075D01*
X1482660Y1487013D01*
X1482828Y1486946D01*
X1482995Y1486876D01*
X1483161Y1486802D01*
X1483324Y1486723D01*
X1483485Y1486641D01*
X1483645Y1486555D01*
X1483802Y1486465D01*
X1483957Y1486371D01*
X1484110Y1486274D01*
X1484260Y1486172D01*
X1484408Y1486068D01*
X1484554Y1485959D01*
X1484696Y1485848D01*
X1484836Y1485732D01*
X1484973Y1485614D01*
X1485108Y1485492D01*
X1485239Y1485367D01*
X1485367Y1485239D01*
X1485492Y1485108D01*
X1485614Y1484973D01*
X1485732Y1484836D01*
X1485848Y1484696D01*
X1485959Y1484554D01*
X1486068Y1484408D01*
X1486172Y1484260D01*
X1486274Y1484110D01*
X1486371Y1483957D01*
X1486465Y1483802D01*
X1486555Y1483645D01*
X1486641Y1483485D01*
X1486723Y1483324D01*
X1486802Y1483161D01*
X1486876Y1482995D01*
X1486946Y1482828D01*
X1487013Y1482660D01*
X1487075Y1482489D01*
X1487133Y1482318D01*
X1487187Y1482145D01*
X1487237Y1481970D01*
X1487282Y1481795D01*
X1487323Y1481618D01*
X1487360Y1481441D01*
X1487393Y1481263D01*
X1487421Y1481084D01*
X1487445Y1480904D01*
X1487465Y1480724D01*
X1487480Y1480543D01*
X1487491Y1480362D01*
X1487498Y1480181D01*
X1487500Y1480000D01*
X1487498Y1479819D01*
X1487491Y1479638D01*
X1487480Y1479457D01*
X1487465Y1479276D01*
X1487445Y1479096D01*
X1487421Y1478916D01*
X1487393Y1478737D01*
X1487360Y1478559D01*
X1487323Y1478382D01*
X1487282Y1478205D01*
X1487237Y1478030D01*
X1487187Y1477855D01*
X1487133Y1477682D01*
X1487075Y1477511D01*
X1487013Y1477340D01*
X1486946Y1477172D01*
X1486876Y1477005D01*
X1486802Y1476839D01*
X1486723Y1476676D01*
X1486641Y1476515D01*
X1486555Y1476355D01*
X1486465Y1476198D01*
X1486371Y1476043D01*
X1486274Y1475890D01*
X1486172Y1475740D01*
X1486068Y1475592D01*
X1485959Y1475446D01*
X1485848Y1475304D01*
X1485732Y1475164D01*
X1485614Y1475027D01*
X1485492Y1474892D01*
X1485367Y1474761D01*
X1485239Y1474633D01*
X1485108Y1474508D01*
X1484973Y1474386D01*
X1484836Y1474268D01*
X1484696Y1474152D01*
X1484554Y1474041D01*
X1484408Y1473932D01*
X1484260Y1473828D01*
X1484110Y1473726D01*
X1483957Y1473629D01*
X1483802Y1473535D01*
X1483645Y1473445D01*
X1483485Y1473359D01*
X1483324Y1473277D01*
X1483161Y1473198D01*
X1482995Y1473124D01*
X1482828Y1473054D01*
X1482660Y1472987D01*
X1482489Y1472925D01*
X1482318Y1472867D01*
X1482145Y1472813D01*
X1481970Y1472763D01*
X1481795Y1472718D01*
X1481618Y1472677D01*
X1481441Y1472640D01*
X1481263Y1472607D01*
X1481084Y1472579D01*
X1480904Y1472555D01*
X1480724Y1472535D01*
X1480543Y1472520D01*
X1480362Y1472509D01*
X1480181Y1472502D01*
X1480000Y1472500D01*
X1479819Y1472502D01*
X1479638Y1472509D01*
X1479457Y1472520D01*
X1479276Y1472535D01*
X1479096Y1472555D01*
X1478916Y1472579D01*
X1478737Y1472607D01*
X1478559Y1472640D01*
X1478382Y1472677D01*
X1478205Y1472718D01*
X1478030Y1472763D01*
X1477855Y1472813D01*
X1477682Y1472867D01*
X1477511Y1472925D01*
X1477340Y1472987D01*
X1477172Y1473054D01*
X1477005Y1473124D01*
X1476839Y1473198D01*
X1476676Y1473277D01*
X1476515Y1473359D01*
X1476355Y1473445D01*
X1476198Y1473535D01*
X1476043Y1473629D01*
X1475890Y1473726D01*
X1475740Y1473828D01*
X1475592Y1473932D01*
X1475446Y1474041D01*
X1475304Y1474152D01*
X1475164Y1474268D01*
X1475027Y1474386D01*
X1474892Y1474508D01*
X1474761Y1474633D01*
X1474633Y1474761D01*
X1474508Y1474892D01*
X1474386Y1475027D01*
X1474268Y1475164D01*
X1474152Y1475304D01*
X1474041Y1475446D01*
X1473932Y1475592D01*
X1473828Y1475740D01*
X1473726Y1475890D01*
X1473629Y1476043D01*
X1473535Y1476198D01*
X1473445Y1476355D01*
X1473359Y1476515D01*
X1473277Y1476676D01*
X1473198Y1476839D01*
X1473124Y1477005D01*
X1473054Y1477172D01*
X1472987Y1477340D01*
X1472925Y1477511D01*
X1472867Y1477682D01*
X1472813Y1477855D01*
X1472763Y1478030D01*
X1472718Y1478205D01*
X1472677Y1478382D01*
X1472640Y1478559D01*
X1472607Y1478737D01*
X1472579Y1478916D01*
X1472555Y1479096D01*
X1472535Y1479276D01*
X1472520Y1479457D01*
X1472509Y1479638D01*
X1472502Y1479819D01*
X1472500Y1480000D01*
D15*
X1480000Y1315000D03*
D16*
X1480000Y1322500D02*
X1479819Y1322498D01*
X1479638Y1322491D01*
X1479457Y1322480D01*
X1479276Y1322465D01*
X1479096Y1322445D01*
X1478916Y1322421D01*
X1478737Y1322393D01*
X1478559Y1322360D01*
X1478382Y1322323D01*
X1478205Y1322282D01*
X1478030Y1322237D01*
X1477855Y1322187D01*
X1477682Y1322133D01*
X1477511Y1322075D01*
X1477340Y1322013D01*
X1477172Y1321946D01*
X1477005Y1321876D01*
X1476839Y1321802D01*
X1476676Y1321723D01*
X1476515Y1321641D01*
X1476355Y1321555D01*
X1476198Y1321465D01*
X1476043Y1321371D01*
X1475890Y1321274D01*
X1475740Y1321172D01*
X1475592Y1321068D01*
X1475446Y1320959D01*
X1475304Y1320848D01*
X1475164Y1320732D01*
X1475027Y1320614D01*
X1474892Y1320492D01*
X1474761Y1320367D01*
X1474633Y1320239D01*
X1474508Y1320108D01*
X1474386Y1319973D01*
X1474268Y1319836D01*
X1474152Y1319696D01*
X1474041Y1319554D01*
X1473932Y1319408D01*
X1473828Y1319260D01*
X1473726Y1319110D01*
X1473629Y1318957D01*
X1473535Y1318802D01*
X1473445Y1318645D01*
X1473359Y1318485D01*
X1473277Y1318324D01*
X1473198Y1318161D01*
X1473124Y1317995D01*
X1473054Y1317828D01*
X1472987Y1317660D01*
X1472925Y1317489D01*
X1472867Y1317318D01*
X1472813Y1317145D01*
X1472763Y1316970D01*
X1472718Y1316795D01*
X1472677Y1316618D01*
X1472640Y1316441D01*
X1472607Y1316263D01*
X1472579Y1316084D01*
X1472555Y1315904D01*
X1472535Y1315724D01*
X1472520Y1315543D01*
X1472509Y1315362D01*
X1472502Y1315181D01*
X1472500Y1315000D01*
X1480000Y1322500D02*
X1480181Y1322498D01*
X1480362Y1322491D01*
X1480543Y1322480D01*
X1480724Y1322465D01*
X1480904Y1322445D01*
X1481084Y1322421D01*
X1481263Y1322393D01*
X1481441Y1322360D01*
X1481618Y1322323D01*
X1481795Y1322282D01*
X1481970Y1322237D01*
X1482145Y1322187D01*
X1482318Y1322133D01*
X1482489Y1322075D01*
X1482660Y1322013D01*
X1482828Y1321946D01*
X1482995Y1321876D01*
X1483161Y1321802D01*
X1483324Y1321723D01*
X1483485Y1321641D01*
X1483645Y1321555D01*
X1483802Y1321465D01*
X1483957Y1321371D01*
X1484110Y1321274D01*
X1484260Y1321172D01*
X1484408Y1321068D01*
X1484554Y1320959D01*
X1484696Y1320848D01*
X1484836Y1320732D01*
X1484973Y1320614D01*
X1485108Y1320492D01*
X1485239Y1320367D01*
X1485367Y1320239D01*
X1485492Y1320108D01*
X1485614Y1319973D01*
X1485732Y1319836D01*
X1485848Y1319696D01*
X1485959Y1319554D01*
X1486068Y1319408D01*
X1486172Y1319260D01*
X1486274Y1319110D01*
X1486371Y1318957D01*
X1486465Y1318802D01*
X1486555Y1318645D01*
X1486641Y1318485D01*
X1486723Y1318324D01*
X1486802Y1318161D01*
X1486876Y1317995D01*
X1486946Y1317828D01*
X1487013Y1317660D01*
X1487075Y1317489D01*
X1487133Y1317318D01*
X1487187Y1317145D01*
X1487237Y1316970D01*
X1487282Y1316795D01*
X1487323Y1316618D01*
X1487360Y1316441D01*
X1487393Y1316263D01*
X1487421Y1316084D01*
X1487445Y1315904D01*
X1487465Y1315724D01*
X1487480Y1315543D01*
X1487491Y1315362D01*
X1487498Y1315181D01*
X1487500Y1315000D01*
X1487498Y1314819D01*
X1487491Y1314638D01*
X1487480Y1314457D01*
X1487465Y1314276D01*
X1487445Y1314096D01*
X1487421Y1313916D01*
X1487393Y1313737D01*
X1487360Y1313559D01*
X1487323Y1313382D01*
X1487282Y1313205D01*
X1487237Y1313030D01*
X1487187Y1312855D01*
X1487133Y1312682D01*
X1487075Y1312511D01*
X1487013Y1312340D01*
X1486946Y1312172D01*
X1486876Y1312005D01*
X1486802Y1311839D01*
X1486723Y1311676D01*
X1486641Y1311515D01*
X1486555Y1311355D01*
X1486465Y1311198D01*
X1486371Y1311043D01*
X1486274Y1310890D01*
X1486172Y1310740D01*
X1486068Y1310592D01*
X1485959Y1310446D01*
X1485848Y1310304D01*
X1485732Y1310164D01*
X1485614Y1310027D01*
X1485492Y1309892D01*
X1485367Y1309761D01*
X1485239Y1309633D01*
X1485108Y1309508D01*
X1484973Y1309386D01*
X1484836Y1309268D01*
X1484696Y1309152D01*
X1484554Y1309041D01*
X1484408Y1308932D01*
X1484260Y1308828D01*
X1484110Y1308726D01*
X1483957Y1308629D01*
X1483802Y1308535D01*
X1483645Y1308445D01*
X1483485Y1308359D01*
X1483324Y1308277D01*
X1483161Y1308198D01*
X1482995Y1308124D01*
X1482828Y1308054D01*
X1482660Y1307987D01*
X1482489Y1307925D01*
X1482318Y1307867D01*
X1482145Y1307813D01*
X1481970Y1307763D01*
X1481795Y1307718D01*
X1481618Y1307677D01*
X1481441Y1307640D01*
X1481263Y1307607D01*
X1481084Y1307579D01*
X1480904Y1307555D01*
X1480724Y1307535D01*
X1480543Y1307520D01*
X1480362Y1307509D01*
X1480181Y1307502D01*
X1480000Y1307500D01*
X1479819Y1307502D01*
X1479638Y1307509D01*
X1479457Y1307520D01*
X1479276Y1307535D01*
X1479096Y1307555D01*
X1478916Y1307579D01*
X1478737Y1307607D01*
X1478559Y1307640D01*
X1478382Y1307677D01*
X1478205Y1307718D01*
X1478030Y1307763D01*
X1477855Y1307813D01*
X1477682Y1307867D01*
X1477511Y1307925D01*
X1477340Y1307987D01*
X1477172Y1308054D01*
X1477005Y1308124D01*
X1476839Y1308198D01*
X1476676Y1308277D01*
X1476515Y1308359D01*
X1476355Y1308445D01*
X1476198Y1308535D01*
X1476043Y1308629D01*
X1475890Y1308726D01*
X1475740Y1308828D01*
X1475592Y1308932D01*
X1475446Y1309041D01*
X1475304Y1309152D01*
X1475164Y1309268D01*
X1475027Y1309386D01*
X1474892Y1309508D01*
X1474761Y1309633D01*
X1474633Y1309761D01*
X1474508Y1309892D01*
X1474386Y1310027D01*
X1474268Y1310164D01*
X1474152Y1310304D01*
X1474041Y1310446D01*
X1473932Y1310592D01*
X1473828Y1310740D01*
X1473726Y1310890D01*
X1473629Y1311043D01*
X1473535Y1311198D01*
X1473445Y1311355D01*
X1473359Y1311515D01*
X1473277Y1311676D01*
X1473198Y1311839D01*
X1473124Y1312005D01*
X1473054Y1312172D01*
X1472987Y1312340D01*
X1472925Y1312511D01*
X1472867Y1312682D01*
X1472813Y1312855D01*
X1472763Y1313030D01*
X1472718Y1313205D01*
X1472677Y1313382D01*
X1472640Y1313559D01*
X1472607Y1313737D01*
X1472579Y1313916D01*
X1472555Y1314096D01*
X1472535Y1314276D01*
X1472520Y1314457D01*
X1472509Y1314638D01*
X1472502Y1314819D01*
X1472500Y1315000D01*
D17*
X99500Y1047500D03*
X99500Y1042500D03*
X99500Y1037500D03*
X99500Y1032500D03*
X99500Y1027500D03*
X99500Y1022500D03*
X99500Y1017500D03*
X99500Y1012500D03*
X99500Y1007500D03*
X99500Y1002500D03*
X99500Y1052500D03*
X99500Y1057500D03*
X99500Y1062500D03*
X99500Y1067500D03*
X99500Y1072500D03*
X99500Y1077500D03*
X99500Y1082500D03*
X99500Y1087500D03*
X99500Y1092500D03*
D18*
X90000Y1122500D03*
X90000Y977500D03*
X41000Y971500D03*
X41000Y1128500D03*
D17*
X99500Y797500D03*
X99500Y792500D03*
X99500Y787500D03*
X99500Y782500D03*
X99500Y777500D03*
X99500Y772500D03*
X99500Y767500D03*
X99500Y762500D03*
X99500Y757500D03*
X99500Y752500D03*
X99500Y802500D03*
X99500Y807500D03*
X99500Y812500D03*
X99500Y817500D03*
X99500Y822500D03*
X99500Y827500D03*
X99500Y832500D03*
X99500Y837500D03*
X99500Y842500D03*
D18*
X90000Y872500D03*
X90000Y727500D03*
X41000Y721500D03*
X41000Y878500D03*
D17*
X99500Y547500D03*
X99500Y542500D03*
X99500Y537500D03*
X99500Y532500D03*
X99500Y527500D03*
X99500Y522500D03*
X99500Y517500D03*
X99500Y512500D03*
X99500Y507500D03*
X99500Y502500D03*
X99500Y552500D03*
X99500Y557500D03*
X99500Y562500D03*
X99500Y567500D03*
X99500Y572500D03*
X99500Y577500D03*
X99500Y582500D03*
X99500Y587500D03*
X99500Y592500D03*
D18*
X90000Y622500D03*
X90000Y477500D03*
X41000Y471500D03*
X41000Y628500D03*
D17*
X94500Y97500D03*
X94500Y92500D03*
X94500Y87500D03*
X94500Y82500D03*
X94500Y77500D03*
X94500Y72500D03*
X94500Y67500D03*
X94500Y62500D03*
X94500Y57500D03*
X94500Y52500D03*
X94500Y102500D03*
X94500Y107500D03*
X94500Y112500D03*
X94500Y117500D03*
X94500Y122500D03*
X94500Y127500D03*
X94500Y132500D03*
X94500Y137500D03*
X94500Y142500D03*
D18*
X85000Y172500D03*
X85000Y27500D03*
X36000Y21500D03*
X36000Y178500D03*
D19*
X1106350Y1411000D03*
X1106350Y1359000D03*
X1119050Y1411000D03*
X1093650Y1411000D03*
X1080950Y1411000D03*
X1119050Y1359000D03*
X1093650Y1359000D03*
X1080950Y1359000D03*
D20*
X328800Y1395000D03*
D21*
X257000Y1417800D03*
X257000Y1372200D03*
D22*
X1380000Y1450500D03*
X1380000Y1469500D03*
D23*
X1359196Y1470000D02*
X1347004Y1470000D01*
X1282996Y1470000D02*
X1270804Y1470000D01*
D12*
X1342500Y1417000D03*
X1342500Y1333000D03*
X1365000Y1333000D03*
X1387500Y1333000D03*
X1387500Y1417000D03*
X1265000Y1417000D03*
X1265000Y1333000D03*
X1287500Y1333000D03*
X1310000Y1333000D03*
X1310000Y1417000D03*
X1187500Y1417000D03*
X1187500Y1333000D03*
X1210000Y1333000D03*
X1232500Y1333000D03*
X1232500Y1417000D03*
D24*
X1440000Y1440000D03*
X455900Y64500D03*
X1020000Y1440000D03*
X63100Y394500D03*
X65000Y1235000D03*
X445000Y1430000D03*
D25*
X203683Y397500D03*
X203683Y392500D03*
X203683Y387500D03*
X203683Y382500D03*
X203683Y377500D03*
X203683Y372500D03*
X203683Y367500D03*
X203683Y362500D03*
X203683Y357500D03*
X203683Y352500D03*
X203683Y347500D03*
X203683Y342500D03*
X203683Y337500D03*
X203683Y332500D03*
X203683Y327500D03*
X203683Y322500D03*
D26*
X222500Y303683D03*
X227500Y303683D03*
X232500Y303683D03*
X237500Y303683D03*
X242500Y303683D03*
X247500Y303683D03*
X252500Y303683D03*
X257500Y303683D03*
X262500Y303683D03*
X267500Y303683D03*
X272500Y303683D03*
X277500Y303683D03*
X282500Y303683D03*
X287500Y303683D03*
X292500Y303683D03*
X297500Y303683D03*
D25*
X316317Y322500D03*
X316317Y327500D03*
X316317Y332500D03*
X316317Y337500D03*
X316317Y342500D03*
X316317Y347500D03*
X316317Y352500D03*
X316317Y357500D03*
X316317Y362500D03*
X316317Y367500D03*
X316317Y372500D03*
X316317Y377500D03*
X316317Y382500D03*
X316317Y387500D03*
X316317Y392500D03*
X316317Y397500D03*
D26*
X297500Y416317D03*
X292500Y416317D03*
X287500Y416317D03*
X282500Y416317D03*
X277500Y416317D03*
X272500Y416317D03*
X267500Y416317D03*
X262500Y416317D03*
X257500Y416317D03*
X252500Y416317D03*
X247500Y416317D03*
X242500Y416317D03*
X237500Y416317D03*
X232500Y416317D03*
X227500Y416317D03*
X222500Y416317D03*
M02*
