G04 EAGLE Gerber RS-274X export*
G75*
%MOMM*%
%FSLAX34Y34*%
%LPD*%
%INSoldermask Bottom*%
%IPPOS*%
%AMOC8*
5,1,8,0,0,1.08239X$1,22.5*%
G01*
%ADD10R,0.600000X0.700000*%
%ADD11R,0.700000X0.600000*%
%ADD12C,2.000000*%
%ADD13C,1.950000*%
%ADD14R,1.500000X1.300000*%
%ADD15C,1.219200*%
%ADD16C,6.451600*%


D10*
X235000Y305000D03*
X245000Y305000D03*
D11*
X205000Y370000D03*
X205000Y360000D03*
D10*
X265000Y305000D03*
X275000Y305000D03*
D11*
X320000Y360000D03*
X320000Y370000D03*
D10*
X240000Y415000D03*
X250000Y415000D03*
X310000Y410000D03*
X320000Y410000D03*
D12*
X141000Y1385000D02*
X141000Y1405000D01*
X80000Y1405000D02*
X80000Y1385000D01*
X100000Y1347000D02*
X120000Y1347000D01*
D13*
X90000Y1122500D03*
X90000Y977500D03*
X41000Y971500D03*
X41000Y1128500D03*
X90000Y872500D03*
X90000Y727500D03*
X41000Y721500D03*
X41000Y878500D03*
X90000Y622500D03*
X90000Y477500D03*
X41000Y471500D03*
X41000Y628500D03*
X85000Y172500D03*
X85000Y27500D03*
X36000Y21500D03*
X36000Y178500D03*
D11*
X205000Y330000D03*
X205000Y320000D03*
D14*
X1385000Y1335500D03*
X1385000Y1354500D03*
D11*
X190000Y390000D03*
X190000Y380000D03*
X300000Y355000D03*
X300000Y365000D03*
D10*
X285000Y415000D03*
X295000Y415000D03*
X275000Y330000D03*
X265000Y330000D03*
X275000Y290000D03*
X265000Y290000D03*
D14*
X1230000Y1340500D03*
X1230000Y1359500D03*
X1310000Y1335500D03*
X1310000Y1354500D03*
D15*
X1347004Y1470000D02*
X1359196Y1470000D01*
X1282996Y1470000D02*
X1270804Y1470000D01*
D16*
X1440000Y1440000D03*
X455900Y64500D03*
X1020000Y1440000D03*
X63100Y394500D03*
X65000Y1235000D03*
X445000Y1430000D03*
M02*
