G04 EAGLE Gerber RS-274X export*
G75*
%MOMM*%
%FSLAX34Y34*%
%LPD*%
%INSolderpaste Top*%
%IPPOS*%
%AMOC8*
5,1,8,0,0,1.08239X$1,22.5*%
G01*
%ADD10R,0.700000X0.900000*%
%ADD11R,0.900000X0.700000*%
%ADD12R,1.400000X1.600000*%
%ADD13R,1.600000X1.400000*%
%ADD14R,1.320800X0.177800*%
%ADD15R,0.600000X2.200000*%
%ADD16R,6.200000X5.800000*%
%ADD17R,3.000000X1.600000*%
%ADD18R,1.500000X1.300000*%
%ADD19R,1.651900X0.280000*%
%ADD20R,0.280000X1.651900*%


D10*
X291500Y1450000D03*
X278500Y1450000D03*
D11*
X230000Y1388500D03*
X230000Y1401500D03*
D12*
X1455000Y1380000D03*
X1455000Y1350000D03*
D11*
X1475000Y1371500D03*
X1475000Y1358500D03*
D13*
X300000Y1470000D03*
X270000Y1470000D03*
D12*
X215000Y1380000D03*
X215000Y1410000D03*
D14*
X100922Y1092545D03*
X100922Y1087465D03*
X100922Y1082385D03*
X100922Y1077559D03*
X100922Y1072479D03*
X100668Y1067399D03*
X100922Y1062573D03*
X101176Y1057493D03*
X100668Y1052413D03*
X100668Y1047333D03*
X100922Y1042507D03*
X100668Y1037427D03*
X100668Y1032601D03*
X100922Y1027521D03*
X100922Y1022441D03*
X100922Y1017615D03*
X100922Y1012535D03*
X100922Y1007455D03*
X100668Y1002375D03*
X100922Y842545D03*
X100922Y837465D03*
X100922Y832385D03*
X100922Y827559D03*
X100922Y822479D03*
X100668Y817399D03*
X100922Y812573D03*
X101176Y807493D03*
X100668Y802413D03*
X100668Y797333D03*
X100922Y792507D03*
X100668Y787427D03*
X100668Y782601D03*
X100922Y777521D03*
X100922Y772441D03*
X100922Y767615D03*
X100922Y762535D03*
X100922Y757455D03*
X100668Y752375D03*
X100922Y592545D03*
X100922Y587465D03*
X100922Y582385D03*
X100922Y577559D03*
X100922Y572479D03*
X100668Y567399D03*
X100922Y562573D03*
X101176Y557493D03*
X100668Y552413D03*
X100668Y547333D03*
X100922Y542507D03*
X100668Y537427D03*
X100668Y532601D03*
X100922Y527521D03*
X100922Y522441D03*
X100922Y517615D03*
X100922Y512535D03*
X100922Y507455D03*
X100668Y502375D03*
X95922Y142545D03*
X95922Y137465D03*
X95922Y132385D03*
X95922Y127559D03*
X95922Y122479D03*
X95668Y117399D03*
X95922Y112573D03*
X96176Y107493D03*
X95668Y102413D03*
X95668Y97333D03*
X95922Y92507D03*
X95668Y87427D03*
X95668Y82601D03*
X95922Y77521D03*
X95922Y72441D03*
X95922Y67615D03*
X95922Y62535D03*
X95922Y57455D03*
X95668Y52375D03*
D15*
X1106350Y1411000D03*
X1106350Y1359000D03*
X1119050Y1411000D03*
X1093650Y1411000D03*
X1080950Y1411000D03*
X1119050Y1359000D03*
X1093650Y1359000D03*
X1080950Y1359000D03*
D16*
X328800Y1395000D03*
D17*
X257000Y1417800D03*
X257000Y1372200D03*
D18*
X1380000Y1450500D03*
X1380000Y1469500D03*
D12*
X1342500Y1417000D03*
X1342500Y1333000D03*
X1365000Y1333000D03*
X1387500Y1333000D03*
X1387500Y1417000D03*
X1265000Y1417000D03*
X1265000Y1333000D03*
X1287500Y1333000D03*
X1310000Y1333000D03*
X1310000Y1417000D03*
X1187500Y1417000D03*
X1187500Y1333000D03*
X1210000Y1333000D03*
X1232500Y1333000D03*
X1232500Y1417000D03*
D19*
X203683Y397500D03*
X203683Y392500D03*
X203683Y387500D03*
X203683Y382500D03*
X203683Y377500D03*
X203683Y372500D03*
X203683Y367500D03*
X203683Y362500D03*
X203683Y357500D03*
X203683Y352500D03*
X203683Y347500D03*
X203683Y342500D03*
X203683Y337500D03*
X203683Y332500D03*
X203683Y327500D03*
X203683Y322500D03*
D20*
X222500Y303683D03*
X227500Y303683D03*
X232500Y303683D03*
X237500Y303683D03*
X242500Y303683D03*
X247500Y303683D03*
X252500Y303683D03*
X257500Y303683D03*
X262500Y303683D03*
X267500Y303683D03*
X272500Y303683D03*
X277500Y303683D03*
X282500Y303683D03*
X287500Y303683D03*
X292500Y303683D03*
X297500Y303683D03*
D19*
X316317Y322500D03*
X316317Y327500D03*
X316317Y332500D03*
X316317Y337500D03*
X316317Y342500D03*
X316317Y347500D03*
X316317Y352500D03*
X316317Y357500D03*
X316317Y362500D03*
X316317Y367500D03*
X316317Y372500D03*
X316317Y377500D03*
X316317Y382500D03*
X316317Y387500D03*
X316317Y392500D03*
X316317Y397500D03*
D20*
X297500Y416317D03*
X292500Y416317D03*
X287500Y416317D03*
X282500Y416317D03*
X277500Y416317D03*
X272500Y416317D03*
X267500Y416317D03*
X262500Y416317D03*
X257500Y416317D03*
X252500Y416317D03*
X247500Y416317D03*
X242500Y416317D03*
X237500Y416317D03*
X232500Y416317D03*
X227500Y416317D03*
X222500Y416317D03*
M02*
